<svg width="403" height="93" viewBox="0 0 403 93" fill="none" xmlns="http://www.w3.org/2000/svg">
<path d="M0 42.9928C0 19.2485 19.2485 0 42.9928 0H92.4381V49.4454C92.4381 73.1896 73.1896 92.4381 49.4453 92.4381H42.9928C19.2485 92.4381 0 73.1896 0 49.4453V42.9928Z" fill="#01C9AF"/>
<g opacity="0.7" filter="url(#filter0_b_373_421)">
<path d="M46.6838 43.4304L23.5576 57.0906L46.1836 70.0197L68.2708 56.9367L46.6838 43.4304Z" fill="white"/>
<path d="M46.6838 43.4304L23.5576 57.0906L46.1836 70.0197L68.2708 56.9367L46.6838 43.4304Z" stroke="#01C9AF" stroke-width="0.076959"/>
</g>
<g opacity="0.8" filter="url(#filter1_b_373_421)">
<path d="M47.0994 35.3629L22.3398 49.9879L46.5638 63.8302L70.211 49.8231L47.0994 35.3629Z" fill="white"/>
<path d="M47.0994 35.3629L22.3398 49.9879L46.5638 63.8302L70.211 49.8231L47.0994 35.3629Z" stroke="#01C9AF" stroke-width="0.0823945"/>
</g>
<path d="M47.3681 22.3047L16.0957 40.7768L46.6916 58.2601L76.5591 40.5686L47.3681 22.3047Z" fill="white" stroke="#01C9AF" stroke-width="0.104068"/>
<path d="M128.731 65.4381L112.881 30.1881H121.181L132.081 55.4881L142.981 30.1881H150.931L135.081 65.4381H128.731ZM152.66 36.1381V29.0881H160.81V36.1381H152.66ZM152.96 65.4381V40.8881H160.51V65.4381H152.96ZM166.338 65.4381V40.8881H173.738V45.1381C174.905 42.2714 177.405 40.6881 181.238 40.3881L183.438 40.2381L183.888 46.5881L179.638 47.0381C175.905 47.4048 174.038 49.3048 174.038 52.7381V65.4381H166.338ZM200.459 65.9881C193.559 65.9881 190.109 62.6381 190.109 55.9381V46.5381H185.459V40.8881H190.109V33.6881H197.659V40.8881H204.909V46.5381H197.659V55.6381C197.659 57.0381 197.975 58.0881 198.609 58.7881C199.275 59.4881 200.325 59.8381 201.759 59.8381C202.192 59.8381 202.642 59.7881 203.109 59.6881C203.609 59.5881 204.142 59.4548 204.709 59.2881L205.809 64.7881C205.109 65.1548 204.275 65.4381 203.309 65.6381C202.342 65.8714 201.392 65.9881 200.459 65.9881ZM217.674 65.9881C214.54 65.9881 212.224 65.1214 210.724 63.3881C209.257 61.6548 208.524 59.0548 208.524 55.5881V40.8881H216.074V55.7881C216.074 58.6881 217.324 60.1381 219.824 60.1381C221.257 60.1381 222.424 59.6381 223.324 58.6381C224.257 57.6048 224.724 56.2548 224.724 54.5881V40.8881H232.274V65.4381H224.924V62.0881C223.29 64.6881 220.874 65.9881 217.674 65.9881ZM246.416 65.9881C244.582 65.9881 242.966 65.6381 241.566 64.9381C240.166 64.2381 239.049 63.2881 238.216 62.0881C237.416 60.8881 237.016 59.5381 237.016 58.0381C237.016 56.2714 237.482 54.8548 238.416 53.7881C239.349 52.7214 240.866 51.9714 242.966 51.5381C245.066 51.0714 247.849 50.8381 251.316 50.8381H253.116V49.9881C253.116 48.5214 252.782 47.4881 252.116 46.8881C251.449 46.2548 250.316 45.9381 248.716 45.9381C247.382 45.9381 245.966 46.1548 244.466 46.5881C242.999 46.9881 241.532 47.6048 240.066 48.4381L238.016 43.3881C238.882 42.8214 239.932 42.3048 241.166 41.8381C242.432 41.3714 243.749 41.0214 245.116 40.7881C246.482 40.5214 247.782 40.3881 249.016 40.3881C252.816 40.3881 255.649 41.2548 257.516 42.9881C259.382 44.6881 260.316 47.3381 260.316 50.9381V65.4381H253.266V61.7381C252.766 63.0381 251.916 64.0714 250.716 64.8381C249.549 65.6048 248.116 65.9881 246.416 65.9881ZM248.116 60.9381C249.516 60.9381 250.699 60.4548 251.666 59.4881C252.632 58.5214 253.116 57.2714 253.116 55.7381V54.7381H251.366C248.799 54.7381 246.982 54.9714 245.916 55.4381C244.849 55.8714 244.316 56.6381 244.316 57.7381C244.316 58.6714 244.632 59.4381 245.266 60.0381C245.932 60.6381 246.882 60.9381 248.116 60.9381ZM275.098 65.9881C271.931 65.9881 269.615 65.1714 268.148 63.5381C266.681 61.8714 265.948 59.4048 265.948 56.1381V30.1881H273.498V55.8381C273.498 58.5048 274.681 59.8381 277.048 59.8381C277.415 59.8381 277.765 59.8214 278.098 59.7881C278.465 59.7548 278.815 59.6881 279.148 59.5881L279.048 65.4381C277.781 65.8048 276.465 65.9881 275.098 65.9881ZM295.848 65.9881C293.082 65.9881 290.465 65.6381 287.998 64.9381C285.565 64.2381 283.532 63.2881 281.898 62.0881L284.148 55.9881C285.715 57.0881 287.498 57.9548 289.498 58.5881C291.532 59.2214 293.648 59.5381 295.848 59.5381C298.248 59.5381 299.965 59.1714 300.998 58.4381C302.065 57.6714 302.598 56.7214 302.598 55.5881C302.598 54.6214 302.232 53.8548 301.498 53.2881C300.765 52.7214 299.482 52.2381 297.648 51.8381L291.998 50.6381C285.698 49.3048 282.548 46.0381 282.548 40.8381C282.548 38.6048 283.148 36.6548 284.348 34.9881C285.548 33.2881 287.215 31.9714 289.348 31.0381C291.515 30.1048 294.015 29.6381 296.848 29.6381C299.282 29.6381 301.565 29.9881 303.698 30.6881C305.832 31.3881 307.598 32.3714 308.998 33.6381L306.748 39.3381C304.015 37.1714 300.698 36.0881 296.798 36.0881C294.698 36.0881 293.065 36.5048 291.898 37.3381C290.765 38.1381 290.198 39.1881 290.198 40.4881C290.198 41.4548 290.548 42.2381 291.248 42.8381C291.948 43.4381 293.165 43.9214 294.898 44.2881L300.548 45.4881C307.015 46.8881 310.248 50.0548 310.248 54.9881C310.248 57.1881 309.648 59.1214 308.448 60.7881C307.282 62.4214 305.615 63.7048 303.448 64.6381C301.315 65.5381 298.782 65.9881 295.848 65.9881ZM315.279 65.4381V30.1881H323.029V65.4381H315.279ZM330.174 65.4381V30.1881H336.624L348.524 51.8381L360.374 30.1881H366.724V65.4381H359.674V43.9381L350.574 60.1381H346.224L337.174 44.0881V65.4381H330.174ZM386.473 65.9881C383.707 65.9881 381.09 65.6381 378.623 64.9381C376.19 64.2381 374.157 63.2881 372.523 62.0881L374.773 55.9881C376.34 57.0881 378.123 57.9548 380.123 58.5881C382.157 59.2214 384.273 59.5381 386.473 59.5381C388.873 59.5381 390.59 59.1714 391.623 58.4381C392.69 57.6714 393.223 56.7214 393.223 55.5881C393.223 54.6214 392.857 53.8548 392.123 53.2881C391.39 52.7214 390.107 52.2381 388.273 51.8381L382.623 50.6381C376.323 49.3048 373.173 46.0381 373.173 40.8381C373.173 38.6048 373.773 36.6548 374.973 34.9881C376.173 33.2881 377.84 31.9714 379.973 31.0381C382.14 30.1048 384.64 29.6381 387.473 29.6381C389.907 29.6381 392.19 29.9881 394.323 30.6881C396.457 31.3881 398.223 32.3714 399.623 33.6381L397.373 39.3381C394.64 37.1714 391.323 36.0881 387.423 36.0881C385.323 36.0881 383.69 36.5048 382.523 37.3381C381.39 38.1381 380.823 39.1881 380.823 40.4881C380.823 41.4548 381.173 42.2381 381.873 42.8381C382.573 43.4381 383.79 43.9214 385.523 44.2881L391.173 45.4881C397.64 46.8881 400.873 50.0548 400.873 54.9881C400.873 57.1881 400.273 59.1214 399.073 60.7881C397.907 62.4214 396.24 63.7048 394.073 64.6381C391.94 65.5381 389.407 65.9881 386.473 65.9881Z" fill="#00C8B1"/>
<defs>
<filter id="filter0_b_373_421" x="21.3784" y="41.2823" width="49.0694" height="30.885" filterUnits="userSpaceOnUse" color-interpolation-filters="sRGB">
<feFlood flood-opacity="0" result="BackgroundImageFix"/>
<feGaussianBlur in="BackgroundImageFix" stdDeviation="1.05154"/>
<feComposite in2="SourceAlpha" operator="in" result="effect1_backgroundBlur_373_421"/>
<feBlend mode="normal" in="SourceGraphic" in2="effect1_backgroundBlur_373_421" result="shape"/>
</filter>
<filter id="filter1_b_373_421" x="20.9049" y="33.9618" width="50.738" height="31.2689" filterUnits="userSpaceOnUse" color-interpolation-filters="sRGB">
<feFlood flood-opacity="0" result="BackgroundImageFix"/>
<feGaussianBlur in="BackgroundImageFix" stdDeviation="0.676441"/>
<feComposite in2="SourceAlpha" operator="in" result="effect1_backgroundBlur_373_421"/>
<feBlend mode="normal" in="SourceGraphic" in2="effect1_backgroundBlur_373_421" result="shape"/>
</filter>
</defs>
</svg>
