<svg width="70" height="71" viewBox="0 0 70 71" fill="none" xmlns="http://www.w3.org/2000/svg">
<path d="M35 70.5C54.33 70.5 70 54.83 70 35.5C70 16.17 54.33 0.5 35 0.5C15.67 0.5 0 16.17 0 35.5C0 54.83 15.67 70.5 35 70.5Z" fill="#E0EDFF"/>
<path d="M60 40.5833C60 41.8333 57.5 42.6667 54.5833 43.0833C52.7083 39.5417 48.9583 36.8333 44.5833 34.9583C45 34.3333 45.4167 33.9167 45.8333 33.2917H47.5C53.9583 33.0833 60 37.0417 60 40.5833ZM24.1667 33.0833H22.5C16.0417 33.0833 10 37.0417 10 40.5833C10 41.8333 12.5 42.6667 15.4167 43.0833C17.2917 39.5417 21.0417 36.8333 25.4167 34.9583L24.1667 33.0833ZM35 35.1667C39.5833 35.1667 43.3333 31.4167 43.3333 26.8333C43.3333 22.25 39.5833 18.5 35 18.5C30.4167 18.5 26.6667 22.25 26.6667 26.8333C26.6667 31.4167 30.4167 35.1667 35 35.1667ZM35 37.25C26.4583 37.25 18.3333 42.6667 18.3333 47.6667C18.3333 51.8333 35 51.8333 35 51.8333C35 51.8333 51.6667 51.8333 51.6667 47.6667C51.6667 42.6667 43.5417 37.25 35 37.25ZM46.875 31H47.5C51.0417 31 53.75 28.2917 53.75 24.75C53.75 21.2083 51.0417 18.5 47.5 18.5C46.4583 18.5 45.625 18.7083 44.7917 19.125C46.4583 21.2083 47.5 23.9167 47.5 26.8333C47.5 28.2917 47.2917 29.75 46.875 31ZM22.5 31H23.125C22.7083 29.75 22.5 28.2917 22.5 26.8333C22.5 23.9167 23.5417 21.2083 25.2083 19.125C24.375 18.7083 23.5417 18.5 22.5 18.5C18.9583 18.5 16.25 21.2083 16.25 24.75C16.25 28.2917 18.9583 31 22.5 31Z" fill="#0D6EFD"/>
</svg>
