<svg width="1419" height="204" viewBox="0 0 1419 204" fill="none" xmlns="http://www.w3.org/2000/svg">
<g clip-path="url(#clip0_87_1844)">
<g opacity="0.6">
<path d="M242.866 152.387C242.866 157.249 238.958 161.191 234.138 161.191C229.317 161.191 225.41 157.249 225.41 152.387" stroke="white" stroke-opacity="0.1" stroke-width="7.3024" stroke-linecap="round" stroke-linejoin="round"/>
<path d="M242.865 24.2757C236.829 24.2757 231.936 19.3487 231.936 13.2709C231.936 7.19313 236.829 2.26611 242.865 2.26611" stroke="white" stroke-opacity="0.1" stroke-width="7.3024" stroke-linecap="round" stroke-linejoin="round"/>
<path d="M85.3069 11.2079C85.3069 16.2456 89.3844 20.3296 94.4143 20.3296C99.4442 20.3296 103.522 16.2456 103.522 11.2079V0.900391" stroke="white" stroke-opacity="0.1" stroke-width="7.3024" stroke-linecap="round" stroke-linejoin="round"/>
<path d="M20.8319 215.076C9.49489 215.076 0.304443 205.937 0.304443 194.66C0.304443 183.384 9.49489 174.245 20.8319 174.245H39.6182" stroke="white" stroke-opacity="0.1" stroke-width="7.3024" stroke-linecap="round" stroke-linejoin="round"/>
<path d="M19.578 201.112C15.8071 201.112 12.7504 198.156 12.7504 194.509C12.7504 190.862 15.8071 187.906 19.578 187.906H26.8669" stroke="white" stroke-opacity="0.1" stroke-width="7.3024" stroke-linecap="round" stroke-linejoin="round"/>
<path d="M40.3763 0.900462L10.5687 0.900391C4.73179 0.900391 0 5.5216 0 11.2221" stroke="white" stroke-opacity="0.1" stroke-width="7.3024" stroke-linecap="round" stroke-linejoin="round"/>
<path d="M169.702 1.20419L207.914 1.2041C215.396 1.2041 221.462 7.25245 221.462 14.7134" stroke="white" stroke-opacity="0.1" stroke-width="7.3024" stroke-linecap="round" stroke-linejoin="round"/>
<path d="M242.864 70.8753V45.3261C242.864 40.3229 238.786 36.2671 233.757 36.2671C228.728 36.2671 224.649 40.3229 224.649 45.3261V49.2807" stroke="white" stroke-opacity="0.1" stroke-width="7.3024" stroke-linecap="round" stroke-linejoin="round"/>
<path d="M102.154 150.959C104.17 150.959 105.805 149.324 105.805 147.308C105.805 145.291 104.17 143.656 102.154 143.656V150.959ZM86.1583 175.689C88.1748 175.689 89.8095 174.054 89.8095 172.037C89.8095 170.021 88.1748 168.386 86.1583 168.386V175.689ZM55.682 218.727C57.6985 218.727 59.3332 217.093 59.3332 215.076C59.3332 213.06 57.6985 211.425 55.682 211.425V218.727ZM89.8908 184.877C89.8908 182.861 88.2561 181.226 86.2396 181.226C84.2231 181.226 82.5884 182.861 82.5884 184.877H89.8908ZM62.8122 90.001C62.8122 87.9845 61.1775 86.3498 59.161 86.3498C57.1445 86.3498 55.5098 87.9845 55.5098 90.001H62.8122ZM98.5027 134.229C98.5027 136.246 100.137 137.88 102.154 137.88C104.17 137.88 105.805 136.246 105.805 134.229H98.5027ZM102.154 143.656H74.9168V150.959H102.154V143.656ZM74.9168 143.656C66.0534 143.656 58.8349 150.809 58.8349 159.672H66.1373C66.1373 154.878 70.0498 150.959 74.9168 150.959V143.656ZM58.8349 159.672C58.8349 168.536 66.0534 175.689 74.9168 175.689V168.386C70.0498 168.386 66.1373 164.467 66.1373 159.672H58.8349ZM74.9168 175.689H86.1583V168.386H74.9168V175.689ZM55.682 211.425H54.0583V218.727H55.682V211.425ZM54.0583 211.425C51.2884 211.425 49.0357 209.175 49.0357 206.393H41.7333C41.7333 213.2 47.2476 218.727 54.0583 218.727V211.425ZM49.0357 206.393C49.0357 203.609 51.2889 201.359 54.0583 201.359V194.057C47.2471 194.057 41.7333 199.585 41.7333 206.393H49.0357ZM54.0583 201.359H73.4237V194.057H54.0583V201.359ZM73.4237 201.359C82.5222 201.359 89.8908 193.977 89.8908 184.877H82.5884C82.5884 189.951 78.4813 194.057 73.4237 194.057V201.359ZM55.5098 90.001V99.7589H62.8122V90.001H55.5098ZM55.5098 99.7589C55.5098 113.657 66.7649 124.931 80.6574 124.931V117.629C70.8057 117.629 62.8122 109.632 62.8122 99.7589H55.5098ZM80.6574 124.931H89.2194V117.629H80.6574V124.931ZM89.2194 124.931C94.3425 124.931 98.5027 129.09 98.5027 134.229H105.805C105.805 125.065 98.3833 117.629 89.2194 117.629V124.931Z" fill="white" fill-opacity="0.1"/>
<path fill-rule="evenodd" clip-rule="evenodd" d="M89.2525 66.4738C92.6058 66.4738 95.3241 63.7554 95.3241 60.4022C95.3241 57.0489 92.6058 54.3306 89.2525 54.3306C85.8993 54.3306 83.1809 57.0489 83.1809 60.4022C83.1809 63.7554 85.8993 66.4738 89.2525 66.4738Z" stroke="white" stroke-opacity="0.1" stroke-width="7.3024" stroke-linecap="round" stroke-linejoin="round"/>
<path fill-rule="evenodd" clip-rule="evenodd" d="M105.949 190.942C110.811 190.942 114.753 187.034 114.753 182.214C114.753 177.393 110.811 173.486 105.949 173.486C101.087 173.486 97.1453 177.393 97.1453 182.214C97.1453 187.034 101.087 190.942 105.949 190.942Z" stroke="white" stroke-opacity="0.1" stroke-width="7.3024" stroke-linecap="round" stroke-linejoin="round"/>
<path fill-rule="evenodd" clip-rule="evenodd" d="M27.9299 49.3214C33.2112 49.3214 37.4927 45.04 37.4927 39.7586C37.4927 34.4772 33.2112 30.1958 27.9299 30.1958C22.6485 30.1958 18.3671 34.4772 18.3671 39.7586C18.3671 45.04 22.6485 49.3214 27.9299 49.3214Z" stroke="white" stroke-opacity="0.1" stroke-width="7.3024" stroke-linecap="round" stroke-linejoin="round"/>
<path d="M28.0061 60.5537C39.7844 60.5537 49.3327 51.1415 49.3327 39.5308C49.3327 27.9201 39.7844 18.5078 28.0061 18.5078C16.2279 18.5078 6.67957 27.9201 6.67957 39.5308" stroke="white" stroke-opacity="0.1" stroke-width="7.3024" stroke-linecap="round" stroke-linejoin="round"/>
<path d="M199.029 186.609C195.789 198.724 202.798 211.131 214.684 214.323C226.57 217.513 238.834 210.278 242.074 198.163C245.314 186.048 238.304 173.641 226.419 170.45" stroke="white" stroke-opacity="0.1" stroke-width="7.3024" stroke-linecap="round" stroke-linejoin="round"/>
<path d="M73.137 188.522C75.1535 188.522 76.7882 186.887 76.7882 184.87C76.7882 182.854 75.1535 181.219 73.137 181.219V188.522ZM56.4167 147.704C57.404 145.946 56.779 143.72 55.0208 142.733C53.2625 141.745 51.0368 142.37 50.0495 144.129L56.4167 147.704ZM89.0999 137.216C91.1164 137.216 92.7511 135.581 92.7511 133.565C92.7511 131.548 91.1164 129.914 89.0999 129.914V137.216ZM57.3112 135.435C55.7204 136.674 55.4355 138.968 56.6747 140.559C57.9139 142.15 60.2081 142.435 61.7989 141.196L57.3112 135.435ZM73.137 181.219C62.5634 181.219 53.4382 171.723 53.4382 159.295H46.1358C46.1358 175.117 57.9191 188.522 73.137 188.522V181.219ZM53.4382 159.295C53.4382 155.019 54.5366 151.052 56.4167 147.704L50.0495 144.129C47.5585 148.565 46.1358 153.762 46.1358 159.295H53.4382ZM89.0999 129.914H73.1927V137.216H89.0999V129.914ZM73.1927 129.914C67.2385 129.914 61.7483 131.978 57.3112 135.435L61.7989 141.196C65.0368 138.673 68.9669 137.216 73.1927 137.216V129.914Z" fill="white" fill-opacity="0.1"/>
<path d="M49.8639 63.5898C45.0436 63.5898 41.136 67.4974 41.136 72.3178C41.136 77.1382 45.0436 81.0457 49.8639 81.0457C54.6843 81.0457 58.5919 77.1382 58.5919 72.3178V63.5898" stroke="white" stroke-opacity="0.1" stroke-width="7.3024" stroke-linecap="round" stroke-linejoin="round"/>
<path d="M52.5199 12.5124C52.5199 18.9254 57.6848 24.1243 64.056 24.1243C70.4271 24.1243 75.592 18.9254 75.592 12.5124C75.592 6.09925 70.4271 0.900391 64.056 0.900391L52.5199 0.900391" stroke="white" stroke-opacity="0.1" stroke-width="7.3024" stroke-linecap="round" stroke-linejoin="round"/>
<path d="M10.8535 132.287C5.27867 132.287 0.759399 127.816 0.759399 122.301C0.759399 116.785 5.27867 112.314 10.8535 112.314C16.4283 112.314 20.9475 116.785 20.9475 122.301L20.9475 152.842" stroke="white" stroke-opacity="0.1" stroke-width="7.3024" stroke-linecap="round" stroke-linejoin="round"/>
<path d="M221.916 132.806C221.916 137.92 225.995 142.065 231.025 142.065C236.056 142.065 240.133 137.92 240.133 132.806C240.133 127.692 236.056 123.547 231.025 123.547H200.515" stroke="white" stroke-opacity="0.1" stroke-width="7.3024" stroke-linecap="round" stroke-linejoin="round"/>
<path d="M146.629 21.9674C141.264 21.9674 136.914 26.2559 136.914 31.5461C136.914 36.8363 141.264 41.1248 146.629 41.1248C151.994 41.1248 156.343 36.8363 156.343 31.5461V0.748535" stroke="white" stroke-opacity="0.1" stroke-width="7.3024" stroke-linecap="round" stroke-linejoin="round"/>
<path d="M138.874 206.272C138.874 201.41 142.785 197.468 147.608 197.468C152.432 197.468 156.343 201.41 156.343 206.272C156.343 211.134 152.432 215.076 147.608 215.076H133.726" stroke="white" stroke-opacity="0.1" stroke-width="7.3024" stroke-linecap="round" stroke-linejoin="round"/>
<path d="M165.375 86.1425C170.195 86.1425 174.103 90.0304 174.103 94.8266C174.103 99.6228 170.195 103.511 165.375 103.511C160.555 103.511 156.647 99.6228 156.647 94.8266V62.3755" stroke="white" stroke-opacity="0.1" stroke-width="7.3024" stroke-linecap="round" stroke-linejoin="round"/>
<path d="M9.48735 87.0727C4.66703 87.0727 0.759399 90.9222 0.759399 95.671C0.759399 100.42 4.66703 104.269 9.48735 104.269C14.3077 104.269 18.2153 100.42 18.2153 95.671L18.2153 60.5537" stroke="white" stroke-opacity="0.1" stroke-width="7.3024" stroke-linecap="round" stroke-linejoin="round"/>
<path d="M104.538 60.5534C104.538 51.9188 97.6501 44.9189 89.1537 44.9189C80.6572 44.9189 73.7694 51.9188 73.7694 60.5534C73.7694 69.1879 80.6572 76.1878 89.1537 76.1878H129.476" stroke="white" stroke-opacity="0.1" stroke-width="7.3024" stroke-linecap="round" stroke-linejoin="round"/>
<path d="M227.479 111.1C235.977 111.1 242.864 104.101 242.864 95.466C242.864 86.8314 235.977 79.8315 227.479 79.8315H187.157" stroke="white" stroke-opacity="0.1" stroke-width="7.3024" stroke-linecap="round" stroke-linejoin="round"/>
<path fill-rule="evenodd" clip-rule="evenodd" d="M168.032 27.3875C168.032 19.2977 174.519 12.7397 182.522 12.7397L197.409 12.7397C205.412 12.7397 211.899 19.2977 211.899 27.3875V27.3875C211.899 35.4773 205.412 42.0353 197.409 42.0353H182.522C174.519 42.0353 168.032 35.4773 168.032 27.3875V27.3875Z" stroke="white" stroke-opacity="0.1" stroke-width="7.3024" stroke-linecap="round" stroke-linejoin="round"/>
<path fill-rule="evenodd" clip-rule="evenodd" d="M40.4521 132.958C35.4641 132.958 31.4205 128.921 31.4205 123.941L31.4205 98.2585C31.4205 93.279 35.4641 89.2422 40.4521 89.2422V89.2422C45.44 89.2422 49.4836 93.279 49.4836 98.2585V123.941C49.4836 128.921 45.44 132.958 40.4521 132.958V132.958Z" stroke="white" stroke-opacity="0.1" stroke-width="7.3024" stroke-linecap="round" stroke-linejoin="round"/>
<path d="M125.682 121.498V107.938C125.682 104.068 128.842 100.93 132.74 100.93V100.93C136.638 100.93 139.798 104.068 139.798 107.938V135.058C139.798 138.928 136.638 142.065 132.74 142.065V142.065V142.065C128.842 142.065 125.682 138.928 125.682 135.058V131.782" stroke="white" stroke-opacity="0.1" stroke-width="7.3024" stroke-linecap="round" stroke-linejoin="round"/>
<path d="M138.736 49.0074V50.1896C138.736 56.9197 133.265 62.3755 126.517 62.3755V62.3755C119.769 62.3755 114.298 56.9197 114.298 50.1896V13.0863C114.298 6.3562 119.769 0.900391 126.517 0.900391V0.900391C133.265 0.900391 138.736 6.3562 138.736 13.0863V13.45" stroke="white" stroke-opacity="0.1" stroke-width="7.3024" stroke-linecap="round" stroke-linejoin="round"/>
<path d="M10.8914 145.253H10.1612C4.96873 145.253 0.759399 149.466 0.759399 154.664V154.664C0.759399 159.862 4.96871 164.075 10.1612 164.075H31.8857C37.0782 164.075 41.2874 159.862 41.2874 154.664V154.664C41.2874 149.466 37.0782 145.253 31.8857 145.253H31.1554" stroke="white" stroke-opacity="0.1" stroke-width="7.3024" stroke-linecap="round" stroke-linejoin="round"/>
<path d="M113.993 100.93V136.09C113.993 146.6 122.59 155.119 133.195 155.119C143.8 155.119 152.396 146.6 152.396 136.09V127.783" stroke="white" stroke-opacity="0.1" stroke-width="7.3024" stroke-linecap="round" stroke-linejoin="round"/>
<path d="M75.4384 160.432H106.981C118.985 160.432 128.717 170.218 128.717 182.289C128.717 194.36 118.985 204.147 106.981 204.147H97.4916" stroke="white" stroke-opacity="0.1" stroke-width="7.3024" stroke-linecap="round" stroke-linejoin="round"/>
<path d="M88.9498 107.154H81.4838C76.4695 107.154 72.4047 103.076 72.4047 98.0464C72.4047 93.0165 76.4695 88.939 81.4838 88.939H96.4159C101.43 88.939 105.495 93.0165 105.495 98.0464V98.8555C105.495 103.439 101.791 107.154 97.2224 107.154" stroke="white" stroke-opacity="0.1" stroke-width="7.3024" stroke-linecap="round" stroke-linejoin="round"/>
<path d="M165.376 72.3935H173.903C179.63 72.3935 184.274 68.01 184.274 62.603C184.274 57.1959 179.63 52.8125 173.903 52.8125H156.848C151.121 52.8125 146.478 57.1959 146.478 62.603" stroke="white" stroke-opacity="0.1" stroke-width="7.3024" stroke-linecap="round" stroke-linejoin="round"/>
<path d="M102.458 31.5615L82.0148 31.5615C69.078 31.5615 58.5907 42.0951 58.5907 55.089" stroke="white" stroke-opacity="0.1" stroke-width="7.3024" stroke-linecap="round" stroke-linejoin="round"/>
<path d="M220.018 183.935C224.839 183.935 228.746 187.815 228.746 192.599C228.746 197.384 224.839 201.264 220.018 201.264C215.198 201.264 211.291 197.384 211.291 192.599V136.146" stroke="white" stroke-opacity="0.1" stroke-width="7.3024" stroke-linecap="round" stroke-linejoin="round"/>
<path d="M154.674 189.576C154.674 180.69 161.785 173.486 170.557 173.486H198.542" stroke="white" stroke-opacity="0.1" stroke-width="7.3024" stroke-linecap="round" stroke-linejoin="round"/>
<path d="M113.388 88.9385H128.32C138.349 88.9385 146.478 80.7833 146.478 70.7236" stroke="white" stroke-opacity="0.1" stroke-width="7.3024" stroke-linecap="round" stroke-linejoin="round"/>
<path d="M200.516 136.449V144.609C200.516 152.845 193.837 159.521 185.597 159.521H173.953" stroke="white" stroke-opacity="0.1" stroke-width="7.3024" stroke-linecap="round" stroke-linejoin="round"/>
<path d="M228.748 95.769H215.997C206.775 95.769 199.301 103.313 199.301 112.618" stroke="white" stroke-opacity="0.1" stroke-width="7.3024" stroke-linecap="round" stroke-linejoin="round"/>
<path d="M33.0907 215.077V201.246C33.0907 193.283 39.3103 186.612 47.6626 184.871" stroke="white" stroke-opacity="0.1" stroke-width="7.3024" stroke-linecap="round" stroke-linejoin="round"/>
<path d="M6.75546 50.2324C6.75546 51.6461 6.75546 69.4411 6.75546 78.1619" stroke="white" stroke-opacity="0.1" stroke-width="7.3024" stroke-linecap="round" stroke-linejoin="round"/>
<path d="M165.224 114.439C165.224 115.607 165.224 130.307 165.224 137.512" stroke="white" stroke-opacity="0.1" stroke-width="7.3024" stroke-linecap="round" stroke-linejoin="round"/>
<path d="M141.849 177.129C141.849 177.605 141.849 183.601 141.849 186.54" stroke="white" stroke-opacity="0.1" stroke-width="7.3024" stroke-linecap="round" stroke-linejoin="round"/>
<path d="M190.81 89.8491C190.81 87.8326 189.175 86.1979 187.158 86.1979C185.142 86.1979 183.507 87.8326 183.507 89.8491H190.81ZM169.79 142.68C167.774 142.68 166.139 144.315 166.139 146.331C166.139 148.348 167.774 149.982 169.79 149.982V142.68ZM144.809 162.852C142.793 162.852 141.158 164.487 141.158 166.503C141.158 168.52 142.793 170.154 144.809 170.154V162.852ZM167.732 151.315C167.732 149.298 166.097 147.664 164.081 147.664C162.064 147.664 160.43 149.298 160.43 151.315H167.732ZM183.507 89.8491V111.454H190.81V89.8491H183.507ZM183.507 111.454C183.507 112.808 182.393 113.955 180.955 113.955V121.258C186.369 121.258 190.81 116.898 190.81 111.454H183.507ZM180.955 113.955C175.54 113.955 171.101 118.319 171.101 123.762H178.404C178.404 122.405 179.52 121.258 180.955 121.258V113.955ZM171.101 123.762V125.038H178.404V123.762H171.101ZM171.101 125.038C171.101 130.481 175.54 134.845 180.955 134.845V127.542C179.52 127.542 178.404 126.395 178.404 125.038H171.101ZM180.955 134.845C182.391 134.845 183.507 135.992 183.507 137.349H190.81C190.81 131.906 186.371 127.542 180.955 127.542V134.845ZM183.507 137.349V138.762H190.81V137.349H183.507ZM183.507 138.762C183.507 140.9 181.754 142.68 179.531 142.68V149.982C185.733 149.982 190.81 144.985 190.81 138.762H183.507ZM179.531 142.68H175.58V149.982H179.531V142.68ZM175.58 142.68H169.79V149.982H175.58V142.68ZM144.809 170.154H148.874V162.852H144.809V170.154ZM148.874 170.154C159.285 170.154 167.732 161.724 167.732 151.315H160.43C160.43 157.682 155.26 162.852 148.874 162.852V170.154Z" fill="white" fill-opacity="0.1"/>
<path d="M224.8 59.9346V63.0132C224.8 67.3555 221.269 70.8755 216.916 70.8755V70.8755C212.561 70.8755 209.03 67.3555 209.03 63.0132V60.4632C209.03 56.1539 205.526 52.6606 201.206 52.6606V52.6606C196.883 52.6606 193.38 56.1539 193.38 60.4632V63.6016" stroke="white" stroke-opacity="0.1" stroke-width="7.3024" stroke-linecap="round" stroke-linejoin="round"/>
<path fill-rule="evenodd" clip-rule="evenodd" d="M165.298 195.946C165.298 189.83 170.259 184.871 176.379 184.871V184.871C182.498 184.871 187.46 189.83 187.46 195.946V204.001C187.46 210.118 182.498 215.077 176.379 215.077V215.077C170.259 215.077 165.298 210.118 165.298 204.001V195.946Z" stroke="white" stroke-opacity="0.1" stroke-width="7.3024" stroke-linecap="round" stroke-linejoin="round"/>
<path d="M493.861 152.387C493.861 157.249 489.954 161.191 485.133 161.191C480.313 161.191 476.405 157.249 476.405 152.387" stroke="white" stroke-opacity="0.1" stroke-width="7.3024" stroke-linecap="round" stroke-linejoin="round"/>
<path d="M493.861 24.2757C487.824 24.2757 482.932 19.3487 482.932 13.2709C482.932 7.19313 487.824 2.26611 493.861 2.26611" stroke="white" stroke-opacity="0.1" stroke-width="7.3024" stroke-linecap="round" stroke-linejoin="round"/>
<path d="M336.302 11.2079C336.302 16.2456 340.38 20.3296 345.41 20.3296C350.44 20.3296 354.517 16.2456 354.517 11.2079V0.900391" stroke="white" stroke-opacity="0.1" stroke-width="7.3024" stroke-linecap="round" stroke-linejoin="round"/>
<path d="M271.827 215.076C260.49 215.076 251.3 205.937 251.3 194.66C251.3 183.384 260.49 174.245 271.827 174.245H290.614" stroke="white" stroke-opacity="0.1" stroke-width="7.3024" stroke-linecap="round" stroke-linejoin="round"/>
<path d="M270.573 201.112C266.803 201.112 263.746 198.156 263.746 194.509C263.746 190.862 266.803 187.906 270.573 187.906H277.862" stroke="white" stroke-opacity="0.1" stroke-width="7.3024" stroke-linecap="round" stroke-linejoin="round"/>
<path d="M291.372 0.900462L261.564 0.900391C255.727 0.900391 250.995 5.5216 250.995 11.2221" stroke="white" stroke-opacity="0.1" stroke-width="7.3024" stroke-linecap="round" stroke-linejoin="round"/>
<path d="M420.697 1.20419L458.909 1.2041C466.392 1.2041 472.458 7.25245 472.458 14.7134" stroke="white" stroke-opacity="0.1" stroke-width="7.3024" stroke-linecap="round" stroke-linejoin="round"/>
<path d="M493.86 70.8753V45.3261C493.86 40.3229 489.781 36.2671 484.752 36.2671C479.723 36.2671 475.645 40.3229 475.645 45.3261V49.2807" stroke="white" stroke-opacity="0.1" stroke-width="7.3024" stroke-linecap="round" stroke-linejoin="round"/>
<path d="M353.149 150.959C355.166 150.959 356.8 149.324 356.8 147.308C356.8 145.291 355.166 143.656 353.149 143.656V150.959ZM337.154 175.689C339.17 175.689 340.805 174.054 340.805 172.037C340.805 170.021 339.17 168.386 337.154 168.386V175.689ZM306.677 218.727C308.694 218.727 310.329 217.093 310.329 215.076C310.329 213.06 308.694 211.425 306.677 211.425V218.727ZM340.886 184.877C340.886 182.861 339.252 181.226 337.235 181.226C335.219 181.226 333.584 182.861 333.584 184.877H340.886ZM313.808 90.001C313.808 87.9845 312.173 86.3498 310.156 86.3498C308.14 86.3498 306.505 87.9845 306.505 90.001H313.808ZM349.498 134.229C349.498 136.246 351.133 137.88 353.149 137.88C355.166 137.88 356.801 136.246 356.801 134.229H349.498ZM353.149 143.656H325.912V150.959H353.149V143.656ZM325.912 143.656C317.049 143.656 309.83 150.809 309.83 159.672H317.133C317.133 154.878 321.045 150.959 325.912 150.959V143.656ZM309.83 159.672C309.83 168.536 317.049 175.689 325.912 175.689V168.386C321.045 168.386 317.133 164.467 317.133 159.672H309.83ZM325.912 175.689H337.154V168.386H325.912V175.689ZM306.677 211.425H305.054V218.727H306.677V211.425ZM305.054 211.425C302.284 211.425 300.031 209.175 300.031 206.393H292.729C292.729 213.2 298.243 218.727 305.054 218.727V211.425ZM300.031 206.393C300.031 203.609 302.284 201.359 305.054 201.359V194.057C298.243 194.057 292.729 199.585 292.729 206.393H300.031ZM305.054 201.359H324.419V194.057H305.054V201.359ZM324.419 201.359C333.518 201.359 340.886 193.977 340.886 184.877H333.584C333.584 189.951 329.477 194.057 324.419 194.057V201.359ZM306.505 90.001V99.7589H313.808V90.001H306.505ZM306.505 99.7589C306.505 113.657 317.76 124.931 331.653 124.931V117.629C321.801 117.629 313.808 109.632 313.808 99.7589H306.505ZM331.653 124.931H340.215V117.629H331.653V124.931ZM340.215 124.931C345.338 124.931 349.498 129.09 349.498 134.229H356.801C356.801 125.065 349.379 117.629 340.215 117.629V124.931Z" fill="white" fill-opacity="0.1"/>
<path fill-rule="evenodd" clip-rule="evenodd" d="M340.248 66.4738C343.601 66.4738 346.32 63.7554 346.32 60.4022C346.32 57.0489 343.601 54.3306 340.248 54.3306C336.895 54.3306 334.176 57.0489 334.176 60.4022C334.176 63.7554 336.895 66.4738 340.248 66.4738Z" stroke="white" stroke-opacity="0.1" stroke-width="7.3024" stroke-linecap="round" stroke-linejoin="round"/>
<path fill-rule="evenodd" clip-rule="evenodd" d="M356.945 190.942C361.807 190.942 365.748 187.034 365.748 182.214C365.748 177.393 361.807 173.486 356.945 173.486C352.082 173.486 348.141 177.393 348.141 182.214C348.141 187.034 352.082 190.942 356.945 190.942Z" stroke="white" stroke-opacity="0.1" stroke-width="7.3024" stroke-linecap="round" stroke-linejoin="round"/>
<path fill-rule="evenodd" clip-rule="evenodd" d="M278.925 49.3214C284.207 49.3214 288.488 45.04 288.488 39.7586C288.488 34.4772 284.207 30.1958 278.925 30.1958C273.644 30.1958 269.363 34.4772 269.363 39.7586C269.363 45.04 273.644 49.3214 278.925 49.3214Z" stroke="white" stroke-opacity="0.1" stroke-width="7.3024" stroke-linecap="round" stroke-linejoin="round"/>
<path d="M279.001 60.5537C290.78 60.5537 300.328 51.1415 300.328 39.5308C300.328 27.9201 290.78 18.5078 279.001 18.5078C267.223 18.5078 257.675 27.9201 257.675 39.5308" stroke="white" stroke-opacity="0.1" stroke-width="7.3024" stroke-linecap="round" stroke-linejoin="round"/>
<path d="M450.025 186.609C446.784 198.724 453.794 211.131 465.68 214.323C477.565 217.513 489.829 210.278 493.069 198.163C496.309 186.048 489.3 173.641 477.414 170.45" stroke="white" stroke-opacity="0.1" stroke-width="7.3024" stroke-linecap="round" stroke-linejoin="round"/>
<path d="M324.132 188.522C326.149 188.522 327.784 186.887 327.784 184.87C327.784 182.854 326.149 181.219 324.132 181.219V188.522ZM307.412 147.704C308.399 145.946 307.774 143.72 306.016 142.733C304.258 141.745 302.032 142.37 301.045 144.129L307.412 147.704ZM340.095 137.216C342.112 137.216 343.746 135.581 343.746 133.565C343.746 131.548 342.112 129.914 340.095 129.914V137.216ZM308.307 135.435C306.716 136.674 306.431 138.968 307.67 140.559C308.909 142.15 311.203 142.435 312.794 141.196L308.307 135.435ZM324.132 181.219C313.559 181.219 304.434 171.723 304.434 159.295H297.131C297.131 175.117 308.915 188.522 324.132 188.522V181.219ZM304.434 159.295C304.434 155.019 305.532 151.052 307.412 147.704L301.045 144.129C298.554 148.565 297.131 153.762 297.131 159.295H304.434ZM340.095 129.914H324.188V137.216H340.095V129.914ZM324.188 129.914C318.234 129.914 312.744 131.978 308.307 135.435L312.794 141.196C316.032 138.673 319.962 137.216 324.188 137.216V129.914Z" fill="white" fill-opacity="0.1"/>
<path d="M300.859 63.5898C296.039 63.5898 292.131 67.4974 292.131 72.3178C292.131 77.1382 296.039 81.0457 300.859 81.0457C305.68 81.0457 309.587 77.1382 309.587 72.3178V63.5898" stroke="white" stroke-opacity="0.1" stroke-width="7.3024" stroke-linecap="round" stroke-linejoin="round"/>
<path d="M303.515 12.5124C303.515 18.9254 308.68 24.1243 315.051 24.1243C321.423 24.1243 326.587 18.9254 326.587 12.5124C326.587 6.09925 321.423 0.900391 315.051 0.900391L303.515 0.900391" stroke="white" stroke-opacity="0.1" stroke-width="7.3024" stroke-linecap="round" stroke-linejoin="round"/>
<path d="M261.849 132.287C256.274 132.287 251.755 127.816 251.755 122.301C251.755 116.785 256.274 112.314 261.849 112.314C267.424 112.314 271.943 116.785 271.943 122.301V152.842" stroke="white" stroke-opacity="0.1" stroke-width="7.3024" stroke-linecap="round" stroke-linejoin="round"/>
<path d="M472.911 132.806C472.911 137.92 476.99 142.065 482.021 142.065C487.051 142.065 491.128 137.92 491.128 132.806C491.128 127.692 487.051 123.547 482.021 123.547H451.511" stroke="white" stroke-opacity="0.1" stroke-width="7.3024" stroke-linecap="round" stroke-linejoin="round"/>
<path d="M397.624 21.9674C392.259 21.9674 387.91 26.2559 387.91 31.5461C387.91 36.8363 392.259 41.1248 397.624 41.1248C402.989 41.1248 407.339 36.8363 407.339 31.5461V0.748535" stroke="white" stroke-opacity="0.1" stroke-width="7.3024" stroke-linecap="round" stroke-linejoin="round"/>
<path d="M389.87 206.272C389.87 201.41 393.78 197.468 398.604 197.468C403.428 197.468 407.338 201.41 407.338 206.272C407.338 211.134 403.428 215.076 398.604 215.076H384.721" stroke="white" stroke-opacity="0.1" stroke-width="7.3024" stroke-linecap="round" stroke-linejoin="round"/>
<path d="M416.371 86.1425C421.191 86.1425 425.098 90.0304 425.098 94.8266C425.098 99.6228 421.191 103.511 416.371 103.511C411.55 103.511 407.643 99.6228 407.643 94.8266V62.3755" stroke="white" stroke-opacity="0.1" stroke-width="7.3024" stroke-linecap="round" stroke-linejoin="round"/>
<path d="M260.483 87.0727C255.663 87.0727 251.755 90.9222 251.755 95.671C251.755 100.42 255.663 104.269 260.483 104.269C265.303 104.269 269.211 100.42 269.211 95.671V60.5537" stroke="white" stroke-opacity="0.1" stroke-width="7.3024" stroke-linecap="round" stroke-linejoin="round"/>
<path d="M355.533 60.5534C355.533 51.9188 348.646 44.9189 340.149 44.9189C331.653 44.9189 324.765 51.9188 324.765 60.5534C324.765 69.1879 331.653 76.1878 340.149 76.1878H380.472" stroke="white" stroke-opacity="0.1" stroke-width="7.3024" stroke-linecap="round" stroke-linejoin="round"/>
<path d="M478.474 111.1C486.972 111.1 493.859 104.101 493.859 95.466C493.859 86.8314 486.972 79.8315 478.474 79.8315H438.152" stroke="white" stroke-opacity="0.1" stroke-width="7.3024" stroke-linecap="round" stroke-linejoin="round"/>
<path fill-rule="evenodd" clip-rule="evenodd" d="M419.027 27.3875C419.027 19.2977 425.514 12.7397 433.517 12.7397L448.404 12.7397C456.408 12.7397 462.894 19.2977 462.894 27.3875V27.3875C462.894 35.4773 456.408 42.0353 448.404 42.0353H433.517C425.514 42.0353 419.027 35.4773 419.027 27.3875V27.3875Z" stroke="white" stroke-opacity="0.1" stroke-width="7.3024" stroke-linecap="round" stroke-linejoin="round"/>
<path fill-rule="evenodd" clip-rule="evenodd" d="M291.448 132.958C286.46 132.958 282.416 128.921 282.416 123.941V98.2585C282.416 93.279 286.46 89.2422 291.448 89.2422V89.2422C296.436 89.2422 300.479 93.279 300.479 98.2585V123.941C300.479 128.921 296.436 132.958 291.448 132.958V132.958Z" stroke="white" stroke-opacity="0.1" stroke-width="7.3024" stroke-linecap="round" stroke-linejoin="round"/>
<path d="M376.677 121.498V107.938C376.677 104.068 379.837 100.93 383.735 100.93V100.93C387.634 100.93 390.794 104.068 390.794 107.938V135.058C390.794 138.928 387.634 142.065 383.735 142.065V142.065V142.065C379.837 142.065 376.677 138.928 376.677 135.058V131.782" stroke="white" stroke-opacity="0.1" stroke-width="7.3024" stroke-linecap="round" stroke-linejoin="round"/>
<path d="M389.732 49.0074V50.1896C389.732 56.9197 384.261 62.3755 377.512 62.3755V62.3755C370.764 62.3755 365.293 56.9197 365.293 50.1896V13.0863C365.293 6.3562 370.764 0.900391 377.512 0.900391V0.900391C384.261 0.900391 389.732 6.3562 389.732 13.0863V13.45" stroke="white" stroke-opacity="0.1" stroke-width="7.3024" stroke-linecap="round" stroke-linejoin="round"/>
<path d="M261.887 145.253H261.157C255.964 145.253 251.755 149.466 251.755 154.664V154.664C251.755 159.862 255.964 164.075 261.157 164.075H282.881C288.074 164.075 292.283 159.862 292.283 154.664V154.664C292.283 149.466 288.074 145.253 282.881 145.253H282.151" stroke="white" stroke-opacity="0.1" stroke-width="7.3024" stroke-linecap="round" stroke-linejoin="round"/>
<path d="M364.989 100.93V136.09C364.989 146.6 373.586 155.119 384.19 155.119C394.795 155.119 403.392 146.6 403.392 136.09V127.783" stroke="white" stroke-opacity="0.1" stroke-width="7.3024" stroke-linecap="round" stroke-linejoin="round"/>
<path d="M326.434 160.432H357.976C369.981 160.432 379.712 170.218 379.712 182.289C379.712 194.36 369.981 204.147 357.976 204.147H348.487" stroke="white" stroke-opacity="0.1" stroke-width="7.3024" stroke-linecap="round" stroke-linejoin="round"/>
<path d="M339.945 107.154H332.479C327.465 107.154 323.4 103.076 323.4 98.0464C323.4 93.0165 327.465 88.939 332.479 88.939H347.411C352.426 88.939 356.49 93.0165 356.49 98.0464V98.8555C356.49 103.439 352.787 107.154 348.218 107.154" stroke="white" stroke-opacity="0.1" stroke-width="7.3024" stroke-linecap="round" stroke-linejoin="round"/>
<path d="M416.371 72.3935H424.899C430.626 72.3935 435.269 68.01 435.269 62.603C435.269 57.1959 430.626 52.8125 424.899 52.8125H407.843C402.116 52.8125 397.473 57.1959 397.473 62.603" stroke="white" stroke-opacity="0.1" stroke-width="7.3024" stroke-linecap="round" stroke-linejoin="round"/>
<path d="M353.454 31.5615L333.01 31.5615C320.073 31.5615 309.586 42.0951 309.586 55.089" stroke="white" stroke-opacity="0.1" stroke-width="7.3024" stroke-linecap="round" stroke-linejoin="round"/>
<path d="M471.014 183.935C475.834 183.935 479.742 187.815 479.742 192.599C479.742 197.384 475.834 201.264 471.014 201.264C466.193 201.264 462.286 197.384 462.286 192.599V136.146" stroke="white" stroke-opacity="0.1" stroke-width="7.3024" stroke-linecap="round" stroke-linejoin="round"/>
<path d="M405.67 189.576C405.67 180.69 412.781 173.486 421.552 173.486H449.537" stroke="white" stroke-opacity="0.1" stroke-width="7.3024" stroke-linecap="round" stroke-linejoin="round"/>
<path d="M364.384 88.9385H379.316C389.344 88.9385 397.474 80.7833 397.474 70.7236" stroke="white" stroke-opacity="0.1" stroke-width="7.3024" stroke-linecap="round" stroke-linejoin="round"/>
<path d="M451.512 136.449V144.609C451.512 152.845 444.832 159.521 436.592 159.521H424.948" stroke="white" stroke-opacity="0.1" stroke-width="7.3024" stroke-linecap="round" stroke-linejoin="round"/>
<path d="M479.744 95.769H466.992C457.771 95.769 450.296 103.313 450.296 112.618" stroke="white" stroke-opacity="0.1" stroke-width="7.3024" stroke-linecap="round" stroke-linejoin="round"/>
<path d="M284.086 215.077V201.246C284.086 193.283 290.306 186.612 298.658 184.871" stroke="white" stroke-opacity="0.1" stroke-width="7.3024" stroke-linecap="round" stroke-linejoin="round"/>
<path d="M257.751 50.2324C257.751 51.6461 257.751 69.4411 257.751 78.1619" stroke="white" stroke-opacity="0.1" stroke-width="7.3024" stroke-linecap="round" stroke-linejoin="round"/>
<path d="M416.219 114.439C416.219 115.607 416.219 130.307 416.219 137.512" stroke="white" stroke-opacity="0.1" stroke-width="7.3024" stroke-linecap="round" stroke-linejoin="round"/>
<path d="M392.844 177.129C392.844 177.605 392.844 183.601 392.844 186.54" stroke="white" stroke-opacity="0.1" stroke-width="7.3024" stroke-linecap="round" stroke-linejoin="round"/>
<path d="M441.805 89.8491C441.805 87.8326 440.17 86.1979 438.154 86.1979C436.137 86.1979 434.503 87.8326 434.503 89.8491H441.805ZM420.786 142.68C418.769 142.68 417.135 144.315 417.135 146.331C417.135 148.348 418.769 149.982 420.786 149.982V142.68ZM395.805 162.852C393.788 162.852 392.154 164.487 392.154 166.503C392.154 168.52 393.788 170.154 395.805 170.154V162.852ZM418.727 151.315C418.727 149.298 417.093 147.664 415.076 147.664C413.06 147.664 411.425 149.298 411.425 151.315H418.727ZM434.503 89.8491V111.454H441.805V89.8491H434.503ZM434.503 111.454C434.503 112.808 433.389 113.955 431.951 113.955V121.258C437.365 121.258 441.805 116.898 441.805 111.454H434.503ZM431.951 113.955C426.535 113.955 422.097 118.319 422.097 123.762H429.399C429.399 122.405 430.515 121.258 431.951 121.258V113.955ZM422.097 123.762V125.038H429.399V123.762H422.097ZM422.097 125.038C422.097 130.481 426.535 134.845 431.951 134.845V127.542C430.515 127.542 429.399 126.395 429.399 125.038H422.097ZM431.951 134.845C433.387 134.845 434.503 135.992 434.503 137.349H441.805C441.805 131.906 437.367 127.542 431.951 127.542V134.845ZM434.503 137.349V138.762H441.805V137.349H434.503ZM434.503 138.762C434.503 140.9 432.749 142.68 430.527 142.68V149.982C436.729 149.982 441.805 144.985 441.805 138.762H434.503ZM430.527 142.68H426.575V149.982H430.527V142.68ZM426.575 142.68H420.786V149.982H426.575V142.68ZM395.805 170.154H399.869V162.852H395.805V170.154ZM399.869 170.154C410.28 170.154 418.727 161.724 418.727 151.315H411.425C411.425 157.682 406.255 162.852 399.869 162.852V170.154Z" fill="white" fill-opacity="0.1"/>
<path d="M475.796 59.9346V63.0132C475.796 67.3555 472.265 70.8755 467.911 70.8755V70.8755C463.556 70.8755 460.025 67.3555 460.025 63.0132V60.4632C460.025 56.1539 456.521 52.6606 452.201 52.6606V52.6606C447.879 52.6606 444.375 56.1539 444.375 60.4632V63.6016" stroke="white" stroke-opacity="0.1" stroke-width="7.3024" stroke-linecap="round" stroke-linejoin="round"/>
<path fill-rule="evenodd" clip-rule="evenodd" d="M416.294 195.946C416.294 189.83 421.255 184.871 427.374 184.871V184.871C433.494 184.871 438.455 189.83 438.455 195.946V204.001C438.455 210.118 433.494 215.077 427.374 215.077V215.077C421.255 215.077 416.294 210.118 416.294 204.001V195.946Z" stroke="white" stroke-opacity="0.1" stroke-width="7.3024" stroke-linecap="round" stroke-linejoin="round"/>
<path d="M744.857 152.387C744.857 157.249 740.949 161.191 736.129 161.191C731.308 161.191 727.401 157.249 727.401 152.387" stroke="white" stroke-opacity="0.1" stroke-width="7.3024" stroke-linecap="round" stroke-linejoin="round"/>
<path d="M744.856 24.2757C738.82 24.2757 733.927 19.3487 733.927 13.2709C733.927 7.19313 738.82 2.26611 744.856 2.26611" stroke="white" stroke-opacity="0.1" stroke-width="7.3024" stroke-linecap="round" stroke-linejoin="round"/>
<path d="M587.298 11.2079C587.298 16.2456 591.375 20.3296 596.405 20.3296C601.435 20.3296 605.513 16.2456 605.513 11.2079V0.900391" stroke="white" stroke-opacity="0.1" stroke-width="7.3024" stroke-linecap="round" stroke-linejoin="round"/>
<path d="M522.823 215.076C511.486 215.076 502.295 205.937 502.295 194.66C502.295 183.384 511.486 174.245 522.823 174.245H541.609" stroke="white" stroke-opacity="0.1" stroke-width="7.3024" stroke-linecap="round" stroke-linejoin="round"/>
<path d="M521.569 201.112C517.798 201.112 514.741 198.156 514.741 194.509C514.741 190.862 517.798 187.906 521.569 187.906H528.858" stroke="white" stroke-opacity="0.1" stroke-width="7.3024" stroke-linecap="round" stroke-linejoin="round"/>
<path d="M542.367 0.900462L512.56 0.900391C506.723 0.900391 501.991 5.5216 501.991 11.2221" stroke="white" stroke-opacity="0.1" stroke-width="7.3024" stroke-linecap="round" stroke-linejoin="round"/>
<path d="M671.693 1.20419L709.904 1.2041C717.387 1.2041 723.453 7.25245 723.453 14.7134" stroke="white" stroke-opacity="0.1" stroke-width="7.3024" stroke-linecap="round" stroke-linejoin="round"/>
<path d="M744.855 70.8753V45.3261C744.855 40.3229 740.777 36.2671 735.748 36.2671C730.719 36.2671 726.64 40.3229 726.64 45.3261V49.2807" stroke="white" stroke-opacity="0.1" stroke-width="7.3024" stroke-linecap="round" stroke-linejoin="round"/>
<path d="M604.144 150.959C606.161 150.959 607.796 149.324 607.796 147.308C607.796 145.291 606.161 143.656 604.144 143.656V150.959ZM588.149 175.689C590.166 175.689 591.8 174.054 591.8 172.037C591.8 170.021 590.166 168.386 588.149 168.386V175.689ZM557.673 218.727C559.689 218.727 561.324 217.093 561.324 215.076C561.324 213.06 559.689 211.425 557.673 211.425V218.727ZM591.882 184.877C591.882 182.861 590.247 181.226 588.231 181.226C586.214 181.226 584.579 182.861 584.579 184.877H591.882ZM564.803 90.001C564.803 87.9845 563.168 86.3498 561.152 86.3498C559.135 86.3498 557.501 87.9845 557.501 90.001H564.803ZM600.494 134.229C600.494 136.246 602.128 137.88 604.145 137.88C606.161 137.88 607.796 136.246 607.796 134.229H600.494ZM604.144 143.656H576.908V150.959H604.144V143.656ZM576.908 143.656C568.044 143.656 560.826 150.809 560.826 159.672H568.128C568.128 154.878 572.041 150.959 576.908 150.959V143.656ZM560.826 159.672C560.826 168.536 568.044 175.689 576.908 175.689V168.386C572.041 168.386 568.128 164.467 568.128 159.672H560.826ZM576.908 175.689H588.149V168.386H576.908V175.689ZM557.673 211.425H556.049V218.727H557.673V211.425ZM556.049 211.425C553.279 211.425 551.027 209.175 551.027 206.393H543.724C543.724 213.2 549.239 218.727 556.049 218.727V211.425ZM551.027 206.393C551.027 203.609 553.28 201.359 556.049 201.359V194.057C549.238 194.057 543.724 199.585 543.724 206.393H551.027ZM556.049 201.359H575.415V194.057H556.049V201.359ZM575.415 201.359C584.513 201.359 591.882 193.977 591.882 184.877H584.579C584.579 189.951 580.472 194.057 575.415 194.057V201.359ZM557.501 90.001V99.7589H564.803V90.001H557.501ZM557.501 99.7589C557.501 113.657 568.756 124.931 582.648 124.931V117.629C572.797 117.629 564.803 109.632 564.803 99.7589H557.501ZM582.648 124.931H591.21V117.629H582.648V124.931ZM591.21 124.931C596.333 124.931 600.494 129.09 600.494 134.229H607.796C607.796 125.065 600.374 117.629 591.21 117.629V124.931Z" fill="white" fill-opacity="0.1"/>
<path fill-rule="evenodd" clip-rule="evenodd" d="M591.244 66.4738C594.597 66.4738 597.315 63.7554 597.315 60.4022C597.315 57.0489 594.597 54.3306 591.244 54.3306C587.89 54.3306 585.172 57.0489 585.172 60.4022C585.172 63.7554 587.89 66.4738 591.244 66.4738Z" stroke="white" stroke-opacity="0.1" stroke-width="7.3024" stroke-linecap="round" stroke-linejoin="round"/>
<path fill-rule="evenodd" clip-rule="evenodd" d="M607.94 190.942C612.802 190.942 616.744 187.034 616.744 182.214C616.744 177.393 612.802 173.486 607.94 173.486C603.078 173.486 599.136 177.393 599.136 182.214C599.136 187.034 603.078 190.942 607.94 190.942Z" stroke="white" stroke-opacity="0.1" stroke-width="7.3024" stroke-linecap="round" stroke-linejoin="round"/>
<path fill-rule="evenodd" clip-rule="evenodd" d="M529.921 49.3214C535.202 49.3214 539.484 45.04 539.484 39.7586C539.484 34.4772 535.202 30.1958 529.921 30.1958C524.639 30.1958 520.358 34.4772 520.358 39.7586C520.358 45.04 524.639 49.3214 529.921 49.3214Z" stroke="white" stroke-opacity="0.1" stroke-width="7.3024" stroke-linecap="round" stroke-linejoin="round"/>
<path d="M529.997 60.5537C541.775 60.5537 551.324 51.1415 551.324 39.5308C551.324 27.9201 541.775 18.5078 529.997 18.5078C518.219 18.5078 508.67 27.9201 508.67 39.5308" stroke="white" stroke-opacity="0.1" stroke-width="7.3024" stroke-linecap="round" stroke-linejoin="round"/>
<path d="M701.02 186.609C697.78 198.724 704.789 211.131 716.675 214.323C728.561 217.513 740.825 210.278 744.065 198.163C747.305 186.048 740.295 173.641 728.41 170.45" stroke="white" stroke-opacity="0.1" stroke-width="7.3024" stroke-linecap="round" stroke-linejoin="round"/>
<path d="M575.128 188.522C577.144 188.522 578.779 186.887 578.779 184.87C578.779 182.854 577.144 181.219 575.128 181.219V188.522ZM558.408 147.704C559.395 145.946 558.77 143.72 557.012 142.733C555.253 141.745 553.028 142.37 552.04 144.129L558.408 147.704ZM591.091 137.216C593.107 137.216 594.742 135.581 594.742 133.565C594.742 131.548 593.107 129.914 591.091 129.914V137.216ZM559.302 135.435C557.711 136.674 557.426 138.968 558.666 140.559C559.905 142.15 562.199 142.435 563.79 141.196L559.302 135.435ZM575.128 181.219C564.554 181.219 555.429 171.723 555.429 159.295H548.127C548.127 175.117 559.91 188.522 575.128 188.522V181.219ZM555.429 159.295C555.429 155.019 556.527 151.052 558.408 147.704L552.04 144.129C549.549 148.565 548.127 153.762 548.127 159.295H555.429ZM591.091 129.914H575.184V137.216H591.091V129.914ZM575.184 129.914C569.229 129.914 563.739 131.978 559.302 135.435L563.79 141.196C567.028 138.673 570.958 137.216 575.184 137.216V129.914Z" fill="white" fill-opacity="0.1"/>
<path d="M551.855 63.5898C547.034 63.5898 543.127 67.4974 543.127 72.3178C543.127 77.1382 547.034 81.0457 551.855 81.0457C556.675 81.0457 560.583 77.1382 560.583 72.3178V63.5898" stroke="white" stroke-opacity="0.1" stroke-width="7.3024" stroke-linecap="round" stroke-linejoin="round"/>
<path d="M554.511 12.5124C554.511 18.9254 559.676 24.1243 566.047 24.1243C572.418 24.1243 577.583 18.9254 577.583 12.5124C577.583 6.09925 572.418 0.900391 566.047 0.900391L554.511 0.900391" stroke="white" stroke-opacity="0.1" stroke-width="7.3024" stroke-linecap="round" stroke-linejoin="round"/>
<path d="M512.844 132.287C507.27 132.287 502.75 127.816 502.75 122.301C502.75 116.785 507.27 112.314 512.844 112.314C518.419 112.314 522.938 116.785 522.938 122.301V152.842" stroke="white" stroke-opacity="0.1" stroke-width="7.3024" stroke-linecap="round" stroke-linejoin="round"/>
<path d="M723.907 132.806C723.907 137.92 727.986 142.065 733.016 142.065C738.046 142.065 742.123 137.92 742.123 132.806C742.123 127.692 738.046 123.547 733.016 123.547H702.506" stroke="white" stroke-opacity="0.1" stroke-width="7.3024" stroke-linecap="round" stroke-linejoin="round"/>
<path d="M648.62 21.9674C643.254 21.9674 638.905 26.2559 638.905 31.5461C638.905 36.8363 643.254 41.1248 648.62 41.1248C653.985 41.1248 658.334 36.8363 658.334 31.5461V0.748535" stroke="white" stroke-opacity="0.1" stroke-width="7.3024" stroke-linecap="round" stroke-linejoin="round"/>
<path d="M640.865 206.272C640.865 201.41 644.776 197.468 649.599 197.468C654.423 197.468 658.334 201.41 658.334 206.272C658.334 211.134 654.423 215.076 649.599 215.076H635.717" stroke="white" stroke-opacity="0.1" stroke-width="7.3024" stroke-linecap="round" stroke-linejoin="round"/>
<path d="M667.366 86.1425C672.186 86.1425 676.094 90.0304 676.094 94.8266C676.094 99.6228 672.186 103.511 667.366 103.511C662.546 103.511 658.638 99.6228 658.638 94.8266V62.3755" stroke="white" stroke-opacity="0.1" stroke-width="7.3024" stroke-linecap="round" stroke-linejoin="round"/>
<path d="M511.478 87.0727C506.658 87.0727 502.75 90.9222 502.75 95.671C502.75 100.42 506.658 104.269 511.478 104.269C516.299 104.269 520.206 100.42 520.206 95.671V60.5537" stroke="white" stroke-opacity="0.1" stroke-width="7.3024" stroke-linecap="round" stroke-linejoin="round"/>
<path d="M606.529 60.5534C606.529 51.9188 599.641 44.9189 591.145 44.9189C582.648 44.9189 575.76 51.9188 575.76 60.5534C575.76 69.1879 582.648 76.1878 591.145 76.1878H631.467" stroke="white" stroke-opacity="0.1" stroke-width="7.3024" stroke-linecap="round" stroke-linejoin="round"/>
<path d="M729.47 111.1C737.968 111.1 744.855 104.101 744.855 95.466C744.855 86.8314 737.968 79.8315 729.47 79.8315H689.148" stroke="white" stroke-opacity="0.1" stroke-width="7.3024" stroke-linecap="round" stroke-linejoin="round"/>
<path fill-rule="evenodd" clip-rule="evenodd" d="M670.023 27.3875C670.023 19.2977 676.51 12.7397 684.513 12.7397L699.4 12.7397C707.403 12.7397 713.89 19.2977 713.89 27.3875V27.3875C713.89 35.4773 707.403 42.0353 699.4 42.0353H684.513C676.51 42.0353 670.023 35.4773 670.023 27.3875V27.3875Z" stroke="white" stroke-opacity="0.1" stroke-width="7.3024" stroke-linecap="round" stroke-linejoin="round"/>
<path fill-rule="evenodd" clip-rule="evenodd" d="M542.443 132.958C537.455 132.958 533.411 128.921 533.411 123.941V98.2585C533.411 93.279 537.455 89.2422 542.443 89.2422V89.2422C547.431 89.2422 551.475 93.279 551.475 98.2585V123.941C551.475 128.921 547.431 132.958 542.443 132.958V132.958Z" stroke="white" stroke-opacity="0.1" stroke-width="7.3024" stroke-linecap="round" stroke-linejoin="round"/>
<path d="M627.673 121.498V107.938C627.673 104.068 630.833 100.93 634.731 100.93V100.93C638.629 100.93 641.789 104.068 641.789 107.938V135.058C641.789 138.928 638.629 142.065 634.731 142.065V142.065V142.065C630.833 142.065 627.673 138.928 627.673 135.058V131.782" stroke="white" stroke-opacity="0.1" stroke-width="7.3024" stroke-linecap="round" stroke-linejoin="round"/>
<path d="M640.727 49.0074V50.1896C640.727 56.9197 635.256 62.3755 628.508 62.3755V62.3755C621.759 62.3755 616.289 56.9197 616.289 50.1896V13.0863C616.289 6.3562 621.759 0.900391 628.508 0.900391V0.900391C635.256 0.900391 640.727 6.3562 640.727 13.0863V13.45" stroke="white" stroke-opacity="0.1" stroke-width="7.3024" stroke-linecap="round" stroke-linejoin="round"/>
<path d="M512.882 145.253H512.152C506.96 145.253 502.75 149.466 502.75 154.664V154.664C502.75 159.862 506.96 164.075 512.152 164.075H533.877C539.069 164.075 543.278 159.862 543.278 154.664V154.664C543.278 149.466 539.069 145.253 533.877 145.253H533.146" stroke="white" stroke-opacity="0.1" stroke-width="7.3024" stroke-linecap="round" stroke-linejoin="round"/>
<path d="M615.984 100.93V136.09C615.984 146.6 624.581 155.119 635.186 155.119C645.791 155.119 654.387 146.6 654.387 136.09V127.783" stroke="white" stroke-opacity="0.1" stroke-width="7.3024" stroke-linecap="round" stroke-linejoin="round"/>
<path d="M577.429 160.432H608.972C620.976 160.432 630.708 170.218 630.708 182.289C630.708 194.36 620.976 204.147 608.972 204.147H599.483" stroke="white" stroke-opacity="0.1" stroke-width="7.3024" stroke-linecap="round" stroke-linejoin="round"/>
<path d="M590.941 107.154H583.475C578.46 107.154 574.396 103.076 574.396 98.0464C574.396 93.0165 578.46 88.939 583.475 88.939H598.407C603.421 88.939 607.486 93.0165 607.486 98.0464V98.8555C607.486 103.439 603.782 107.154 599.213 107.154" stroke="white" stroke-opacity="0.1" stroke-width="7.3024" stroke-linecap="round" stroke-linejoin="round"/>
<path d="M667.367 72.3935H675.894C681.621 72.3935 686.264 68.01 686.264 62.603C686.264 57.1959 681.621 52.8125 675.894 52.8125H658.839C653.112 52.8125 648.469 57.1959 648.469 62.603" stroke="white" stroke-opacity="0.1" stroke-width="7.3024" stroke-linecap="round" stroke-linejoin="round"/>
<path d="M604.449 31.5615L584.006 31.5615C571.069 31.5615 560.582 42.0951 560.582 55.089" stroke="white" stroke-opacity="0.1" stroke-width="7.3024" stroke-linecap="round" stroke-linejoin="round"/>
<path d="M722.009 183.935C726.83 183.935 730.737 187.815 730.737 192.599C730.737 197.384 726.83 201.264 722.009 201.264C717.189 201.264 713.281 197.384 713.281 192.599V136.146" stroke="white" stroke-opacity="0.1" stroke-width="7.3024" stroke-linecap="round" stroke-linejoin="round"/>
<path d="M656.665 189.576C656.665 180.69 663.776 173.486 672.548 173.486H700.533" stroke="white" stroke-opacity="0.1" stroke-width="7.3024" stroke-linecap="round" stroke-linejoin="round"/>
<path d="M615.379 88.9385H630.311C640.34 88.9385 648.469 80.7833 648.469 70.7236" stroke="white" stroke-opacity="0.1" stroke-width="7.3024" stroke-linecap="round" stroke-linejoin="round"/>
<path d="M702.507 136.449V144.609C702.507 152.845 695.828 159.521 687.588 159.521H675.944" stroke="white" stroke-opacity="0.1" stroke-width="7.3024" stroke-linecap="round" stroke-linejoin="round"/>
<path d="M730.739 95.769H717.988C708.766 95.769 701.292 103.313 701.292 112.618" stroke="white" stroke-opacity="0.1" stroke-width="7.3024" stroke-linecap="round" stroke-linejoin="round"/>
<path d="M535.082 215.077V201.246C535.082 193.283 541.301 186.612 549.654 184.871" stroke="white" stroke-opacity="0.1" stroke-width="7.3024" stroke-linecap="round" stroke-linejoin="round"/>
<path d="M508.746 50.2324C508.746 51.6461 508.746 69.4411 508.746 78.1619" stroke="white" stroke-opacity="0.1" stroke-width="7.3024" stroke-linecap="round" stroke-linejoin="round"/>
<path d="M667.215 114.439C667.215 115.607 667.215 130.307 667.215 137.512" stroke="white" stroke-opacity="0.1" stroke-width="7.3024" stroke-linecap="round" stroke-linejoin="round"/>
<path d="M643.84 177.129C643.84 177.605 643.84 183.601 643.84 186.54" stroke="white" stroke-opacity="0.1" stroke-width="7.3024" stroke-linecap="round" stroke-linejoin="round"/>
<path d="M692.8 89.8491C692.8 87.8326 691.166 86.1979 689.149 86.1979C687.133 86.1979 685.498 87.8326 685.498 89.8491H692.8ZM671.781 142.68C669.765 142.68 668.13 144.315 668.13 146.331C668.13 148.348 669.765 149.982 671.781 149.982V142.68ZM646.8 162.852C644.784 162.852 643.149 164.487 643.149 166.503C643.149 168.52 644.784 170.154 646.8 170.154V162.852ZM669.723 151.315C669.723 149.298 668.088 147.664 666.072 147.664C664.055 147.664 662.42 149.298 662.42 151.315H669.723ZM685.498 89.8491V111.454H692.8V89.8491H685.498ZM685.498 111.454C685.498 112.808 684.384 113.955 682.946 113.955V121.258C688.36 121.258 692.8 116.898 692.8 111.454H685.498ZM682.946 113.955C677.531 113.955 673.092 118.319 673.092 123.762H680.395C680.395 122.405 681.51 121.258 682.946 121.258V113.955ZM673.092 123.762V125.038H680.395V123.762H673.092ZM673.092 125.038C673.092 130.481 677.531 134.845 682.946 134.845V127.542C681.511 127.542 680.395 126.395 680.395 125.038H673.092ZM682.946 134.845C684.382 134.845 685.498 135.992 685.498 137.349H692.8C692.8 131.906 688.362 127.542 682.946 127.542V134.845ZM685.498 137.349V138.762H692.8V137.349H685.498ZM685.498 138.762C685.498 140.9 683.745 142.68 681.522 142.68V149.982C687.724 149.982 692.8 144.985 692.8 138.762H685.498ZM681.522 142.68H677.571V149.982H681.522V142.68ZM677.571 142.68H671.781V149.982H677.571V142.68ZM646.8 170.154H650.865V162.852H646.8V170.154ZM650.865 170.154C661.276 170.154 669.723 161.724 669.723 151.315H662.42C662.42 157.682 657.251 162.852 650.865 162.852V170.154Z" fill="white" fill-opacity="0.1"/>
<path d="M726.791 59.9346V63.0132C726.791 67.3555 723.26 70.8755 718.907 70.8755V70.8755C714.552 70.8755 711.021 67.3555 711.021 63.0132V60.4632C711.021 56.1539 707.517 52.6606 703.197 52.6606V52.6606C698.874 52.6606 695.371 56.1539 695.371 60.4632V63.6016" stroke="white" stroke-opacity="0.1" stroke-width="7.3024" stroke-linecap="round" stroke-linejoin="round"/>
<path fill-rule="evenodd" clip-rule="evenodd" d="M667.289 195.946C667.289 189.83 672.25 184.871 678.37 184.871V184.871C684.489 184.871 689.451 189.83 689.451 195.946V204.001C689.451 210.118 684.489 215.077 678.37 215.077V215.077C672.25 215.077 667.289 210.118 667.289 204.001V195.946Z" stroke="white" stroke-opacity="0.1" stroke-width="7.3024" stroke-linecap="round" stroke-linejoin="round"/>
<path d="M995.852 152.387C995.852 157.249 991.945 161.191 987.124 161.191C982.304 161.191 978.396 157.249 978.396 152.387" stroke="white" stroke-opacity="0.1" stroke-width="7.3024" stroke-linecap="round" stroke-linejoin="round"/>
<path d="M995.852 24.2757C989.815 24.2757 984.923 19.3487 984.923 13.2709C984.923 7.19313 989.815 2.26611 995.852 2.26611" stroke="white" stroke-opacity="0.1" stroke-width="7.3024" stroke-linecap="round" stroke-linejoin="round"/>
<path d="M838.293 11.2079C838.293 16.2456 842.371 20.3296 847.401 20.3296C852.431 20.3296 856.508 16.2456 856.508 11.2079V0.900391" stroke="white" stroke-opacity="0.1" stroke-width="7.3024" stroke-linecap="round" stroke-linejoin="round"/>
<path d="M773.818 215.076C762.481 215.076 753.291 205.937 753.291 194.66C753.291 183.384 762.481 174.245 773.818 174.245H792.604" stroke="white" stroke-opacity="0.1" stroke-width="7.3024" stroke-linecap="round" stroke-linejoin="round"/>
<path d="M772.564 201.112C768.793 201.112 765.737 198.156 765.737 194.509C765.737 190.862 768.793 187.906 772.564 187.906H779.853" stroke="white" stroke-opacity="0.1" stroke-width="7.3024" stroke-linecap="round" stroke-linejoin="round"/>
<path d="M793.363 0.900462L763.555 0.900391C757.718 0.900391 752.986 5.5216 752.986 11.2221" stroke="white" stroke-opacity="0.1" stroke-width="7.3024" stroke-linecap="round" stroke-linejoin="round"/>
<path d="M922.688 1.20419L960.9 1.2041C968.383 1.2041 974.449 7.25245 974.449 14.7134" stroke="white" stroke-opacity="0.1" stroke-width="7.3024" stroke-linecap="round" stroke-linejoin="round"/>
<path d="M995.851 70.8753V45.3261C995.851 40.3229 991.772 36.2671 986.743 36.2671C981.714 36.2671 977.636 40.3229 977.636 45.3261V49.2807" stroke="white" stroke-opacity="0.1" stroke-width="7.3024" stroke-linecap="round" stroke-linejoin="round"/>
<path d="M855.14 150.959C857.156 150.959 858.791 149.324 858.791 147.308C858.791 145.291 857.156 143.656 855.14 143.656V150.959ZM839.145 175.689C841.161 175.689 842.796 174.054 842.796 172.037C842.796 170.021 841.161 168.386 839.145 168.386V175.689ZM808.668 218.727C810.685 218.727 812.32 217.093 812.32 215.076C812.32 213.06 810.685 211.425 808.668 211.425V218.727ZM842.877 184.877C842.877 182.861 841.243 181.226 839.226 181.226C837.21 181.226 835.575 182.861 835.575 184.877H842.877ZM815.799 90.001C815.799 87.9845 814.164 86.3498 812.147 86.3498C810.131 86.3498 808.496 87.9845 808.496 90.001H815.799ZM851.489 134.229C851.489 136.246 853.124 137.88 855.14 137.88C857.157 137.88 858.791 136.246 858.791 134.229H851.489ZM855.14 143.656H827.903V150.959H855.14V143.656ZM827.903 143.656C819.04 143.656 811.821 150.809 811.821 159.672H819.124C819.124 154.878 823.036 150.959 827.903 150.959V143.656ZM811.821 159.672C811.821 168.536 819.04 175.689 827.903 175.689V168.386C823.036 168.386 819.124 164.467 819.124 159.672H811.821ZM827.903 175.689H839.145V168.386H827.903V175.689ZM808.668 211.425H807.045V218.727H808.668V211.425ZM807.045 211.425C804.275 211.425 802.022 209.175 802.022 206.393H794.72C794.72 213.2 800.234 218.727 807.045 218.727V211.425ZM802.022 206.393C802.022 203.609 804.275 201.359 807.045 201.359V194.057C800.233 194.057 794.72 199.585 794.72 206.393H802.022ZM807.045 201.359H826.41V194.057H807.045V201.359ZM826.41 201.359C835.509 201.359 842.877 193.977 842.877 184.877H835.575C835.575 189.951 831.468 194.057 826.41 194.057V201.359ZM808.496 90.001V99.7589H815.799V90.001H808.496ZM808.496 99.7589C808.496 113.657 819.751 124.931 833.644 124.931V117.629C823.792 117.629 815.799 109.632 815.799 99.7589H808.496ZM833.644 124.931H842.206V117.629H833.644V124.931ZM842.206 124.931C847.329 124.931 851.489 129.09 851.489 134.229H858.791C858.791 125.065 851.37 117.629 842.206 117.629V124.931Z" fill="white" fill-opacity="0.1"/>
<path fill-rule="evenodd" clip-rule="evenodd" d="M842.239 66.4738C845.592 66.4738 848.311 63.7554 848.311 60.4022C848.311 57.0489 845.592 54.3306 842.239 54.3306C838.886 54.3306 836.167 57.0489 836.167 60.4022C836.167 63.7554 838.886 66.4738 842.239 66.4738Z" stroke="white" stroke-opacity="0.1" stroke-width="7.3024" stroke-linecap="round" stroke-linejoin="round"/>
<path fill-rule="evenodd" clip-rule="evenodd" d="M858.935 190.942C863.798 190.942 867.739 187.034 867.739 182.214C867.739 177.393 863.798 173.486 858.935 173.486C854.073 173.486 850.132 177.393 850.132 182.214C850.132 187.034 854.073 190.942 858.935 190.942Z" stroke="white" stroke-opacity="0.1" stroke-width="7.3024" stroke-linecap="round" stroke-linejoin="round"/>
<path fill-rule="evenodd" clip-rule="evenodd" d="M780.916 49.3214C786.198 49.3214 790.479 45.04 790.479 39.7586C790.479 34.4772 786.198 30.1958 780.916 30.1958C775.635 30.1958 771.354 34.4772 771.354 39.7586C771.354 45.04 775.635 49.3214 780.916 49.3214Z" stroke="white" stroke-opacity="0.1" stroke-width="7.3024" stroke-linecap="round" stroke-linejoin="round"/>
<path d="M780.992 60.5537C792.771 60.5537 802.319 51.1415 802.319 39.5308C802.319 27.9201 792.771 18.5078 780.992 18.5078C769.214 18.5078 759.666 27.9201 759.666 39.5308" stroke="white" stroke-opacity="0.1" stroke-width="7.3024" stroke-linecap="round" stroke-linejoin="round"/>
<path d="M952.015 186.609C948.775 198.724 955.785 211.131 967.671 214.323C979.556 217.513 991.82 210.278 995.06 198.163C998.3 186.048 991.291 173.641 979.405 170.45" stroke="white" stroke-opacity="0.1" stroke-width="7.3024" stroke-linecap="round" stroke-linejoin="round"/>
<path d="M826.123 188.522C828.14 188.522 829.775 186.887 829.775 184.87C829.775 182.854 828.14 181.219 826.123 181.219V188.522ZM809.403 147.704C810.39 145.946 809.765 143.72 808.007 142.733C806.249 141.745 804.023 142.37 803.036 144.129L809.403 147.704ZM842.086 137.216C844.103 137.216 845.738 135.581 845.738 133.565C845.738 131.548 844.103 129.914 842.086 129.914V137.216ZM810.298 135.435C808.707 136.674 808.422 138.968 809.661 140.559C810.9 142.15 813.195 142.435 814.785 141.196L810.298 135.435ZM826.123 181.219C815.55 181.219 806.425 171.723 806.425 159.295H799.122C799.122 175.117 810.906 188.522 826.123 188.522V181.219ZM806.425 159.295C806.425 155.019 807.523 151.052 809.403 147.704L803.036 144.129C800.545 148.565 799.122 153.762 799.122 159.295H806.425ZM842.086 129.914H826.179V137.216H842.086V129.914ZM826.179 129.914C820.225 129.914 814.735 131.978 810.298 135.435L814.785 141.196C818.023 138.673 821.953 137.216 826.179 137.216V129.914Z" fill="white" fill-opacity="0.1"/>
<path d="M802.85 63.5898C798.03 63.5898 794.122 67.4974 794.122 72.3178C794.122 77.1382 798.03 81.0457 802.85 81.0457C807.671 81.0457 811.578 77.1382 811.578 72.3178V63.5898" stroke="white" stroke-opacity="0.1" stroke-width="7.3024" stroke-linecap="round" stroke-linejoin="round"/>
<path d="M805.506 12.5124C805.506 18.9254 810.671 24.1243 817.042 24.1243C823.414 24.1243 828.578 18.9254 828.578 12.5124C828.578 6.09925 823.414 0.900391 817.042 0.900391L805.506 0.900391" stroke="white" stroke-opacity="0.1" stroke-width="7.3024" stroke-linecap="round" stroke-linejoin="round"/>
<path d="M763.84 132.287C758.265 132.287 753.746 127.816 753.746 122.301C753.746 116.785 758.265 112.314 763.84 112.314C769.415 112.314 773.934 116.785 773.934 122.301V152.842" stroke="white" stroke-opacity="0.1" stroke-width="7.3024" stroke-linecap="round" stroke-linejoin="round"/>
<path d="M974.902 132.806C974.902 137.92 978.981 142.065 984.012 142.065C989.042 142.065 993.119 137.92 993.119 132.806C993.119 127.692 989.042 123.547 984.012 123.547H953.502" stroke="white" stroke-opacity="0.1" stroke-width="7.3024" stroke-linecap="round" stroke-linejoin="round"/>
<path d="M899.615 21.9674C894.25 21.9674 889.901 26.2559 889.901 31.5461C889.901 36.8363 894.25 41.1248 899.615 41.1248C904.98 41.1248 909.33 36.8363 909.33 31.5461V0.748535" stroke="white" stroke-opacity="0.1" stroke-width="7.3024" stroke-linecap="round" stroke-linejoin="round"/>
<path d="M891.861 206.272C891.861 201.41 895.771 197.468 900.595 197.468C905.419 197.468 909.329 201.41 909.329 206.272C909.329 211.134 905.419 215.076 900.595 215.076H886.712" stroke="white" stroke-opacity="0.1" stroke-width="7.3024" stroke-linecap="round" stroke-linejoin="round"/>
<path d="M918.361 86.1425C923.182 86.1425 927.089 90.0304 927.089 94.8266C927.089 99.6228 923.182 103.511 918.361 103.511C913.541 103.511 909.634 99.6228 909.634 94.8266V62.3755" stroke="white" stroke-opacity="0.1" stroke-width="7.3024" stroke-linecap="round" stroke-linejoin="round"/>
<path d="M762.474 87.0727C757.653 87.0727 753.746 90.9222 753.746 95.671C753.746 100.42 757.653 104.269 762.474 104.269C767.294 104.269 771.202 100.42 771.202 95.671V60.5537" stroke="white" stroke-opacity="0.1" stroke-width="7.3024" stroke-linecap="round" stroke-linejoin="round"/>
<path d="M857.524 60.5534C857.524 51.9188 850.636 44.9189 842.14 44.9189C833.644 44.9189 826.756 51.9188 826.756 60.5534C826.756 69.1879 833.644 76.1878 842.14 76.1878H882.463" stroke="white" stroke-opacity="0.1" stroke-width="7.3024" stroke-linecap="round" stroke-linejoin="round"/>
<path d="M980.465 111.1C988.964 111.1 995.85 104.101 995.85 95.466C995.85 86.8314 988.964 79.8315 980.465 79.8315H940.143" stroke="white" stroke-opacity="0.1" stroke-width="7.3024" stroke-linecap="round" stroke-linejoin="round"/>
<path fill-rule="evenodd" clip-rule="evenodd" d="M921.018 27.3875C921.018 19.2977 927.505 12.7397 935.508 12.7397L950.395 12.7397C958.399 12.7397 964.885 19.2977 964.885 27.3875V27.3875C964.885 35.4773 958.399 42.0353 950.395 42.0353H935.508C927.505 42.0353 921.018 35.4773 921.018 27.3875V27.3875Z" stroke="white" stroke-opacity="0.1" stroke-width="7.3024" stroke-linecap="round" stroke-linejoin="round"/>
<path fill-rule="evenodd" clip-rule="evenodd" d="M793.439 132.958C788.451 132.958 784.407 128.921 784.407 123.941V98.2585C784.407 93.279 788.451 89.2422 793.439 89.2422V89.2422C798.426 89.2422 802.47 93.279 802.47 98.2585V123.941C802.47 128.921 798.426 132.958 793.439 132.958V132.958Z" stroke="white" stroke-opacity="0.1" stroke-width="7.3024" stroke-linecap="round" stroke-linejoin="round"/>
<path d="M878.668 121.498V107.938C878.668 104.068 881.828 100.93 885.726 100.93V100.93C889.625 100.93 892.785 104.068 892.785 107.938V135.058C892.785 138.928 889.625 142.065 885.726 142.065V142.065V142.065C881.828 142.065 878.668 138.928 878.668 135.058V131.782" stroke="white" stroke-opacity="0.1" stroke-width="7.3024" stroke-linecap="round" stroke-linejoin="round"/>
<path d="M891.722 49.0074V50.1896C891.722 56.9197 886.252 62.3755 879.503 62.3755V62.3755C872.755 62.3755 867.284 56.9197 867.284 50.1896V13.0863C867.284 6.3562 872.755 0.900391 879.503 0.900391V0.900391C886.252 0.900391 891.722 6.3562 891.722 13.0863V13.45" stroke="white" stroke-opacity="0.1" stroke-width="7.3024" stroke-linecap="round" stroke-linejoin="round"/>
<path d="M763.878 145.253H763.148C757.955 145.253 753.746 149.466 753.746 154.664V154.664C753.746 159.862 757.955 164.075 763.148 164.075H784.872C790.065 164.075 794.274 159.862 794.274 154.664V154.664C794.274 149.466 790.065 145.253 784.872 145.253H784.142" stroke="white" stroke-opacity="0.1" stroke-width="7.3024" stroke-linecap="round" stroke-linejoin="round"/>
<path d="M866.98 100.93V136.09C866.98 146.6 875.577 155.119 886.181 155.119C896.786 155.119 905.383 146.6 905.383 136.09V127.783" stroke="white" stroke-opacity="0.1" stroke-width="7.3024" stroke-linecap="round" stroke-linejoin="round"/>
<path d="M828.425 160.432H859.967C871.972 160.432 881.703 170.218 881.703 182.289C881.703 194.36 871.972 204.147 859.967 204.147H850.478" stroke="white" stroke-opacity="0.1" stroke-width="7.3024" stroke-linecap="round" stroke-linejoin="round"/>
<path d="M841.936 107.154H834.47C829.456 107.154 825.391 103.076 825.391 98.0464C825.391 93.0165 829.456 88.939 834.47 88.939H849.402C854.417 88.939 858.481 93.0165 858.481 98.0464V98.8555C858.481 103.439 854.778 107.154 850.209 107.154" stroke="white" stroke-opacity="0.1" stroke-width="7.3024" stroke-linecap="round" stroke-linejoin="round"/>
<path d="M918.362 72.3935H926.89C932.617 72.3935 937.26 68.01 937.26 62.603C937.26 57.1959 932.617 52.8125 926.89 52.8125H909.834C904.107 52.8125 899.464 57.1959 899.464 62.603" stroke="white" stroke-opacity="0.1" stroke-width="7.3024" stroke-linecap="round" stroke-linejoin="round"/>
<path d="M855.445 31.5615L835.001 31.5615C822.064 31.5615 811.577 42.0951 811.577 55.089" stroke="white" stroke-opacity="0.1" stroke-width="7.3024" stroke-linecap="round" stroke-linejoin="round"/>
<path d="M973.005 183.935C977.825 183.935 981.733 187.815 981.733 192.599C981.733 197.384 977.825 201.264 973.005 201.264C968.184 201.264 964.277 197.384 964.277 192.599V136.146" stroke="white" stroke-opacity="0.1" stroke-width="7.3024" stroke-linecap="round" stroke-linejoin="round"/>
<path d="M907.661 189.576C907.661 180.69 914.772 173.486 923.543 173.486H951.528" stroke="white" stroke-opacity="0.1" stroke-width="7.3024" stroke-linecap="round" stroke-linejoin="round"/>
<path d="M866.375 88.9385H881.307C891.335 88.9385 899.465 80.7833 899.465 70.7236" stroke="white" stroke-opacity="0.1" stroke-width="7.3024" stroke-linecap="round" stroke-linejoin="round"/>
<path d="M953.502 136.449V144.609C953.502 152.845 946.823 159.521 938.583 159.521H926.939" stroke="white" stroke-opacity="0.1" stroke-width="7.3024" stroke-linecap="round" stroke-linejoin="round"/>
<path d="M981.735 95.769H968.983C959.762 95.769 952.287 103.313 952.287 112.618" stroke="white" stroke-opacity="0.1" stroke-width="7.3024" stroke-linecap="round" stroke-linejoin="round"/>
<path d="M786.077 215.077V201.246C786.077 193.283 792.297 186.612 800.649 184.871" stroke="white" stroke-opacity="0.1" stroke-width="7.3024" stroke-linecap="round" stroke-linejoin="round"/>
<path d="M759.742 50.2324C759.742 51.6461 759.742 69.4411 759.742 78.1619" stroke="white" stroke-opacity="0.1" stroke-width="7.3024" stroke-linecap="round" stroke-linejoin="round"/>
<path d="M918.21 114.439C918.21 115.607 918.21 130.307 918.21 137.512" stroke="white" stroke-opacity="0.1" stroke-width="7.3024" stroke-linecap="round" stroke-linejoin="round"/>
<path d="M894.835 177.129C894.835 177.605 894.835 183.601 894.835 186.54" stroke="white" stroke-opacity="0.1" stroke-width="7.3024" stroke-linecap="round" stroke-linejoin="round"/>
<path d="M943.796 89.8491C943.796 87.8326 942.161 86.1979 940.145 86.1979C938.128 86.1979 936.494 87.8326 936.494 89.8491H943.796ZM922.777 142.68C920.76 142.68 919.125 144.315 919.125 146.331C919.125 148.348 920.76 149.982 922.777 149.982V142.68ZM897.796 162.852C895.779 162.852 894.145 164.487 894.145 166.503C894.145 168.52 895.779 170.154 897.796 170.154V162.852ZM920.718 151.315C920.718 149.298 919.084 147.664 917.067 147.664C915.051 147.664 913.416 149.298 913.416 151.315H920.718ZM936.494 89.8491V111.454H943.796V89.8491H936.494ZM936.494 111.454C936.494 112.808 935.38 113.955 933.942 113.955V121.258C939.356 121.258 943.796 116.898 943.796 111.454H936.494ZM933.942 113.955C928.526 113.955 924.088 118.319 924.088 123.762H931.39C931.39 122.405 932.506 121.258 933.942 121.258V113.955ZM924.088 123.762V125.038H931.39V123.762H924.088ZM924.088 125.038C924.088 130.481 928.526 134.845 933.942 134.845V127.542C932.506 127.542 931.39 126.395 931.39 125.038H924.088ZM933.942 134.845C935.378 134.845 936.494 135.992 936.494 137.349H943.796C943.796 131.906 939.358 127.542 933.942 127.542V134.845ZM936.494 137.349V138.762H943.796V137.349H936.494ZM936.494 138.762C936.494 140.9 934.74 142.68 932.517 142.68V149.982C938.72 149.982 943.796 144.985 943.796 138.762H936.494ZM932.517 142.68H928.566V149.982H932.517V142.68ZM928.566 142.68H922.777V149.982H928.566V142.68ZM897.796 170.154H901.86V162.852H897.796V170.154ZM901.86 170.154C912.271 170.154 920.718 161.724 920.718 151.315H913.416C913.416 157.682 908.246 162.852 901.86 162.852V170.154Z" fill="white" fill-opacity="0.1"/>
<path d="M977.787 59.9346V63.0132C977.787 67.3555 974.256 70.8755 969.902 70.8755V70.8755C965.547 70.8755 962.016 67.3555 962.016 63.0132V60.4632C962.016 56.1539 958.512 52.6606 954.192 52.6606V52.6606C949.87 52.6606 946.366 56.1539 946.366 60.4632V63.6016" stroke="white" stroke-opacity="0.1" stroke-width="7.3024" stroke-linecap="round" stroke-linejoin="round"/>
<path fill-rule="evenodd" clip-rule="evenodd" d="M918.285 195.946C918.285 189.83 923.246 184.871 929.365 184.871V184.871C935.484 184.871 940.446 189.83 940.446 195.946V204.001C940.446 210.118 935.484 215.077 929.365 215.077V215.077C923.246 215.077 918.285 210.118 918.285 204.001V195.946Z" stroke="white" stroke-opacity="0.1" stroke-width="7.3024" stroke-linecap="round" stroke-linejoin="round"/>
<path d="M1246.85 152.387C1246.85 157.249 1242.94 161.191 1238.12 161.191C1233.3 161.191 1229.39 157.249 1229.39 152.387" stroke="white" stroke-opacity="0.1" stroke-width="7.3024" stroke-linecap="round" stroke-linejoin="round"/>
<path d="M1246.85 24.2757C1240.81 24.2757 1235.92 19.3487 1235.92 13.2709C1235.92 7.19313 1240.81 2.26611 1246.85 2.26611" stroke="white" stroke-opacity="0.1" stroke-width="7.3024" stroke-linecap="round" stroke-linejoin="round"/>
<path d="M1089.29 11.2079C1089.29 16.2456 1093.37 20.3296 1098.4 20.3296C1103.43 20.3296 1107.5 16.2456 1107.5 11.2079V0.900391" stroke="white" stroke-opacity="0.1" stroke-width="7.3024" stroke-linecap="round" stroke-linejoin="round"/>
<path d="M1024.81 215.076C1013.48 215.076 1004.29 205.937 1004.29 194.66C1004.29 183.384 1013.48 174.245 1024.81 174.245H1043.6" stroke="white" stroke-opacity="0.1" stroke-width="7.3024" stroke-linecap="round" stroke-linejoin="round"/>
<path d="M1023.56 201.112C1019.79 201.112 1016.73 198.156 1016.73 194.509C1016.73 190.862 1019.79 187.906 1023.56 187.906H1030.85" stroke="white" stroke-opacity="0.1" stroke-width="7.3024" stroke-linecap="round" stroke-linejoin="round"/>
<path d="M1044.36 0.900462L1014.55 0.900391C1008.71 0.900391 1003.98 5.5216 1003.98 11.2221" stroke="white" stroke-opacity="0.1" stroke-width="7.3024" stroke-linecap="round" stroke-linejoin="round"/>
<path d="M1173.68 1.20419L1211.9 1.2041C1219.38 1.2041 1225.44 7.25245 1225.44 14.7134" stroke="white" stroke-opacity="0.1" stroke-width="7.3024" stroke-linecap="round" stroke-linejoin="round"/>
<path d="M1246.85 70.8753V45.3261C1246.85 40.3229 1242.77 36.2671 1237.74 36.2671C1232.71 36.2671 1228.63 40.3229 1228.63 45.3261V49.2807" stroke="white" stroke-opacity="0.1" stroke-width="7.3024" stroke-linecap="round" stroke-linejoin="round"/>
<path d="M1106.14 150.959C1108.15 150.959 1109.79 149.324 1109.79 147.308C1109.79 145.291 1108.15 143.656 1106.14 143.656V150.959ZM1090.14 175.689C1092.16 175.689 1093.79 174.054 1093.79 172.037C1093.79 170.021 1092.16 168.386 1090.14 168.386V175.689ZM1059.66 218.727C1061.68 218.727 1063.32 217.093 1063.32 215.076C1063.32 213.06 1061.68 211.425 1059.66 211.425V218.727ZM1093.87 184.877C1093.87 182.861 1092.24 181.226 1090.22 181.226C1088.21 181.226 1086.57 182.861 1086.57 184.877H1093.87ZM1066.79 90.001C1066.79 87.9845 1065.16 86.3498 1063.14 86.3498C1061.13 86.3498 1059.49 87.9845 1059.49 90.001H1066.79ZM1102.48 134.229C1102.48 136.246 1104.12 137.88 1106.14 137.88C1108.15 137.88 1109.79 136.246 1109.79 134.229H1102.48ZM1106.14 143.656H1078.9V150.959H1106.14V143.656ZM1078.9 143.656C1070.04 143.656 1062.82 150.809 1062.82 159.672H1070.12C1070.12 154.878 1074.03 150.959 1078.9 150.959V143.656ZM1062.82 159.672C1062.82 168.536 1070.04 175.689 1078.9 175.689V168.386C1074.03 168.386 1070.12 164.467 1070.12 159.672H1062.82ZM1078.9 175.689H1090.14V168.386H1078.9V175.689ZM1059.66 211.425H1058.04V218.727H1059.66V211.425ZM1058.04 211.425C1055.27 211.425 1053.02 209.175 1053.02 206.393H1045.72C1045.72 213.2 1051.23 218.727 1058.04 218.727V211.425ZM1053.02 206.393C1053.02 203.609 1055.27 201.359 1058.04 201.359V194.057C1051.23 194.057 1045.72 199.585 1045.72 206.393H1053.02ZM1058.04 201.359H1077.41V194.057H1058.04V201.359ZM1077.41 201.359C1086.5 201.359 1093.87 193.977 1093.87 184.877H1086.57C1086.57 189.951 1082.46 194.057 1077.41 194.057V201.359ZM1059.49 90.001V99.7589H1066.79V90.001H1059.49ZM1059.49 99.7589C1059.49 113.657 1070.75 124.931 1084.64 124.931V117.629C1074.79 117.629 1066.79 109.632 1066.79 99.7589H1059.49ZM1084.64 124.931H1093.2V117.629H1084.64V124.931ZM1093.2 124.931C1098.32 124.931 1102.48 129.09 1102.48 134.229H1109.79C1109.79 125.065 1102.37 117.629 1093.2 117.629V124.931Z" fill="white" fill-opacity="0.1"/>
<path fill-rule="evenodd" clip-rule="evenodd" d="M1093.23 66.4738C1096.59 66.4738 1099.31 63.7554 1099.31 60.4022C1099.31 57.0489 1096.59 54.3306 1093.23 54.3306C1089.88 54.3306 1087.16 57.0489 1087.16 60.4022C1087.16 63.7554 1089.88 66.4738 1093.23 66.4738Z" stroke="white" stroke-opacity="0.1" stroke-width="7.3024" stroke-linecap="round" stroke-linejoin="round"/>
<path fill-rule="evenodd" clip-rule="evenodd" d="M1109.93 190.942C1114.79 190.942 1118.73 187.034 1118.73 182.214C1118.73 177.393 1114.79 173.486 1109.93 173.486C1105.07 173.486 1101.13 177.393 1101.13 182.214C1101.13 187.034 1105.07 190.942 1109.93 190.942Z" stroke="white" stroke-opacity="0.1" stroke-width="7.3024" stroke-linecap="round" stroke-linejoin="round"/>
<path fill-rule="evenodd" clip-rule="evenodd" d="M1031.91 49.3214C1037.19 49.3214 1041.47 45.04 1041.47 39.7586C1041.47 34.4772 1037.19 30.1958 1031.91 30.1958C1026.63 30.1958 1022.35 34.4772 1022.35 39.7586C1022.35 45.04 1026.63 49.3214 1031.91 49.3214Z" stroke="white" stroke-opacity="0.1" stroke-width="7.3024" stroke-linecap="round" stroke-linejoin="round"/>
<path d="M1031.99 60.5537C1043.77 60.5537 1053.31 51.1415 1053.31 39.5308C1053.31 27.9201 1043.77 18.5078 1031.99 18.5078C1020.21 18.5078 1010.66 27.9201 1010.66 39.5308" stroke="white" stroke-opacity="0.1" stroke-width="7.3024" stroke-linecap="round" stroke-linejoin="round"/>
<path d="M1203.01 186.609C1199.77 198.724 1206.78 211.131 1218.67 214.323C1230.55 217.513 1242.82 210.278 1246.06 198.163C1249.3 186.048 1242.29 173.641 1230.4 170.45" stroke="white" stroke-opacity="0.1" stroke-width="7.3024" stroke-linecap="round" stroke-linejoin="round"/>
<path d="M1077.12 188.522C1079.14 188.522 1080.77 186.887 1080.77 184.87C1080.77 182.854 1079.14 181.219 1077.12 181.219V188.522ZM1060.4 147.704C1061.39 145.946 1060.76 143.72 1059 142.733C1057.24 141.745 1055.02 142.37 1054.03 144.129L1060.4 147.704ZM1093.08 137.216C1095.1 137.216 1096.73 135.581 1096.73 133.565C1096.73 131.548 1095.1 129.914 1093.08 129.914V137.216ZM1061.29 135.435C1059.7 136.674 1059.42 138.968 1060.66 140.559C1061.9 142.15 1064.19 142.435 1065.78 141.196L1061.29 135.435ZM1077.12 181.219C1066.55 181.219 1057.42 171.723 1057.42 159.295H1050.12C1050.12 175.117 1061.9 188.522 1077.12 188.522V181.219ZM1057.42 159.295C1057.42 155.019 1058.52 151.052 1060.4 147.704L1054.03 144.129C1051.54 148.565 1050.12 153.762 1050.12 159.295H1057.42ZM1093.08 129.914H1077.17V137.216H1093.08V129.914ZM1077.17 129.914C1071.22 129.914 1065.73 131.978 1061.29 135.435L1065.78 141.196C1069.02 138.673 1072.95 137.216 1077.17 137.216V129.914Z" fill="white" fill-opacity="0.1"/>
<path d="M1053.85 63.5898C1049.03 63.5898 1045.12 67.4974 1045.12 72.3178C1045.12 77.1382 1049.03 81.0457 1053.85 81.0457C1058.67 81.0457 1062.57 77.1382 1062.57 72.3178V63.5898" stroke="white" stroke-opacity="0.1" stroke-width="7.3024" stroke-linecap="round" stroke-linejoin="round"/>
<path d="M1056.5 12.5124C1056.5 18.9254 1061.67 24.1243 1068.04 24.1243C1074.41 24.1243 1079.57 18.9254 1079.57 12.5124C1079.57 6.09925 1074.41 0.900391 1068.04 0.900391L1056.5 0.900391" stroke="white" stroke-opacity="0.1" stroke-width="7.3024" stroke-linecap="round" stroke-linejoin="round"/>
<path d="M1014.84 132.287C1009.26 132.287 1004.74 127.816 1004.74 122.301C1004.74 116.785 1009.26 112.314 1014.84 112.314C1020.41 112.314 1024.93 116.785 1024.93 122.301V152.842" stroke="white" stroke-opacity="0.1" stroke-width="7.3024" stroke-linecap="round" stroke-linejoin="round"/>
<path d="M1225.9 132.806C1225.9 137.92 1229.98 142.065 1235.01 142.065C1240.04 142.065 1244.11 137.92 1244.11 132.806C1244.11 127.692 1240.04 123.547 1235.01 123.547H1204.5" stroke="white" stroke-opacity="0.1" stroke-width="7.3024" stroke-linecap="round" stroke-linejoin="round"/>
<path d="M1150.61 21.9674C1145.25 21.9674 1140.9 26.2559 1140.9 31.5461C1140.9 36.8363 1145.25 41.1248 1150.61 41.1248C1155.98 41.1248 1160.33 36.8363 1160.33 31.5461V0.748535" stroke="white" stroke-opacity="0.1" stroke-width="7.3024" stroke-linecap="round" stroke-linejoin="round"/>
<path d="M1142.86 206.272C1142.86 201.41 1146.77 197.468 1151.59 197.468C1156.41 197.468 1160.32 201.41 1160.32 206.272C1160.32 211.134 1156.41 215.076 1151.59 215.076H1137.71" stroke="white" stroke-opacity="0.1" stroke-width="7.3024" stroke-linecap="round" stroke-linejoin="round"/>
<path d="M1169.36 86.1425C1174.18 86.1425 1178.08 90.0304 1178.08 94.8266C1178.08 99.6228 1174.18 103.511 1169.36 103.511C1164.54 103.511 1160.63 99.6228 1160.63 94.8266V62.3755" stroke="white" stroke-opacity="0.1" stroke-width="7.3024" stroke-linecap="round" stroke-linejoin="round"/>
<path d="M1013.47 87.0727C1008.65 87.0727 1004.74 90.9222 1004.74 95.671C1004.74 100.42 1008.65 104.269 1013.47 104.269C1018.29 104.269 1022.2 100.42 1022.2 95.671V60.5537" stroke="white" stroke-opacity="0.1" stroke-width="7.3024" stroke-linecap="round" stroke-linejoin="round"/>
<path d="M1108.52 60.5534C1108.52 51.9188 1101.63 44.9189 1093.14 44.9189C1084.64 44.9189 1077.75 51.9188 1077.75 60.5534C1077.75 69.1879 1084.64 76.1878 1093.14 76.1878H1133.46" stroke="white" stroke-opacity="0.1" stroke-width="7.3024" stroke-linecap="round" stroke-linejoin="round"/>
<path d="M1231.46 111.1C1239.96 111.1 1246.85 104.101 1246.85 95.466C1246.85 86.8314 1239.96 79.8315 1231.46 79.8315H1191.14" stroke="white" stroke-opacity="0.1" stroke-width="7.3024" stroke-linecap="round" stroke-linejoin="round"/>
<path fill-rule="evenodd" clip-rule="evenodd" d="M1172.01 27.3875C1172.01 19.2977 1178.5 12.7397 1186.5 12.7397L1201.39 12.7397C1209.39 12.7397 1215.88 19.2977 1215.88 27.3875V27.3875C1215.88 35.4773 1209.39 42.0353 1201.39 42.0353H1186.5C1178.5 42.0353 1172.01 35.4773 1172.01 27.3875V27.3875Z" stroke="white" stroke-opacity="0.1" stroke-width="7.3024" stroke-linecap="round" stroke-linejoin="round"/>
<path fill-rule="evenodd" clip-rule="evenodd" d="M1044.43 132.958C1039.45 132.958 1035.4 128.921 1035.4 123.941V98.2585C1035.4 93.279 1039.45 89.2422 1044.43 89.2422V89.2422C1049.42 89.2422 1053.47 93.279 1053.47 98.2585V123.941C1053.47 128.921 1049.42 132.958 1044.43 132.958V132.958Z" stroke="white" stroke-opacity="0.1" stroke-width="7.3024" stroke-linecap="round" stroke-linejoin="round"/>
<path d="M1129.66 121.498V107.938C1129.66 104.068 1132.82 100.93 1136.72 100.93V100.93C1140.62 100.93 1143.78 104.068 1143.78 107.938V135.058C1143.78 138.928 1140.62 142.065 1136.72 142.065V142.065V142.065C1132.82 142.065 1129.66 138.928 1129.66 135.058V131.782" stroke="white" stroke-opacity="0.1" stroke-width="7.3024" stroke-linecap="round" stroke-linejoin="round"/>
<path d="M1142.72 49.0074V50.1896C1142.72 56.9197 1137.25 62.3755 1130.5 62.3755V62.3755C1123.75 62.3755 1118.28 56.9197 1118.28 50.1896V13.0863C1118.28 6.3562 1123.75 0.900391 1130.5 0.900391V0.900391C1137.25 0.900391 1142.72 6.3562 1142.72 13.0863V13.45" stroke="white" stroke-opacity="0.1" stroke-width="7.3024" stroke-linecap="round" stroke-linejoin="round"/>
<path d="M1014.87 145.253H1014.14C1008.95 145.253 1004.74 149.466 1004.74 154.664V154.664C1004.74 159.862 1008.95 164.075 1014.14 164.075H1035.87C1041.06 164.075 1045.27 159.862 1045.27 154.664V154.664C1045.27 149.466 1041.06 145.253 1035.87 145.253H1035.14" stroke="white" stroke-opacity="0.1" stroke-width="7.3024" stroke-linecap="round" stroke-linejoin="round"/>
<path d="M1117.98 100.93V136.09C1117.98 146.6 1126.57 155.119 1137.18 155.119C1147.78 155.119 1156.38 146.6 1156.38 136.09V127.783" stroke="white" stroke-opacity="0.1" stroke-width="7.3024" stroke-linecap="round" stroke-linejoin="round"/>
<path d="M1079.42 160.432H1110.96C1122.97 160.432 1132.7 170.218 1132.7 182.289C1132.7 194.36 1122.97 204.147 1110.96 204.147H1101.47" stroke="white" stroke-opacity="0.1" stroke-width="7.3024" stroke-linecap="round" stroke-linejoin="round"/>
<path d="M1092.93 107.154H1085.47C1080.45 107.154 1076.39 103.076 1076.39 98.0464C1076.39 93.0165 1080.45 88.939 1085.47 88.939H1100.4C1105.41 88.939 1109.48 93.0165 1109.48 98.0464V98.8555C1109.48 103.439 1105.77 107.154 1101.2 107.154" stroke="white" stroke-opacity="0.1" stroke-width="7.3024" stroke-linecap="round" stroke-linejoin="round"/>
<path d="M1169.36 72.3935H1177.89C1183.61 72.3935 1188.26 68.01 1188.26 62.603C1188.26 57.1959 1183.61 52.8125 1177.89 52.8125H1160.83C1155.1 52.8125 1150.46 57.1959 1150.46 62.603" stroke="white" stroke-opacity="0.1" stroke-width="7.3024" stroke-linecap="round" stroke-linejoin="round"/>
<path d="M1106.44 31.5615L1086 31.5615C1073.06 31.5615 1062.57 42.0951 1062.57 55.089" stroke="white" stroke-opacity="0.1" stroke-width="7.3024" stroke-linecap="round" stroke-linejoin="round"/>
<path d="M1224 183.935C1228.82 183.935 1232.73 187.815 1232.73 192.599C1232.73 197.384 1228.82 201.264 1224 201.264C1219.18 201.264 1215.27 197.384 1215.27 192.599V136.146" stroke="white" stroke-opacity="0.1" stroke-width="7.3024" stroke-linecap="round" stroke-linejoin="round"/>
<path d="M1158.66 189.576C1158.66 180.69 1165.77 173.486 1174.54 173.486H1202.52" stroke="white" stroke-opacity="0.1" stroke-width="7.3024" stroke-linecap="round" stroke-linejoin="round"/>
<path d="M1117.37 88.9385H1132.3C1142.33 88.9385 1150.46 80.7833 1150.46 70.7236" stroke="white" stroke-opacity="0.1" stroke-width="7.3024" stroke-linecap="round" stroke-linejoin="round"/>
<path d="M1204.5 136.449V144.609C1204.5 152.845 1197.82 159.521 1189.58 159.521H1177.93" stroke="white" stroke-opacity="0.1" stroke-width="7.3024" stroke-linecap="round" stroke-linejoin="round"/>
<path d="M1232.73 95.769H1219.98C1210.76 95.769 1203.28 103.313 1203.28 112.618" stroke="white" stroke-opacity="0.1" stroke-width="7.3024" stroke-linecap="round" stroke-linejoin="round"/>
<path d="M1037.07 215.077V201.246C1037.07 193.283 1043.29 186.612 1051.64 184.871" stroke="white" stroke-opacity="0.1" stroke-width="7.3024" stroke-linecap="round" stroke-linejoin="round"/>
<path d="M1010.74 50.2324C1010.74 51.6461 1010.74 69.4411 1010.74 78.1619" stroke="white" stroke-opacity="0.1" stroke-width="7.3024" stroke-linecap="round" stroke-linejoin="round"/>
<path d="M1169.21 114.439C1169.21 115.607 1169.21 130.307 1169.21 137.512" stroke="white" stroke-opacity="0.1" stroke-width="7.3024" stroke-linecap="round" stroke-linejoin="round"/>
<path d="M1145.83 177.129C1145.83 177.605 1145.83 183.601 1145.83 186.54" stroke="white" stroke-opacity="0.1" stroke-width="7.3024" stroke-linecap="round" stroke-linejoin="round"/>
<path d="M1194.79 89.8491C1194.79 87.8326 1193.16 86.1979 1191.14 86.1979C1189.12 86.1979 1187.49 87.8326 1187.49 89.8491H1194.79ZM1178.73 123.762H1175.08H1178.73ZM1178.73 125.038H1182.39H1178.73ZM1173.77 142.68C1171.76 142.68 1170.12 144.315 1170.12 146.331C1170.12 148.348 1171.76 149.982 1173.77 149.982V142.68ZM1148.79 162.852C1146.77 162.852 1145.14 164.487 1145.14 166.503C1145.14 168.52 1146.77 170.154 1148.79 170.154V162.852ZM1171.71 151.315C1171.71 149.298 1170.08 147.664 1168.06 147.664C1166.05 147.664 1164.41 149.298 1164.41 151.315H1171.71ZM1187.49 89.8491V111.454H1194.79V89.8491H1187.49ZM1187.49 111.454C1187.49 112.808 1186.37 113.955 1184.94 113.955V121.258C1190.35 121.258 1194.79 116.898 1194.79 111.454H1187.49ZM1184.94 113.955C1179.52 113.955 1175.08 118.319 1175.08 123.762H1182.39C1182.39 122.405 1183.5 121.258 1184.94 121.258V113.955ZM1175.08 123.762V125.038H1182.39V123.762H1175.08ZM1175.08 125.038C1175.08 130.481 1179.52 134.845 1184.94 134.845V127.542C1183.5 127.542 1182.39 126.395 1182.39 125.038H1175.08ZM1184.94 134.845C1186.37 134.845 1187.49 135.992 1187.49 137.349H1194.79C1194.79 131.906 1190.35 127.542 1184.94 127.542V134.845ZM1187.49 137.349V138.762H1194.79V137.349H1187.49ZM1187.49 138.762C1187.49 140.9 1185.74 142.68 1183.51 142.68V149.982C1189.72 149.982 1194.79 144.985 1194.79 138.762H1187.49ZM1183.51 142.68H1179.56V149.982H1183.51V142.68ZM1179.56 142.68H1173.77V149.982H1179.56V142.68ZM1148.79 170.154H1152.86V162.852H1148.79V170.154ZM1152.86 170.154C1163.27 170.154 1171.71 161.724 1171.71 151.315H1164.41C1164.41 157.682 1159.24 162.852 1152.86 162.852V170.154Z" fill="white" fill-opacity="0.1"/>
<path d="M1228.78 59.9346V63.0132C1228.78 67.3555 1225.25 70.8755 1220.9 70.8755V70.8755C1216.54 70.8755 1213.01 67.3555 1213.01 63.0132V60.4632C1213.01 56.1539 1209.51 52.6606 1205.19 52.6606V52.6606C1200.87 52.6606 1197.36 56.1539 1197.36 60.4632V63.6016" stroke="white" stroke-opacity="0.1" stroke-width="7.3024" stroke-linecap="round" stroke-linejoin="round"/>
<path fill-rule="evenodd" clip-rule="evenodd" d="M1169.28 195.946C1169.28 189.83 1174.24 184.871 1180.36 184.871V184.871C1186.48 184.871 1191.44 189.83 1191.44 195.946V204.001C1191.44 210.118 1186.48 215.077 1180.36 215.077V215.077C1174.24 215.077 1169.28 210.118 1169.28 204.001V195.946Z" stroke="white" stroke-opacity="0.1" stroke-width="7.3024" stroke-linecap="round" stroke-linejoin="round"/>
<path d="M1340.28 11.2079C1340.28 16.2456 1344.36 20.3296 1349.39 20.3296C1354.42 20.3296 1358.5 16.2456 1358.5 11.2079V0.900391" stroke="white" stroke-opacity="0.1" stroke-width="7.3024" stroke-linecap="round" stroke-linejoin="round"/>
<path d="M1275.81 215.076C1264.47 215.076 1255.28 205.937 1255.28 194.66C1255.28 183.384 1264.47 174.245 1275.81 174.245H1294.6" stroke="white" stroke-opacity="0.1" stroke-width="7.3024" stroke-linecap="round" stroke-linejoin="round"/>
<path d="M1274.56 201.112C1270.78 201.112 1267.73 198.156 1267.73 194.509C1267.73 190.862 1270.78 187.906 1274.56 187.906H1281.84" stroke="white" stroke-opacity="0.1" stroke-width="7.3024" stroke-linecap="round" stroke-linejoin="round"/>
<path d="M1295.35 0.900462L1265.55 0.900391C1259.71 0.900391 1254.98 5.5216 1254.98 11.2221" stroke="white" stroke-opacity="0.1" stroke-width="7.3024" stroke-linecap="round" stroke-linejoin="round"/>
<path d="M1357.13 150.959C1359.15 150.959 1360.78 149.324 1360.78 147.308C1360.78 145.291 1359.15 143.656 1357.13 143.656V150.959ZM1341.14 175.689C1343.15 175.689 1344.79 174.054 1344.79 172.037C1344.79 170.021 1343.15 168.386 1341.14 168.386V175.689ZM1310.66 218.727C1312.68 218.727 1314.31 217.093 1314.31 215.076C1314.31 213.06 1312.68 211.425 1310.66 211.425V218.727ZM1344.87 184.877C1344.87 182.861 1343.23 181.226 1341.22 181.226C1339.2 181.226 1337.57 182.861 1337.57 184.877H1344.87ZM1317.79 90.001C1317.79 87.9845 1316.15 86.3498 1314.14 86.3498C1312.12 86.3498 1310.49 87.9845 1310.49 90.001H1317.79ZM1353.48 134.229C1353.48 136.246 1355.11 137.88 1357.13 137.88C1359.15 137.88 1360.78 136.246 1360.78 134.229H1353.48ZM1357.13 143.656H1329.89V150.959H1357.13V143.656ZM1329.89 143.656C1321.03 143.656 1313.81 150.809 1313.81 159.672H1321.11C1321.11 154.878 1325.03 150.959 1329.89 150.959V143.656ZM1313.81 159.672C1313.81 168.536 1321.03 175.689 1329.89 175.689V168.386C1325.03 168.386 1321.11 164.467 1321.11 159.672H1313.81ZM1329.89 175.689H1341.14V168.386H1329.89V175.689ZM1310.66 211.425H1309.04V218.727H1310.66V211.425ZM1309.04 211.425C1306.27 211.425 1304.01 209.175 1304.01 206.393H1296.71C1296.71 213.2 1302.22 218.727 1309.04 218.727V211.425ZM1304.01 206.393C1304.01 203.609 1306.27 201.359 1309.04 201.359V194.057C1302.22 194.057 1296.71 199.585 1296.71 206.393H1304.01ZM1309.04 201.359H1328.4V194.057H1309.04V201.359ZM1328.4 201.359C1337.5 201.359 1344.87 193.977 1344.87 184.877H1337.57C1337.57 189.951 1333.46 194.057 1328.4 194.057V201.359ZM1310.49 90.001V99.7589H1317.79V90.001H1310.49ZM1310.49 99.7589C1310.49 113.657 1321.74 124.931 1335.63 124.931V117.629C1325.78 117.629 1317.79 109.632 1317.79 99.7589H1310.49ZM1335.63 124.931H1344.2V117.629H1335.63V124.931ZM1344.2 124.931C1349.32 124.931 1353.48 129.09 1353.48 134.229H1360.78C1360.78 125.065 1353.36 117.629 1344.2 117.629V124.931Z" fill="white" fill-opacity="0.1"/>
<path fill-rule="evenodd" clip-rule="evenodd" d="M1344.23 66.4738C1347.58 66.4738 1350.3 63.7554 1350.3 60.4022C1350.3 57.0489 1347.58 54.3306 1344.23 54.3306C1340.88 54.3306 1338.16 57.0489 1338.16 60.4022C1338.16 63.7554 1340.88 66.4738 1344.23 66.4738Z" stroke="white" stroke-opacity="0.1" stroke-width="7.3024" stroke-linecap="round" stroke-linejoin="round"/>
<path fill-rule="evenodd" clip-rule="evenodd" d="M1360.93 190.942C1365.79 190.942 1369.73 187.034 1369.73 182.214C1369.73 177.393 1365.79 173.486 1360.93 173.486C1356.06 173.486 1352.12 177.393 1352.12 182.214C1352.12 187.034 1356.06 190.942 1360.93 190.942Z" stroke="white" stroke-opacity="0.1" stroke-width="7.3024" stroke-linecap="round" stroke-linejoin="round"/>
<path fill-rule="evenodd" clip-rule="evenodd" d="M1282.91 49.3214C1288.19 49.3214 1292.47 45.04 1292.47 39.7586C1292.47 34.4772 1288.19 30.1958 1282.91 30.1958C1277.63 30.1958 1273.34 34.4772 1273.34 39.7586C1273.34 45.04 1277.63 49.3214 1282.91 49.3214Z" stroke="white" stroke-opacity="0.1" stroke-width="7.3024" stroke-linecap="round" stroke-linejoin="round"/>
<path d="M1282.98 60.5537C1294.76 60.5537 1304.31 51.1415 1304.31 39.5308C1304.31 27.9201 1294.76 18.5078 1282.98 18.5078C1271.21 18.5078 1261.66 27.9201 1261.66 39.5308" stroke="white" stroke-opacity="0.1" stroke-width="7.3024" stroke-linecap="round" stroke-linejoin="round"/>
<path d="M1328.11 188.522C1330.13 188.522 1331.77 186.887 1331.77 184.87C1331.77 182.854 1330.13 181.219 1328.11 181.219V188.522ZM1311.39 147.704C1312.38 145.946 1311.76 143.72 1310 142.733C1308.24 141.745 1306.01 142.37 1305.03 144.129L1311.39 147.704ZM1344.08 137.216C1346.09 137.216 1347.73 135.581 1347.73 133.565C1347.73 131.548 1346.09 129.914 1344.08 129.914V137.216ZM1312.29 135.435C1310.7 136.674 1310.41 138.968 1311.65 140.559C1312.89 142.15 1315.19 142.435 1316.78 141.196L1312.29 135.435ZM1328.11 181.219C1317.54 181.219 1308.42 171.723 1308.42 159.295H1301.11C1301.11 175.117 1312.9 188.522 1328.11 188.522V181.219ZM1308.42 159.295C1308.42 155.019 1309.51 151.052 1311.39 147.704L1305.03 144.129C1302.54 148.565 1301.11 153.762 1301.11 159.295H1308.42ZM1344.08 129.914H1328.17V137.216H1344.08V129.914ZM1328.17 129.914C1322.22 129.914 1316.73 131.978 1312.29 135.435L1316.78 141.196C1320.01 138.673 1323.94 137.216 1328.17 137.216V129.914Z" fill="white" fill-opacity="0.1"/>
<path d="M1304.84 63.5898C1300.02 63.5898 1296.11 67.4974 1296.11 72.3178C1296.11 77.1382 1300.02 81.0457 1304.84 81.0457C1309.66 81.0457 1313.57 77.1382 1313.57 72.3178V63.5898" stroke="white" stroke-opacity="0.1" stroke-width="7.3024" stroke-linecap="round" stroke-linejoin="round"/>
<path d="M1307.5 12.5124C1307.5 18.9254 1312.66 24.1243 1319.03 24.1243C1325.4 24.1243 1330.57 18.9254 1330.57 12.5124C1330.57 6.09925 1325.4 0.900391 1319.03 0.900391L1307.5 0.900391" stroke="white" stroke-opacity="0.1" stroke-width="7.3024" stroke-linecap="round" stroke-linejoin="round"/>
<path d="M1265.83 132.287C1260.26 132.287 1255.74 127.816 1255.74 122.301C1255.74 116.785 1260.26 112.314 1265.83 112.314C1271.41 112.314 1275.92 116.785 1275.92 122.301V152.842" stroke="white" stroke-opacity="0.1" stroke-width="7.3024" stroke-linecap="round" stroke-linejoin="round"/>
<path d="M1401.61 21.9674C1396.24 21.9674 1391.89 26.2559 1391.89 31.5461C1391.89 36.8363 1396.24 41.1248 1401.61 41.1248C1406.97 41.1248 1411.32 36.8363 1411.32 31.5461V0.748535" stroke="white" stroke-opacity="0.1" stroke-width="7.3024" stroke-linecap="round" stroke-linejoin="round"/>
<path d="M1393.85 206.272C1393.85 201.41 1397.76 197.468 1402.59 197.468C1407.41 197.468 1411.32 201.41 1411.32 206.272C1411.32 211.134 1407.41 215.076 1402.59 215.076H1388.7" stroke="white" stroke-opacity="0.1" stroke-width="7.3024" stroke-linecap="round" stroke-linejoin="round"/>
<path d="M1420.35 86.1425C1425.17 86.1425 1429.08 90.0304 1429.08 94.8266C1429.08 99.6228 1425.17 103.511 1420.35 103.511C1415.53 103.511 1411.62 99.6228 1411.62 94.8266V62.3755" stroke="white" stroke-opacity="0.1" stroke-width="7.3024" stroke-linecap="round" stroke-linejoin="round"/>
<path d="M1264.46 87.0727C1259.64 87.0727 1255.74 90.9222 1255.74 95.671C1255.74 100.42 1259.64 104.269 1264.46 104.269C1269.29 104.269 1273.19 100.42 1273.19 95.671V60.5537" stroke="white" stroke-opacity="0.1" stroke-width="7.3024" stroke-linecap="round" stroke-linejoin="round"/>
<path d="M1359.52 60.5534C1359.52 51.9188 1352.63 44.9189 1344.13 44.9189C1335.63 44.9189 1328.75 51.9188 1328.75 60.5534C1328.75 69.1879 1335.63 76.1878 1344.13 76.1878H1384.45" stroke="white" stroke-opacity="0.1" stroke-width="7.3024" stroke-linecap="round" stroke-linejoin="round"/>
<path fill-rule="evenodd" clip-rule="evenodd" d="M1295.43 132.958C1290.44 132.958 1286.4 128.921 1286.4 123.941V98.2585C1286.4 93.279 1290.44 89.2422 1295.43 89.2422V89.2422C1300.42 89.2422 1304.46 93.279 1304.46 98.2585V123.941C1304.46 128.921 1300.42 132.958 1295.43 132.958V132.958Z" stroke="white" stroke-opacity="0.1" stroke-width="7.3024" stroke-linecap="round" stroke-linejoin="round"/>
<path d="M1380.66 121.498V107.938C1380.66 104.068 1383.82 100.93 1387.72 100.93V100.93C1391.62 100.93 1394.78 104.068 1394.78 107.938V135.058C1394.78 138.928 1391.62 142.065 1387.72 142.065V142.065V142.065C1383.82 142.065 1380.66 138.928 1380.66 135.058V131.782" stroke="white" stroke-opacity="0.1" stroke-width="7.3024" stroke-linecap="round" stroke-linejoin="round"/>
<path d="M1393.71 49.0074V50.1896C1393.71 56.9197 1388.24 62.3755 1381.49 62.3755V62.3755C1374.75 62.3755 1369.28 56.9197 1369.28 50.1896V13.0863C1369.28 6.3562 1374.75 0.900391 1381.49 0.900391V0.900391C1388.24 0.900391 1393.71 6.3562 1393.71 13.0863V13.45" stroke="white" stroke-opacity="0.1" stroke-width="7.3024" stroke-linecap="round" stroke-linejoin="round"/>
<path d="M1265.87 145.253H1265.14C1259.95 145.253 1255.74 149.466 1255.74 154.664V154.664C1255.74 159.862 1259.95 164.075 1265.14 164.075H1286.86C1292.06 164.075 1296.26 159.862 1296.26 154.664V154.664C1296.26 149.466 1292.06 145.253 1286.86 145.253H1286.13" stroke="white" stroke-opacity="0.1" stroke-width="7.3024" stroke-linecap="round" stroke-linejoin="round"/>
<path d="M1368.97 100.93V136.09C1368.97 146.6 1377.57 155.119 1388.17 155.119C1398.78 155.119 1407.37 146.6 1407.37 136.09V127.783" stroke="white" stroke-opacity="0.1" stroke-width="7.3024" stroke-linecap="round" stroke-linejoin="round"/>
<path d="M1330.42 160.432H1361.96C1373.96 160.432 1383.69 170.218 1383.69 182.289C1383.69 194.36 1373.96 204.147 1361.96 204.147H1352.47" stroke="white" stroke-opacity="0.1" stroke-width="7.3024" stroke-linecap="round" stroke-linejoin="round"/>
<path d="M1343.93 107.154H1336.46C1331.45 107.154 1327.38 103.076 1327.38 98.0464C1327.38 93.0165 1331.45 88.939 1336.46 88.939H1351.39C1356.41 88.939 1360.47 93.0165 1360.47 98.0464V98.8555C1360.47 103.439 1356.77 107.154 1352.2 107.154" stroke="white" stroke-opacity="0.1" stroke-width="7.3024" stroke-linecap="round" stroke-linejoin="round"/>
<path d="M1420.35 72.3935H1428.88C1434.61 72.3935 1439.25 68.01 1439.25 62.603C1439.25 57.1959 1434.61 52.8125 1428.88 52.8125H1411.83C1406.1 52.8125 1401.46 57.1959 1401.46 62.603" stroke="white" stroke-opacity="0.1" stroke-width="7.3024" stroke-linecap="round" stroke-linejoin="round"/>
<path d="M1357.44 31.5615L1336.99 31.5615C1324.06 31.5615 1313.57 42.0951 1313.57 55.089" stroke="white" stroke-opacity="0.1" stroke-width="7.3024" stroke-linecap="round" stroke-linejoin="round"/>
<path d="M1409.65 189.576C1409.65 180.69 1416.76 173.486 1425.53 173.486H1453.52" stroke="white" stroke-opacity="0.1" stroke-width="7.3024" stroke-linecap="round" stroke-linejoin="round"/>
<path d="M1368.37 88.9385H1383.3C1393.33 88.9385 1401.46 80.7833 1401.46 70.7236" stroke="white" stroke-opacity="0.1" stroke-width="7.3024" stroke-linecap="round" stroke-linejoin="round"/>
<path d="M1288.07 215.077V201.246C1288.07 193.283 1294.29 186.612 1302.64 184.871" stroke="white" stroke-opacity="0.1" stroke-width="7.3024" stroke-linecap="round" stroke-linejoin="round"/>
<path d="M1261.73 50.2324C1261.73 51.6461 1261.73 69.4411 1261.73 78.1619" stroke="white" stroke-opacity="0.1" stroke-width="7.3024" stroke-linecap="round" stroke-linejoin="round"/>
<path d="M1420.2 114.439C1420.2 115.607 1420.2 130.307 1420.2 137.512" stroke="white" stroke-opacity="0.1" stroke-width="7.3024" stroke-linecap="round" stroke-linejoin="round"/>
<path d="M1396.83 177.129C1396.83 177.605 1396.83 183.601 1396.83 186.54" stroke="white" stroke-opacity="0.1" stroke-width="7.3024" stroke-linecap="round" stroke-linejoin="round"/>
<path d="M1445.79 89.8491C1445.79 87.8326 1444.15 86.1979 1442.14 86.1979C1440.12 86.1979 1438.48 87.8326 1438.48 89.8491H1445.79ZM1424.77 142.68C1422.75 142.68 1421.12 144.315 1421.12 146.331C1421.12 148.348 1422.75 149.982 1424.77 149.982V142.68ZM1399.79 162.852C1397.77 162.852 1396.14 164.487 1396.14 166.503C1396.14 168.52 1397.77 170.154 1399.79 170.154V162.852ZM1422.71 151.315C1422.71 149.298 1421.07 147.664 1419.06 147.664C1417.04 147.664 1415.41 149.298 1415.41 151.315H1422.71ZM1438.48 89.8491V111.454H1445.79V89.8491H1438.48ZM1438.48 111.454C1438.48 112.808 1437.37 113.955 1435.93 113.955V121.258C1441.35 121.258 1445.79 116.898 1445.79 111.454H1438.48ZM1435.93 113.955C1430.52 113.955 1426.08 118.319 1426.08 123.762H1433.38C1433.38 122.405 1434.5 121.258 1435.93 121.258V113.955ZM1426.08 123.762V125.038H1433.38V123.762H1426.08ZM1426.08 125.038C1426.08 130.481 1430.52 134.845 1435.93 134.845V127.542C1434.5 127.542 1433.38 126.395 1433.38 125.038H1426.08ZM1435.93 134.845C1437.37 134.845 1438.48 135.992 1438.48 137.349H1445.79C1445.79 131.906 1441.35 127.542 1435.93 127.542V134.845ZM1438.48 137.349V138.762H1445.79V137.349H1438.48ZM1438.48 138.762C1438.48 140.9 1436.73 142.68 1434.51 142.68V149.982C1440.71 149.982 1445.79 144.985 1445.79 138.762H1438.48ZM1434.51 142.68H1430.56V149.982H1434.51V142.68ZM1430.56 142.68H1424.77V149.982H1430.56V142.68ZM1399.79 170.154H1403.85V162.852H1399.79V170.154ZM1403.85 170.154C1414.26 170.154 1422.71 161.724 1422.71 151.315H1415.41C1415.41 157.682 1410.24 162.852 1403.85 162.852V170.154Z" fill="white" fill-opacity="0.1"/>
<path fill-rule="evenodd" clip-rule="evenodd" d="M1420.28 195.946C1420.28 189.83 1425.24 184.871 1431.36 184.871V184.871C1437.48 184.871 1442.44 189.83 1442.44 195.946V204.001C1442.44 210.118 1437.48 215.077 1431.36 215.077V215.077C1425.24 215.077 1420.28 210.118 1420.28 204.001V195.946Z" stroke="white" stroke-opacity="0.1" stroke-width="7.3024" stroke-linecap="round" stroke-linejoin="round"/>
</g>
</g>
<defs>
<clipPath id="clip0_87_1844">
<rect width="1419" height="202.503" fill="white" transform="translate(0 0.748535)"/>
</clipPath>
</defs>
</svg>
