<svg width="100" height="27" viewBox="0 0 164 37" fill="none" xmlns="http://www.w3.org/2000/svg">
<path d="M0 2.1517V32.9092C0.000219796 32.976 0.0214495 33.0412 0.0610271 33.0966C0.100605 33.1521 0.156768 33.1954 0.222475 33.221C0.288182 33.2467 0.360507 33.2536 0.430382 33.2409C0.500256 33.2281 0.564569 33.1964 0.615255 33.1495L17.698 17.5312L0.615255 1.91143C0.564569 1.86458 0.500256 1.8328 0.430382 1.82008C0.360507 1.80736 0.288182 1.81426 0.222475 1.83992C0.156768 1.86558 0.100605 1.90885 0.0610271 1.96432C0.0214495 2.01978 0.000219796 2.08497 0 2.1517ZM24.8607 11.1136L3.44109 0.050322L3.42773 0.0432782C3.05874 -0.144554 2.70812 0.323462 3.01033 0.595818L19.8009 15.6474L24.8607 11.1136ZM3.012 34.4667C2.70812 34.739 3.05875 35.2071 3.4294 35.0192L3.44276 35.0122L24.8607 23.9489L19.8009 19.4135L3.012 34.4667ZM33.5076 15.5747L27.5262 12.4864L21.9021 17.5312L27.5262 22.5738L33.5076 19.4878C35.1347 18.6449 35.1347 16.4176 33.5076 15.5747Z" fill="white"/>
<path d="M56.7735 7.14631C56.5899 6.79271 56.3349 6.52751 56.0085 6.35071C55.6821 6.16711 55.3047 6.07531 54.8763 6.07531C54.4071 6.07531 53.9889 6.18071 53.6217 6.39151C53.2545 6.60231 52.9655 6.90151 52.7547 7.28911C52.5507 7.67671 52.4487 8.12551 52.4487 8.63551C52.4487 9.14551 52.5507 9.59771 52.7547 9.99211C52.9655 10.3797 53.2545 10.6789 53.6217 10.8897C53.9889 11.1005 54.4071 11.2059 54.8763 11.2059C55.5087 11.2059 56.0221 11.0291 56.4165 10.6755C56.8109 10.3219 57.0523 9.84251 57.1407 9.23731H54.4785V8.30911H58.3851V9.21691C58.3103 9.76771 58.1131 10.2743 57.7935 10.7367C57.4807 11.1991 57.0693 11.5697 56.5593 11.8485C56.0561 12.1205 55.4951 12.2565 54.8763 12.2565C54.2099 12.2565 53.6013 12.1035 53.0505 11.7975C52.4997 11.4847 52.0611 11.0529 51.7347 10.5021C51.4151 9.95131 51.2553 9.32911 51.2553 8.63551C51.2553 7.94191 51.4151 7.31971 51.7347 6.76891C52.0611 6.21811 52.4997 5.78971 53.0505 5.48371C53.6081 5.17091 54.2167 5.01451 54.8763 5.01451C55.6311 5.01451 56.3009 5.20151 56.8857 5.57551C57.4773 5.94271 57.9057 6.46631 58.1709 7.14631H56.7735ZM60.6947 6.04471V8.12551H63.1427V9.07411H60.6947V11.2467H63.4487V12.1953H59.5319V5.09611H63.4487V6.04471H60.6947ZM69.4608 5.10631V6.05491H67.5738V12.1953H66.411V6.05491H64.5138V5.10631H69.4608ZM74.4508 5.10631V12.1953H73.288V5.10631H74.4508ZM80.5572 5.10631V6.05491H78.6702V12.1953H77.5074V6.05491H75.6102V5.10631H80.5572ZM87.6179 12.2667C86.9583 12.2667 86.3497 12.1137 85.7921 11.8077C85.2413 11.4949 84.8027 11.0631 84.4763 10.5123C84.1567 9.95471 83.9969 9.32911 83.9969 8.63551C83.9969 7.94191 84.1567 7.31971 84.4763 6.76891C84.8027 6.21811 85.2413 5.78971 85.7921 5.48371C86.3497 5.17091 86.9583 5.01451 87.6179 5.01451C88.2843 5.01451 88.8929 5.17091 89.4437 5.48371C90.0013 5.78971 90.4399 6.21811 90.7595 6.76891C91.0791 7.31971 91.2389 7.94191 91.2389 8.63551C91.2389 9.32911 91.0791 9.95471 90.7595 10.5123C90.4399 11.0631 90.0013 11.4949 89.4437 11.8077C88.8929 12.1137 88.2843 12.2667 87.6179 12.2667ZM87.6179 11.2569C88.0871 11.2569 88.5053 11.1515 88.8725 10.9407C89.2397 10.7231 89.5253 10.4171 89.7293 10.0227C89.9401 9.62151 90.0455 9.15911 90.0455 8.63551C90.0455 8.11191 89.9401 7.65291 89.7293 7.25851C89.5253 6.86411 89.2397 6.56151 88.8725 6.35071C88.5053 6.13991 88.0871 6.03451 87.6179 6.03451C87.1487 6.03451 86.7305 6.13991 86.3633 6.35071C85.9961 6.56151 85.7071 6.86411 85.4963 7.25851C85.2923 7.65291 85.1903 8.11191 85.1903 8.63551C85.1903 9.15911 85.2923 9.62151 85.4963 10.0227C85.7071 10.4171 85.9961 10.7231 86.3633 10.9407C86.7305 11.1515 87.1487 11.2569 87.6179 11.2569ZM98.2073 12.1953H97.0445L93.5459 6.90151V12.1953H92.3831V5.09611H93.5459L97.0445 10.3797V5.09611H98.2073V12.1953Z" fill="white"/>
<path d="M61.2564 22.1198C60.9572 21.5712 60.5458 21.1536 60.0222 20.8669C59.4986 20.5801 58.8877 20.4368 58.1896 20.4368C57.4166 20.4368 56.731 20.6113 56.1326 20.9604C55.5342 21.3094 55.0667 21.8081 54.7301 22.4564C54.3935 23.1046 54.2252 23.8526 54.2252 24.7004C54.2252 25.573 54.3935 26.3335 54.7301 26.9818C55.0791 27.63 55.5591 28.1287 56.17 28.4778C56.7808 28.8268 57.4914 29.0014 58.3018 29.0014C59.2991 29.0014 60.1157 28.7396 60.7515 28.216C61.3873 27.6799 61.8049 26.9381 62.0044 25.9907H57.5164V23.9898H64.585V26.2712C64.4104 27.1812 64.0364 28.0227 63.463 28.7957C62.8895 29.5686 62.1477 30.1919 61.2377 30.6657C60.3401 31.1269 59.3303 31.3576 58.2083 31.3576C56.9491 31.3576 55.8084 31.0771 54.7862 30.5161C53.7764 29.9426 52.9785 29.151 52.3926 28.1412C51.8191 27.1314 51.5324 25.9844 51.5324 24.7004C51.5324 23.4163 51.8191 22.2694 52.3926 21.2596C52.9785 20.2373 53.7764 19.4457 54.7862 18.8847C55.8084 18.3112 56.9429 18.0245 58.1896 18.0245C59.6606 18.0245 60.9385 18.386 62.0231 19.1091C63.1077 19.8197 63.8557 20.8232 64.2671 22.1198H61.2564ZM71.1221 31.4137C70.1247 31.4137 69.2271 31.1955 68.4293 30.7592C67.6314 30.3104 67.0018 29.6808 66.5406 28.8705C66.0918 28.0601 65.8674 27.1251 65.8674 26.0655C65.8674 25.0058 66.098 24.0708 66.5593 23.2605C67.033 22.4501 67.675 21.8268 68.4854 21.3905C69.2957 20.9417 70.1995 20.7173 71.1969 20.7173C72.1942 20.7173 73.098 20.9417 73.9084 21.3905C74.7187 21.8268 75.3545 22.4501 75.8158 23.2605C76.2895 24.0708 76.5264 25.0058 76.5264 26.0655C76.5264 27.1251 76.2833 28.0601 75.7971 28.8705C75.3233 29.6808 74.6751 30.3104 73.8523 30.7592C73.0419 31.1955 72.1319 31.4137 71.1221 31.4137ZM71.1221 29.1323C71.5958 29.1323 72.0384 29.0201 72.4498 28.7957C72.8736 28.5588 73.2102 28.2097 73.4596 27.7485C73.7089 27.2872 73.8336 26.7262 73.8336 26.0655C73.8336 25.0806 73.5718 24.3264 73.0482 23.8028C72.537 23.2667 71.9075 22.9987 71.1595 22.9987C70.4115 22.9987 69.7819 23.2667 69.2708 23.8028C68.7721 24.3264 68.5228 25.0806 68.5228 26.0655C68.5228 27.0503 68.7659 27.8108 69.2521 28.3469C69.7507 28.8705 70.3741 29.1323 71.1221 29.1323ZM83.047 31.4137C82.0496 31.4137 81.152 31.1955 80.3542 30.7592C79.5563 30.3104 78.9267 29.6808 78.4655 28.8705C78.0167 28.0601 77.7923 27.1251 77.7923 26.0655C77.7923 25.0058 78.0229 24.0708 78.4842 23.2605C78.9579 22.4501 79.5999 21.8268 80.4103 21.3905C81.2206 20.9417 82.1244 20.7173 83.1218 20.7173C84.1191 20.7173 85.023 20.9417 85.8333 21.3905C86.6436 21.8268 87.2794 22.4501 87.7407 23.2605C88.2144 24.0708 88.4513 25.0058 88.4513 26.0655C88.4513 27.1251 88.2082 28.0601 87.722 28.8705C87.2482 29.6808 86.6 30.3104 85.7772 30.7592C84.9669 31.1955 84.0568 31.4137 83.047 31.4137ZM83.047 29.1323C83.5207 29.1323 83.9633 29.0201 84.3747 28.7957C84.7985 28.5588 85.1352 28.2097 85.3845 27.7485C85.6338 27.2872 85.7585 26.7262 85.7585 26.0655C85.7585 25.0806 85.4967 24.3264 84.9731 23.8028C84.4619 23.2667 83.8324 22.9987 83.0844 22.9987C82.3364 22.9987 81.7068 23.2667 81.1957 23.8028C80.697 24.3264 80.4477 25.0806 80.4477 26.0655C80.4477 27.0503 80.6908 27.8108 81.177 28.3469C81.6756 28.8705 82.299 29.1323 83.047 29.1323ZM94.4296 20.7173C95.2025 20.7173 95.882 20.8731 96.4679 21.1848C97.0538 21.484 97.5151 21.8767 97.8517 22.3629V20.8856H100.488V31.3202C100.488 32.2801 100.295 33.1341 99.9087 33.8821C99.5222 34.6425 98.9425 35.2409 98.1696 35.6773C97.3967 36.1261 96.4617 36.3505 95.3646 36.3505C93.8935 36.3505 92.6843 36.0076 91.7368 35.322C90.8018 34.6363 90.272 33.7013 90.1473 32.517H92.7466C92.8837 32.9907 93.1767 33.3647 93.6255 33.639C94.0868 33.9257 94.6415 34.0691 95.2898 34.0691C96.0503 34.0691 96.6674 33.8384 97.1411 33.3772C97.6148 32.9284 97.8517 32.2427 97.8517 31.3202V29.712C97.5151 30.1982 97.0476 30.6033 96.4492 30.9275C95.8633 31.2516 95.1901 31.4137 94.4296 31.4137C93.5569 31.4137 92.7591 31.1893 92.036 30.7405C91.3129 30.2917 90.7395 29.6621 90.3156 28.8518C89.9042 28.029 89.6985 27.0877 89.6985 26.0281C89.6985 24.9809 89.9042 24.0521 90.3156 23.2418C90.7395 22.4314 91.3067 21.8081 92.0173 21.3718C92.7404 20.9354 93.5445 20.7173 94.4296 20.7173ZM97.8517 26.0655C97.8517 25.4297 97.727 24.8874 97.4777 24.4386C97.2284 23.9773 96.8918 23.6282 96.4679 23.3914C96.044 23.142 95.589 23.0174 95.1028 23.0174C94.6166 23.0174 94.1678 23.1358 93.7564 23.3727C93.345 23.6095 93.0084 23.9586 92.7466 24.4199C92.4973 24.8687 92.3726 25.4047 92.3726 26.0281C92.3726 26.6514 92.4973 27.1999 92.7466 27.6737C93.0084 28.1349 93.345 28.4902 93.7564 28.7396C94.1803 28.9889 94.6291 29.1136 95.1028 29.1136C95.589 29.1136 96.044 28.9951 96.4679 28.7583C96.8918 28.5089 97.2284 28.1599 97.4777 27.7111C97.727 27.2498 97.8517 26.7013 97.8517 26.0655ZM105.663 17.4074V31.2454H103.045V17.4074H105.663ZM117.88 25.8411C117.88 26.2151 117.855 26.5517 117.806 26.8509H110.232C110.294 27.5989 110.556 28.1848 111.018 28.6087C111.479 29.0325 112.046 29.2445 112.719 29.2445C113.692 29.2445 114.384 28.8268 114.795 27.9916H117.619C117.319 28.9889 116.746 29.8117 115.898 30.46C115.05 31.0958 114.01 31.4137 112.775 31.4137C111.778 31.4137 110.88 31.1955 110.083 30.7592C109.297 30.3104 108.68 29.6808 108.231 28.8705C107.795 28.0601 107.577 27.1251 107.577 26.0655C107.577 24.9933 107.795 24.0521 108.231 23.2418C108.668 22.4314 109.278 21.8081 110.064 21.3718C110.849 20.9354 111.753 20.7173 112.775 20.7173C113.76 20.7173 114.639 20.9292 115.412 21.3531C116.197 21.7769 116.802 22.3816 117.226 23.167C117.662 23.9399 117.88 24.8313 117.88 25.8411ZM115.169 25.0931C115.156 24.4199 114.913 23.8838 114.44 23.4849C113.966 23.0735 113.386 22.8678 112.701 22.8678C112.052 22.8678 111.504 23.0672 111.055 23.4662C110.619 23.8526 110.351 24.3949 110.251 25.0931H115.169ZM133.765 22.232C133.765 22.9301 133.597 23.5846 133.261 24.1955C132.936 24.8063 132.419 25.2988 131.708 25.6728C131.01 26.0468 130.125 26.2338 129.053 26.2338H126.865V31.2454H124.247V18.1928H129.053C130.063 18.1928 130.923 18.3673 131.634 18.7164C132.344 19.0654 132.874 19.5454 133.223 20.1563C133.585 20.7671 133.765 21.459 133.765 22.232ZM128.941 24.1207C129.664 24.1207 130.2 23.9586 130.549 23.6345C130.898 23.2979 131.073 22.8304 131.073 22.232C131.073 20.9604 130.362 20.3246 128.941 20.3246H126.865V24.1207H128.941ZM138.242 17.4074V31.2454H135.624V17.4074H138.242ZM140.156 26.0281C140.156 24.9809 140.361 24.0521 140.773 23.2418C141.197 22.4314 141.764 21.8081 142.474 21.3718C143.197 20.9354 144.002 20.7173 144.887 20.7173C145.66 20.7173 146.333 20.8731 146.906 21.1848C147.492 21.4964 147.96 21.8891 148.309 22.3629V20.8856H150.946V31.2454H148.309V29.7307C147.972 30.2169 147.505 30.622 146.906 30.9462C146.32 31.2578 145.641 31.4137 144.868 31.4137C143.995 31.4137 143.197 31.1893 142.474 30.7405C141.764 30.2917 141.197 29.6621 140.773 28.8518C140.361 28.029 140.156 27.0877 140.156 26.0281ZM148.309 26.0655C148.309 25.4297 148.184 24.8874 147.935 24.4386C147.685 23.9773 147.349 23.6282 146.925 23.3914C146.501 23.142 146.046 23.0174 145.56 23.0174C145.074 23.0174 144.625 23.1358 144.214 23.3727C143.802 23.6095 143.466 23.9586 143.204 24.4199C142.954 24.8687 142.83 25.4047 142.83 26.0281C142.83 26.6514 142.954 27.1999 143.204 27.6737C143.466 28.1349 143.802 28.4902 144.214 28.7396C144.637 28.9889 145.086 29.1136 145.56 29.1136C146.046 29.1136 146.501 28.9951 146.925 28.7583C147.349 28.5089 147.685 28.1599 147.935 27.7111C148.184 27.2498 148.309 26.7013 148.309 26.0655ZM163.413 20.8856L156.999 36.1448H154.213L156.457 30.9836L152.306 20.8856H155.242L157.916 28.1225L160.627 20.8856H163.413Z" fill="white"/>
</svg>
