<svg width="100" height="27" viewBox="0 0 143 40" fill="none" xmlns="http://www.w3.org/2000/svg">
<path d="M26.8198 35.5796C24.8019 37.5356 22.5988 37.2268 20.478 36.3002C18.2337 35.3531 16.1747 35.3119 13.8069 36.3002C10.8419 37.5768 9.27707 37.2062 7.50632 35.5796C-2.54161 25.2228 -1.05913 9.45082 10.3477 8.8743C13.1274 9.01843 15.0629 10.398 16.6895 10.5215C19.1191 10.0273 21.4458 8.60663 24.0401 8.79194C27.1492 9.03902 29.4965 10.2744 31.0407 12.4981C24.6166 16.3485 26.1403 24.811 32.0291 27.1788C30.8554 30.2673 29.3318 33.3353 26.7992 35.6002L26.8198 35.5796ZM16.4836 8.75076C16.1747 4.15919 19.9015 0.370621 24.1842 0C24.7814 5.31223 19.3662 9.26551 16.4836 8.75076Z" fill="white"/>
<path d="M48.7094 8.67784C49.4642 8.67784 50.1238 8.82404 50.6882 9.11645C51.2594 9.40205 51.698 9.81685 52.004 10.3608C52.3168 10.898 52.4732 11.527 52.4732 12.2478C52.4732 12.9686 52.3168 13.5942 52.004 14.1246C51.698 14.655 51.2594 15.063 50.6882 15.3486C50.1238 15.6274 49.4642 15.7668 48.7094 15.7668H46.394V8.67784H48.7094ZM48.7094 14.8182C49.539 14.8182 50.1748 14.5938 50.6168 14.145C51.0588 13.6962 51.2798 13.0638 51.2798 12.2478C51.2798 11.425 51.0588 10.7824 50.6168 10.32C50.1748 9.85764 49.539 9.62644 48.7094 9.62644H47.5568V14.8182H48.7094ZM56.0635 15.8586C55.5331 15.8586 55.0537 15.7396 54.6253 15.5016C54.1969 15.2568 53.8603 14.9168 53.6155 14.4816C53.3707 14.0396 53.2483 13.5296 53.2483 12.9516C53.2483 12.3804 53.3741 11.8738 53.6257 11.4318C53.8773 10.9898 54.2207 10.6498 54.6559 10.4118C55.0911 10.1738 55.5773 10.0548 56.1145 10.0548C56.6517 10.0548 57.1379 10.1738 57.5731 10.4118C58.0083 10.6498 58.3517 10.9898 58.6033 11.4318C58.8549 11.8738 58.9807 12.3804 58.9807 12.9516C58.9807 13.5228 58.8515 14.0294 58.5931 14.4714C58.3347 14.9134 57.9811 15.2568 57.5323 15.5016C57.0903 15.7396 56.6007 15.8586 56.0635 15.8586ZM56.0635 14.8488C56.3627 14.8488 56.6415 14.7774 56.8999 14.6346C57.1651 14.4918 57.3793 14.2776 57.5425 13.992C57.7057 13.7064 57.7873 13.3596 57.7873 12.9516C57.7873 12.5436 57.7091 12.2002 57.5527 11.9214C57.3963 11.6358 57.1889 11.4216 56.9305 11.2788C56.6721 11.136 56.3933 11.0646 56.0941 11.0646C55.7949 11.0646 55.5161 11.136 55.2577 11.2788C55.0061 11.4216 54.8055 11.6358 54.6559 11.9214C54.5063 12.2002 54.4315 12.5436 54.4315 12.9516C54.4315 13.5568 54.5845 14.026 54.8905 14.3592C55.2033 14.6856 55.5943 14.8488 56.0635 14.8488ZM67.6782 10.1466L65.934 15.7668H64.71L63.5778 11.6154L62.4456 15.7668H61.2216L59.4672 10.1466H60.6504L61.8234 14.6652L63.0168 10.1466H64.2306L65.373 14.6448L66.5358 10.1466H67.6782ZM71.3828 10.0548C71.8248 10.0548 72.2192 10.1466 72.566 10.3302C72.9196 10.5138 73.195 10.7858 73.3922 11.1462C73.5894 11.5066 73.688 11.9418 73.688 12.4518V15.7668H72.5354V12.6252C72.5354 12.122 72.4096 11.7378 72.158 11.4726C71.9064 11.2006 71.563 11.0646 71.1278 11.0646C70.6926 11.0646 70.3458 11.2006 70.0874 11.4726C69.8358 11.7378 69.71 12.122 69.71 12.6252V15.7668H68.5472V10.1466H69.71V10.7892C69.9004 10.558 70.1418 10.3778 70.4342 10.2486C70.7334 10.1194 71.0496 10.0548 71.3828 10.0548ZM76.334 8.21885V15.7668H75.1712V8.21885H76.334ZM80.2984 15.8586C79.768 15.8586 79.2886 15.7396 78.8602 15.5016C78.4318 15.2568 78.0952 14.9168 77.8504 14.4816C77.6056 14.0396 77.4832 13.5296 77.4832 12.9516C77.4832 12.3804 77.609 11.8738 77.8606 11.4318C78.1122 10.9898 78.4556 10.6498 78.8908 10.4118C79.326 10.1738 79.8122 10.0548 80.3494 10.0548C80.8866 10.0548 81.3728 10.1738 81.808 10.4118C82.2432 10.6498 82.5866 10.9898 82.8382 11.4318C83.0898 11.8738 83.2156 12.3804 83.2156 12.9516C83.2156 13.5228 83.0864 14.0294 82.828 14.4714C82.5696 14.9134 82.216 15.2568 81.7672 15.5016C81.3252 15.7396 80.8356 15.8586 80.2984 15.8586ZM80.2984 14.8488C80.5976 14.8488 80.8764 14.7774 81.1348 14.6346C81.4 14.4918 81.6142 14.2776 81.7774 13.992C81.9406 13.7064 82.0222 13.3596 82.0222 12.9516C82.0222 12.5436 81.944 12.2002 81.7876 11.9214C81.6312 11.6358 81.4238 11.4216 81.1654 11.2788C80.907 11.136 80.6282 11.0646 80.329 11.0646C80.0298 11.0646 79.751 11.136 79.4926 11.2788C79.241 11.4216 79.0404 11.6358 78.8908 11.9214C78.7412 12.2002 78.6664 12.5436 78.6664 12.9516C78.6664 13.5568 78.8194 14.026 79.1254 14.3592C79.4382 14.6856 79.8292 14.8488 80.2984 14.8488ZM83.9775 12.9312C83.9775 12.3668 84.0931 11.867 84.3243 11.4318C84.5623 10.9966 84.8819 10.66 85.2831 10.422C85.6911 10.1772 86.1399 10.0548 86.6295 10.0548C87.0715 10.0548 87.4557 10.1432 87.7821 10.32C88.1153 10.49 88.3805 10.7042 88.5777 10.9626V10.1466H89.7507V15.7668H88.5777V14.9304C88.3805 15.1956 88.1119 15.4166 87.7719 15.5934C87.4319 15.7702 87.0443 15.8586 86.6091 15.8586C86.1263 15.8586 85.6843 15.7362 85.2831 15.4914C84.8819 15.2398 84.5623 14.893 84.3243 14.451C84.0931 14.0022 83.9775 13.4956 83.9775 12.9312ZM88.5777 12.9516C88.5777 12.564 88.4961 12.2274 88.3329 11.9418C88.1765 11.6562 87.9691 11.4386 87.7107 11.289C87.4523 11.1394 87.1735 11.0646 86.8743 11.0646C86.5751 11.0646 86.2963 11.1394 86.0379 11.289C85.7795 11.4318 85.5687 11.646 85.4055 11.9316C85.2491 12.2104 85.1709 12.5436 85.1709 12.9312C85.1709 13.3188 85.2491 13.6588 85.4055 13.9512C85.5687 14.2436 85.7795 14.468 86.0379 14.6244C86.3031 14.774 86.5819 14.8488 86.8743 14.8488C87.1735 14.8488 87.4523 14.774 87.7107 14.6244C87.9691 14.4748 88.1765 14.2572 88.3329 13.9716C88.4961 13.6792 88.5777 13.3392 88.5777 12.9516ZM90.8904 12.9312C90.8904 12.3668 91.006 11.867 91.2372 11.4318C91.4752 10.9966 91.7948 10.66 92.196 10.422C92.604 10.1772 93.0562 10.0548 93.5526 10.0548C93.9198 10.0548 94.2802 10.1364 94.6338 10.2996C94.9942 10.456 95.2798 10.6668 95.4906 10.932V8.21885H96.6636V15.7668H95.4906V14.9202C95.3002 15.1922 95.035 15.4166 94.695 15.5934C94.3618 15.7702 93.9776 15.8586 93.5424 15.8586C93.0528 15.8586 92.604 15.7362 92.196 15.4914C91.7948 15.2398 91.4752 14.893 91.2372 14.451C91.006 14.0022 90.8904 13.4956 90.8904 12.9312ZM95.4906 12.9516C95.4906 12.564 95.409 12.2274 95.2458 11.9418C95.0894 11.6562 94.882 11.4386 94.6236 11.289C94.3652 11.1394 94.0864 11.0646 93.7872 11.0646C93.488 11.0646 93.2092 11.1394 92.9508 11.289C92.6924 11.4318 92.4816 11.646 92.3184 11.9316C92.162 12.2104 92.0838 12.5436 92.0838 12.9312C92.0838 13.3188 92.162 13.6588 92.3184 13.9512C92.4816 14.2436 92.6924 14.468 92.9508 14.6244C93.216 14.774 93.4948 14.8488 93.7872 14.8488C94.0864 14.8488 94.3652 14.774 94.6236 14.6244C94.882 14.4748 95.0894 14.2572 95.2458 13.9716C95.409 13.6792 95.4906 13.3392 95.4906 12.9516ZM103.278 15.8586C102.748 15.8586 102.269 15.7396 101.84 15.5016C101.412 15.2568 101.075 14.9168 100.83 14.4816C100.586 14.0396 100.463 13.5296 100.463 12.9516C100.463 12.3804 100.589 11.8738 100.841 11.4318C101.092 10.9898 101.436 10.6498 101.871 10.4118C102.306 10.1738 102.792 10.0548 103.329 10.0548C103.867 10.0548 104.353 10.1738 104.788 10.4118C105.223 10.6498 105.567 10.9898 105.818 11.4318C106.07 11.8738 106.196 12.3804 106.196 12.9516C106.196 13.5228 106.066 14.0294 105.808 14.4714C105.55 14.9134 105.196 15.2568 104.747 15.5016C104.305 15.7396 103.816 15.8586 103.278 15.8586ZM103.278 14.8488C103.578 14.8488 103.856 14.7774 104.115 14.6346C104.38 14.4918 104.594 14.2776 104.757 13.992C104.921 13.7064 105.002 13.3596 105.002 12.9516C105.002 12.5436 104.924 12.2002 104.768 11.9214C104.611 11.6358 104.404 11.4216 104.145 11.2788C103.887 11.136 103.608 11.0646 103.309 11.0646C103.01 11.0646 102.731 11.136 102.473 11.2788C102.221 11.4216 102.02 11.6358 101.871 11.9214C101.721 12.2002 101.646 12.5436 101.646 12.9516C101.646 13.5568 101.799 14.026 102.105 14.3592C102.418 14.6856 102.809 14.8488 103.278 14.8488ZM110.181 10.0548C110.623 10.0548 111.017 10.1466 111.364 10.3302C111.717 10.5138 111.993 10.7858 112.19 11.1462C112.387 11.5066 112.486 11.9418 112.486 12.4518V15.7668H111.333V12.6252C111.333 12.122 111.207 11.7378 110.956 11.4726C110.704 11.2006 110.361 11.0646 109.926 11.0646C109.49 11.0646 109.144 11.2006 108.885 11.4726C108.634 11.7378 108.508 12.122 108.508 12.6252V15.7668H107.345V10.1466H108.508V10.7892C108.698 10.558 108.94 10.3778 109.232 10.2486C109.531 10.1194 109.847 10.0548 110.181 10.0548ZM117.975 11.0952V14.2062C117.975 14.417 118.023 14.57 118.118 14.6652C118.22 14.7536 118.39 14.7978 118.628 14.7978H119.342V15.7668H118.424C117.9 15.7668 117.499 15.6444 117.22 15.3996C116.942 15.1548 116.802 14.757 116.802 14.2062V11.0952H116.139V10.1466H116.802V8.74924H117.975V10.1466H119.342V11.0952H117.975ZM123.321 10.0548C123.749 10.0548 124.13 10.1466 124.463 10.3302C124.803 10.5138 125.068 10.7858 125.259 11.1462C125.456 11.5066 125.555 11.9418 125.555 12.4518V15.7668H124.402V12.6252C124.402 12.122 124.276 11.7378 124.025 11.4726C123.773 11.2006 123.43 11.0646 122.994 11.0646C122.559 11.0646 122.212 11.2006 121.954 11.4726C121.702 11.7378 121.577 12.122 121.577 12.6252V15.7668H120.414V8.21885H121.577V10.7994C121.774 10.5614 122.022 10.3778 122.321 10.2486C122.627 10.1194 122.96 10.0548 123.321 10.0548ZM132.189 12.819C132.189 13.0298 132.175 13.2202 132.148 13.3902H127.854C127.888 13.839 128.054 14.1994 128.354 14.4714C128.653 14.7434 129.02 14.8794 129.455 14.8794C130.081 14.8794 130.523 14.6176 130.781 14.094H132.036C131.866 14.6108 131.556 15.0358 131.108 15.369C130.666 15.6954 130.115 15.8586 129.455 15.8586C128.918 15.8586 128.435 15.7396 128.007 15.5016C127.585 15.2568 127.252 14.9168 127.007 14.4816C126.769 14.0396 126.65 13.5296 126.65 12.9516C126.65 12.3736 126.766 11.867 126.997 11.4318C127.235 10.9898 127.565 10.6498 127.986 10.4118C128.415 10.1738 128.904 10.0548 129.455 10.0548C129.986 10.0548 130.458 10.1704 130.873 10.4016C131.288 10.6328 131.611 10.9592 131.842 11.3808C132.073 11.7956 132.189 12.275 132.189 12.819ZM130.975 12.4518C130.968 12.0234 130.815 11.68 130.516 11.4216C130.217 11.1632 129.846 11.034 129.404 11.034C129.003 11.034 128.66 11.1632 128.374 11.4216C128.088 11.6732 127.918 12.0166 127.864 12.4518H130.975Z" fill="white"/>
<path d="M54.9229 32.3298H49.7243L48.8641 34.8169H46.1152L50.8089 21.7456H53.857L58.5507 34.8169H55.7831L54.9229 32.3298ZM54.2123 30.2354L52.3236 24.775L50.4349 30.2354H54.2123ZM62.9232 25.9531C63.2598 25.4794 63.721 25.0867 64.307 24.775C64.9054 24.4509 65.5848 24.2888 66.3453 24.2888C67.2304 24.2888 68.0283 24.507 68.7389 24.9433C69.4619 25.3796 70.0292 26.003 70.4406 26.8133C70.8644 27.6112 71.0764 28.5399 71.0764 29.5996C71.0764 30.6593 70.8644 31.6005 70.4406 32.4233C70.0292 33.2336 69.4619 33.8632 68.7389 34.312C68.0283 34.7608 67.2304 34.9852 66.3453 34.9852C65.5848 34.9852 64.9116 34.8294 64.3257 34.5177C63.7522 34.206 63.2847 33.8133 62.9232 33.3396V39.7537H60.3052V24.4571H62.9232V25.9531ZM68.4023 29.5996C68.4023 28.9763 68.2714 28.4402 68.0096 27.9914C67.7602 27.5301 67.4236 27.1811 66.9998 26.9442C66.5884 26.7073 66.1396 26.5889 65.6534 26.5889C65.1796 26.5889 64.7308 26.7136 64.307 26.9629C63.8956 27.1998 63.559 27.5488 63.2972 28.0101C63.0478 28.4714 62.9232 29.0137 62.9232 29.637C62.9232 30.2603 63.0478 30.8026 63.2972 31.2639C63.559 31.7252 63.8956 32.0805 64.307 32.3298C64.7308 32.5667 65.1796 32.6851 65.6534 32.6851C66.1396 32.6851 66.5884 32.5604 66.9998 32.3111C67.4236 32.0618 67.7602 31.7065 68.0096 31.2452C68.2714 30.7839 68.4023 30.2354 68.4023 29.5996ZM75.5968 25.9531C75.9334 25.4794 76.3947 25.0867 76.9806 24.775C77.579 24.4509 78.2584 24.2888 79.0189 24.2888C79.904 24.2888 80.7019 24.507 81.4125 24.9433C82.1356 25.3796 82.7028 26.003 83.1142 26.8133C83.5381 27.6112 83.75 28.5399 83.75 29.5996C83.75 30.6593 83.5381 31.6005 83.1142 32.4233C82.7028 33.2336 82.1356 33.8632 81.4125 34.312C80.7019 34.7608 79.904 34.9852 79.0189 34.9852C78.2584 34.9852 77.5852 34.8294 76.9993 34.5177C76.4258 34.206 75.9583 33.8133 75.5968 33.3396V39.7537H72.9788V24.4571H75.5968V25.9531ZM81.0759 29.5996C81.0759 28.9763 80.945 28.4402 80.6832 27.9914C80.4339 27.5301 80.0973 27.1811 79.6734 26.9442C79.262 26.7073 78.8132 26.5889 78.327 26.5889C77.8533 26.5889 77.4045 26.7136 76.9806 26.9629C76.5692 27.1998 76.2326 27.5488 75.9708 28.0101C75.7215 28.4714 75.5968 29.0137 75.5968 29.637C75.5968 30.2603 75.7215 30.8026 75.9708 31.2639C76.2326 31.7252 76.5692 32.0805 76.9806 32.3298C77.4045 32.5667 77.8533 32.6851 78.327 32.6851C78.8132 32.6851 79.262 32.5604 79.6734 32.3111C80.0973 32.0618 80.4339 31.7065 80.6832 31.2452C80.945 30.7839 81.0759 30.2354 81.0759 29.5996ZM94.615 34.9478C93.7049 34.9478 92.8821 34.792 92.1466 34.4803C91.4235 34.1686 90.8501 33.7198 90.4262 33.1339C90.0023 32.548 89.7842 31.8561 89.7717 31.0582H92.5767C92.6141 31.5943 92.8011 32.0181 93.1377 32.3298C93.4868 32.6415 93.9605 32.7973 94.5589 32.7973C95.1698 32.7973 95.6497 32.6539 95.9988 32.3672C96.3479 32.068 96.5224 31.6815 96.5224 31.2078C96.5224 30.8213 96.404 30.5034 96.1671 30.2541C95.9302 30.0048 95.631 29.8115 95.2695 29.6744C94.9204 29.5248 94.4342 29.3627 93.8109 29.1882C92.9632 28.9389 92.2713 28.6958 91.7352 28.4589C91.2116 28.2096 90.7566 27.8418 90.3701 27.3556C89.9961 26.8569 89.8091 26.1962 89.8091 25.3734C89.8091 24.6005 90.0023 23.9273 90.3888 23.3538C90.7753 22.7803 91.3176 22.344 92.0157 22.0448C92.7138 21.7331 93.5117 21.5773 94.4093 21.5773C95.7557 21.5773 96.8465 21.9077 97.6818 22.5684C98.5295 23.2167 98.997 24.1267 99.0843 25.2986H96.2045C96.1796 24.8498 95.9863 24.482 95.6248 24.1953C95.2757 23.8961 94.8082 23.7465 94.2223 23.7465C93.7112 23.7465 93.2998 23.8774 92.9881 24.1392C92.6889 24.401 92.5393 24.7812 92.5393 25.2799C92.5393 25.629 92.6515 25.9219 92.8759 26.1588C93.1128 26.3832 93.3995 26.5702 93.7361 26.7198C94.0852 26.8569 94.5714 27.019 95.1947 27.206C96.0424 27.4553 96.7343 27.7047 97.2704 27.954C97.8065 28.2033 98.2677 28.5773 98.6542 29.076C99.0407 29.5747 99.2339 30.2292 99.2339 31.0395C99.2339 31.7376 99.0531 32.3859 98.6916 32.9843C98.3301 33.5827 97.8002 34.0627 97.1021 34.4242C96.404 34.7733 95.5749 34.9478 94.615 34.9478ZM104.552 26.6076V31.6192C104.552 31.9683 104.633 32.2238 104.795 32.3859C104.969 32.5355 105.256 32.6103 105.655 32.6103H106.871V34.8169H105.225C103.018 34.8169 101.915 33.7448 101.915 31.6005V26.6076H100.681V24.4571H101.915V21.8952H104.552V24.4571H106.871V26.6076H104.552ZM113.354 34.9852C112.356 34.9852 111.459 34.767 110.661 34.3307C109.863 33.8819 109.233 33.2523 108.772 32.442C108.323 31.6317 108.099 30.6967 108.099 29.637C108.099 28.5773 108.33 27.6423 108.791 26.832C109.265 26.0217 109.907 25.3983 110.717 24.962C111.527 24.5132 112.431 24.2888 113.429 24.2888C114.426 24.2888 115.33 24.5132 116.14 24.962C116.95 25.3983 117.586 26.0217 118.047 26.832C118.521 27.6423 118.758 28.5773 118.758 29.637C118.758 30.6967 118.515 31.6317 118.029 32.442C117.555 33.2523 116.907 33.8819 116.084 34.3307C115.274 34.767 114.364 34.9852 113.354 34.9852ZM113.354 32.7038C113.827 32.7038 114.27 32.5916 114.681 32.3672C115.105 32.1303 115.442 31.7813 115.691 31.32C115.941 30.8587 116.065 30.2977 116.065 29.637C116.065 28.6521 115.803 27.8979 115.28 27.3743C114.769 26.8382 114.139 26.5702 113.391 26.5702C112.643 26.5702 112.014 26.8382 111.502 27.3743C111.004 27.8979 110.754 28.6521 110.754 29.637C110.754 30.6219 110.998 31.3823 111.484 31.9184C111.982 32.442 112.606 32.7038 113.354 32.7038ZM123.296 26.0653C123.633 25.5168 124.069 25.0867 124.605 24.775C125.154 24.4633 125.777 24.3075 126.475 24.3075V27.0564H125.784C124.961 27.0564 124.337 27.2496 123.914 27.6361C123.502 28.0226 123.296 28.6958 123.296 29.6557V34.8169H120.678V24.4571H123.296V26.0653ZM137.869 29.4126C137.869 29.7866 137.844 30.1232 137.794 30.4224H130.221C130.283 31.1704 130.545 31.7563 131.006 32.1802C131.468 32.6041 132.035 32.816 132.708 32.816C133.68 32.816 134.372 32.3984 134.784 31.5631H137.607C137.308 32.5604 136.735 33.3832 135.887 34.0315C135.039 34.6673 133.998 34.9852 132.764 34.9852C131.767 34.9852 130.869 34.767 130.071 34.3307C129.286 33.8819 128.669 33.2523 128.22 32.442C127.784 31.6317 127.566 30.6967 127.566 29.637C127.566 28.5649 127.784 27.6236 128.22 26.8133C128.656 26.003 129.267 25.3796 130.053 24.9433C130.838 24.507 131.742 24.2888 132.764 24.2888C133.749 24.2888 134.628 24.5007 135.401 24.9246C136.186 25.3485 136.791 25.9531 137.215 26.7385C137.651 27.5114 137.869 28.4028 137.869 29.4126ZM135.158 28.6646C135.145 27.9914 134.902 27.4553 134.428 27.0564C133.955 26.645 133.375 26.4393 132.689 26.4393C132.041 26.4393 131.493 26.6388 131.044 27.0377C130.607 27.4242 130.339 27.9665 130.24 28.6646H135.158Z" fill="white"/>
</svg>
