<svg width="284" height="151" viewBox="0 0 434 301" fill="none" xmlns="http://www.w3.org/2000/svg">
<path d="M433.865 118.215C435.794 77.8214 417.04 36.9402 375.702 17.4845C355.298 7.87858 331.44 2.25156 307.57 3.08049C281.96 3.96794 257.851 12.033 233.703 18.684C209.556 25.335 183.404 30.65 158.513 25.9299C140.503 22.5166 124.661 14.081 106.84 10.2386C36.6287 -4.88705 -24.5089 56.7566 9.84715 105.761C18.2786 117.776 31.2724 127.411 42.1993 138.168C53.1262 148.925 62.2886 161.915 60.814 175.538C59.5537 186.822 51.2861 196.867 47.8455 207.867C41.2666 228.942 54.3234 252.123 76.8956 264.966C99.4677 277.81 129.917 280.804 157.139 275.518C184.362 270.232 208.308 257.301 227.175 241.288C237.257 232.706 247.138 222.681 261.644 219.765C275.571 216.976 289.926 221.52 304.054 223.607C317.115 225.477 330.533 225.265 343.485 222.984C356.437 220.704 368.652 216.403 379.382 210.344C413.474 190.83 432.126 154.718 433.865 118.215Z" fill="#0D6EFD"/>
<path opacity="0.7" d="M433.865 118.215C435.794 77.8214 417.04 36.9402 375.702 17.4845C355.298 7.87858 331.44 2.25156 307.57 3.08049C281.96 3.96794 257.851 12.033 233.703 18.684C209.556 25.335 183.404 30.65 158.513 25.9299C140.503 22.5166 124.661 14.081 106.84 10.2386C36.6287 -4.88705 -24.5089 56.7566 9.84715 105.761C18.2786 117.776 31.2724 127.411 42.1993 138.168C53.1262 148.925 62.2886 161.915 60.814 175.538C59.5537 186.822 51.2861 196.867 47.8455 207.867C41.2666 228.942 54.3234 252.123 76.8956 264.966C99.4677 277.81 129.917 280.804 157.139 275.518C184.362 270.232 208.308 257.301 227.175 241.288C237.257 232.706 247.138 222.681 261.644 219.765C275.571 216.976 289.926 221.52 304.054 223.607C317.115 225.477 330.533 225.265 343.485 222.984C356.437 220.704 368.652 216.403 379.382 210.344C413.474 190.83 432.126 154.718 433.865 118.215Z" fill="white"/>
<path d="M199.822 301C257.747 301 304.704 291.609 304.704 280.025C304.704 268.441 257.747 259.05 199.822 259.05C141.898 259.05 94.9404 268.441 94.9404 280.025C94.9404 291.609 141.898 301 199.822 301Z" fill="#0D6EFD"/>
<path opacity="0.5" d="M199.822 301C257.747 301 304.704 291.609 304.704 280.025C304.704 268.441 257.747 259.05 199.822 259.05C141.898 259.05 94.9404 268.441 94.9404 280.025C94.9404 291.609 141.898 301 199.822 301Z" fill="white"/>
<path d="M311.165 1.00012H235.543C232.959 1.00012 230.865 3.09428 230.865 5.67756V89.0415C230.865 91.6247 232.959 93.7189 235.543 93.7189H311.165C313.748 93.7189 315.843 91.6247 315.843 89.0415V5.67756C315.843 3.09428 313.748 1.00012 311.165 1.00012Z" fill="white" stroke="#263238" stroke-width="0.775695" stroke-linecap="round" stroke-linejoin="round"/>
<path d="M235.543 1.00006H311.157C312.392 1.00006 313.576 1.49041 314.448 2.36323C315.321 3.23606 315.812 4.41986 315.812 5.65422V10.5101H230.865V5.6775C230.862 5.06239 230.981 4.45276 231.215 3.88388C231.449 3.31499 231.793 2.79813 232.228 2.36317C232.663 1.92822 233.18 1.5838 233.749 1.34983C234.318 1.11585 234.928 0.996975 235.543 1.00006Z" fill="#263238" stroke="#263238" stroke-width="0.775695" stroke-linecap="round" stroke-linejoin="round"/>
<path d="M235.496 50.5049H269.689" stroke="#263238" stroke-width="0.775695" stroke-linecap="round" stroke-linejoin="round"/>
<path d="M235.496 54.9186H269.689" stroke="#263238" stroke-width="0.775695" stroke-linecap="round" stroke-linejoin="round"/>
<path d="M235.496 59.3323H269.689" stroke="#263238" stroke-width="0.775695" stroke-linecap="round" stroke-linejoin="round"/>
<path d="M235.496 63.746H269.689" stroke="#263238" stroke-width="0.775695" stroke-linecap="round" stroke-linejoin="round"/>
<path d="M235.496 68.1597H269.689" stroke="#263238" stroke-width="0.775695" stroke-linecap="round" stroke-linejoin="round"/>
<path d="M235.496 72.5812H269.689" stroke="#263238" stroke-width="0.775695" stroke-linecap="round" stroke-linejoin="round"/>
<path d="M235.496 76.9949H269.689" stroke="#263238" stroke-width="0.775695" stroke-linecap="round" stroke-linejoin="round"/>
<path d="M235.496 81.4086H269.689" stroke="#263238" stroke-width="0.775695" stroke-linecap="round" stroke-linejoin="round"/>
<path d="M235.496 85.8223H269.689" stroke="#263238" stroke-width="0.775695" stroke-linecap="round" stroke-linejoin="round"/>
<path d="M275.7 50.5049H309.893" stroke="#263238" stroke-width="0.775695" stroke-linecap="round" stroke-linejoin="round"/>
<path d="M275.7 54.9186H309.893" stroke="#263238" stroke-width="0.775695" stroke-linecap="round" stroke-linejoin="round"/>
<path d="M275.7 59.3323H309.893" stroke="#263238" stroke-width="0.775695" stroke-linecap="round" stroke-linejoin="round"/>
<path d="M275.7 63.746H309.893" stroke="#263238" stroke-width="0.775695" stroke-linecap="round" stroke-linejoin="round"/>
<path d="M275.7 68.1597H309.893" stroke="#263238" stroke-width="0.775695" stroke-linecap="round" stroke-linejoin="round"/>
<path d="M275.7 72.5812H309.893" stroke="#263238" stroke-width="0.775695" stroke-linecap="round" stroke-linejoin="round"/>
<path d="M275.7 76.9949H309.893" stroke="#263238" stroke-width="0.775695" stroke-linecap="round" stroke-linejoin="round"/>
<path d="M275.7 81.4086H309.893" stroke="#263238" stroke-width="0.775695" stroke-linecap="round" stroke-linejoin="round"/>
<path d="M275.7 85.8223H309.893" stroke="#263238" stroke-width="0.775695" stroke-linecap="round" stroke-linejoin="round"/>
<path d="M258.363 22.5566C258.532 22.0324 258.621 21.4859 258.627 20.9354C258.627 18.9263 256.587 18.81 254.586 18.81H254.082V18.3368H262.816V18.81C260.543 18.81 259.713 20.2605 259.007 22.4092L254.353 36.3019C254.004 37.3336 253.709 38.1015 252.616 38.1015H252.523L248.427 24.8294L244.618 36.3329C244.261 37.3646 243.967 38.1325 242.873 38.1325H242.788L236.83 18.81H234.736V18.3368H242.4V18.81H240.22L244.641 34.0291H244.82L248.155 23.9218L246.604 18.8487H244.51V18.3368H252.181V18.81H250.002L254.423 34.0291H254.594L258.363 22.5566Z" fill="#0D6EFD"/>
<path d="M310.133 13.9386H274.948V45.7421H310.133V13.9386Z" fill="#0D6EFD" stroke="#263238" stroke-width="1.55139" stroke-linecap="round" stroke-linejoin="round"/>
<path d="M310.134 27.234C308.954 27.3012 307.781 27.4647 306.627 27.7227C301.283 28.8862 299.887 36.5579 293.844 36.5579C288.492 36.5579 288.034 29.3517 280.362 28.4208C278.496 28.1268 276.585 28.4654 274.933 29.3827V45.7421H310.134V27.234Z" fill="#263238" stroke="#263238" stroke-width="0.775695" stroke-linecap="round" stroke-linejoin="round"/>
<path d="M286.638 21.2147C286.639 21.9977 286.408 22.7637 285.974 23.4154C285.54 24.0672 284.922 24.5754 284.199 24.8758C283.476 25.1762 282.68 25.2552 281.912 25.1028C281.144 24.9504 280.438 24.5735 279.884 24.0197C279.331 23.466 278.954 22.7604 278.801 21.9923C278.649 21.2242 278.728 20.4281 279.028 19.7049C279.329 18.9817 279.837 18.364 280.489 17.9298C281.14 17.4957 281.906 17.2648 282.689 17.2664C283.737 17.2664 284.741 17.6823 285.481 18.4228C286.222 19.1632 286.638 20.1675 286.638 21.2147Z" fill="white" stroke="#263238" stroke-width="0.775695" stroke-linecap="round" stroke-linejoin="round"/>
<path d="M311.739 3.78479H233.417V6.80224H311.739V3.78479Z" fill="white" stroke="#263238" stroke-width="0.775695" stroke-linecap="round" stroke-linejoin="round"/>
<path d="M306.852 112.219H272.946C271.613 112.219 270.335 112.749 269.392 113.691C268.45 114.634 267.92 115.913 267.92 117.246V135.381C267.92 136.714 268.45 137.993 269.392 138.936C270.335 139.878 271.613 140.408 272.946 140.408H273.986C272.931 142.735 270.883 146.303 267.648 148.421C267.648 148.421 274.529 147.94 281.696 140.408H306.837C308.17 140.408 309.448 139.878 310.391 138.936C311.333 137.993 311.863 136.714 311.863 135.381V117.246C311.863 115.915 311.336 114.639 310.396 113.697C309.457 112.755 308.182 112.223 306.852 112.219Z" fill="#263238" stroke="#263238" stroke-width="0.775695" stroke-linecap="round" stroke-linejoin="round"/>
<path d="M284.07 125.67C284.071 125.157 283.921 124.655 283.636 124.227C283.352 123.8 282.948 123.467 282.474 123.27C282 123.073 281.479 123.021 280.975 123.121C280.472 123.22 280.01 123.467 279.647 123.83C279.284 124.193 279.037 124.655 278.938 125.158C278.838 125.662 278.89 126.183 279.087 126.657C279.284 127.131 279.617 127.535 280.044 127.819C280.472 128.103 280.974 128.254 281.487 128.253C282.171 128.251 282.827 127.978 283.311 127.494C283.795 127.01 284.068 126.354 284.07 125.67Z" fill="#0D6EFD" stroke="#263238" stroke-width="0.775695" stroke-linecap="round" stroke-linejoin="round"/>
<path d="M292.859 125.67C292.859 125.159 292.707 124.659 292.423 124.235C292.139 123.81 291.736 123.479 291.264 123.283C290.792 123.088 290.273 123.037 289.772 123.136C289.27 123.236 288.81 123.482 288.449 123.843C288.088 124.204 287.842 124.665 287.742 125.166C287.642 125.667 287.694 126.186 287.889 126.658C288.085 127.13 288.416 127.534 288.84 127.817C289.265 128.101 289.765 128.253 290.275 128.253C290.96 128.251 291.616 127.978 292.1 127.494C292.584 127.01 292.856 126.354 292.859 125.67Z" fill="#0D6EFD" stroke="#263238" stroke-width="0.775695" stroke-linecap="round" stroke-linejoin="round"/>
<path d="M301.655 125.67C301.657 125.157 301.506 124.655 301.222 124.228C300.939 123.801 300.535 123.468 300.061 123.271C299.588 123.073 299.067 123.021 298.564 123.12C298.061 123.219 297.598 123.465 297.235 123.827C296.872 124.189 296.625 124.651 296.524 125.154C296.423 125.656 296.474 126.178 296.67 126.652C296.866 127.126 297.198 127.531 297.624 127.816C298.05 128.101 298.552 128.253 299.064 128.253C299.75 128.251 300.406 127.978 300.891 127.494C301.377 127.011 301.651 126.355 301.655 125.67Z" fill="#0D6EFD" stroke="#263238" stroke-width="0.775695" stroke-linecap="round" stroke-linejoin="round"/>
<path d="M120.398 11.9994H176.248C177.577 11.9994 178.852 12.5273 179.792 13.4671C180.731 14.4068 181.259 15.6814 181.259 17.0104V55.7253H115.411V17.0104C115.411 15.6854 115.935 14.4144 116.87 13.4753C117.805 12.5362 119.073 12.0055 120.398 11.9994Z" fill="#0D6EFD" stroke="#263238" stroke-width="0.775695" stroke-linecap="round" stroke-linejoin="round"/>
<path d="M181.228 49.481H115.411V55.702H181.228V49.481Z" fill="#263238" stroke="#263238" stroke-width="0.775695" stroke-linecap="round" stroke-linejoin="round"/>
<path d="M178.219 51.6063H118.428V53.5766H178.219V51.6063Z" fill="white" stroke="#263238" stroke-width="0.775695" stroke-linecap="round" stroke-linejoin="round"/>
<path d="M148.324 40.9328C153.344 40.9328 157.415 36.8625 157.415 31.8416C157.415 26.8207 153.344 22.7505 148.324 22.7505C143.303 22.7505 139.232 26.8207 139.232 31.8416C139.232 36.8625 143.303 40.9328 148.324 40.9328Z" fill="#263238" stroke="#263238" stroke-width="0.775695" stroke-linecap="round" stroke-linejoin="round"/>
<path d="M144.22 26.1869L154.033 31.8495L144.22 37.512V26.1869Z" fill="white" stroke="#263238" stroke-width="0.775695" stroke-linecap="round" stroke-linejoin="round"/>
<path d="M152.761 71.6271H90.2939C89.0858 71.6271 88.1064 72.6064 88.1064 73.8145V97.6206C88.1064 98.8287 89.0858 99.8081 90.2939 99.8081H152.761C153.969 99.8081 154.948 98.8287 154.948 97.6206V73.8145C154.948 72.6064 153.969 71.6271 152.761 71.6271Z" fill="#263238" stroke="#263238" stroke-width="0.775695" stroke-linecap="round" stroke-linejoin="round"/>
<path d="M96.0652 75.4667L96.391 76.0097C94.9172 76.8319 93.5442 78.2747 93.5442 79.9657C93.5253 80.2562 93.5646 80.5475 93.6598 80.8226C93.755 81.0977 93.9041 81.351 94.0984 81.5678C94.2928 81.7845 94.5284 81.9603 94.7915 82.0848C95.0547 82.2093 95.34 82.28 95.6308 82.2928C95.848 82.2928 95.9954 82.1842 95.9954 81.967C95.9954 81.7498 95.8868 81.68 95.6696 81.6412C95.3767 81.5619 95.1215 81.381 94.9496 81.1309C94.7777 80.8809 94.7002 80.5779 94.731 80.276C94.7367 80.0351 94.7912 79.7979 94.8914 79.5788C94.9916 79.3597 95.1353 79.1633 95.3138 79.0015C95.4923 78.8397 95.7019 78.7159 95.9297 78.6376C96.1576 78.5593 96.399 78.5282 96.6392 78.5462C96.9006 78.5471 97.1591 78.6004 97.3995 78.703C97.6399 78.8055 97.8573 78.9552 98.0388 79.1433C98.2203 79.3313 98.3623 79.5538 98.4563 79.7977C98.5503 80.0415 98.5945 80.3018 98.5862 80.563C98.5824 80.8913 98.5125 81.2154 98.3806 81.5161C98.2488 81.8168 98.0577 82.0878 97.8188 82.3129C97.5798 82.5381 97.298 82.7128 96.99 82.8266C96.6821 82.9405 96.3544 82.9911 96.0264 82.9754C95.6187 83.0018 95.21 82.9422 94.8268 82.8006C94.4436 82.659 94.0944 82.4384 93.8019 82.1532C93.5094 81.868 93.28 81.5245 93.1288 81.145C92.9775 80.7655 92.9076 80.3584 92.9236 79.9502C92.9004 77.9877 94.413 76.4053 96.0652 75.4667ZM102.728 75.4667L103.054 76.0097C101.573 76.8319 100.207 78.2747 100.207 79.9657C100.187 80.2564 100.226 80.5482 100.321 80.8237C100.416 81.0993 100.565 81.3531 100.759 81.57C100.954 81.787 101.19 81.9627 101.453 82.0869C101.717 82.211 102.003 82.281 102.294 82.2928C102.511 82.2928 102.659 82.1842 102.659 81.967C102.659 81.7498 102.55 81.68 102.333 81.6412C102.04 81.5619 101.785 81.381 101.613 81.1309C101.441 80.8809 101.363 80.5779 101.394 80.276C101.399 80.0348 101.453 79.7971 101.552 79.5774C101.652 79.3578 101.796 79.1609 101.975 78.9989C102.153 78.8369 102.363 78.7131 102.592 78.6353C102.82 78.5574 103.062 78.5271 103.302 78.5462C103.564 78.5471 103.822 78.6004 104.063 78.703C104.303 78.8055 104.52 78.9552 104.702 79.1433C104.884 79.3313 105.026 79.5538 105.12 79.7977C105.214 80.0415 105.258 80.3018 105.249 80.563C105.245 80.891 105.174 81.2146 105.042 81.5148C104.909 81.8149 104.718 82.0855 104.48 82.3105C104.241 82.5354 103.96 82.7102 103.652 82.8244C103.345 82.9386 103.017 82.99 102.69 82.9754C102.282 83.0006 101.874 82.9402 101.491 82.7981C101.109 82.656 100.76 82.4354 100.468 82.1504C100.176 81.8655 99.9462 81.5225 99.7944 81.1436C99.6427 80.7646 99.572 80.3581 99.5869 79.9502C99.5558 77.9877 101.068 76.4053 102.728 75.4667Z" fill="#0D6EFD"/>
<path d="M109.104 81.2069H147.145" stroke="white" stroke-width="0.775695" stroke-linecap="round" stroke-linejoin="round"/>
<path d="M109.104 84.4725H147.145" stroke="white" stroke-width="0.775695" stroke-linecap="round" stroke-linejoin="round"/>
<path d="M109.104 87.7383H147.145" stroke="white" stroke-width="0.775695" stroke-linecap="round" stroke-linejoin="round"/>
<path d="M109.104 91.0117H147.145" stroke="white" stroke-width="0.775695" stroke-linecap="round" stroke-linejoin="round"/>
<path d="M140.414 143.503C148.266 142.221 153.592 134.817 152.31 126.966C151.029 119.114 143.625 113.788 135.773 115.069C127.922 116.351 122.596 123.755 123.877 131.606C125.159 139.458 132.562 144.784 140.414 143.503Z" fill="#263238" stroke="#263238" stroke-width="0.775695" stroke-linecap="round" stroke-linejoin="round"/>
<path d="M147.23 137.323C151.66 132.279 151.162 124.599 146.118 120.169C141.074 115.74 133.393 116.238 128.964 121.282C124.534 126.326 125.032 134.006 130.076 138.436C135.12 142.865 142.8 142.367 147.23 137.323Z" fill="white" stroke="#263238" stroke-width="0.775695" stroke-linecap="round" stroke-linejoin="round"/>
<path d="M138.1 120.496V129.284H144.041" stroke="#263238" stroke-width="1.55139" stroke-linecap="round" stroke-linejoin="round"/>
<path d="M238.22 129.315C238.22 129.315 246.481 146.947 246.481 147.878C246.481 148.809 239.151 152.796 237.754 153.634C236.671 154.25 235.555 154.807 234.411 155.301L235.249 163.469C235.249 163.469 247.869 160.591 253.16 157.714C258.45 154.836 258.264 151.586 257.038 146.761C255.813 141.936 247.66 123.288 247.66 123.288L238.22 129.315Z" fill="white"/>
<mask id="mask0_140_4784" style="mask-type:luminance" maskUnits="userSpaceOnUse" x="234" y="123" width="24" height="41">
<path d="M238.22 129.315C238.22 129.315 246.481 146.947 246.481 147.878C246.481 148.809 239.151 152.796 237.754 153.634C236.671 154.25 235.555 154.807 234.411 155.301L235.249 163.469C235.249 163.469 247.869 160.591 253.16 157.714C258.45 154.836 258.264 151.586 257.038 146.761C255.813 141.936 247.66 123.288 247.66 123.288L238.22 129.315Z" fill="white"/>
</mask>
<g mask="url(#mask0_140_4784)">
<g style="mix-blend-mode:multiply" opacity="0.5">
<path d="M253.137 157.714C258.427 154.836 258.241 151.586 257.015 146.761C255.789 141.936 247.637 123.288 247.637 123.288L246.318 124.126L245.899 124.902C245.899 124.902 253.509 143.58 253.967 149.802C254.277 153.983 245.861 159.195 240.299 162.174C244.426 161.08 250.042 159.397 253.137 157.714Z" fill="#0D6EFD"/>
</g>
</g>
<path d="M238.22 129.315C238.22 129.315 246.481 146.947 246.481 147.878C246.481 148.809 239.151 152.796 237.754 153.634C236.671 154.25 235.555 154.807 234.411 155.301L235.249 163.469C235.249 163.469 247.869 160.591 253.16 157.714C258.45 154.836 258.264 151.586 257.038 146.761C255.813 141.936 247.66 123.288 247.66 123.288L238.22 129.315Z" stroke="#263238" stroke-width="0.775695" stroke-linecap="round" stroke-linejoin="round"/>
<path d="M178.616 125.422C178.616 125.422 172.589 147.506 172.41 151.407C172.232 155.309 184.379 163.004 184.821 163.469C185.263 163.935 184.131 150.05 184.131 150.05L188.25 129.882L178.616 125.422Z" fill="white"/>
<mask id="mask1_140_4784" style="mask-type:luminance" maskUnits="userSpaceOnUse" x="172" y="125" width="17" height="39">
<path d="M178.616 125.422C178.616 125.422 172.589 147.506 172.41 151.407C172.232 155.309 184.379 163.004 184.821 163.469C185.263 163.935 184.131 150.05 184.131 150.05L188.25 129.882L178.616 125.422Z" fill="white"/>
</mask>
<g mask="url(#mask1_140_4784)">
<g style="mix-blend-mode:multiply" opacity="0.5">
<path d="M181.377 127.229L181.245 126.632L178.616 125.422C178.616 125.422 172.589 147.506 172.41 151.407C172.232 155.309 184.379 163.004 184.821 163.469C185 163.655 184.93 161.577 184.782 159.009C181.168 155.945 175.978 151.632 175.373 149.817" fill="#0D6EFD"/>
</g>
</g>
<path d="M178.616 125.422C178.616 125.422 172.589 147.506 172.41 151.407C172.232 155.309 184.379 163.004 184.821 163.469C185.263 163.935 184.131 150.05 184.131 150.05L188.25 129.882L178.616 125.422Z" stroke="#263238" stroke-width="0.775695" stroke-linecap="round" stroke-linejoin="round"/>
<path d="M206.921 103.237C206.921 103.237 204.594 104.912 200.056 105.098C195.518 105.285 195.301 101.996 189.662 101.996C182.828 101.996 174.256 123.614 174.256 123.614C174.256 123.614 178.523 127.795 182.704 129.556C185.017 130.569 187.448 131.286 189.941 131.689L190.592 145.892H236.622L237.173 131.689L251.562 122.358C251.562 122.358 244.503 109.737 241.075 105.005C237.646 100.274 231.883 102.034 230.122 103.237C228.361 104.439 223.141 104.726 221.217 104.447C218.707 103.891 216.227 103.211 213.786 102.407C213.786 102.407 210.823 99.94 206.921 103.237Z" fill="#0D6EFD" stroke="#263238" stroke-width="0.775695" stroke-linecap="round" stroke-linejoin="round"/>
<path d="M190.406 108.248L190.22 131.821" stroke="#263238" stroke-width="0.387847" stroke-linecap="round" stroke-linejoin="round"/>
<path d="M192.074 110.389C192.074 110.389 192.726 121.892 195.177 128.299" stroke="#263238" stroke-width="0.387847" stroke-linecap="round" stroke-linejoin="round"/>
<path d="M195.604 129.222C196.133 130.786 196.784 132.306 197.551 133.768" stroke="#263238" stroke-width="0.387847" stroke-linecap="round" stroke-linejoin="round"/>
<path d="M193.556 109.085C194.436 113.268 195.679 117.367 197.271 121.334" stroke="#263238" stroke-width="0.387847" stroke-linecap="round" stroke-linejoin="round"/>
<path d="M233.566 111.125C233.566 111.125 231.34 120.224 229.385 124.312" stroke="#263238" stroke-width="0.387847" stroke-linecap="round" stroke-linejoin="round"/>
<path d="M237.173 131.728L237.08 113.352" stroke="#263238" stroke-width="0.387847" stroke-linecap="round" stroke-linejoin="round"/>
<path d="M236.157 113.724C236.157 113.724 234.482 125.36 230.401 131.449" stroke="#263238" stroke-width="0.387847" stroke-linecap="round" stroke-linejoin="round"/>
<path d="M234.117 129.129C234.117 129.129 232.255 132.659 230.959 134.513" stroke="#263238" stroke-width="0.387847" stroke-linecap="round" stroke-linejoin="round"/>
<path d="M204.322 104.633C204.322 104.633 205.625 112.615 207.479 116.695C209.333 120.775 212.583 121.613 215.368 120.411C218.153 119.208 220.193 113.259 220.022 105.672" stroke="#263238" stroke-width="0.387847" stroke-linecap="round" stroke-linejoin="round"/>
<path d="M197.737 87.9244C197.737 87.9244 195.968 84.8682 194.58 86.4429C193.191 88.0175 195.696 91.64 197.085 92.8423C198.473 94.0447 199.497 93.3078 199.412 92.0123C199.327 90.7169 197.737 87.9244 197.737 87.9244Z" fill="#0D6EFD" stroke="#263238" stroke-width="0.775695" stroke-linecap="round" stroke-linejoin="round"/>
<path opacity="0.5" d="M197.737 87.9244C197.737 87.9244 195.968 84.8682 194.58 86.4429C193.191 88.0175 195.696 91.64 197.085 92.8423C198.473 94.0447 199.497 93.3078 199.412 92.0123C199.327 90.7169 197.737 87.9244 197.737 87.9244Z" fill="white"/>
<path d="M197.737 87.9244C197.737 87.9244 195.968 84.8682 194.58 86.4429C193.191 88.0175 195.696 91.64 197.085 92.8423C198.473 94.0447 199.497 93.3078 199.412 92.0123C199.327 90.7169 197.737 87.9244 197.737 87.9244Z" stroke="#263238" stroke-width="0.775695" stroke-linecap="round" stroke-linejoin="round"/>
<path d="M225.809 87.9244C225.809 87.9244 227.57 84.8682 228.966 86.4429C230.363 88.0175 227.849 91.64 226.461 92.8423C225.072 94.0447 224.041 93.3078 224.134 92.0123C224.227 90.7169 225.809 87.9244 225.809 87.9244Z" fill="#0D6EFD" stroke="#263238" stroke-width="0.775695" stroke-linecap="round" stroke-linejoin="round"/>
<path opacity="0.5" d="M225.809 87.9244C225.809 87.9244 227.57 84.8682 228.966 86.4429C230.363 88.0175 227.849 91.64 226.461 92.8423C225.072 94.0447 224.041 93.3078 224.134 92.0123C224.227 90.7169 225.809 87.9244 225.809 87.9244Z" fill="white"/>
<path d="M225.809 87.9244C225.809 87.9244 227.57 84.8682 228.966 86.4429C230.363 88.0175 227.849 91.64 226.461 92.8423C225.072 94.0447 224.041 93.3078 224.134 92.0123C224.227 90.7169 225.809 87.9244 225.809 87.9244Z" stroke="#263238" stroke-width="0.775695" stroke-linecap="round" stroke-linejoin="round"/>
<path d="M206.083 102.593C206.959 106.554 208.076 110.457 209.426 114.283C211.102 118.456 214.251 118.456 215.554 115.764C216.857 113.073 217.687 103.043 217.687 103.043C217.687 103.043 208.961 104.261 206.083 102.593Z" fill="white" stroke="#263238" stroke-width="0.775695" stroke-linecap="round" stroke-linejoin="round"/>
<path d="M197.923 88.9484C197.923 88.9484 200.335 97.4811 204.904 102.5C209.473 107.519 211.11 108.705 213.537 108.341C215.965 107.976 218.548 104.819 222.163 98.2568C225.778 91.6944 226.042 86.6601 226.344 86.1947C226.647 85.7293 225.568 76.452 220.402 72.4572C215.236 68.4623 209.45 66.7093 204.439 71.0687C199.428 75.4281 196.247 82.5412 197.923 88.9484Z" fill="white"/>
<mask id="mask2_140_4784" style="mask-type:luminance" maskUnits="userSpaceOnUse" x="197" y="68" width="30" height="41">
<path d="M197.923 88.9484C197.923 88.9484 200.335 97.4811 204.904 102.5C209.473 107.519 211.11 108.705 213.537 108.341C215.965 107.976 218.548 104.819 222.163 98.2568C225.778 91.6944 226.042 86.6601 226.344 86.1947C226.647 85.7293 225.568 76.452 220.402 72.4572C215.236 68.4623 209.45 66.7093 204.439 71.0687C199.428 75.4281 196.247 82.5412 197.923 88.9484Z" fill="white"/>
</mask>
<g mask="url(#mask2_140_4784)">
<g style="mix-blend-mode:multiply" opacity="0.5">
<path d="M220.379 72.4262C215.182 68.4391 209.426 66.6783 204.415 71.0377C199.404 75.3971 196.247 82.5412 197.923 88.9485C197.923 88.9485 198.38 90.5929 199.288 92.8269C199.285 92.5409 199.325 92.2561 199.404 91.9814C200.514 88.4675 203.787 81.6647 214.802 84.783C223.552 87.2497 222.481 94.9446 221.667 99.048L222.14 98.1947C225.762 91.6091 226.018 86.5981 226.321 86.1327C226.624 85.6673 225.576 76.421 220.379 72.4262Z" fill="#0D6EFD"/>
</g>
</g>
<path d="M197.923 88.9484C197.923 88.9484 200.335 97.4811 204.904 102.5C209.473 107.519 211.11 108.705 213.537 108.341C215.965 107.976 218.548 104.819 222.163 98.2568C225.778 91.6944 226.042 86.6601 226.344 86.1947C226.647 85.7293 225.568 76.452 220.402 72.4572C215.236 68.4623 209.45 66.7093 204.439 71.0687C199.428 75.4281 196.247 82.5412 197.923 88.9484Z" stroke="#263238" stroke-width="0.775695" stroke-linecap="round" stroke-linejoin="round"/>
<path d="M213.514 93.4009C213.227 95.2126 213.071 97.0429 213.049 98.8773C213.142 100.731 213.701 101.29 212.863 101.476C212.025 101.662 211.102 100.359 211.102 100.359" stroke="#263238" stroke-width="0.775695" stroke-linecap="round" stroke-linejoin="round"/>
<path d="M204.229 94.8903C204.767 95.2786 205.409 95.4954 206.072 95.512C206.735 95.5286 207.388 95.3443 207.945 94.9833" stroke="#263238" stroke-width="0.775695" stroke-linecap="round" stroke-linejoin="round"/>
<path d="M216.02 94.8903C216.557 95.278 217.198 95.4943 217.86 95.5109C218.521 95.5276 219.173 95.3436 219.728 94.9833" stroke="#263238" stroke-width="0.775695" stroke-linecap="round" stroke-linejoin="round"/>
<path d="M210.155 91.7641C210.155 91.7641 208.387 87.3969 202.546 89.437" stroke="#263238" stroke-width="0.775695" stroke-linecap="round" stroke-linejoin="round"/>
<path d="M215.019 91.2289C215.019 91.2289 216.501 86.9549 221.791 89.4604" stroke="#263238" stroke-width="0.775695" stroke-linecap="round" stroke-linejoin="round"/>
<path d="M211.28 95.2082C211.28 97.5973 208.542 99.5288 205.16 99.5288C201.778 99.5288 199.032 97.5973 199.032 95.2082C199.032 92.8191 201.592 91.8262 204.974 91.8262C208.356 91.8262 211.28 92.8268 211.28 95.2082Z" stroke="#263238" stroke-width="0.775695" stroke-linecap="round" stroke-linejoin="round"/>
<path d="M225.39 95.2082C225.39 97.5973 222.644 99.5288 219.262 99.5288C215.88 99.5288 213.142 97.5973 213.142 95.2082C213.142 92.8191 215.694 91.8262 219.076 91.8262C222.458 91.8262 225.39 92.8268 225.39 95.2082Z" stroke="#263238" stroke-width="0.775695" stroke-linecap="round" stroke-linejoin="round"/>
<path d="M147.177 169.621L146.797 263.658C146.797 263.954 146.915 264.238 147.124 264.448C147.334 264.657 147.618 264.775 147.914 264.775C148.203 264.775 148.48 264.663 148.687 264.461C148.895 264.26 149.015 263.986 149.023 263.697L151.707 169.752L147.177 169.621Z" fill="white" stroke="#263238" stroke-width="0.775695" stroke-linecap="round" stroke-linejoin="round"/>
<path d="M140.847 191.604L140.482 288.822C140.481 288.969 140.51 289.114 140.565 289.25C140.621 289.386 140.703 289.51 140.807 289.614C140.911 289.718 141.035 289.8 141.171 289.856C141.307 289.911 141.452 289.94 141.599 289.939C141.888 289.939 142.165 289.828 142.373 289.628C142.581 289.429 142.704 289.156 142.716 288.868L145.393 191.728L140.847 191.604Z" fill="white" stroke="#263238" stroke-width="0.775695" stroke-linecap="round" stroke-linejoin="round"/>
<path d="M277.183 169.621L277.564 263.658C277.565 263.804 277.537 263.949 277.481 264.085C277.426 264.22 277.345 264.344 277.241 264.447C277.138 264.551 277.016 264.634 276.881 264.69C276.745 264.746 276.601 264.775 276.454 264.775C276.165 264.775 275.886 264.663 275.678 264.462C275.469 264.261 275.347 263.986 275.337 263.697L272.661 169.752L277.183 169.621Z" fill="white" stroke="#263238" stroke-width="0.775695" stroke-linecap="round" stroke-linejoin="round"/>
<path d="M283.521 191.604L283.901 288.822C283.902 288.969 283.874 289.114 283.818 289.25C283.762 289.386 283.68 289.51 283.576 289.614C283.472 289.718 283.349 289.8 283.213 289.856C283.077 289.911 282.931 289.94 282.784 289.939C282.496 289.939 282.22 289.827 282.013 289.628C281.806 289.428 281.685 289.156 281.675 288.868L278.991 191.728L283.521 191.604Z" fill="white" stroke="#263238" stroke-width="0.775695" stroke-linecap="round" stroke-linejoin="round"/>
<path d="M184.922 195.645L184.697 281.933C184.673 282.149 184.733 282.365 184.864 282.537C184.996 282.709 185.189 282.824 185.403 282.856C185.612 282.827 185.802 282.72 185.935 282.556C186.068 282.391 186.133 282.183 186.117 281.972L187.8 195.746L184.922 195.645Z" fill="white" stroke="#263238" stroke-width="0.775695" stroke-linecap="round" stroke-linejoin="round"/>
<path d="M239.539 192.868L239.748 268.173C239.766 268.355 239.713 268.537 239.601 268.681C239.488 268.826 239.324 268.921 239.143 268.948C238.963 268.921 238.8 268.825 238.688 268.681C238.577 268.536 238.526 268.354 238.546 268.173L237.111 192.93L239.539 192.868Z" fill="white" stroke="#263238" stroke-width="0.775695" stroke-linecap="round" stroke-linejoin="round"/>
<path d="M184.077 192.868L184.286 268.173C184.304 268.355 184.251 268.537 184.139 268.681C184.026 268.826 183.862 268.921 183.681 268.948C183.501 268.921 183.338 268.825 183.226 268.681C183.115 268.536 183.064 268.354 183.084 268.173L181.649 192.93L184.077 192.868Z" fill="white" stroke="#263238" stroke-width="0.775695" stroke-linecap="round" stroke-linejoin="round"/>
<path d="M237.98 195.645L238.22 281.933C238.245 282.149 238.185 282.365 238.053 282.537C237.921 282.709 237.728 282.824 237.514 282.856C237.306 282.826 237.117 282.718 236.984 282.554C236.852 282.39 236.787 282.182 236.8 281.972L235.117 195.746L237.98 195.645Z" fill="white" stroke="#263238" stroke-width="0.775695" stroke-linecap="round" stroke-linejoin="round"/>
<path d="M211.071 201.688C230.135 201.688 245.589 198.156 245.589 193.799C245.589 189.442 230.135 185.91 211.071 185.91C192.007 185.91 176.552 189.442 176.552 193.799C176.552 198.156 192.007 201.688 211.071 201.688Z" fill="white" stroke="#263238" stroke-width="0.775695" stroke-linecap="round" stroke-linejoin="round"/>
<path d="M194.261 260.765C194.261 260.765 192.454 263.356 193.749 264.643C195.045 265.931 196.333 265.419 196.201 266.714C196.069 268.01 194.005 272.4 192.198 277.054C190.391 281.708 194.137 286.363 197.628 285.075C201.119 283.787 200.731 270.849 201.243 268.522C201.755 266.195 202.15 265.807 202.018 263.612C201.886 261.416 201.762 259.089 200.079 258.825C198.396 258.562 195.037 259.865 194.261 260.765Z" fill="white" stroke="#263238" stroke-width="0.775695" stroke-linecap="round" stroke-linejoin="round"/>
<path d="M199.808 281.507C197.481 280.623 193.912 280.801 191.903 281.003C192.578 283.927 195.161 285.983 197.628 285.075C198.66 284.695 199.334 283.314 199.808 281.507Z" fill="#0D6EFD" stroke="#263238" stroke-width="0.775695" stroke-linecap="round" stroke-linejoin="round"/>
<path d="M190.259 255.079C190.259 255.079 194.005 261.416 195.037 263.092C196.069 264.767 199.567 264.255 199.955 261.928C200.343 259.601 198.528 253.14 198.528 253.14L190.771 255.079H190.259Z" fill="white" stroke="#263238" stroke-width="0.775695" stroke-linecap="round" stroke-linejoin="round"/>
<path d="M181.338 244.995C181.338 244.995 180.299 246.678 180.818 247.842C181.338 249.005 182.758 252.364 183.665 254.047C184.573 255.731 188.707 256.762 193.485 255.987C198.264 255.211 200.986 253.008 201.118 251.069C201.25 249.129 200.343 246.546 199.691 243.444C199.039 240.341 197.364 240.473 195.037 240.473C192.71 240.473 183.277 243.188 181.338 244.995Z" fill="#0D6EFD" stroke="#263238" stroke-width="0.775695" stroke-linecap="round" stroke-linejoin="round"/>
<path d="M195.301 206.986C195.371 203.806 197.209 202.239 197.349 200.059C197.568 197.177 197.329 194.279 196.643 191.472L193.106 186.639C182.929 186.771 175.637 186.942 175.521 186.981C175.133 187.105 174.869 189.308 174.613 191.115C174.613 191.115 170.293 191.666 171.068 203.689C171.177 205.365 175.536 224.749 175.854 226.96C177.794 240.465 182.114 247.229 182.114 247.229C182.114 247.229 182.502 248.912 187.544 248.524C192.586 248.136 197.628 244.778 197.628 244.778C197.628 244.778 195.037 218.489 195.301 206.986Z" fill="#263238" stroke="#263238" stroke-width="0.775695" stroke-linecap="round" stroke-linejoin="round"/>
<path d="M173.915 189.145C173.915 189.145 168.571 189.92 165.297 193.659C162.024 197.398 164.801 199.865 171.161 199.198C177.522 198.531 184.86 192.023 185.17 191.674C185.481 191.324 178.538 186.903 173.915 189.145Z" fill="white" stroke="#263238" stroke-width="0.775695" stroke-linecap="round" stroke-linejoin="round"/>
<path d="M183.402 191.472C186.807 191.647 190.185 192.167 193.486 193.023C197.884 194.319 205.641 196.902 207.448 196.902C209.256 196.902 208.744 190.177 208.744 188.889C208.744 187.601 185.473 186.818 182.626 186.818C179.779 186.818 183.402 191.472 183.402 191.472Z" fill="white" stroke="#263238" stroke-width="0.775695" stroke-linecap="round" stroke-linejoin="round"/>
<path d="M208.744 188.889C208.744 188.889 206.673 189.921 205.897 193.799C205.121 197.677 204.089 199.749 205.641 200.78C207.192 201.812 213.917 202.588 214.949 201.556C215.981 200.524 218.828 195.35 219.347 191.992C219.867 188.633 208.744 188.889 208.744 188.889Z" fill="#0D6EFD" stroke="#263238" stroke-width="0.775695" stroke-linecap="round" stroke-linejoin="round"/>
<path d="M217.532 190.177C216.33 191.556 215.37 193.13 214.693 194.831C214.145 196.611 213.712 198.425 213.398 200.261C215.873 200.939 218.292 201.805 220.635 202.851C224.777 204.659 231.759 205.954 238.476 207.506C245.194 209.057 247.009 210.608 249.336 210.608C251.663 210.608 254.51 208.793 258.132 204.403C261.755 200.012 258.644 190.696 255.029 187.849C251.415 185.003 232.015 182.683 229.432 183.459C226.849 184.235 217.532 190.177 217.532 190.177Z" fill="#263238" stroke="#263238" stroke-width="0.775695" stroke-linecap="round" stroke-linejoin="round"/>
<path d="M169.021 199.268C168.51 196.947 167.475 194.774 165.995 192.915C165.755 193.14 165.522 193.372 165.297 193.628C162.419 196.902 164.219 199.229 169.021 199.268Z" fill="#0D6EFD" stroke="#263238" stroke-width="0.775695" stroke-linecap="round" stroke-linejoin="round"/>
<path d="M194.905 201.316C194.905 201.316 192.237 229.869 186.792 234.314" stroke="white" stroke-width="0.387847" stroke-linecap="round" stroke-linejoin="round"/>
<path d="M193.02 228.418C193.02 228.418 190.903 237.727 185.349 241.427" stroke="white" stroke-width="0.387847" stroke-linecap="round" stroke-linejoin="round"/>
<path d="M227.36 196.126C227.36 196.126 219.084 196.646 224.514 200.261C229.943 203.875 239.772 206.21 239.772 206.21" stroke="white" stroke-width="0.387847" stroke-linecap="round" stroke-linejoin="round"/>
<path d="M287.446 186.345L284.653 183.831L278.2 169.869C277.893 169.234 277.413 168.699 276.814 168.326C276.215 167.954 275.523 167.76 274.818 167.767H149.465C148.759 167.759 148.065 167.952 147.464 168.324C146.864 168.697 146.382 169.232 146.075 169.869L138.032 187.26L136.705 186.771V190.751L136.767 190.704C136.846 191.235 137.116 191.719 137.525 192.066C137.935 192.413 138.457 192.599 138.993 192.589H285.282C285.847 192.602 286.395 192.395 286.81 192.011C287.226 191.628 287.476 191.098 287.508 190.533L287.446 186.345Z" fill="#263238" stroke="#263238" stroke-width="0.775695" stroke-linecap="round" stroke-linejoin="round"/>
<path d="M285.281 188.951H138.993C138.631 188.965 138.271 188.887 137.947 188.725C137.623 188.562 137.346 188.32 137.141 188.02C136.936 187.721 136.811 187.375 136.777 187.014C136.742 186.653 136.8 186.289 136.945 185.957L146.075 166.231C146.38 165.593 146.862 165.056 147.463 164.684C148.063 164.311 148.758 164.119 149.465 164.129H274.817C275.523 164.12 276.216 164.314 276.815 164.686C277.414 165.058 277.895 165.594 278.199 166.231L287.329 185.957C287.474 186.289 287.532 186.653 287.498 187.014C287.463 187.375 287.338 187.721 287.133 188.02C286.929 188.32 286.652 188.562 286.328 188.725C286.004 188.887 285.644 188.965 285.281 188.951Z" fill="white" stroke="#263238" stroke-width="0.775695" stroke-linecap="round" stroke-linejoin="round"/>
<g style="mix-blend-mode:multiply" opacity="0.5">
<path d="M146.401 175.702C146.401 175.702 143.089 177.975 145.16 178.805C147.231 179.635 171.037 179.014 173.938 178.184C176.84 177.354 180.144 169.698 180.144 168.457C180.144 167.216 175.971 166.324 174.435 166.254C172.899 166.184 152.607 167.418 152.607 167.418L146.401 175.702Z" fill="#0D6EFD"/>
</g>
<g style="mix-blend-mode:multiply" opacity="0.5">
<path d="M264.819 179.635C269.505 179.635 273.305 178.058 273.305 176.113C273.305 174.168 269.505 172.592 264.819 172.592C260.132 172.592 256.333 174.168 256.333 176.113C256.333 178.058 260.132 179.635 264.819 179.635Z" fill="#0D6EFD"/>
</g>
<g style="mix-blend-mode:multiply" opacity="0.5">
<path d="M210.791 183.987C227.598 183.987 241.222 181.437 241.222 178.293C241.222 175.148 227.598 172.599 210.791 172.599C193.985 172.599 180.361 175.148 180.361 178.293C180.361 181.437 193.985 183.987 210.791 183.987Z" fill="#0D6EFD"/>
</g>
<path d="M258.613 162.259C258.613 162.259 258.055 160.033 256.201 160.778C254.347 161.522 254.533 166.44 254.898 169.225C255.262 172.01 257.776 170.707 257.776 170.707V169.039C257.776 169.039 256.852 169.776 256.387 168.76C255.922 167.743 256.015 162.632 256.48 162.725C256.946 162.818 257.869 164.392 257.869 164.392C257.869 164.392 258.148 164.214 258.613 162.259Z" fill="#0D6EFD" stroke="#263238" stroke-width="0.775695" stroke-linecap="round" stroke-linejoin="round"/>
<path d="M257.279 162.632V174.826C257.279 176.261 260.576 177.424 264.648 177.424C268.72 177.424 272.009 176.261 272.009 174.826V162.632H257.279Z" fill="#0D6EFD" stroke="#263238" stroke-width="0.775695" stroke-linecap="round" stroke-linejoin="round"/>
<path d="M272.009 162.632C272.009 163.873 268.713 164.873 264.648 164.873C260.583 164.873 257.279 163.873 257.279 162.632C257.279 161.391 260.576 160.39 264.648 160.39C268.72 160.39 272.009 161.398 272.009 162.632Z" fill="white" stroke="#263238" stroke-width="0.775695" stroke-linecap="round" stroke-linejoin="round"/>
<path d="M271.047 162.632C271.047 163.71 268.177 164.579 264.648 164.579C261.119 164.579 258.241 163.71 258.241 162.632C258.241 161.553 261.111 160.685 264.648 160.685C268.185 160.685 271.047 161.553 271.047 162.632Z" fill="white" stroke="#263238" stroke-width="0.775695" stroke-linecap="round" stroke-linejoin="round"/>
<path d="M259.707 163.873C262.931 164.814 266.357 164.814 269.582 163.873C266.357 162.932 262.931 162.932 259.707 163.873Z" fill="#263238" stroke="#263238" stroke-width="0.775695" stroke-linecap="round" stroke-linejoin="round"/>
<path d="M145.486 168.201L145.579 172.374L173.698 172.654V167.829L145.486 168.201Z" fill="white" stroke="#263238" stroke-width="0.775695" stroke-linecap="round" stroke-linejoin="round"/>
<path d="M173.698 172.654L177.786 163.842V161.243L173.512 168.667L173.698 172.654Z" fill="white" stroke="#263238" stroke-width="0.775695" stroke-linecap="round" stroke-linejoin="round"/>
<path d="M145.486 172.002L145.579 176.183L173.698 176.462V171.637L145.486 172.002Z" fill="white" stroke="#263238" stroke-width="0.775695" stroke-linecap="round" stroke-linejoin="round"/>
<path d="M173.698 176.462L177.786 167.643V165.044L173.512 172.467L173.698 176.462Z" fill="white" stroke="#263238" stroke-width="0.775695" stroke-linecap="round" stroke-linejoin="round"/>
<path d="M156.346 157.621C156.346 157.621 156.997 156.325 156.067 155.767C155.136 155.208 154.12 156.542 153.561 156.969C153.003 157.396 141.313 165.137 140.941 166.347C140.568 167.557 140.941 170.226 143.446 170.52C145.952 170.815 148.178 169.132 149.295 168.853C150.412 168.573 150.846 168.48 150.846 168.48L158.549 158.086L156.346 157.621Z" fill="white" stroke="#263238" stroke-width="0.775695" stroke-linecap="round" stroke-linejoin="round"/>
<path d="M143.446 170.528C145.951 170.807 148.177 169.14 149.294 168.86C150.411 168.581 150.846 168.488 150.846 168.488L151.125 168.108L143.888 166.634C143.494 166.264 142.988 166.035 142.45 165.984C141.912 165.934 141.372 166.064 140.917 166.355C140.568 167.55 140.94 170.241 143.446 170.528Z" fill="white" stroke="#263238" stroke-width="0.775695" stroke-linecap="round" stroke-linejoin="round"/>
<path d="M143.911 166.65H165.631C172.41 166.65 174.45 166.277 174.45 166.277L178.623 157.644C178.623 157.644 165.437 158.482 161.364 158.202C159.681 158.154 158.005 157.967 156.353 157.644L143.911 166.65Z" fill="white" stroke="#263238" stroke-width="0.775695" stroke-linecap="round" stroke-linejoin="round"/>
<path d="M143.911 166.65L144.283 168.317C144.283 168.317 161.915 168.411 166.554 168.411C171.192 168.411 174.722 168.597 174.722 168.597L174.442 166.27L143.911 166.65Z" fill="white" stroke="#263238" stroke-width="0.775695" stroke-linecap="round" stroke-linejoin="round"/>
<path d="M174.722 168.573L178.616 159.661V157.621L174.442 166.254L174.722 168.573Z" fill="white" stroke="#263238" stroke-width="0.775695" stroke-linecap="round" stroke-linejoin="round"/>
<path d="M237.367 178.999H184.193C184.075 179 183.958 178.977 183.849 178.933C183.74 178.889 183.641 178.823 183.557 178.74C183.473 178.657 183.407 178.559 183.362 178.45C183.316 178.341 183.293 178.224 183.293 178.107C183.293 177.989 183.316 177.872 183.362 177.764C183.407 177.655 183.473 177.556 183.557 177.473C183.641 177.39 183.74 177.325 183.849 177.28C183.958 177.236 184.075 177.214 184.193 177.215H237.367C237.484 177.214 237.601 177.236 237.709 177.28C237.818 177.325 237.917 177.391 238 177.474C238.083 177.557 238.148 177.655 238.193 177.764C238.237 177.873 238.26 177.989 238.259 178.107C238.26 178.224 238.237 178.341 238.193 178.449C238.148 178.558 238.083 178.657 238 178.74C237.917 178.823 237.818 178.888 237.709 178.933C237.601 178.977 237.484 179 237.367 178.999Z" fill="white" stroke="#263238" stroke-width="0.775695" stroke-linecap="round" stroke-linejoin="round"/>
<path d="M237.817 177.199H183.735C183.537 177.2 183.347 177.124 183.203 176.989C183.058 176.853 182.972 176.668 182.96 176.47L180.02 141.137C180.007 141.028 180.017 140.917 180.05 140.812C180.083 140.706 180.138 140.61 180.211 140.527C180.285 140.445 180.375 140.38 180.475 140.335C180.576 140.29 180.685 140.268 180.795 140.268H240.764C240.875 140.268 240.984 140.29 241.084 140.335C241.185 140.38 241.275 140.445 241.349 140.527C241.422 140.61 241.477 140.706 241.51 140.812C241.543 140.917 241.553 141.028 241.54 141.137L238.6 176.47C238.588 176.669 238.5 176.856 238.354 176.991C238.209 177.127 238.016 177.202 237.817 177.199Z" fill="white" stroke="#263238" stroke-width="0.775695" stroke-linecap="round" stroke-linejoin="round"/>
<path d="M215.88 159.343C215.88 161.453 213.592 163.159 210.776 163.159C207.96 163.159 205.664 161.453 205.664 159.343C205.664 157.233 207.952 155.534 210.776 155.534C213.599 155.534 215.88 157.241 215.88 159.343Z" fill="white" stroke="#263238" stroke-width="0.775695" stroke-linecap="round" stroke-linejoin="round"/>
<path d="M268.728 131.743C269.558 131.096 270.141 130.185 270.38 129.16C270.555 128.392 270.536 127.593 270.326 126.833" stroke="#263238" stroke-width="0.775695" stroke-linecap="round" stroke-linejoin="round"/>
<path d="M262.538 159.405C262.538 159.405 267.696 156.302 266.013 152.757C264.33 149.212 258.636 146.862 258.636 141.339C258.636 136.576 263.701 134.815 267.006 132.907" stroke="#263238" stroke-width="0.775695" stroke-linecap="round" stroke-linejoin="round"/>
<path d="M267.301 159.304C267.301 159.304 270.179 157.388 270.179 154.347C270.179 152.307 267.999 150.973 265.121 147.692" stroke="#263238" stroke-width="0.775695" stroke-linecap="round" stroke-linejoin="round"/>
<path d="M263.531 145.706C263.531 145.706 261.646 144.224 263.035 141.44" stroke="#263238" stroke-width="0.775695" stroke-linecap="round" stroke-linejoin="round"/>
<path d="M219.86 64.4519C220.783 64.258 222.761 63.4978 224.095 60.4028C224.115 60.356 224.126 60.3055 224.127 60.2544C224.128 60.2033 224.119 60.1525 224.1 60.1049C224.082 60.0573 224.054 60.0139 224.018 59.9772C223.983 59.9404 223.94 59.9111 223.893 59.8908C223.798 59.8514 223.692 59.8505 223.596 59.8881C223.501 59.9257 223.424 59.999 223.381 60.0925C222.156 62.9316 220.402 63.5599 219.673 63.6995C220.978 62.1204 221.699 60.1397 221.713 58.0912C221.713 52.7079 216.726 48.3485 210.574 48.3485C204.423 48.3485 199.435 52.7079 199.435 58.0912C199.44 60.0571 200.094 61.9663 201.297 63.5211C200.126 63.459 198.148 63.9555 195.642 66.8799C195.571 66.9537 195.531 67.0524 195.531 67.1552C195.531 67.258 195.571 67.3568 195.642 67.4306C195.714 67.4904 195.805 67.5233 195.898 67.5237C195.955 67.5238 196.01 67.5112 196.061 67.4871C196.112 67.4629 196.157 67.4277 196.193 67.3841C199.397 63.653 201.514 64.2813 201.941 64.4519C201.217 64.8503 200.538 65.3263 199.916 65.8715C196.34 69.0906 194.161 75.1798 194.44 80.2528C194.754 83.6175 195.974 86.8342 197.969 89.5612C200.567 87.7024 202.72 85.2918 204.276 82.5024C205.435 80.4534 206.471 78.3371 207.379 76.1649C207.379 78.4377 207.673 81.1837 208.868 83.1462C209.73 84.6963 210.992 85.9864 212.523 86.8816C214.054 87.7768 215.798 88.2441 217.571 88.2347C218.184 88.2435 218.795 88.1837 219.394 88.0563C219.447 88.0432 219.496 88.0191 219.539 87.9857C219.582 87.9523 219.617 87.9103 219.642 87.8624C222.636 88.4985 225.615 88.4442 226.073 87.8081C226.81 86.7919 227.857 83.6194 228.206 79.7409C228.842 73.163 224.7 67.4539 219.86 64.4519ZM209.589 82.673C208.084 80.2141 208.131 76.2037 208.309 73.8999L208.41 73.6362C208.482 76.0056 209.086 78.3286 210.178 80.4328C211.269 82.537 212.821 84.3684 214.717 85.7913C215.764 86.5153 216.926 87.058 218.153 87.397C216.253 87.5289 212.343 87.1643 209.589 82.673Z" fill="#263238"/>
<path d="M209.721 70.4636C209.721 70.4636 209.085 75.1643 215.058 79.772C221.031 84.3796 226.693 82.5645 226.693 82.5645" stroke="white" stroke-width="0.387847" stroke-linecap="round" stroke-linejoin="round"/>
<path d="M210.598 68.9122C210.598 68.9122 216.889 78.0732 225.576 75.684" stroke="white" stroke-width="0.387847" stroke-linecap="round" stroke-linejoin="round"/>
<path d="M207.487 65.8637C206.495 65.36 205.383 65.1384 204.274 65.2232C203.165 65.3081 202.1 65.696 201.196 66.3446C197.853 68.5709 196.177 73.8301 196.177 73.8301" stroke="white" stroke-width="0.387847" stroke-linecap="round" stroke-linejoin="round"/>
<path d="M207.65 68.4158C207.65 68.4158 204.943 67.6944 203.267 69.3699C202.451 70.1099 201.752 70.9706 201.196 71.9219" stroke="white" stroke-width="0.387847" stroke-linecap="round" stroke-linejoin="round"/>
</svg>
