<svg width="433" height="354" viewBox="0 0 433 354" fill="none" xmlns="http://www.w3.org/2000/svg">
<g id="Group 1000000807" filter="url(#filter0_d_15_17)">
<g id="Rectangle 78" filter="url(#filter1_d_15_17)">
<rect x="90" y="80.321" width="253" height="174.914" rx="10.4115" fill="white"/>
<rect x="90.3975" y="80.7186" width="252.205" height="174.119" rx="10.014" stroke="#B2B0AF" stroke-width="0.795062"/>
</g>
<g id="Group 148">
<path id="Total Visitor" d="M105.917 106.31V104.109H113.992V106.31H111.179L111.179 114.312H108.716V106.31H105.917ZM113.044 110.96C113.044 110.25 113.209 109.633 113.54 109.108C113.87 108.584 114.327 108.176 114.91 107.884C115.493 107.593 116.149 107.447 116.878 107.447C117.606 107.447 118.257 107.593 118.831 107.884C119.414 108.176 119.871 108.584 120.201 109.108C120.541 109.633 120.711 110.25 120.711 110.96C120.711 111.659 120.541 112.271 120.201 112.796C119.871 113.321 119.414 113.729 118.831 114.021C118.257 114.312 117.606 114.458 116.878 114.458C116.149 114.458 115.493 114.312 114.91 114.021C114.327 113.729 113.87 113.321 113.54 112.796C113.209 112.271 113.044 111.659 113.044 110.96ZM115.303 110.96C115.303 111.309 115.376 111.611 115.522 111.863C115.668 112.106 115.857 112.296 116.09 112.432C116.324 112.568 116.586 112.636 116.878 112.636C117.159 112.636 117.417 112.568 117.65 112.432C117.893 112.296 118.083 112.106 118.219 111.863C118.364 111.611 118.437 111.309 118.437 110.96C118.437 110.61 118.364 110.309 118.219 110.056C118.083 109.803 117.893 109.609 117.65 109.473C117.417 109.337 117.159 109.269 116.878 109.269C116.586 109.269 116.324 109.337 116.09 109.473C115.857 109.609 115.668 109.803 115.522 110.056C115.376 110.309 115.303 110.61 115.303 110.96ZM121.248 107.607H125.738V109.429H121.248V107.607ZM122.429 105.275H124.542V114.312H122.429V105.275ZM128.381 112.213C128.381 112.388 128.425 112.539 128.512 112.665C128.6 112.782 128.716 112.874 128.862 112.942C129.008 113 129.168 113.029 129.343 113.029C129.596 113.029 129.829 112.976 130.043 112.869C130.257 112.762 130.431 112.602 130.567 112.388C130.704 112.174 130.772 111.912 130.772 111.601L131.005 112.476C131.005 112.903 130.888 113.268 130.655 113.569C130.422 113.86 130.12 114.084 129.751 114.239C129.382 114.385 128.984 114.458 128.556 114.458C128.128 114.458 127.73 114.38 127.361 114.225C127.001 114.059 126.71 113.817 126.486 113.496C126.272 113.175 126.166 112.786 126.166 112.33C126.166 111.688 126.394 111.183 126.851 110.814C127.307 110.435 127.954 110.245 128.789 110.245C129.197 110.245 129.562 110.284 129.882 110.362C130.213 110.44 130.495 110.537 130.728 110.654C130.961 110.77 131.136 110.892 131.253 111.018V111.995C131.019 111.82 130.747 111.688 130.436 111.601C130.135 111.504 129.814 111.455 129.474 111.455C129.212 111.455 129.003 111.484 128.848 111.543C128.692 111.601 128.575 111.688 128.498 111.805C128.42 111.912 128.381 112.048 128.381 112.213ZM127.404 109.662L126.661 108.19C127.04 108.006 127.497 107.831 128.031 107.665C128.566 107.5 129.149 107.418 129.78 107.418C130.373 107.418 130.903 107.505 131.369 107.68C131.836 107.845 132.205 108.088 132.477 108.409C132.749 108.729 132.885 109.123 132.885 109.589V114.312H130.772V110.085C130.772 109.92 130.742 109.779 130.684 109.662C130.636 109.536 130.558 109.429 130.451 109.342C130.344 109.254 130.208 109.191 130.043 109.152C129.887 109.113 129.708 109.094 129.503 109.094C129.202 109.094 128.906 109.128 128.614 109.196C128.332 109.264 128.085 109.347 127.871 109.444C127.657 109.531 127.502 109.604 127.404 109.662ZM134.533 102.943H136.749V114.312H134.533V102.943ZM147.321 110.202L149.814 104.109L152.7 104.109L147.321 114.953L141.957 104.109H144.829L147.321 110.202ZM153.419 105.085C153.419 104.736 153.546 104.454 153.798 104.24C154.051 104.017 154.352 103.905 154.702 103.905C155.061 103.905 155.363 104.017 155.606 104.24C155.858 104.454 155.985 104.736 155.985 105.085C155.985 105.435 155.858 105.722 155.606 105.945C155.363 106.169 155.061 106.281 154.702 106.281C154.352 106.281 154.051 106.169 153.798 105.945C153.546 105.722 153.419 105.435 153.419 105.085ZM153.638 107.607H155.766V114.312L153.638 114.312V107.607ZM157.943 111.878C158.283 112.16 158.589 112.383 158.861 112.548C159.143 112.704 159.391 112.816 159.605 112.884C159.819 112.942 160.003 112.971 160.159 112.971C160.382 112.971 160.547 112.923 160.654 112.825C160.761 112.728 160.815 112.602 160.815 112.446C160.815 112.301 160.771 112.179 160.683 112.082C160.596 111.975 160.445 111.873 160.232 111.776C160.028 111.679 159.746 111.577 159.386 111.47C159.066 111.353 158.759 111.217 158.468 111.062C158.186 110.896 157.953 110.678 157.768 110.406C157.584 110.134 157.491 109.784 157.491 109.356C157.491 108.948 157.598 108.603 157.812 108.321C158.035 108.04 158.332 107.826 158.701 107.68C159.08 107.534 159.513 107.461 159.998 107.461C160.387 107.461 160.747 107.505 161.077 107.593C161.417 107.68 161.733 107.797 162.024 107.942C162.326 108.088 162.608 108.258 162.87 108.453L162.083 109.881C161.801 109.619 161.48 109.405 161.121 109.24C160.761 109.065 160.431 108.977 160.13 108.977C159.926 108.977 159.77 109.016 159.663 109.094C159.566 109.172 159.517 109.274 159.517 109.4C159.517 109.546 159.576 109.667 159.692 109.764C159.819 109.862 159.994 109.954 160.217 110.041C160.45 110.119 160.732 110.221 161.062 110.347C161.412 110.474 161.733 110.62 162.024 110.785C162.326 110.95 162.564 111.159 162.739 111.411C162.923 111.664 163.016 111.999 163.016 112.417C163.016 113.136 162.792 113.681 162.345 114.05C161.908 114.409 161.291 114.589 160.494 114.589C160.008 114.589 159.556 114.531 159.138 114.414C158.73 114.307 158.351 114.162 158.001 113.977C157.652 113.783 157.326 113.569 157.025 113.336L157.943 111.878ZM164.095 105.085C164.095 104.736 164.221 104.454 164.474 104.24C164.727 104.017 165.028 103.905 165.378 103.905C165.737 103.905 166.039 104.017 166.282 104.24C166.534 104.454 166.66 104.736 166.66 105.085C166.66 105.435 166.534 105.722 166.282 105.945C166.039 106.169 165.737 106.281 165.378 106.281C165.028 106.281 164.727 106.169 164.474 105.945C164.221 105.722 164.095 105.435 164.095 105.085ZM164.314 107.607H166.442V114.312H164.314V107.607ZM167.468 107.607H171.957V109.429H167.468V107.607ZM168.648 105.275H170.762V114.312H168.648V105.275ZM172.502 110.96C172.502 110.25 172.667 109.633 172.997 109.108C173.328 108.584 173.784 108.176 174.367 107.884C174.95 107.593 175.606 107.447 176.335 107.447C177.064 107.447 177.715 107.593 178.288 107.884C178.871 108.176 179.328 108.584 179.658 109.108C179.999 109.633 180.169 110.25 180.169 110.96C180.169 111.659 179.999 112.271 179.658 112.796C179.328 113.321 178.871 113.729 178.288 114.021C177.715 114.312 177.064 114.458 176.335 114.458C175.606 114.458 174.95 114.312 174.367 114.021C173.784 113.729 173.328 113.321 172.997 112.796C172.667 112.271 172.502 111.659 172.502 110.96ZM174.761 110.96C174.761 111.309 174.834 111.611 174.979 111.863C175.125 112.106 175.315 112.296 175.548 112.432C175.781 112.568 176.044 112.636 176.335 112.636C176.617 112.636 176.874 112.568 177.108 112.432C177.351 112.296 177.54 112.106 177.676 111.863C177.822 111.611 177.895 111.309 177.895 110.96C177.895 110.61 177.822 110.309 177.676 110.056C177.54 109.803 177.351 109.609 177.108 109.473C176.874 109.337 176.617 109.269 176.335 109.269C176.044 109.269 175.781 109.337 175.548 109.473C175.315 109.609 175.125 109.803 174.979 110.056C174.834 110.309 174.761 110.61 174.761 110.96ZM183.665 107.607V114.312H181.493V107.607H183.665ZM185.603 109.881C185.487 109.764 185.36 109.672 185.224 109.604C185.098 109.536 184.938 109.502 184.743 109.502C184.529 109.502 184.34 109.56 184.175 109.677C184.01 109.794 183.883 109.964 183.796 110.187C183.708 110.411 183.665 110.683 183.665 111.003L183.14 110.231C183.14 109.696 183.242 109.22 183.446 108.802C183.66 108.385 183.937 108.054 184.277 107.811C184.617 107.568 184.972 107.447 185.341 107.447C185.584 107.447 185.817 107.495 186.04 107.593C186.264 107.69 186.434 107.826 186.551 108.001L185.603 109.881Z" fill="black"/>
<g id="Group 147">
<g id="Frame 3466353">
<path id="$4,230" d="M111.022 128.423H113.088L112.988 131.438H111.122L111.022 128.423ZM111.122 141.016H112.971L113.071 143.915H111.022L111.122 141.016ZM114.137 133.903C113.971 133.581 113.782 133.298 113.571 133.054C113.371 132.809 113.149 132.626 112.904 132.504C112.66 132.371 112.388 132.304 112.088 132.304C111.788 132.304 111.538 132.354 111.338 132.454C111.15 132.543 111.005 132.665 110.905 132.821C110.817 132.976 110.772 133.154 110.772 133.354C110.772 133.687 110.894 133.953 111.139 134.153C111.394 134.353 111.722 134.531 112.121 134.686C112.532 134.831 112.971 134.992 113.437 135.169C113.837 135.314 114.215 135.491 114.57 135.702C114.926 135.902 115.242 136.147 115.52 136.435C115.797 136.724 116.014 137.063 116.169 137.452C116.336 137.829 116.419 138.273 116.419 138.784C116.419 139.506 116.236 140.128 115.87 140.65C115.503 141.161 114.987 141.55 114.32 141.816C113.654 142.083 112.86 142.216 111.938 142.216C111.239 142.216 110.572 142.083 109.939 141.816C109.317 141.538 108.768 141.178 108.29 140.733C107.812 140.289 107.452 139.8 107.207 139.267L109.19 137.868C109.467 138.334 109.745 138.723 110.022 139.034C110.3 139.345 110.6 139.578 110.922 139.734C111.255 139.889 111.622 139.967 112.021 139.967C112.355 139.967 112.621 139.923 112.821 139.834C113.032 139.745 113.188 139.617 113.288 139.451C113.399 139.273 113.454 139.062 113.454 138.818C113.454 138.507 113.343 138.251 113.121 138.051C112.91 137.84 112.621 137.657 112.255 137.502C111.899 137.346 111.494 137.179 111.039 137.002C110.75 136.902 110.422 136.763 110.056 136.585C109.7 136.397 109.356 136.158 109.023 135.869C108.701 135.58 108.429 135.236 108.207 134.836C107.996 134.425 107.89 133.937 107.89 133.37C107.89 132.804 108.062 132.282 108.407 131.804C108.762 131.327 109.245 130.944 109.856 130.655C110.478 130.366 111.194 130.222 112.005 130.222C112.816 130.222 113.487 130.338 114.021 130.572C114.565 130.805 115.014 131.11 115.37 131.488C115.725 131.865 116.02 132.265 116.253 132.687L114.137 133.903ZM117.253 139.984L124.017 130.388H126.116V142.049H123.184V139.117L123.5 138.934V134.47L120.985 137.951H125.283L125.566 137.585H127.948V139.984H117.253ZM130.651 140.217L133.183 140.75L131.084 144.915L129.185 144.531L130.651 140.217ZM134.386 142.049L139.583 136.669C139.894 136.324 140.161 136.013 140.383 135.736C140.616 135.458 140.788 135.186 140.899 134.92C141.022 134.642 141.083 134.348 141.083 134.037C141.083 133.859 141.049 133.681 140.983 133.504C140.916 133.326 140.816 133.17 140.683 133.037C140.55 132.893 140.383 132.782 140.183 132.704C139.983 132.615 139.75 132.571 139.483 132.571C139.128 132.571 138.812 132.66 138.534 132.837C138.267 133.015 138.062 133.265 137.918 133.587C137.784 133.909 137.718 134.281 137.718 134.703H134.952C134.952 133.87 135.124 133.109 135.469 132.421C135.813 131.732 136.329 131.182 137.018 130.772C137.718 130.361 138.567 130.155 139.567 130.155C140.289 130.155 140.927 130.266 141.482 130.488C142.038 130.699 142.499 130.988 142.865 131.355C143.243 131.71 143.526 132.104 143.715 132.537C143.903 132.97 143.998 133.409 143.998 133.853C143.998 134.486 143.842 135.069 143.531 135.602C143.22 136.124 142.815 136.602 142.315 137.035L139.6 139.467H144.264V142.049H134.386ZM149.566 136.402V135.136C149.888 135.136 150.177 135.097 150.432 135.019C150.699 134.931 150.926 134.814 151.115 134.67C151.315 134.525 151.465 134.359 151.565 134.17C151.665 133.981 151.715 133.781 151.715 133.57C151.715 133.348 151.665 133.148 151.565 132.97C151.465 132.793 151.321 132.66 151.132 132.571C150.943 132.471 150.699 132.421 150.399 132.421C149.955 132.421 149.588 132.548 149.299 132.804C149.011 133.059 148.866 133.392 148.866 133.803H146.284C146.284 133.115 146.451 132.498 146.784 131.954C147.128 131.399 147.611 130.966 148.233 130.655C148.855 130.333 149.577 130.172 150.399 130.172C151.276 130.172 152.02 130.316 152.631 130.605C153.242 130.894 153.703 131.282 154.014 131.771C154.336 132.26 154.497 132.804 154.497 133.404C154.497 134.07 154.275 134.625 153.831 135.069C153.397 135.514 152.809 135.847 152.065 136.069C151.321 136.291 150.488 136.402 149.566 136.402ZM150.266 142.316C149.566 142.316 148.938 142.21 148.383 141.999C147.828 141.788 147.356 141.494 146.967 141.116C146.59 140.739 146.295 140.311 146.084 139.834C145.884 139.356 145.784 138.862 145.784 138.351H148.55C148.55 138.729 148.633 139.045 148.8 139.301C148.966 139.556 149.188 139.745 149.466 139.867C149.755 139.989 150.055 140.05 150.366 140.05C150.699 140.05 150.987 140 151.232 139.9C151.487 139.8 151.687 139.639 151.832 139.417C151.976 139.195 152.048 138.923 152.048 138.601C152.048 138.357 151.998 138.135 151.898 137.935C151.798 137.735 151.643 137.563 151.432 137.418C151.232 137.263 150.976 137.146 150.665 137.068C150.354 136.991 149.988 136.952 149.566 136.952V135.519C150.332 135.519 151.032 135.586 151.665 135.719C152.309 135.841 152.87 136.041 153.347 136.319C153.825 136.585 154.191 136.93 154.447 137.352C154.702 137.774 154.83 138.279 154.83 138.868C154.83 139.545 154.647 140.145 154.28 140.667C153.914 141.178 153.392 141.583 152.714 141.883C152.037 142.171 151.221 142.316 150.266 142.316ZM158.713 136.219C158.713 136.763 158.763 137.263 158.863 137.718C158.963 138.162 159.107 138.545 159.296 138.868C159.485 139.179 159.707 139.423 159.962 139.601C160.229 139.767 160.523 139.85 160.845 139.85C161.167 139.85 161.456 139.767 161.712 139.601C161.978 139.423 162.206 139.179 162.395 138.868C162.583 138.545 162.728 138.162 162.828 137.718C162.928 137.263 162.978 136.763 162.978 136.219C162.978 135.675 162.928 135.18 162.828 134.736C162.728 134.281 162.583 133.898 162.395 133.587C162.206 133.265 161.978 133.02 161.712 132.854C161.456 132.676 161.167 132.587 160.845 132.587C160.523 132.587 160.229 132.676 159.962 132.854C159.707 133.02 159.485 133.265 159.296 133.587C159.107 133.898 158.963 134.281 158.863 134.736C158.763 135.18 158.713 135.675 158.713 136.219ZM155.998 136.219C155.998 134.953 156.198 133.87 156.597 132.97C157.008 132.071 157.58 131.382 158.313 130.905C159.046 130.416 159.89 130.172 160.845 130.172C161.845 130.172 162.705 130.416 163.427 130.905C164.149 131.382 164.704 132.071 165.093 132.97C165.493 133.87 165.693 134.953 165.693 136.219C165.693 137.485 165.493 138.568 165.093 139.467C164.704 140.367 164.149 141.061 163.427 141.55C162.705 142.027 161.845 142.266 160.845 142.266C159.89 142.266 159.046 142.027 158.313 141.55C157.58 141.061 157.008 140.367 156.597 139.467C156.198 138.568 155.998 137.485 155.998 136.219Z" fill="black"/>
<path id="+14%" d="M170.835 134.551V133.005L177.341 133.005V134.551H170.835ZM173.259 130.519H174.916V137.037H173.259V130.519ZM179.026 130.642V129.047L182.823 128.243V137.049H181.104V130.098L179.026 130.642ZM184.421 135.454L189.381 128.391H190.581V137.049H188.763V134.872L188.911 134.736V131.211L186.871 134.13H189.963L190.173 133.945H191.942V135.454H184.421ZM192.735 130.382C192.735 129.97 192.83 129.599 193.019 129.269C193.217 128.939 193.485 128.68 193.823 128.49C194.161 128.292 194.541 128.193 194.961 128.193C195.39 128.193 195.769 128.292 196.099 128.49C196.437 128.68 196.701 128.939 196.891 129.269C197.08 129.599 197.175 129.97 197.175 130.382C197.175 130.778 197.08 131.145 196.891 131.483C196.701 131.813 196.437 132.077 196.099 132.275C195.769 132.473 195.39 132.572 194.961 132.572C194.541 132.572 194.161 132.473 193.823 132.275C193.485 132.077 193.217 131.813 193.019 131.483C192.83 131.145 192.735 130.778 192.735 130.382ZM194.071 130.382C194.071 130.547 194.108 130.704 194.182 130.853C194.256 130.993 194.359 131.104 194.491 131.186C194.623 131.269 194.78 131.31 194.961 131.31C195.143 131.31 195.295 131.269 195.419 131.186C195.551 131.104 195.654 130.993 195.728 130.853C195.802 130.704 195.839 130.547 195.839 130.382C195.839 130.209 195.802 130.053 195.728 129.912C195.654 129.772 195.551 129.661 195.419 129.579C195.295 129.488 195.143 129.442 194.961 129.442C194.78 129.442 194.623 129.488 194.491 129.579C194.359 129.661 194.256 129.772 194.182 129.912C194.108 130.053 194.071 130.209 194.071 130.382ZM198.363 135.058C198.363 134.654 198.457 134.287 198.647 133.957C198.845 133.619 199.113 133.355 199.451 133.165C199.789 132.968 200.168 132.869 200.589 132.869C201.018 132.869 201.397 132.968 201.727 133.165C202.065 133.355 202.329 133.619 202.519 133.957C202.708 134.287 202.803 134.654 202.803 135.058C202.803 135.462 202.708 135.829 202.519 136.159C202.329 136.489 202.065 136.752 201.727 136.95C201.397 137.148 201.018 137.247 200.589 137.247C200.168 137.247 199.789 137.148 199.451 136.95C199.113 136.752 198.845 136.489 198.647 136.159C198.457 135.829 198.363 135.462 198.363 135.058ZM199.698 135.058C199.698 135.223 199.736 135.38 199.81 135.528C199.884 135.668 199.987 135.779 200.119 135.862C200.251 135.944 200.408 135.986 200.589 135.986C200.77 135.986 200.923 135.944 201.047 135.862C201.179 135.779 201.282 135.668 201.356 135.528C201.43 135.38 201.467 135.223 201.467 135.058C201.467 134.885 201.43 134.728 201.356 134.588C201.282 134.448 201.179 134.336 201.047 134.254C200.923 134.171 200.77 134.13 200.589 134.13C200.408 134.13 200.251 134.171 200.119 134.254C199.987 134.336 199.884 134.448 199.81 134.588C199.736 134.728 199.698 134.885 199.698 135.058ZM200.119 128.391H201.739L195.431 137.049H193.811L200.119 128.391Z" fill="#0DD315"/>
</g>
</g>
</g>
<g id="Group 146">
<path id="10k" d="M104.743 158.146V156.912L107.408 156.419V161.243H105.991V157.87L104.743 158.146ZM109.701 158.882C109.701 159.07 109.717 159.241 109.749 159.394C109.785 159.543 109.832 159.671 109.89 159.779C109.953 159.882 110.025 159.961 110.106 160.015C110.187 160.069 110.277 160.096 110.376 160.096C110.475 160.096 110.565 160.069 110.646 160.015C110.727 159.961 110.797 159.882 110.855 159.779C110.918 159.671 110.965 159.543 110.997 159.394C111.033 159.241 111.051 159.07 111.051 158.882C111.051 158.693 111.033 158.524 110.997 158.376C110.965 158.223 110.918 158.094 110.855 157.991C110.797 157.883 110.727 157.802 110.646 157.748C110.565 157.694 110.475 157.667 110.376 157.667C110.277 157.667 110.187 157.694 110.106 157.748C110.025 157.802 109.953 157.883 109.89 157.991C109.832 158.094 109.785 158.223 109.749 158.376C109.717 158.524 109.701 158.693 109.701 158.882ZM108.285 158.882C108.285 158.342 108.372 157.89 108.548 157.526C108.723 157.161 108.968 156.887 109.283 156.702C109.598 156.514 109.962 156.419 110.376 156.419C110.812 156.419 111.186 156.514 111.496 156.702C111.811 156.887 112.052 157.161 112.218 157.526C112.384 157.89 112.468 158.342 112.468 158.882C112.468 159.421 112.384 159.873 112.218 160.238C112.052 160.602 111.811 160.879 111.496 161.068C111.186 161.252 110.812 161.344 110.376 161.344C109.962 161.344 109.598 161.252 109.283 161.068C108.968 160.879 108.723 160.602 108.548 160.238C108.372 159.873 108.285 159.421 108.285 158.882ZM113.076 155.981H114.324V161.243H113.076L113.076 155.981ZM115.444 158.139H116.989L115.674 159.421L117.124 161.243H115.606L114.129 159.421L115.444 158.139Z" fill="#718EBF"/>
<path id="4k" d="M109.917 180.249L112.737 176.302H113.951V181.025H112.4V179.837L112.602 179.763V178.184L111.772 179.237H113.614L113.729 179.001H114.694V180.249H109.917ZM115.365 175.762H116.614V181.025H115.365V175.762ZM117.733 177.921H119.278L117.963 179.203L119.413 181.025H117.895L116.418 179.203L117.733 177.921Z" fill="#718EBF"/>
<path id="2k" d="M109.255 200.807L111.286 198.749C111.425 198.596 111.545 198.464 111.644 198.351C111.747 198.234 111.826 198.122 111.88 198.014C111.934 197.906 111.961 197.791 111.961 197.67C111.961 197.611 111.952 197.555 111.934 197.501C111.916 197.447 111.886 197.4 111.846 197.359C111.805 197.319 111.754 197.287 111.691 197.265C111.632 197.238 111.56 197.224 111.475 197.224C111.362 197.224 111.263 197.256 111.178 197.319C111.093 197.377 111.025 197.458 110.976 197.562C110.931 197.665 110.908 197.78 110.908 197.906H109.458C109.458 197.568 109.534 197.254 109.687 196.961C109.84 196.669 110.069 196.433 110.375 196.253C110.686 196.068 111.07 195.976 111.529 195.976C111.839 195.976 112.116 196.021 112.359 196.111C112.606 196.197 112.813 196.316 112.979 196.469C113.15 196.617 113.278 196.786 113.364 196.975C113.454 197.164 113.499 197.359 113.499 197.562C113.499 197.823 113.434 198.054 113.303 198.257C113.173 198.455 113 198.637 112.784 198.803L111.934 199.458H113.668V200.807H109.255ZM114.241 195.544H115.489V200.807H114.241V195.544ZM116.609 197.703H118.154L116.838 198.985L118.289 200.807H116.771L115.293 198.985L116.609 197.703Z" fill="#718EBF"/>
<path id="0" d="M113.827 219.269C113.827 219.458 113.843 219.628 113.874 219.781C113.91 219.93 113.957 220.058 114.016 220.166C114.079 220.269 114.151 220.348 114.232 220.402C114.313 220.456 114.403 220.483 114.502 220.483C114.601 220.483 114.691 220.456 114.771 220.402C114.852 220.348 114.922 220.269 114.981 220.166C115.044 220.058 115.091 219.93 115.122 219.781C115.158 219.628 115.176 219.458 115.176 219.269C115.176 219.08 115.158 218.911 115.122 218.763C115.091 218.61 115.044 218.482 114.981 218.378C114.922 218.27 114.852 218.189 114.771 218.135C114.691 218.081 114.601 218.054 114.502 218.054C114.403 218.054 114.313 218.081 114.232 218.135C114.151 218.189 114.079 218.27 114.016 218.378C113.957 218.482 113.91 218.61 113.874 218.763C113.843 218.911 113.827 219.08 113.827 219.269ZM112.41 219.269C112.41 218.729 112.498 218.277 112.673 217.913C112.849 217.548 113.094 217.274 113.409 217.089C113.723 216.901 114.088 216.806 114.502 216.806C114.938 216.806 115.311 216.901 115.622 217.089C115.936 217.274 116.177 217.548 116.343 217.913C116.51 218.277 116.593 218.729 116.593 219.269C116.593 219.808 116.51 220.26 116.343 220.625C116.177 220.989 115.936 221.266 115.622 221.455C115.311 221.639 114.938 221.731 114.502 221.731C114.088 221.731 113.723 221.639 113.409 221.455C113.094 221.266 112.849 220.989 112.673 220.625C112.498 220.26 112.41 219.808 112.41 219.269Z" fill="#718EBF"/>
</g>
<g id="Group 145">
<g id="Group 144">
<path id="S" d="M136.453 233.908C136.564 234.103 136.692 234.272 136.836 234.416C136.981 234.555 137.136 234.661 137.303 234.733C137.475 234.805 137.647 234.841 137.819 234.841C137.964 234.841 138.086 234.813 138.186 234.758C138.286 234.697 138.336 234.602 138.336 234.475C138.336 234.397 138.308 234.33 138.252 234.275C138.202 234.219 138.1 234.155 137.944 234.083C137.789 234.011 137.553 233.914 137.236 233.792C137.097 233.736 136.936 233.661 136.753 233.567C136.575 233.472 136.403 233.35 136.237 233.2C136.076 233.05 135.94 232.867 135.829 232.65C135.723 232.434 135.67 232.179 135.67 231.884C135.67 231.501 135.773 231.179 135.979 230.918C136.184 230.657 136.456 230.46 136.795 230.327C137.134 230.193 137.506 230.127 137.911 230.127C138.35 230.127 138.724 230.193 139.035 230.327C139.352 230.46 139.61 230.626 139.81 230.826C140.015 231.026 140.171 231.226 140.276 231.426L138.919 232.176C138.83 232.037 138.73 231.929 138.619 231.851C138.513 231.768 138.405 231.707 138.294 231.668C138.183 231.629 138.075 231.609 137.969 231.609C137.842 231.609 137.736 231.632 137.653 231.676C137.575 231.72 137.536 231.79 137.536 231.884C137.536 232.001 137.592 232.098 137.703 232.176C137.819 232.248 137.972 232.317 138.161 232.384C138.35 232.445 138.558 232.517 138.785 232.601C139.019 232.684 139.227 232.784 139.41 232.9C139.593 233.011 139.749 233.142 139.877 233.292C140.01 233.442 140.11 233.611 140.176 233.8C140.243 233.983 140.276 234.189 140.276 234.416C140.276 234.738 140.21 235.024 140.077 235.274C139.943 235.519 139.763 235.721 139.535 235.882C139.313 236.043 139.06 236.165 138.777 236.249C138.494 236.332 138.202 236.374 137.903 236.374C137.486 236.374 137.097 236.304 136.736 236.165C136.381 236.032 136.073 235.846 135.812 235.607C135.551 235.369 135.354 235.102 135.221 234.808L136.453 233.908Z" fill="#718EBF"/>
<path id="first" d="M126.44 214.63C126.44 212.905 127.838 211.507 129.563 211.507H144.14C145.865 211.507 147.263 212.905 147.263 214.63V224H126.44V214.63Z" fill="#ECF4FB"/>
</g>
<g id="Group 143">
<path id="M" d="M160.923 233.742L160.623 236.124H158.666L159.749 230.002L162.331 233.15L164.913 230.002L165.996 236.124H164.038L163.738 233.742L162.331 235.582L160.923 233.742Z" fill="#718EBF"/>
<path id="second" d="M151.428 208.383C151.428 206.658 152.826 205.26 154.551 205.26H169.127C170.852 205.26 172.251 206.658 172.251 208.383V224H151.428V208.383Z" fill="#ECF4FB"/>
</g>
<g id="Group 142">
<path id="T" d="M183.655 231.918V230.294H188.819V231.918H187.153V236.124H185.321V231.918H183.655Z" fill="#718EBF"/>
<path id="third" d="M176.416 183.396C176.416 181.671 177.815 180.272 179.54 180.272H194.116C195.841 180.272 197.239 181.671 197.239 183.396V224.001H176.416V183.396Z" fill="#ECF4FB"/>
</g>
<g id="Group 150">
<path id="W" d="M214.165 233.034L215.065 230.294L217.272 230.294L214.607 236.499L212.649 233.601L210.692 236.499L208.027 230.294H210.234L211.133 233.034L212.649 230.002L214.165 233.034Z" fill="#718EBF"/>
<path id="fourth" d="M201.404 194.849C201.404 193.124 202.802 191.725 204.527 191.725H219.103C220.828 191.725 222.227 193.124 222.227 194.849V224.001H201.404V194.849Z" fill="#00BDD5"/>
</g>
<g id="Group 141">
<path id="T_2" d="M233.629 231.918V230.294H238.793V231.918H237.128V236.124H235.295V231.918H233.629Z" fill="#718EBF"/>
<path id="fifth" d="M226.391 165.696C226.391 163.971 227.79 162.572 229.515 162.572H244.091C245.816 162.572 247.214 163.971 247.214 165.696V224H226.391V165.696Z" fill="#00BDD5"/>
</g>
<g id="Group 140">
<path id="F" d="M261.154 231.835V230.294H263.761V231.835H261.154ZM261.154 234.084V232.668H263.678V234.084H261.154ZM259.888 230.294H261.638V236.125H259.888V230.294Z" fill="#718EBF"/>
<path id="sixth" d="M251.379 214.631C251.379 212.906 252.778 211.507 254.503 211.507H269.079C270.804 211.507 272.202 212.906 272.202 214.631V224.001H251.379V214.631Z" fill="#ECF4FB"/>
</g>
<g id="Group 139">
<path id="S_2" d="M286.38 233.908C286.491 234.103 286.619 234.272 286.763 234.416C286.908 234.555 287.063 234.661 287.23 234.733C287.402 234.805 287.574 234.841 287.746 234.841C287.89 234.841 288.013 234.813 288.113 234.758C288.212 234.697 288.262 234.602 288.262 234.475C288.262 234.397 288.235 234.33 288.179 234.275C288.129 234.219 288.026 234.155 287.871 234.083C287.716 234.011 287.48 233.914 287.163 233.792C287.024 233.736 286.863 233.661 286.68 233.567C286.502 233.472 286.33 233.35 286.164 233.2C286.002 233.05 285.866 232.867 285.755 232.651C285.65 232.434 285.597 232.179 285.597 231.884C285.597 231.501 285.7 231.179 285.905 230.918C286.111 230.657 286.383 230.46 286.722 230.327C287.06 230.193 287.432 230.127 287.838 230.127C288.276 230.127 288.651 230.193 288.962 230.327C289.279 230.46 289.537 230.627 289.737 230.827C289.942 231.026 290.098 231.226 290.203 231.426L288.846 232.176C288.757 232.037 288.657 231.929 288.546 231.851C288.44 231.768 288.332 231.707 288.221 231.668C288.11 231.629 288.001 231.609 287.896 231.609C287.768 231.609 287.663 231.632 287.579 231.676C287.502 231.721 287.463 231.79 287.463 231.884C287.463 232.001 287.518 232.098 287.629 232.176C287.746 232.248 287.899 232.317 288.088 232.384C288.276 232.445 288.485 232.517 288.712 232.601C288.945 232.684 289.154 232.784 289.337 232.9C289.52 233.012 289.676 233.142 289.803 233.292C289.937 233.442 290.037 233.611 290.103 233.8C290.17 233.983 290.203 234.189 290.203 234.416C290.203 234.738 290.137 235.024 290.003 235.274C289.87 235.519 289.69 235.721 289.462 235.882C289.24 236.043 288.987 236.166 288.704 236.249C288.421 236.332 288.129 236.374 287.829 236.374C287.413 236.374 287.024 236.304 286.663 236.166C286.308 236.032 286 235.846 285.739 235.607C285.478 235.369 285.281 235.102 285.147 234.808L286.38 233.908Z" fill="#718EBF"/>
<path id="seven" d="M276.367 194.848C276.367 193.123 277.765 191.724 279.49 191.724H294.067C295.792 191.724 297.19 193.123 297.19 194.848V224H276.367V194.848Z" fill="#00BDD5"/>
</g>
<g id="Group 138">
<path id="S_3" d="M312.408 233.908C312.519 234.103 312.647 234.272 312.791 234.417C312.936 234.555 313.091 234.661 313.258 234.733C313.43 234.805 313.602 234.841 313.774 234.841C313.919 234.841 314.041 234.814 314.141 234.758C314.241 234.697 314.291 234.603 314.291 234.475C314.291 234.397 314.263 234.33 314.207 234.275C314.157 234.219 314.055 234.156 313.899 234.083C313.744 234.011 313.508 233.914 313.191 233.792C313.052 233.736 312.891 233.661 312.708 233.567C312.53 233.473 312.358 233.35 312.192 233.2C312.031 233.051 311.895 232.867 311.783 232.651C311.678 232.434 311.625 232.179 311.625 231.884C311.625 231.501 311.728 231.179 311.933 230.918C312.139 230.657 312.411 230.46 312.75 230.327C313.088 230.194 313.46 230.127 313.866 230.127C314.304 230.127 314.679 230.194 314.99 230.327C315.307 230.46 315.565 230.627 315.765 230.827C315.97 231.027 316.126 231.226 316.231 231.426L314.874 232.176C314.785 232.037 314.685 231.929 314.574 231.851C314.468 231.768 314.36 231.707 314.249 231.668C314.138 231.629 314.03 231.61 313.924 231.61C313.796 231.61 313.691 231.632 313.608 231.676C313.53 231.721 313.491 231.79 313.491 231.884C313.491 232.001 313.546 232.098 313.658 232.176C313.774 232.248 313.927 232.318 314.116 232.384C314.304 232.445 314.513 232.517 314.74 232.601C314.974 232.684 315.182 232.784 315.365 232.901C315.548 233.012 315.704 233.142 315.831 233.292C315.965 233.442 316.065 233.611 316.131 233.8C316.198 233.983 316.231 234.189 316.231 234.417C316.231 234.739 316.165 235.025 316.031 235.274C315.898 235.519 315.718 235.721 315.49 235.882C315.268 236.044 315.015 236.166 314.732 236.249C314.449 236.332 314.157 236.374 313.857 236.374C313.441 236.374 313.052 236.304 312.691 236.166C312.336 236.032 312.028 235.846 311.767 235.608C311.506 235.369 311.309 235.102 311.175 234.808L312.408 233.908Z" fill="#718EBF"/>
<path id="eight" d="M301.354 179.231C301.354 177.506 302.752 176.107 304.477 176.107H319.053C320.778 176.107 322.177 177.506 322.177 179.231V224H301.354V179.231Z" fill="#00BDD5"/>
</g>
</g>
</g>
<defs>
<filter id="filter0_d_15_17" x="81.889" y="75.3903" width="269.222" height="191.135" filterUnits="userSpaceOnUse" color-interpolation-filters="sRGB">
<feFlood flood-opacity="0" result="BackgroundImageFix"/>
<feColorMatrix in="SourceAlpha" type="matrix" values="0 0 0 0 0 0 0 0 0 0 0 0 0 0 0 0 0 0 127 0" result="hardAlpha"/>
<feOffset dy="3.18025"/>
<feGaussianBlur stdDeviation="4.05548"/>
<feComposite in2="hardAlpha" operator="out"/>
<feColorMatrix type="matrix" values="0 0 0 0 0 0 0 0 0 0 0 0 0 0 0 0 0 0 0.06 0"/>
<feBlend mode="normal" in2="BackgroundImageFix" result="effect1_dropShadow_15_17"/>
<feBlend mode="normal" in="SourceGraphic" in2="effect1_dropShadow_15_17" result="shape"/>
</filter>
<filter id="filter1_d_15_17" x="0.779472" y="0.112692" width="431.441" height="353.355" filterUnits="userSpaceOnUse" color-interpolation-filters="sRGB">
<feFlood flood-opacity="0" result="BackgroundImageFix"/>
<feColorMatrix in="SourceAlpha" type="matrix" values="0 0 0 0 0 0 0 0 0 0 0 0 0 0 0 0 0 0 127 0" result="hardAlpha"/>
<feOffset dy="9.01217"/>
<feGaussianBlur stdDeviation="44.6103"/>
<feColorMatrix type="matrix" values="0 0 0 0 0 0 0 0 0 0 0 0 0 0 0 0 0 0 0.03 0"/>
<feBlend mode="normal" in2="BackgroundImageFix" result="effect1_dropShadow_15_17"/>
<feBlend mode="normal" in="SourceGraphic" in2="effect1_dropShadow_15_17" result="shape"/>
</filter>
</defs>
</svg>
