<svg width="42" height="42" viewBox="0 0 42 42" fill="none" xmlns="http://www.w3.org/2000/svg">
<circle cx="21.0912" cy="21.0111" r="19.5544" stroke="#038EA0" stroke-width="1.44848"/>
<path d="M21.9437 22.3977V28.6391C21.6985 28.9347 21.3199 29.2556 20.8079 29.6018C20.2959 29.9407 19.6361 30.2328 18.8284 30.478C18.0207 30.7231 17.0436 30.8457 15.897 30.8457C14.8802 30.8457 13.9536 30.6799 13.117 30.3482C12.2805 30.0092 11.5594 29.5152 10.9536 28.8662C10.3551 28.2172 9.89358 27.424 9.56907 26.4865C9.24456 25.5418 9.0823 24.4637 9.0823 23.2522V22.2679C9.0823 21.0564 9.23734 19.9783 9.54743 19.0336C9.86473 18.0889 10.3154 17.292 10.8996 16.643C11.4837 15.994 12.1796 15.5 12.9872 15.1611C13.7949 14.8222 14.6927 14.6527 15.6807 14.6527C17.0508 14.6527 18.1758 14.8763 19.0556 15.3234C19.9353 15.7632 20.606 16.3762 21.0675 17.1622C21.5363 17.9411 21.8247 18.8353 21.9329 19.8449H18.7851C18.7058 19.3112 18.5544 18.8461 18.3308 18.4495C18.1073 18.0528 17.7864 17.7428 17.3681 17.5192C16.9571 17.2957 16.4234 17.1839 15.7672 17.1839C15.2263 17.1839 14.7432 17.2957 14.3177 17.5192C13.8995 17.7355 13.5461 18.0565 13.2577 18.4819C12.9692 18.9074 12.7493 19.4338 12.5978 20.0612C12.4464 20.6886 12.3707 21.4169 12.3707 22.2462V23.2522C12.3707 24.0743 12.45 24.8026 12.6086 25.4372C12.7673 26.0646 13.0017 26.5947 13.3117 27.0273C13.629 27.4528 14.0185 27.7737 14.48 27.99C14.9415 28.2064 15.4787 28.3146 16.0917 28.3146C16.6037 28.3146 17.0292 28.2713 17.3681 28.1848C17.7143 28.0982 17.9919 27.9937 18.201 27.8711C18.4174 27.7413 18.5832 27.6187 18.6986 27.5033V24.7125H15.7347V22.3977H21.9437ZM34.5563 21.8568V24.5719H23.761V21.8568H34.5563ZM30.6406 17.5841V29.0501H27.6875V17.5841H30.6406Z" fill="#038EA0"/>
</svg>
