<svg width="36" height="36" viewBox="0 0 42 41" fill="none" xmlns="http://www.w3.org/2000/svg">
<circle cx="20.8998" cy="20.6517" r="19.5544" stroke="#038EA0" stroke-width="1.44848"/>
<path d="M25.4261 15.5821C24.5009 15.5789 23.5842 15.7582 22.7284 16.1097C21.8726 16.4611 21.0946 16.9779 20.4387 17.6304C19.7828 18.2829 19.2621 19.0583 18.9062 19.9123C18.5503 20.7663 18.3663 21.682 18.3647 22.6072V29.7047C18.3647 29.9929 18.4792 30.2692 18.6829 30.4729C18.8867 30.6766 19.163 30.7911 19.4511 30.7911H21.9859C22.2741 30.7911 22.5504 30.6766 22.7541 30.4729C22.9578 30.2692 23.0723 29.9929 23.0723 29.7047V22.6072C23.0721 22.2781 23.1412 21.9527 23.2751 21.6522C23.4091 21.3517 23.6049 21.0827 23.8497 20.8629C24.0946 20.6431 24.383 20.4774 24.6962 20.3765C25.0094 20.2757 25.3404 20.2419 25.6675 20.2776C26.2541 20.3514 26.7933 20.6381 27.1826 21.083C27.572 21.528 27.7845 22.1004 27.7799 22.6917V29.7047C27.7799 29.9929 27.8943 30.2692 28.098 30.4729C28.3018 30.6766 28.5781 30.7911 28.8662 30.7911H31.401C31.6892 30.7911 31.9655 30.6766 32.1692 30.4729C32.373 30.2692 32.4874 29.9929 32.4874 29.7047V22.6072C32.4858 21.682 32.3018 20.7663 31.946 19.9123C31.5901 19.0583 31.0693 18.2829 30.4135 17.6304C29.7576 16.9779 28.9795 16.4611 28.1237 16.1097C27.2679 15.7582 26.3512 15.5789 25.4261 15.5821Z" fill="#038EA0"/>
<path d="M15.1057 16.6685H11.8466C11.2466 16.6685 10.7603 17.1548 10.7603 17.7548V29.7048C10.7603 30.3047 11.2466 30.7911 11.8466 30.7911H15.1057C15.7057 30.7911 16.192 30.3047 16.192 29.7048V17.7548C16.192 17.1548 15.7057 16.6685 15.1057 16.6685Z" fill="#038EA0"/>
<path d="M13.4761 14.4958C14.9761 14.4958 16.192 13.2798 16.192 11.7799C16.192 10.2799 14.9761 9.06396 13.4761 9.06396C11.9762 9.06396 10.7603 10.2799 10.7603 11.7799C10.7603 13.2798 11.9762 14.4958 13.4761 14.4958Z" fill="#038EA0"/>
</svg>
