<svg width="112" height="112" viewBox="0 0 132 132" fill="none" xmlns="http://www.w3.org/2000/svg">
<g filter="url(#filter0_d_62_11)">
<rect x="29" y="27" width="70" height="70" rx="35" fill="white"/>
<path d="M59.5225 58.4718C58.3665 58.1349 57.2625 57.8478 56.2105 57.6105C55.777 56.2384 55.5581 54.8074 55.5617 53.3684C55.5617 47.09 59.5971 42 64.5751 42C69.5531 42 73.5847 47.0852 73.5847 53.3646C73.5876 54.7361 73.389 56.1006 72.9952 57.4144C71.6861 57.6887 70.2915 58.0411 68.8115 58.4718C66.7062 59.0861 65.0038 59.6947 64.1646 60.0077C63.3301 59.6947 61.6278 59.0861 59.5225 58.4718ZM47.2785 66.6C46.2344 66.6 45.2139 66.9096 44.3458 67.4896C43.4778 68.0697 42.8012 68.8941 42.4017 69.8587C42.0022 70.8233 41.8977 71.8846 42.1015 72.9086C42.3052 73.9325 42.8081 74.8731 43.5464 75.6112C44.2847 76.3494 45.2253 76.8521 46.2493 77.0556C47.2733 77.2592 48.3346 77.1545 49.2991 76.7549C50.2636 76.3552 51.0879 75.6785 51.6678 74.8103C52.2477 73.9422 52.5571 72.9215 52.5569 71.8775C52.5567 70.4777 52.0005 69.1354 51.0106 68.1457C50.0207 67.156 48.6782 66.6 47.2785 66.6ZM81.7081 66.6C80.6641 66.6 79.6435 66.9096 78.7755 67.4896C77.9074 68.0697 77.2309 68.8941 76.8314 69.8587C76.4319 70.8233 76.3274 71.8846 76.5312 72.9086C76.7349 73.9325 77.2377 74.8731 77.976 75.6112C78.7143 76.3494 79.655 76.8521 80.6789 77.0556C81.7029 77.2592 82.7643 77.1545 83.7288 76.7549C84.6933 76.3552 85.5176 75.6785 86.0975 74.8103C86.6774 73.9422 86.9868 72.9215 86.9866 71.8775C86.9863 70.4779 86.4302 69.1357 85.4406 68.146C84.4509 67.1564 83.1087 66.6003 81.7091 66.6H81.7081ZM74.8995 71.8775C74.901 70.5609 75.2836 69.273 76.0013 68.1692C76.7189 67.0654 77.7408 66.193 78.9435 65.6574V58.2364C72.7722 58.2364 64.1646 61.6469 64.1646 61.6469C64.1646 61.6469 55.5569 58.2364 49.3856 58.2364V65.4057C50.7516 65.8508 51.9418 66.7167 52.7858 67.8793C53.6298 69.0419 54.0843 70.4418 54.0843 71.8785C54.0843 73.3151 53.6298 74.715 52.7858 75.8776C51.9418 77.0403 50.7516 77.9061 49.3856 78.3512V79.021C55.5569 79.021 64.1646 83 64.1646 83C64.1646 83 72.7761 79.0239 78.9435 79.0239V78.0976C77.7408 77.562 76.7189 76.6897 76.0013 75.5859C75.2836 74.4821 74.901 73.1941 74.8995 71.8775Z" fill="#038EA0"/>
</g>
<defs>
<filter id="filter0_d_62_11" x="0" y="0" width="132" height="132" filterUnits="userSpaceOnUse" color-interpolation-filters="sRGB">
<feFlood flood-opacity="0" result="BackgroundImageFix"/>
<feColorMatrix in="SourceAlpha" type="matrix" values="0 0 0 0 0 0 0 0 0 0 0 0 0 0 0 0 0 0 127 0" result="hardAlpha"/>
<feMorphology radius="1" operator="erode" in="SourceAlpha" result="effect1_dropShadow_62_11"/>
<feOffset dx="2" dy="4"/>
<feGaussianBlur stdDeviation="16"/>
<feComposite in2="hardAlpha" operator="out"/>
<feColorMatrix type="matrix" values="0 0 0 0 0 0 0 0 0 0 0 0 0 0 0 0 0 0 0.14 0"/>
<feBlend mode="normal" in2="BackgroundImageFix" result="effect1_dropShadow_62_11"/>
<feBlend mode="normal" in="SourceGraphic" in2="effect1_dropShadow_62_11" result="shape"/>
</filter>
</defs>
</svg>
