<svg width="70" height="71" viewBox="0 0 70 71" fill="none" xmlns="http://www.w3.org/2000/svg">
<path d="M35 70.5C54.33 70.5 70 54.83 70 35.5C70 16.17 54.33 0.5 35 0.5C15.67 0.5 0 16.17 0 35.5C0 54.83 15.67 70.5 35 70.5Z" fill="#E0EDFF"/>
<path d="M41.9985 37.4555C41.7554 37.4555 41.5022 37.415 41.2592 37.334C40.8026 37.1886 40.4047 36.9006 40.124 36.5123C39.8432 36.124 39.6944 35.6559 39.6995 35.1767V32.3308C37.4105 31.9662 35.6483 29.9709 35.6483 27.5807V20.9976C35.6483 18.344 37.8055 16.1868 40.4591 16.1868H52.1062C54.7598 16.1868 56.917 18.344 56.917 20.9976V27.5807C56.917 30.2343 54.7598 32.3915 52.1062 32.3915H46.9207L43.8013 36.544C43.3557 37.1314 42.6973 37.4555 41.9985 37.4555ZM27.5459 39.9875C23.3529 39.9875 19.9499 36.5845 19.9499 32.3915C19.9499 28.1986 23.3529 24.7955 27.5459 24.7955C31.7389 24.7955 35.1419 28.1986 35.1419 32.3915C35.1419 36.5845 31.7389 39.9875 27.5459 39.9875ZM14.3795 47.3708C14.3795 47.462 14.5314 56.6987 27.5459 56.6987C40.5603 56.6987 40.7123 47.462 40.7123 47.3708V46.3175C40.7123 44.221 39.0108 42.5195 36.9143 42.5195H18.1775C16.081 42.5195 14.3795 44.221 14.3795 46.3175V47.3708Z" fill="#0D6EFD"/>
</svg>
