<svg width="285" height="151" viewBox="0 0 485 301" fill="none" xmlns="http://www.w3.org/2000/svg">
<path d="M51.357 300H458.208C459.523 297.632 460.623 295.151 461.494 292.587C465.24 282.103 468.131 267.42 468.886 263.401C475.702 227.175 473.811 184.528 460.912 149.921C453.858 131.01 439.822 116.01 425.614 102.873C410.514 88.931 395.651 75.075 380.558 61.1686C349.963 33.0755 311.753 2.15645 269.552 0.13593C224.971 -2.02121 191.492 21.7073 164.118 56.2791C137.053 90.477 97.3688 117.096 60.5751 137.848C28.0023 156.212 6.10015 192.222 10.6805 232.043C13.8155 259.302 30.5405 283.8 51.357 300Z" fill="#0D6EFD"/>
<path opacity="0.7" d="M51.357 300H458.208C459.523 297.632 460.623 295.151 461.494 292.587C465.24 282.103 468.131 267.42 468.886 263.401C475.702 227.175 473.811 184.528 460.912 149.921C453.858 131.01 439.822 116.01 425.614 102.873C410.514 88.931 395.651 75.075 380.558 61.1686C349.963 33.0755 311.753 2.15645 269.552 0.13593C224.971 -2.02121 191.492 21.7073 164.118 56.2791C137.053 90.477 97.3688 117.096 60.5751 137.848C28.0023 156.212 6.10015 192.222 10.6805 232.043C13.8155 259.302 30.5405 283.8 51.357 300Z" fill="white"/>
<path d="M24.5725 141.155C24.5725 141.155 21.5597 149.446 15.1529 150.575C8.74624 151.704 -2.55717 139.271 4.60453 132.865C11.7662 126.458 21.574 136.618 24.5725 141.155Z" fill="#0D6EFD" stroke="#263238" stroke-width="0.719047" stroke-linecap="round" stroke-linejoin="round"/>
<path d="M34.3729 100.457C34.3729 100.457 24.9534 123.467 28.7212 134.749C32.489 146.031 55.8508 154.343 62.6314 139.645C69.412 124.948 54.3408 104.261 48.6891 99.7024C43.0374 95.1436 36.2568 96.6896 34.3729 100.457Z" fill="#0D6EFD" stroke="#263238" stroke-width="0.719047" stroke-linecap="round" stroke-linejoin="round"/>
<path d="M89.3872 110.251C89.3872 110.251 73.1799 124.948 71.296 139.645C69.4121 154.343 80.3416 159.621 91.645 157.729C102.948 155.838 108.6 127.213 105.213 114.019C101.827 100.824 89.3872 110.251 89.3872 110.251Z" fill="#0D6EFD" stroke="#263238" stroke-width="0.719047" stroke-linecap="round" stroke-linejoin="round"/>
<path d="M92.4002 191.647C92.4002 191.647 74.3161 192.402 73.5611 201.066C72.8061 209.731 81.4707 211.615 90.1424 204.079C98.8141 196.544 99.9502 192.021 92.4002 191.647Z" fill="#0D6EFD" stroke="#263238" stroke-width="0.719047" stroke-linecap="round" stroke-linejoin="round"/>
<path d="M47.5603 209.731C47.5603 209.731 45.6764 218.777 38.9318 222.171C32.1871 225.564 20.0856 218.403 26.4923 207.473C32.899 196.544 44.1664 205.215 47.5603 209.731Z" fill="#0D6EFD" stroke="#263238" stroke-width="0.719047" stroke-linecap="round" stroke-linejoin="round"/>
<path d="M31.7341 181.472C31.7341 181.472 28.3402 173.937 15.1529 178.833C1.96561 183.73 -3.31219 191.273 4.97842 193.933C13.269 196.594 31.7341 181.472 31.7341 181.472Z" fill="#0D6EFD" stroke="#263238" stroke-width="0.719047" stroke-linecap="round" stroke-linejoin="round"/>
<path d="M69.4121 91.0378C69.4121 91.0378 71.6771 96.3084 76.1999 95.1795C80.7227 94.0506 81.8516 87.27 89.0061 89.1539C96.1607 91.0378 102.201 99.3284 102.201 95.5606C102.201 91.7928 93.155 81.9706 82.9805 81.9706C72.806 81.9706 69.7932 86.1411 69.4121 91.0378Z" fill="#0D6EFD" stroke="#263238" stroke-width="0.719047" stroke-linecap="round" stroke-linejoin="round"/>
<path d="M43.5265 112.897L42.4551 107.741" stroke="#263238" stroke-width="0.719047" stroke-linecap="round" stroke-linejoin="round"/>
<path d="M60.3448 241.98C60.3448 241.98 62.0346 210.45 60.3448 190.748C58.6551 171.046 50.7743 147.95 50.7743 147.95L44.0225 115.291" stroke="#263238" stroke-width="0.719047" stroke-linecap="round" stroke-linejoin="round"/>
<path d="M92.7666 123.28L94.2622 119.893" stroke="#263238" stroke-width="0.719047" stroke-linecap="round" stroke-linejoin="round"/>
<path d="M64.2856 241.98C64.2856 241.98 64.8537 216.094 67.1043 199.19C69.3549 182.285 78.379 155.838 78.379 155.838L91.8898 125.3" stroke="#263238" stroke-width="0.719047" stroke-linecap="round" stroke-linejoin="round"/>
<path d="M86.6978 198.672L89.2647 197.78" stroke="#263238" stroke-width="0.719047" stroke-linecap="round" stroke-linejoin="round"/>
<path d="M67.6646 242.548C69.9152 204.259 73.8555 203.13 73.8555 203.13L84.6413 199.377" stroke="#263238" stroke-width="0.719047" stroke-linecap="round" stroke-linejoin="round"/>
<path d="M34.0997 212.837C33.3303 213.247 32.5465 213.7 31.7412 214.218" stroke="#263238" stroke-width="0.719047" stroke-linecap="round" stroke-linejoin="round"/>
<path d="M54.7144 241.419C54.7144 241.419 55.8433 221.149 53.5855 213.829C51.3277 206.51 47.5599 209.731 47.5599 209.731C47.5599 209.731 42.9508 208.911 36.3931 211.737" stroke="#263238" stroke-width="0.719047" stroke-linecap="round" stroke-linejoin="round"/>
<path d="M57.3027 206.107C60.2436 222.609 57.5256 240.88 57.5256 240.88" stroke="#263238" stroke-width="0.719047" stroke-linecap="round" stroke-linejoin="round"/>
<path d="M12.0034 186.52C11.1621 186.908 10.3568 187.333 9.5874 187.778" stroke="#263238" stroke-width="0.719047" stroke-linecap="round" stroke-linejoin="round"/>
<path d="M56.4119 201.893C55.9513 200.024 55.3847 198.183 54.7149 196.378C47.9559 178.359 31.7055 181.472 31.7055 181.472C26.2081 182.084 20.7932 183.289 15.5557 185.068" stroke="#263238" stroke-width="0.719047" stroke-linecap="round" stroke-linejoin="round"/>
<path d="M99.4463 164.021C99.4463 164.021 102.84 156.478 116.028 161.382C129.215 166.286 134.493 173.814 126.202 176.482C117.911 179.15 99.4463 164.021 99.4463 164.021Z" fill="#0D6EFD" stroke="#263238" stroke-width="0.719047" stroke-linecap="round" stroke-linejoin="round"/>
<path d="M85.0223 167.314C81.765 169.551 78.63 173.153 76.4656 178.92C69.7066 196.939 70.4832 241.419 70.4832 241.419" stroke="#263238" stroke-width="0.719047" stroke-linecap="round" stroke-linejoin="round"/>
<path d="M88.2148 165.545C91.7466 164.012 95.6336 163.484 99.4464 164.021C99.4464 164.021 105.199 161.231 115.704 168.839" stroke="#263238" stroke-width="0.719047" stroke-linecap="round" stroke-linejoin="round"/>
<path d="M42.3398 152.646C46.5755 157.752 49.8191 163.605 51.9032 169.903C60.9056 195.789 64.2852 229.023 62.5954 241.412" stroke="#263238" stroke-width="0.719047" stroke-linecap="round" stroke-linejoin="round"/>
<path d="M11.0614 140.077L8.87549 139.904" stroke="#263238" stroke-width="0.719047" stroke-linecap="round" stroke-linejoin="round"/>
<path d="M40.3838 150.503C32.4311 142.378 24.5647 141.155 24.5647 141.155L13.1606 140.213" stroke="#263238" stroke-width="0.719047" stroke-linecap="round" stroke-linejoin="round"/>
<path d="M65.2204 176.885C64.6739 209.573 64.2856 241.98 64.2856 241.98" stroke="#263238" stroke-width="0.719047" stroke-linecap="round" stroke-linejoin="round"/>
<path d="M86.6328 85.5659C88.1757 85.9693 89.6597 86.5711 91.0478 87.3563" stroke="#263238" stroke-width="0.719047" stroke-linecap="round" stroke-linejoin="round"/>
<path d="M65.292 172.822C65.6659 151.208 66.1045 130.053 66.5359 118.671C67.6648 89.3912 69.4121 91.0378 69.4121 91.0378C69.4121 91.0378 74.7187 85.192 82.4772 85.0841" stroke="#263238" stroke-width="0.719047" stroke-linecap="round" stroke-linejoin="round"/>
<path d="M80.5357 299.418H47.4955C45.7872 299.418 44.1399 298.782 42.8755 297.633C41.611 296.484 40.8202 294.906 40.6574 293.205L35.5737 240.88H92.4431L87.3595 293.227C87.1888 294.92 86.3969 296.489 85.1367 297.633C83.8765 298.776 82.2373 299.412 80.5357 299.418Z" fill="#263238" stroke="#263238" stroke-width="0.719047" stroke-linecap="round" stroke-linejoin="round"/>
<path d="M37.2632 258.31L37.8672 264.508H90.1419L90.7459 258.31H37.2632Z" fill="white" stroke="#263238" stroke-width="0.719047" stroke-linecap="round" stroke-linejoin="round"/>
<path d="M88.833 278.019L89.1566 274.639H38.8521L39.1756 278.019H88.833Z" fill="white" stroke="#263238" stroke-width="0.719047" stroke-linecap="round" stroke-linejoin="round"/>
<path d="M80.0542 250.99C80.0528 251.882 80.3162 252.755 80.811 253.497C81.3059 254.24 82.0099 254.819 82.834 255.161C83.6581 255.503 84.5652 255.593 85.4404 255.419C86.3156 255.245 87.1196 254.816 87.7506 254.185C88.3815 253.554 88.811 252.75 88.9848 251.875C89.1585 251 89.0686 250.093 88.7265 249.268C88.3844 248.444 87.8054 247.74 87.0629 247.245C86.3204 246.751 85.4477 246.487 84.5554 246.489C83.3622 246.491 82.2184 246.965 81.3747 247.809C80.531 248.653 80.0561 249.797 80.0542 250.99Z" fill="white" stroke="#263238" stroke-width="0.719047" stroke-linecap="round" stroke-linejoin="round"/>
<path d="M44.0151 255.498C44.9086 255.507 45.7844 255.25 46.5315 254.759C47.2785 254.269 47.8631 253.568 48.211 252.745C48.5588 251.922 48.6543 251.014 48.4852 250.137C48.3162 249.26 47.8902 248.452 47.2615 247.817C46.6327 247.183 45.8295 246.749 44.9538 246.571C44.0781 246.394 43.1694 246.481 42.343 246.821C41.5167 247.161 40.81 247.738 40.3127 248.481C39.8154 249.223 39.5498 250.096 39.5498 250.99C39.5498 252.178 40.0188 253.318 40.855 254.163C41.6912 255.007 42.8269 255.487 44.0151 255.498Z" fill="white" stroke="#263238" stroke-width="0.719047" stroke-linecap="round" stroke-linejoin="round"/>
<path d="M57.5335 255.491C60.0194 255.491 62.0347 253.476 62.0347 250.99C62.0347 248.504 60.0194 246.489 57.5335 246.489C55.0475 246.489 53.0322 248.504 53.0322 250.99C53.0322 253.476 55.0475 255.491 57.5335 255.491Z" fill="white" stroke="#263238" stroke-width="0.719047" stroke-linecap="round" stroke-linejoin="round"/>
<path d="M66.5357 250.99C66.5342 251.882 66.7974 252.754 67.292 253.497C67.7865 254.239 68.4901 254.818 69.3138 255.16C70.1375 255.503 71.0442 255.593 71.9192 255.42C72.7942 255.247 73.5982 254.818 74.2295 254.188C74.8607 253.557 75.2908 252.754 75.4653 251.879C75.6399 251.005 75.551 250.098 75.21 249.273C74.869 248.449 74.2911 247.745 73.5496 247.249C72.808 246.753 71.9361 246.489 71.0441 246.489C69.8496 246.489 68.704 246.963 67.8587 247.807C67.0134 248.651 66.5376 249.795 66.5357 250.99Z" fill="white" stroke="#263238" stroke-width="0.719047" stroke-linecap="round" stroke-linejoin="round"/>
<g opacity="0.2">
<path d="M94.1254 40.6973C102.755 40.6973 109.75 33.7018 109.75 25.0724C109.75 16.443 102.755 9.44751 94.1254 9.44751C85.496 9.44751 78.5005 16.443 78.5005 25.0724C78.5005 33.7018 85.496 40.6973 94.1254 40.6973Z" stroke="black" stroke-width="0.719047" stroke-linecap="round" stroke-linejoin="round"/>
<path d="M94.1255 40.6973C97.922 40.6973 101 33.7018 101 25.0724C101 16.443 97.922 9.44751 94.1255 9.44751C90.3291 9.44751 87.2515 16.443 87.2515 25.0724C87.2515 33.7018 90.3291 40.6973 94.1255 40.6973Z" stroke="black" stroke-width="0.719047" stroke-linecap="round" stroke-linejoin="round"/>
<path d="M83.3613 13.8554C86.2749 16.6198 90.1408 18.1566 94.1571 18.1473C98.1734 18.1379 102.032 16.583 104.933 13.8051" stroke="black" stroke-width="0.719047" stroke-linecap="round" stroke-linejoin="round"/>
<path d="M83.3613 36.3973C86.2749 33.6329 90.1408 32.096 94.1571 32.1054C98.1734 32.1148 102.032 33.6697 104.933 36.4476" stroke="black" stroke-width="0.719047" stroke-linecap="round" stroke-linejoin="round"/>
<path d="M78.5005 25.0723H109.743" stroke="black" stroke-width="0.719047" stroke-linecap="round" stroke-linejoin="round"/>
</g>
<g opacity="0.2">
<path d="M254.495 14.0781H232.628C231.032 14.0781 229.738 15.3723 229.738 16.9687V31.6444C229.738 33.2409 231.032 34.535 232.628 34.535H254.495C256.091 34.535 257.385 33.2409 257.385 31.6444V16.9687C257.385 15.3723 256.091 14.0781 254.495 14.0781Z" stroke="black" stroke-width="0.719047" stroke-linecap="round" stroke-linejoin="round"/>
<path d="M257.457 28.1212L266.927 33.5931V15.0273L257.436 20.5065" stroke="black" stroke-width="0.719047" stroke-linecap="round" stroke-linejoin="round"/>
</g>
<g opacity="0.2">
<path d="M323.516 28.2507C322.362 28.2507 321.256 27.7924 320.44 26.9765C319.624 26.1607 319.166 25.0542 319.166 23.9005V15.7105C319.166 14.5568 319.624 13.4503 320.44 12.6344C321.256 11.8186 322.362 11.3603 323.516 11.3603C324.089 11.3574 324.657 11.4679 325.187 11.6852C325.717 11.9026 326.2 12.2225 326.606 12.6268C327.012 13.031 327.334 13.5116 327.554 14.0408C327.774 14.57 327.888 15.1374 327.888 15.7105V23.9005C327.888 24.4736 327.774 25.041 327.554 25.5702C327.334 26.0994 327.012 26.58 326.606 26.9842C326.2 27.3884 325.717 27.7084 325.187 27.9258C324.657 28.1431 324.089 28.2535 323.516 28.2507Z" stroke="black" stroke-width="0.719047" stroke-linecap="round" stroke-linejoin="round"/>
<path d="M316.606 24.0586C316.606 24.966 316.785 25.8646 317.132 26.703C317.479 27.5413 317.988 28.3031 318.63 28.9447C319.272 29.5864 320.033 30.0954 320.872 30.4426C321.71 30.7899 322.609 30.9686 323.516 30.9686C324.423 30.9686 325.322 30.7899 326.16 30.4426C326.999 30.0954 327.76 29.5864 328.402 28.9447C329.044 28.3031 329.553 27.5413 329.9 26.703C330.247 25.8646 330.426 24.966 330.426 24.0586" stroke="black" stroke-width="1.43809" stroke-linecap="round" stroke-linejoin="round"/>
<path d="M323.516 30.9685V36.8575" stroke="black" stroke-width="1.43809" stroke-linecap="round" stroke-linejoin="round"/>
<path d="M318.554 37.2532H328.599" stroke="black" stroke-width="1.43809" stroke-linecap="round" stroke-linejoin="round"/>
</g>
<g opacity="0.2">
<path d="M406.141 18.601C406.141 17.1345 405.558 15.7281 404.521 14.6911C403.484 13.6541 402.078 13.0715 400.611 13.0715H375.725C374.259 13.0734 372.854 13.6566 371.817 14.6932C370.781 15.7297 370.198 17.1351 370.196 18.601V28.5598C370.198 30.0257 370.781 31.4311 371.817 32.4676C372.854 33.5042 374.259 34.0874 375.725 34.0893H400.611C400.961 34.0889 401.311 34.0552 401.654 33.9886L406.141 41.0712V28.7611C406.141 28.6892 406.141 28.6173 406.141 28.5454V18.601Z" stroke="black" stroke-width="0.719047" stroke-linecap="round" stroke-linejoin="round"/>
<path d="M377.89 19.9529H399.626" stroke="black" stroke-width="0.719047" stroke-linecap="round" stroke-linejoin="round"/>
<path d="M377.89 23.85H399.626" stroke="black" stroke-width="0.719047" stroke-linecap="round" stroke-linejoin="round"/>
<path d="M377.89 27.74H399.626" stroke="black" stroke-width="0.719047" stroke-linecap="round" stroke-linejoin="round"/>
</g>
<g opacity="0.2">
<path d="M149.607 18.601C149.609 17.1338 150.193 15.7274 151.231 14.6906C152.269 13.6539 153.676 13.0715 155.144 13.0715H180.023C181.489 13.0715 182.896 13.6541 183.933 14.6911C184.97 15.7281 185.552 17.1345 185.552 18.601V28.5598C185.552 30.0263 184.97 31.4327 183.933 32.4697C182.896 33.5067 181.489 34.0893 180.023 34.0893H155.144C154.791 34.0889 154.44 34.0552 154.094 33.9886L149.607 41.0712V28.7611C149.607 28.6892 149.607 28.6173 149.607 28.5454V18.601Z" stroke="black" stroke-width="0.719047" stroke-linecap="round" stroke-linejoin="round"/>
<path d="M177.866 19.9529H156.122" stroke="black" stroke-width="0.719047" stroke-linecap="round" stroke-linejoin="round"/>
<path d="M177.866 23.85H156.122" stroke="black" stroke-width="0.719047" stroke-linecap="round" stroke-linejoin="round"/>
<path d="M177.866 27.74H156.122" stroke="black" stroke-width="0.719047" stroke-linecap="round" stroke-linejoin="round"/>
</g>
<path d="M6.47363 300H484.64" stroke="#263238" stroke-width="0.719047" stroke-linecap="round" stroke-linejoin="round"/>
<path d="M109.952 58.9611H440.778C442.772 58.9611 444.686 59.7535 446.096 61.164C447.507 62.5745 448.299 64.4875 448.299 66.4823V283.476H102.438V66.4823C102.437 64.4888 103.229 62.5768 104.638 61.1665C106.047 59.7562 107.958 58.963 109.952 58.9611Z" fill="#636363" stroke="#263238" stroke-width="0.719047" stroke-linecap="round" stroke-linejoin="round"/>
<path d="M275.311 68.7832C276.987 68.7832 278.345 67.4247 278.345 65.7489C278.345 64.073 276.987 62.7145 275.311 62.7145C273.635 62.7145 272.276 64.073 272.276 65.7489C272.276 67.4247 273.635 68.7832 275.311 68.7832Z" fill="#263238"/>
<path d="M105.702 122.144C105.473 122.142 105.253 122.049 105.092 121.886C104.93 121.723 104.839 121.503 104.839 121.274V96.107C104.839 95.8782 104.93 95.6587 105.092 95.4969C105.254 95.335 105.473 95.2441 105.702 95.2441C105.932 95.2441 106.152 95.3348 106.315 95.4964C106.478 95.658 106.57 95.8775 106.572 96.107V121.274C106.572 121.504 106.481 121.726 106.317 121.889C106.154 122.052 105.933 122.144 105.702 122.144Z" fill="#263238"/>
<path d="M434.292 76.4988H116.466V256.109H434.292V76.4988Z" fill="#263238" stroke="#263238" stroke-width="0.719047" stroke-linecap="round" stroke-linejoin="round"/>
<path d="M395.032 279.859H157.315V284.382H395.032V279.859Z" fill="#263238" stroke="#263238" stroke-width="0.719047" stroke-linecap="round" stroke-linejoin="round"/>
<path d="M74.4663 291.321C74.4663 291.321 78.3707 296.095 90.084 300H462.27C462.27 300 470.949 297.843 474.853 291.752L74.4663 291.321Z" fill="#263238" stroke="#263238" stroke-width="0.719047" stroke-linecap="round" stroke-linejoin="round"/>
<path d="M474.328 282.772H75.0275C74.2769 282.772 73.6685 283.38 73.6685 284.131V290.53C73.6685 291.281 74.2769 291.889 75.0275 291.889H474.328C475.079 291.889 475.687 291.281 475.687 290.53V284.131C475.687 283.38 475.079 282.772 474.328 282.772Z" fill="#636363" stroke="#263238" stroke-width="0.719047" stroke-linecap="round" stroke-linejoin="round"/>
<path d="M430.164 167.961H330.145V250.731H430.164V167.961Z" fill="white"/>
<path d="M370.153 223.227L361.769 229.993L361.625 250.81H398.98L397.067 228.081L388.388 222.055L370.153 223.227Z" fill="#263238" stroke="#263238" stroke-width="0.719047" stroke-linecap="round" stroke-linejoin="round"/>
<path d="M369.592 214.85C369.592 214.85 369.01 224.558 369.592 226.175C370.175 227.793 372.389 233.366 380.04 234.085C389.007 234.998 391.164 224.701 391.164 224.701L390.574 214.85C390.574 214.85 384.822 216.174 379.99 215.57C375.158 214.966 369.42 214.275 369.42 214.275" fill="white"/>
<path d="M369.592 214.85C369.592 214.85 369.01 224.558 369.592 226.175C370.175 227.793 372.389 233.366 380.04 234.085C389.007 234.998 391.164 224.701 391.164 224.701L390.574 214.85C390.574 214.85 384.822 216.174 379.99 215.57C375.158 214.966 369.42 214.275 369.42 214.275" stroke="#263238" stroke-width="0.719047" stroke-linecap="round" stroke-linejoin="round"/>
<path d="M381.385 218.323L373.072 214.728L369.42 214.268L369.564 214.858C369.564 214.858 369.261 219.891 369.312 223.335L381.385 221.293V218.323Z" fill="#263238" stroke="#263238" stroke-width="0.719047" stroke-linecap="round" stroke-linejoin="round"/>
<path d="M361.481 197.493C361.481 197.493 360.446 200.728 361.036 203.245C361.625 205.762 366.623 207.804 366.623 207.804C366.623 207.804 367.068 213.247 368.391 214.714C369.714 216.181 375.582 220.89 378.099 221.631C380.615 222.372 382.657 222.35 384.275 221.336C385.893 220.322 391.919 216.188 392.803 213.98C393.555 211.859 394.193 209.698 394.716 207.509C394.716 207.509 397.657 207.07 398.836 204.712C400.015 202.353 400.159 198.83 400.159 197.802C400.159 196.774 397.218 194.566 395.305 193.099C393.393 191.632 381.773 184.564 379.716 184.42C377.66 184.277 375.007 185.01 374.129 185.858C373.252 186.707 361.481 197.493 361.481 197.493Z" fill="white" stroke="#263238" stroke-width="0.719047" stroke-linecap="round" stroke-linejoin="round"/>
<path d="M377.552 208.084C378.499 208.877 379.705 209.294 380.939 209.256C382.852 209.112 383.434 208.084 383.434 208.084" stroke="#263238" stroke-width="0.719047" stroke-linecap="round" stroke-linejoin="round"/>
<path d="M376.38 211.32C376.38 211.32 379.91 213.671 384.908 211.32" stroke="#263238" stroke-width="0.719047" stroke-linecap="round" stroke-linejoin="round"/>
<path d="M376.962 201.332C376.962 201.332 374.172 197.802 370.491 200.153" stroke="#263238" stroke-width="0.719047" stroke-linecap="round" stroke-linejoin="round"/>
<path d="M384.765 201.462C385.338 200.596 386.188 199.951 387.175 199.631C388.162 199.311 389.229 199.335 390.201 199.7" stroke="#263238" stroke-width="0.719047" stroke-linecap="round" stroke-linejoin="round"/>
<path d="M375.345 200.434C375.345 200.23 375.284 200.031 375.171 199.862C375.058 199.693 374.898 199.561 374.71 199.484C374.522 199.406 374.315 199.385 374.116 199.425C373.916 199.465 373.733 199.563 373.589 199.707C373.445 199.85 373.348 200.034 373.308 200.233C373.268 200.432 373.289 200.639 373.366 200.827C373.444 201.015 373.576 201.176 373.745 201.289C373.914 201.402 374.113 201.462 374.316 201.462C374.589 201.462 374.851 201.354 375.043 201.161C375.236 200.968 375.345 200.706 375.345 200.434Z" fill="#263238"/>
<path d="M388.287 200.434C388.287 200.23 388.227 200.031 388.114 199.862C388.001 199.693 387.841 199.561 387.653 199.484C387.465 199.406 387.258 199.385 387.059 199.425C386.859 199.465 386.676 199.563 386.532 199.707C386.388 199.85 386.29 200.034 386.251 200.233C386.211 200.432 386.231 200.639 386.309 200.827C386.387 201.015 386.519 201.176 386.688 201.289C386.857 201.402 387.056 201.462 387.259 201.462C387.532 201.462 387.793 201.354 387.986 201.161C388.179 200.968 388.287 200.706 388.287 200.434Z" fill="#263238"/>
<path d="M378.221 197.644C376.936 196.969 375.493 196.653 374.044 196.731C372.595 196.808 371.194 197.275 369.988 198.082" stroke="#263238" stroke-width="1.43809" stroke-miterlimit="10" stroke-linecap="round"/>
<path d="M391.775 197.644C390.49 196.969 389.047 196.653 387.598 196.731C386.149 196.808 384.747 197.275 383.542 198.082" stroke="#263238" stroke-width="1.43809" stroke-miterlimit="10" stroke-linecap="round"/>
<path d="M377.804 186.901C377.804 186.901 375.747 191.611 373.834 193.523C371.922 195.436 368.24 196.608 368.24 196.608C367.767 197.531 367.226 198.418 366.622 199.261C366.184 199.7 366.335 204.403 366.335 204.848C366.335 205.294 364.566 203.525 364.566 202.497C364.534 201.657 364.436 200.82 364.271 199.995C363.433 199.659 362.642 199.214 361.92 198.672C361.33 198.082 360.597 198.226 360.597 196.759V194.257C360.597 194.257 357.361 193.818 357.951 190.726C358.54 187.634 364.861 177.064 370.599 174.843C376.337 172.621 380.011 174.994 380.011 174.994C382.876 173.399 386.164 172.731 389.423 173.081C394.859 173.671 402.215 183.96 403.689 188.814C405.163 193.667 403.689 197.493 402.97 197.644C402.044 197.746 401.112 197.795 400.18 197.787C400.18 197.787 400.029 198.226 398.857 199.11C397.865 199.738 396.769 200.186 395.622 200.433C395.783 201.512 395.731 202.611 395.471 203.669C395.255 204.294 394.96 204.888 394.593 205.438L394.004 197.644C391.402 196.798 388.968 195.504 386.813 193.818C385.017 192.411 383.473 190.709 382.247 188.785C382.247 188.785 383.578 191.726 382.966 192.021C382.355 192.315 378.393 189.828 377.804 186.901Z" fill="#263238" stroke="#263238" stroke-width="0.719047" stroke-linecap="round" stroke-linejoin="round"/>
<path d="M369.276 224.996L367.507 250.731H335.15C335.15 250.731 340.449 238.234 342.65 236.911C344.85 235.588 362.783 228.671 362.783 228.671C362.783 228.671 363.955 226.909 365.429 225.14C366.903 223.371 368.981 223.817 369.276 224.996Z" fill="#0D6EFD" stroke="#263238" stroke-width="0.719047" stroke-linecap="round" stroke-linejoin="round"/>
<path d="M362.804 228.656C362.216 231.793 361.429 234.889 360.446 237.925C359.274 241.009 357.8 242.778 357.951 243.368C358.102 243.957 360.007 244.087 361.186 242.483C362.366 240.88 365.299 236.602 366.22 236.602C367.14 236.602 367.838 242.778 367.838 242.778" stroke="#263238" stroke-width="0.719047" stroke-linecap="round" stroke-linejoin="round"/>
<path d="M391.042 224.996L392.803 250.731H425.16C425.16 250.731 419.868 238.234 417.661 236.911C415.453 235.588 397.527 228.671 397.527 228.671C397.527 228.671 396.348 226.909 394.874 225.14C393.4 223.371 391.336 223.817 391.042 224.996Z" fill="#0D6EFD" stroke="#263238" stroke-width="0.719047" stroke-linecap="round" stroke-linejoin="round"/>
<path d="M397.513 228.656C397.513 228.656 398.685 234.833 399.864 237.925C401.043 241.017 402.51 242.778 402.366 243.368C402.223 243.957 400.303 244.087 399.131 242.483C397.959 240.88 395.011 236.602 394.097 236.602C393.184 236.602 392.479 242.778 392.479 242.778" stroke="#263238" stroke-width="0.719047" stroke-linecap="round" stroke-linejoin="round"/>
<path d="M325.047 167.961H225.028V250.731H325.047V167.961Z" fill="white"/>
<path d="M317.821 246.524C317.821 246.524 317.145 242.095 316.922 241.426C316.699 240.758 313.751 239.435 309.012 236.551C304.274 233.668 287.757 224.148 287.757 224.148H260.808C260.808 224.148 244.298 233.689 239.553 236.566C234.807 239.442 231.866 240.779 231.643 241.441C231.42 242.102 230.737 246.539 230.737 246.539L230.514 250.745H318.022L317.821 246.524Z" fill="#263238" stroke="#263238" stroke-width="0.719047" stroke-linecap="round" stroke-linejoin="round"/>
<path d="M262.411 217.281C262.411 217.281 258.643 218.388 258.42 219.934C258.197 221.48 255.767 226.808 255.767 226.808C255.767 226.808 258.42 231.46 260.419 235.437C262.418 239.413 262.411 240.535 263.073 240.535C263.734 240.535 270.608 231.669 271.27 231.007C271.931 230.346 276.145 231.453 276.145 231.453C276.145 231.453 283.012 242.088 284.126 242.088C285.241 242.088 290.547 228.57 290.547 225.248C290.547 221.926 286.118 217.712 286.118 217.712L262.411 217.281Z" fill="white" stroke="#263238" stroke-width="0.719047" stroke-linecap="round" stroke-linejoin="round"/>
<path d="M261.736 214.397C261.736 214.397 261.074 219.273 261.959 221.71C262.843 224.148 270.824 236.81 273.701 236.81C276.577 236.81 284.335 224.586 285.666 223.299C286.996 222.012 287.219 215.318 287.219 215.318C287.219 215.318 278.59 219.531 271.486 217.317C264.382 215.102 261.736 214.397 261.736 214.397Z" fill="#B8B8B8" stroke="#263238" stroke-width="0.719047" stroke-linecap="round" stroke-linejoin="round"/>
<path d="M268.925 216.475C263.784 214.901 261.778 214.397 261.778 214.397C261.778 214.397 261.117 219.273 262.001 221.71C262.455 222.749 262.984 223.753 263.583 224.716L274.218 220.747L268.925 216.475Z" fill="#263238" stroke="#263238" stroke-width="0.719047" stroke-linecap="round" stroke-linejoin="round"/>
<path d="M259.974 194.012C259.974 194.012 257.313 187.591 255.544 192.682C253.776 197.773 258.198 201.311 259.312 201.994C260.427 202.677 259.974 194.012 259.974 194.012Z" fill="#B8B8B8" stroke="#263238" stroke-width="0.719047" stroke-linecap="round" stroke-linejoin="round"/>
<path d="M289.44 194.012C289.44 194.012 292.1 187.591 293.869 192.682C295.638 197.773 291.216 201.311 290.101 201.994C288.987 202.677 289.44 194.012 289.44 194.012Z" fill="#B8B8B8" stroke="#263238" stroke-width="0.719047" stroke-linecap="round" stroke-linejoin="round"/>
<path d="M290.101 196.011C290.101 196.011 290.993 186.923 289.886 179.833C288.778 172.743 279.251 168.975 272.161 170.305C265.071 171.636 260.419 175.403 259.528 181.81C258.636 188.217 259.312 207.948 259.75 211.054C260.189 214.16 267.487 220.603 275.922 220.603C284.356 220.603 288.994 212.406 289.663 209.968C290.332 207.53 290.101 196.011 290.101 196.011Z" fill="#B8B8B8" stroke="#263238" stroke-width="0.719047" stroke-linecap="round" stroke-linejoin="round"/>
<path d="M273.736 203.188C273.736 203.188 264.611 205.841 262.62 206.668C260.628 207.495 259.47 208.99 259.47 212.305C259.47 215.62 263.447 219.107 265.438 220.438C267.43 221.768 273.571 224.414 278.381 223.091C283.192 221.768 288.498 218.28 290.325 215.131C292.151 211.982 289.821 209.486 289.325 208.825C288.829 208.163 281.034 203.188 278.539 203.188H273.736Z" fill="white" stroke="#263238" stroke-width="0.719047" stroke-linecap="round" stroke-linejoin="round"/>
<path d="M271.579 200.362C271.579 200.362 270.917 202.188 271.579 202.684C272.926 203.502 274.483 203.907 276.058 203.849C278.215 203.849 278.546 202.849 279.042 202.188C279.539 201.526 278.712 200.362 278.712 200.362" fill="#B8B8B8"/>
<path d="M271.579 200.362C271.579 200.362 270.917 202.188 271.579 202.684C272.926 203.502 274.483 203.907 276.058 203.849C278.215 203.849 278.546 202.849 279.042 202.188C279.539 201.526 278.712 200.362 278.712 200.362" stroke="#263238" stroke-width="0.719047" stroke-linecap="round" stroke-linejoin="round"/>
<path d="M268.76 207.804C270.685 208.761 272.759 209.378 274.894 209.63C278.216 209.961 282.027 207.804 282.027 207.804C282.027 207.804 282.357 208.803 280.538 210.63C278.719 212.456 277.885 212.514 275.555 212.614C271.91 212.837 269.256 209.652 268.76 207.804Z" fill="#B8B8B8" stroke="#263238" stroke-width="0.719047" stroke-linecap="round" stroke-linejoin="round"/>
<path d="M268.76 207.804C268.76 207.804 272.075 207.804 274.232 207.638C276.389 207.473 282.027 207.804 282.027 207.804C282.027 207.804 276.389 211.974 268.76 207.804Z" fill="#B8B8B8" stroke="#263238" stroke-width="0.719047" stroke-linecap="round" stroke-linejoin="round"/>
<path d="M269.256 193.646C269.214 193.833 269.12 194.005 268.985 194.142C268.849 194.278 268.678 194.374 268.491 194.417C268.304 194.461 268.108 194.451 267.926 194.388C267.745 194.325 267.584 194.212 267.464 194.062C267.343 193.912 267.268 193.732 267.246 193.541C267.223 193.35 267.256 193.156 267.338 192.983C267.421 192.809 267.551 192.663 267.714 192.56C267.876 192.457 268.065 192.402 268.257 192.402C268.553 192.436 268.825 192.586 269.012 192.819C269.199 193.052 269.287 193.349 269.256 193.646Z" fill="#263238"/>
<path d="M282.026 194.89C282.574 194.89 283.019 194.333 283.019 193.646C283.019 192.959 282.574 192.402 282.026 192.402C281.478 192.402 281.034 192.959 281.034 193.646C281.034 194.333 281.478 194.89 282.026 194.89Z" fill="#263238"/>
<path d="M271.744 195.22C270.199 196.561 268.298 197.426 266.272 197.708" stroke="#263238" stroke-width="0.719047" stroke-linecap="round" stroke-linejoin="round"/>
<path d="M278.877 196.055C279.617 196.795 280.496 197.382 281.463 197.781C282.431 198.18 283.468 198.382 284.515 198.377" stroke="#263238" stroke-width="0.719047" stroke-linecap="round" stroke-linejoin="round"/>
<path d="M271.579 188.087C270.197 187.487 268.677 187.278 267.184 187.484C265.691 187.689 264.284 188.301 263.116 189.252" stroke="#263238" stroke-width="1.43809" stroke-linecap="round" stroke-linejoin="round"/>
<path d="M278.546 188.253C279.768 187.696 281.126 187.51 282.453 187.717C283.779 187.924 285.016 188.515 286.01 189.418" stroke="#263238" stroke-width="1.43809" stroke-linecap="round" stroke-linejoin="round"/>
<path d="M219.923 167.961H119.903V250.731H219.923V167.961Z" fill="white"/>
<path d="M166.34 174.462C166.34 174.462 162.514 171.636 157.711 174.8C152.908 177.963 152.721 179.79 152.383 184.284C152.045 188.778 152.052 189.77 149.392 192.603C146.731 195.436 142.92 198.42 143.567 204.748C144.215 211.075 152.915 213.067 155.381 213.067C157.848 213.067 166.527 213.563 166.527 213.563C166.527 213.563 177.844 215.72 184.503 213.729C188.4 212.611 191.877 210.358 194.49 207.257C194.49 207.257 201.645 206.754 201.149 197.608C200.653 188.461 194.677 188.454 191.801 185.628C188.925 182.802 189.831 174.462 183.647 171.132C177.463 167.803 166.505 167.307 166.34 174.462Z" fill="#263238" stroke="#263238" stroke-width="0.719047" stroke-linecap="round" stroke-linejoin="round"/>
<path d="M209.101 236.422C206.11 232.431 202.112 232.266 194.958 230.432C187.803 228.599 180.987 226.118 180.318 223.961C179.649 221.804 178.161 210.817 178.161 210.817L170.165 210.68H169.697L161.709 210.838C161.709 210.838 160.213 221.818 159.552 223.982C158.89 226.147 152.066 228.642 144.912 230.454C137.757 232.266 133.767 232.453 130.768 236.443C127.77 240.434 126.109 250.753 126.109 250.753H213.761C213.761 250.753 212.121 240.42 209.101 236.422Z" fill="white" stroke="#263238" stroke-width="0.719047" stroke-linecap="round" stroke-linejoin="round"/>
<path d="M170.69 218.539L161.68 210.802C161.68 210.802 160.717 217.856 159.998 221.768L170.69 218.539Z" fill="#263238" stroke="#263238" stroke-width="0.719047" stroke-linecap="round" stroke-linejoin="round"/>
<path d="M209.102 236.422C206.11 232.431 202.112 232.266 194.958 230.432C194.548 230.332 194.138 230.224 193.736 230.109C187.391 235.955 179.128 239.279 170.503 239.456C156.582 239.866 148.493 232.64 146.12 230.109L144.876 230.432C137.722 232.266 133.731 232.431 130.733 236.422C127.734 240.413 126.073 250.731 126.073 250.731H213.761C213.761 250.731 212.122 240.42 209.102 236.422Z" fill="#0D6EFD" stroke="#263238" stroke-width="0.719047" stroke-linecap="round" stroke-linejoin="round"/>
<path d="M167.174 183.946C165.953 185.987 164.374 187.792 162.514 189.274C159.516 191.604 158.02 191.1 156.69 192.768C155.36 194.437 156.525 203.252 156.855 206.574C157.186 209.896 163.679 216.224 165.484 217.726C167.289 219.229 169.647 221.056 171.308 220.222C172.969 219.387 175.802 218.064 181.461 210.874C183.007 208.918 182.626 206.711 182.957 205.553C183.147 204.959 183.26 204.343 183.295 203.719C183.295 203.719 181.792 204.554 180.792 202.058C179.793 199.563 180.965 195.069 178.801 193.43C176.636 191.79 172.646 190.273 170.172 189.274C167.699 188.274 167.174 183.946 167.174 183.946Z" fill="white" stroke="#263238" stroke-width="0.719047" stroke-linecap="round" stroke-linejoin="round"/>
<path d="M168.007 206.243C168.313 206.725 168.729 207.126 169.22 207.415C169.711 207.704 170.264 207.871 170.833 207.905C171.335 207.906 171.819 207.72 172.189 207.381C172.559 207.043 172.789 206.578 172.832 206.078" stroke="#263238" stroke-width="0.719047" stroke-linecap="round" stroke-linejoin="round"/>
<path d="M166.67 209.573C166.67 209.573 170.834 212.398 174.163 209.573" stroke="#263238" stroke-width="0.719047" stroke-linecap="round" stroke-linejoin="round"/>
<path d="M164.844 198.456C164.844 199.377 164.47 200.124 164.01 200.124C163.55 200.124 163.183 199.405 163.183 198.456C163.183 197.507 163.55 196.795 164.01 196.795C164.47 196.795 164.844 197.507 164.844 198.456Z" fill="#263238"/>
<path d="M177.492 198.456C177.492 199.377 177.118 200.124 176.658 200.124C176.198 200.124 175.824 199.405 175.824 198.456C175.824 197.507 176.198 196.795 176.658 196.795C177.118 196.795 177.492 197.507 177.492 198.456Z" fill="#263238"/>
<path d="M164.01 203.08C166.766 203.08 169 200.845 169 198.089C169 195.333 166.766 193.099 164.01 193.099C161.254 193.099 159.02 195.333 159.02 198.089C159.02 200.845 161.254 203.08 164.01 203.08Z" stroke="#263238" stroke-width="0.719047" stroke-linecap="round" stroke-linejoin="round"/>
<path d="M176.988 203.08C179.744 203.08 181.978 200.845 181.978 198.089C181.978 195.333 179.744 193.099 176.988 193.099C174.232 193.099 171.998 195.333 171.998 198.089C171.998 200.845 174.232 203.08 176.988 203.08Z" stroke="#263238" stroke-width="0.719047" stroke-linecap="round" stroke-linejoin="round"/>
<path d="M169.172 197.09C169.172 197.09 170.999 195.76 171.998 197.09" stroke="#263238" stroke-width="0.719047" stroke-linecap="round" stroke-linejoin="round"/>
<path d="M159.019 198.089H156.021" stroke="#263238" stroke-width="0.719047" stroke-linecap="round" stroke-linejoin="round"/>
<path d="M160.185 193.423C161.065 192.731 162.108 192.276 163.215 192.101C164.321 191.926 165.454 192.037 166.505 192.423" stroke="#263238" stroke-width="0.719047" stroke-linecap="round" stroke-linejoin="round"/>
<path d="M173.293 193.013C174.257 192.442 175.351 192.126 176.471 192.097C177.591 192.068 178.7 192.327 179.692 192.848" stroke="#263238" stroke-width="0.719047" stroke-linecap="round" stroke-linejoin="round"/>
<path d="M430.164 80.9209H330.145V163.69H430.164V80.9209Z" fill="white"/>
<path d="M426.26 163.69C426.16 162.353 425.592 155.062 424.664 153.192C423.636 151.143 418.912 148.943 414.835 146.599C410.758 144.255 397.678 136.187 395.773 135.015C394.138 134.115 392.418 133.378 390.639 132.815L380.378 132.246H380.155H379.939L369.671 132.815C367.892 133.378 366.173 134.115 364.537 135.015C362.632 136.187 349.581 144.247 345.475 146.599C341.37 148.95 336.674 151.143 335.653 153.192C334.719 155.062 334.15 162.353 334.05 163.69H426.26Z" fill="#263238" stroke="#263238" stroke-width="0.719047" stroke-linecap="round" stroke-linejoin="round"/>
<path d="M378.466 163.69H383.096C386.303 158.412 391.869 149.187 392.696 147.332C393.868 144.693 394.011 137.654 392.99 134.864C391.969 132.074 390.344 131.786 390.344 131.786L370.261 131.491C370.261 131.491 367.328 135.597 367.328 137.359C367.328 139.12 371.139 151.021 372.9 154.371C373.943 156.37 376.531 160.584 378.466 163.69Z" fill="white" stroke="#263238" stroke-width="0.719047" stroke-linecap="round" stroke-linejoin="round"/>
<path d="M377.243 161.72L378.466 163.69H383.096L384.657 161.109L382.133 156.565L386.238 150.812L380.083 145.829L376.272 151.841L379.494 156.975L377.243 161.72Z" fill="#0D6EFD" stroke="#263238" stroke-width="0.719047" stroke-linecap="round" stroke-linejoin="round"/>
<path d="M392.696 147.332C393.868 144.693 394.011 137.654 392.99 134.864C391.969 132.074 390.344 131.786 390.344 131.786L370.261 131.491C370.261 131.491 367.328 135.597 367.328 137.359C367.328 139.12 371.139 151.021 372.9 154.371C373.116 154.788 373.411 155.313 373.742 155.903L380.673 149.381L387.914 155.694C390.172 151.905 392.221 148.403 392.696 147.332Z" fill="white" stroke="#263238" stroke-width="0.719047" stroke-linecap="round" stroke-linejoin="round"/>
<path d="M369.232 127.271C369.232 127.271 370.671 136.798 371.577 139.149C372.483 141.5 379.349 149.41 380.672 149.41C381.995 149.41 390.2 139.883 390.933 138.416C391.667 136.949 392.99 128.292 392.99 128.292C392.99 128.292 385.799 130.938 381.844 130.938C377.89 130.938 369.232 127.271 369.232 127.271Z" fill="white" stroke="#263238" stroke-width="0.719047" stroke-linecap="round" stroke-linejoin="round"/>
<path d="M381.636 135.835L372.202 128.407C370.462 127.76 369.232 127.242 369.232 127.242C369.232 127.242 369.995 132.196 370.75 135.835H381.636Z" fill="#263238" stroke="#263238" stroke-width="0.719047" stroke-linecap="round" stroke-linejoin="round"/>
<path d="M366.594 112.89C366.594 112.89 365.271 110.107 363.221 112.451C361.172 114.795 362.776 117.29 364.099 119.785C365.422 122.28 366.889 123.158 367.471 122.719C368.053 122.28 366.594 112.89 366.594 112.89Z" stroke="#263238" stroke-width="0.719047" stroke-linecap="round" stroke-linejoin="round"/>
<path d="M396.398 112.89C396.398 112.89 397.721 110.107 399.771 112.451C401.82 114.795 400.209 117.29 398.893 119.785C397.578 122.28 396.103 123.158 395.521 122.719C394.939 122.28 396.398 112.89 396.398 112.89Z" fill="white" stroke="#263238" stroke-width="0.719047" stroke-linecap="round" stroke-linejoin="round"/>
<path d="M372.31 93.95C372.31 93.95 366.443 98.2067 365.422 101.86C364.401 105.512 366.86 122.971 367.176 125.322C367.493 127.673 375.805 135.144 378.473 136.316C381.14 137.488 384.779 136.906 386.095 136.316C387.41 135.727 393.573 128.982 394.723 127.076C395.874 125.171 397.808 109.043 397.808 105.376C397.808 101.709 395.313 96.4307 392.055 94.2304C388.798 92.0301 384.146 90.2757 379.594 91.1529C377.014 91.6265 374.544 92.575 372.31 93.95Z" fill="white" stroke="#263238" stroke-width="0.719047" stroke-linecap="round" stroke-linejoin="round"/>
<path d="M377.437 121.375C377.437 121.375 376.56 121.518 377.875 122.403C379.191 123.287 380.809 124.603 382.858 124.013C384.908 123.424 386.526 122.841 386.238 120.785" stroke="#263238" stroke-width="0.719047" stroke-linecap="round" stroke-linejoin="round"/>
<path d="M376.114 126.652C379.824 127.757 383.796 127.603 387.41 126.214" stroke="#263238" stroke-width="0.719047" stroke-linecap="round" stroke-linejoin="round"/>
<path d="M374.87 115.514C375.315 115.514 375.675 114.922 375.675 114.191C375.675 113.461 375.315 112.868 374.87 112.868C374.425 112.868 374.064 113.461 374.064 114.191C374.064 114.922 374.425 115.514 374.87 115.514Z" fill="#263238"/>
<path d="M388.798 114.191C388.798 114.91 388.439 115.507 387.993 115.507C387.547 115.507 387.188 114.918 387.188 114.191C387.188 113.465 387.547 112.868 387.993 112.868C388.439 112.868 388.798 113.458 388.798 114.191Z" fill="#263238"/>
<path d="M371.749 110.373C372.565 109.728 373.522 109.286 374.542 109.082C375.562 108.879 376.615 108.919 377.616 109.201" stroke="#263238" stroke-width="0.719047" stroke-linecap="round" stroke-linejoin="round"/>
<path d="M385.217 109.201C385.217 109.201 389.172 108.029 391.811 110.963" stroke="#263238" stroke-width="0.719047" stroke-linecap="round" stroke-linejoin="round"/>
<path d="M365.422 101.874C365.422 101.874 367.032 102.162 367.327 106.123C367.622 110.085 367.91 115.212 367.176 115.471C366.443 115.73 366.457 114.752 365.127 111.955C363.797 109.158 364.559 102.313 365.422 101.874Z" fill="#263238" stroke="#263238" stroke-width="0.719047" stroke-linecap="round" stroke-linejoin="round"/>
<path d="M397.096 102.162C397.096 102.162 395.658 105.829 395.478 107.59C395.298 109.352 395.183 115.5 396.197 115.802C397.211 116.104 397.52 114.63 398.253 109.057C398.987 103.485 397.678 101.579 397.096 102.162Z" fill="#263238" stroke="#263238" stroke-width="0.719047" stroke-linecap="round" stroke-linejoin="round"/>
<path d="M362.488 136.331C361.738 136.964 361.156 137.771 360.791 138.682C359.454 144.492 359.454 149.849 358.116 155.651C360.345 157.888 363.919 156.989 366.745 158.621M366.745 158.621C364.753 158.039 364.846 159.922 366.745 158.621ZM366.745 158.621L361.05 162.504" stroke="#6B6B6B" stroke-width="0.719047" stroke-linecap="round" stroke-linejoin="round"/>
<path d="M397.829 136.187C397.829 136.187 401.935 142.047 402.668 145.534C403.402 149.022 405.746 155.802 405.746 155.802L396.067 158.909L403.977 162.72" stroke="#6B6B6B" stroke-width="0.719047" stroke-linecap="round" stroke-linejoin="round"/>
<path d="M325.047 80.9209H225.028V163.69H325.047V80.9209Z" fill="white"/>
<path d="M271.083 94.7051C271.083 94.7051 268.401 90.9085 265.057 94.0364C261.713 97.1642 254.559 106.763 254.99 111.897C255.422 117.031 259.233 123.726 259.233 126.185C259.233 128.644 257.672 135.533 260.124 138.236C262.576 140.94 271.514 140.472 271.514 140.472L275.979 140.25C275.979 140.25 286.046 142.924 290.935 140.25C295.825 137.575 293.812 125.063 293.172 123.057L292.496 121.051C292.496 121.051 294.063 110.984 291.158 104.973C288.253 98.9618 284.241 96.0425 280.222 95.3738C277.194 94.9422 274.141 94.7188 271.083 94.7051Z" fill="#263238" stroke="#263238" stroke-width="0.719047" stroke-linecap="round" stroke-linejoin="round"/>
<path d="M312.593 154.314C310.134 151.632 304.109 150.295 295.847 146.275C287.585 142.256 284.241 140.249 284.241 140.249C280.775 138.97 276.116 139.782 274.527 140.12C272.938 139.782 268.286 138.97 264.813 140.249C264.813 140.249 261.469 142.256 253.207 146.275C244.945 150.295 238.92 151.632 236.461 154.314C234.002 156.996 233.584 163.662 233.584 163.662H315.491C315.491 163.662 315.045 156.989 312.593 154.314Z" fill="#0D6EFD" stroke="#263238" stroke-width="0.719047" stroke-linecap="round" stroke-linejoin="round"/>
<path d="M268.386 136.899C268.386 136.899 266.826 134.893 265.043 135.784C263.26 136.676 259.679 143.593 259.679 143.593C259.679 143.593 260.125 155.651 261.915 156.536C263.705 157.42 265.043 149.619 265.51 148.727C265.978 147.835 273.765 152.516 273.765 152.516L280.466 149.396C280.466 149.396 283.343 157.428 284.709 157.658C286.075 157.888 286.492 146.268 286.046 143.586C285.6 140.904 282.451 136.669 279.575 136.446C277.557 136.403 275.561 136.863 273.765 137.783L268.386 136.899Z" fill="white" stroke="#263238" stroke-width="0.719047" stroke-linecap="round" stroke-linejoin="round"/>
<path d="M266.38 129.981C266.38 129.981 266.603 140.695 267.272 143.147C267.941 145.599 272.183 153.214 274.196 153.645C276.21 154.077 282.005 142.478 282.005 142.478L283.12 129.083C283.12 129.083 277.986 132.21 266.38 129.981Z" fill="white" stroke="#263238" stroke-width="0.719047" stroke-linecap="round" stroke-linejoin="round"/>
<path d="M275.182 132.498L272.665 130.744C270.554 130.643 268.454 130.389 266.38 129.981C266.38 129.981 266.474 134.519 266.726 138.358L276.835 135.281L275.182 132.498Z" fill="#263238" stroke="#263238" stroke-width="0.719047" stroke-linecap="round" stroke-linejoin="round"/>
<path d="M270.846 96.4881C270.846 96.4881 273.722 90.0167 280.445 89.7938C287.168 89.5709 292.273 94.482 293.841 98.9473C295.408 103.413 301.204 121.957 303.907 129.758C306.611 137.56 306.359 144.715 301.901 152.049C297.443 159.383 286.715 161.396 282.696 157.636C278.676 153.875 276.893 142.227 279.575 136.424C282.257 130.621 282.25 127.493 282.027 121.468C281.804 115.442 272.428 105.39 271.313 102.492C270.648 100.563 270.487 98.4966 270.846 96.4881Z" fill="#263238" stroke="#263238" stroke-width="0.719047" stroke-linecap="round" stroke-linejoin="round"/>
<path d="M261.692 116.14C261.692 116.14 258.341 114.349 258.564 117.477C258.787 120.605 261.44 123.28 262.36 123.726L263.252 124.171L261.692 116.14Z" stroke="#263238" stroke-width="0.719047" stroke-linecap="round" stroke-linejoin="round"/>
<path d="M271.083 98.5088C271.083 98.5088 264.612 104.534 263.044 108.108C261.982 110.648 261.524 113.4 261.707 116.147C262.179 120.577 262.923 124.974 263.936 129.313C264.605 131.549 269.365 136.007 274.657 136.46C280.481 136.956 284.925 129.09 284.925 129.09C284.925 129.09 286.485 117.039 286.485 115.694C286.485 114.349 273.075 109.215 271.083 98.5088Z" fill="white" stroke="#263238" stroke-width="0.719047" stroke-linecap="round" stroke-linejoin="round"/>
<path d="M275.088 113.681C275.088 113.681 275.979 120.152 275.979 121.497C275.979 122.841 271.96 122.166 271.96 122.166" stroke="#263238" stroke-width="0.719047" stroke-linecap="round" stroke-linejoin="round"/>
<path d="M270.846 124.84C270.846 124.84 274.865 127.077 276.648 124.617" stroke="#263238" stroke-width="0.719047" stroke-linecap="round" stroke-linejoin="round"/>
<path d="M269.731 114.464C269.693 114.655 269.601 114.832 269.467 114.973C269.332 115.114 269.16 115.213 268.971 115.261C268.782 115.308 268.584 115.3 268.399 115.239C268.214 115.178 268.05 115.065 267.927 114.914C267.804 114.764 267.726 114.581 267.702 114.388C267.678 114.194 267.71 113.998 267.794 113.822C267.877 113.646 268.009 113.497 268.174 113.393C268.339 113.289 268.529 113.234 268.724 113.235C269.02 113.266 269.292 113.412 269.481 113.642C269.669 113.873 269.759 114.168 269.731 114.464Z" fill="#263238"/>
<path d="M279.999 114.464C279.961 114.655 279.869 114.832 279.735 114.973C279.6 115.114 279.429 115.213 279.24 115.261C279.05 115.308 278.852 115.3 278.667 115.239C278.482 115.178 278.318 115.065 278.195 114.914C278.072 114.764 277.994 114.581 277.97 114.388C277.946 114.194 277.978 113.998 278.062 113.822C278.145 113.646 278.277 113.497 278.442 113.393C278.607 113.289 278.797 113.234 278.992 113.235C279.288 113.266 279.56 113.412 279.749 113.642C279.937 113.873 280.027 114.168 279.999 114.464Z" fill="#263238"/>
<path d="M265.935 111.674C265.935 111.674 266.603 109.215 271.514 110.33" stroke="#263238" stroke-width="0.719047" stroke-linecap="round" stroke-linejoin="round"/>
<path d="M276.202 110.999C276.202 110.999 279.33 108.324 283.119 111.674" stroke="#263238" stroke-width="0.719047" stroke-linecap="round" stroke-linejoin="round"/>
<path d="M219.923 80.9209H119.903V163.69H219.923V80.9209Z" fill="white"/>
<path d="M212.423 157.471C209.892 151.222 206.764 148.396 206.764 148.396L182.353 135.453L171.344 133.742V133.656L171.042 133.699L170.747 133.656V133.742L159.732 135.439L135.327 148.382C135.327 148.382 132.199 151.208 129.668 157.456L127.137 163.712H214.954L212.423 157.471Z" fill="white" stroke="#263238" stroke-width="0.719047" stroke-linecap="round" stroke-linejoin="round"/>
<path d="M171.79 143.449V162.353" stroke="#263238" stroke-width="0.719047" stroke-linecap="round" stroke-linejoin="round"/>
<path d="M137.858 150.891C137.858 150.891 141.453 159.52 141.726 163.54" stroke="#263238" stroke-width="0.719047" stroke-linecap="round" stroke-linejoin="round"/>
<path d="M203.939 150.74C203.939 150.74 199.171 158.333 197.539 163.539" stroke="#263238" stroke-width="0.719047" stroke-linecap="round" stroke-linejoin="round"/>
<path d="M171.639 125.142C184.709 125.142 195.303 115.314 195.303 103.19C195.303 91.0656 184.709 81.2372 171.639 81.2372C158.57 81.2372 147.976 91.0656 147.976 103.19C147.976 115.314 158.57 125.142 171.639 125.142Z" fill="#263238" stroke="#263238" stroke-width="0.719047" stroke-linecap="round" stroke-linejoin="round"/>
<path d="M161.069 123.503L161.666 132.282L171.639 143.003L181.612 133.03V124.1L171.042 126.329L161.069 123.503Z" fill="#B8B8B8" stroke="#263238" stroke-width="0.719047" stroke-linecap="round" stroke-linejoin="round"/>
<path d="M166.606 125.07L161.069 123.503L161.666 132.282L161.917 132.556L171.811 130.032L166.606 125.07Z" fill="#263238" stroke="#263238" stroke-width="0.719047" stroke-linecap="round" stroke-linejoin="round"/>
<path d="M159.58 109.647C159.58 109.647 156.862 107.705 156.862 111.394C156.881 112.502 157.133 113.594 157.602 114.599C158.07 115.603 158.744 116.498 159.58 117.226V109.647Z" fill="#B8B8B8" stroke="#263238" stroke-width="0.719047" stroke-linecap="round" stroke-linejoin="round"/>
<path d="M182.892 109.647C182.892 109.647 185.61 107.705 185.61 111.394C185.591 112.502 185.339 113.594 184.871 114.599C184.403 115.603 183.728 116.498 182.892 117.226V109.647Z" fill="#B8B8B8" stroke="#263238" stroke-width="0.719047" stroke-linecap="round" stroke-linejoin="round"/>
<path d="M159.581 106.016C159.581 106.016 159.192 120.397 160.357 123.503C161.522 126.609 168.13 130.693 170.654 131.269C173.178 131.844 181.145 127.192 182.504 124.078C183.863 120.965 183.28 103.679 183.28 103.679C183.28 103.679 181.921 95.5175 172.013 95.1292C162.105 94.7409 159.969 101.162 159.581 106.016Z" fill="#B8B8B8" stroke="#263238" stroke-width="0.719047" stroke-linecap="round" stroke-linejoin="round"/>
<path d="M168.518 118.448C168.518 118.448 168.129 119.03 169.294 119.807C170.459 120.583 173.177 121.36 174.73 118.836" stroke="#263238" stroke-width="0.719047" stroke-linecap="round" stroke-linejoin="round"/>
<path d="M167.159 121.943C167.159 121.943 171.624 123.697 175.896 121.943" stroke="#263238" stroke-width="0.719047" stroke-linecap="round" stroke-linejoin="round"/>
<path d="M166.735 110.776C166.735 111.574 166.318 112.214 165.793 112.214C165.268 112.214 164.851 111.567 164.851 110.776C164.851 109.985 165.275 109.338 165.793 109.338C166.311 109.338 166.735 110.014 166.735 110.776Z" fill="#263238"/>
<path d="M177.722 110.776C177.722 111.574 177.305 112.214 176.78 112.214C176.255 112.214 175.838 111.567 175.838 110.776C175.838 109.985 176.263 109.338 176.78 109.338C177.298 109.338 177.722 110.014 177.722 110.776Z" fill="#263238"/>
<path d="M168.978 108.345H161.328C161.328 108.345 159.782 108.683 160.551 112.041C161.069 114.306 166.605 113.789 167.742 113.789C169.978 113.789 170.345 110.912 169.985 109.194C169.936 108.961 169.81 108.751 169.627 108.597C169.445 108.443 169.217 108.355 168.978 108.345Z" stroke="#263238" stroke-width="0.719047" stroke-linecap="round" stroke-linejoin="round"/>
<path d="M173.702 108.345H181.331C181.331 108.345 182.885 108.683 182.108 112.041C181.59 114.306 176.061 113.789 174.917 113.789C172.681 113.789 172.307 110.912 172.667 109.194C172.719 108.957 172.849 108.744 173.037 108.59C173.225 108.436 173.459 108.35 173.702 108.345Z" stroke="#263238" stroke-width="0.719047" stroke-linecap="round" stroke-linejoin="round"/>
<path d="M169.316 108.468H173.178" stroke="#263238" stroke-width="0.719047" stroke-linecap="round" stroke-linejoin="round"/>
<path d="M170.172 109.927C170.172 109.927 171.028 108.489 172.573 109.927" stroke="#263238" stroke-width="0.719047" stroke-linecap="round" stroke-linejoin="round"/>
<path d="M161.328 108.345L159.609 109.331" stroke="#263238" stroke-width="0.719047" stroke-linecap="round" stroke-linejoin="round"/>
<path d="M181.676 108.554L183.481 109.582" stroke="#263238" stroke-width="0.719047" stroke-linecap="round" stroke-linejoin="round"/>
<path d="M174.17 107.576C174.17 107.576 176.406 105.944 180.72 107.576" stroke="#263238" stroke-width="1.43809" stroke-linecap="round" stroke-linejoin="round"/>
<path d="M169.108 107.576C169.108 107.576 165.513 105.944 162.112 107.576" stroke="#263238" stroke-width="1.43809" stroke-linecap="round" stroke-linejoin="round"/>
<path d="M161.521 129.902L171.638 143.003L166.576 148.957L158.394 136.302L161.521 129.902Z" fill="white" stroke="#263238" stroke-width="0.719047" stroke-linecap="round" stroke-linejoin="round"/>
<path d="M171.79 143.449L177.887 149.554L185.48 136.158L181.907 131.096L171.79 143.449Z" fill="white" stroke="#263238" stroke-width="0.719047" stroke-linecap="round" stroke-linejoin="round"/>
</svg>
