<svg width="70" height="71" viewBox="0 0 70 71" fill="none" xmlns="http://www.w3.org/2000/svg">
<path d="M35 70.5C54.33 70.5 70 54.83 70 35.5C70 16.17 54.33 0.5 35 0.5C15.67 0.5 0 16.17 0 35.5C0 54.83 15.67 70.5 35 70.5Z" fill="#E0EDFF"/>
<path d="M26.6041 21.3955C27.6898 19.5043 29.3782 18.0317 31.3994 17.2131C33.4207 16.3944 35.658 16.277 37.7537 16.8797C39.8495 17.4823 41.6828 18.7701 42.9605 20.5373C44.2381 22.3045 44.8865 24.449 44.8019 26.628C44.7172 28.8071 43.9045 30.8949 42.4937 32.5577C41.0828 34.2204 39.1552 35.3622 37.019 35.8005C34.8827 36.2387 32.6613 35.9482 30.7097 34.9753C28.758 34.0023 27.1889 32.4032 26.2531 30.4335C25.6279 30.8909 24.8731 31.1368 24.0984 31.1355H22.8797V31.757C22.8797 32.2201 23.0552 32.6418 23.3428 32.9611C23.5886 32.6833 23.9132 32.4869 24.2734 32.3981C24.6336 32.3094 25.0122 32.3324 25.359 32.4642C25.7057 32.5961 26.0041 32.8304 26.2143 33.136C26.4246 33.4416 26.5367 33.804 26.5359 34.175C26.5357 34.4297 26.4823 34.6816 26.379 34.9145C26.2758 35.1474 26.125 35.3562 25.9363 35.5274C25.7477 35.6986 25.5253 35.8285 25.2836 35.9087C25.0418 35.9889 24.7859 36.0177 24.5323 35.9933C23.4345 35.9548 22.3946 35.4916 21.6316 34.7013C20.8686 33.9111 20.4423 32.8555 20.4423 31.757V22.6118C20.4423 22.2886 20.5707 21.9786 20.7993 21.7501C21.0278 21.5215 21.3378 21.3931 21.661 21.3931H26.5359L26.6041 21.3955ZM22.8797 28.6981H24.0984C24.4217 28.6981 24.7316 28.5697 24.9602 28.3411C25.1888 28.1126 25.3172 27.8026 25.3172 27.4794V26.5775C25.31 26.3598 25.31 26.142 25.3172 25.9243V23.8305H22.8797V28.6981ZM18 43.3129C18 40.6 20.201 38.438 22.8968 38.438H47.2491C48.542 38.438 49.7819 38.9516 50.6962 39.8658C51.6104 40.78 52.124 42.02 52.124 43.3129C52.124 47.4346 50.0936 50.5423 46.9201 52.5678C43.7953 54.5592 39.5834 55.5 35.062 55.5C30.5406 55.5 26.3287 54.5592 23.2039 52.5678C20.0304 50.5447 18 47.4321 18 43.3129Z" fill="#0D6EFD"/>
</svg>
