<svg width="297" height="150" viewBox="0 0 447 300" fill="none" xmlns="http://www.w3.org/2000/svg">
<path d="M442.512 140.761C437.468 122.161 428.614 104.005 418.085 87.3137C399.933 58.5184 370.193 34.6069 332.148 20.4124C238.791 -14.4207 171.419 0.093103 134.846 28.395C98.2732 56.6969 108.86 105.318 69.3998 126.363C29.9395 147.408 2.02855 156.842 0.103652 195.304C-1.82124 233.765 23.2024 262.793 63.6252 272.227C104.048 281.661 164.682 312.14 285.95 294.723C407.219 277.307 437.055 228.685 444.754 193.852C448.604 176.327 447.276 158.344 442.512 140.761Z" fill="#0D6EFD"/>
<path opacity="0.7" d="M442.512 140.761C437.468 122.161 428.614 104.005 418.085 87.3137C399.933 58.5184 370.193 34.6069 332.148 20.4124C238.791 -14.4207 171.419 0.093103 134.846 28.395C98.2732 56.6969 108.86 105.318 69.3998 126.363C29.9395 147.408 2.02855 156.842 0.103652 195.304C-1.82124 233.765 23.2024 262.793 63.6252 272.227C104.048 281.661 164.682 312.14 285.95 294.723C407.219 277.307 437.055 228.685 444.754 193.852C448.604 176.327 447.276 158.344 442.512 140.761Z" fill="white"/>
<path d="M153.119 34.5778H146.5V63.7142H153.119V34.5778Z" fill="#C9C9C9" stroke="#263238" stroke-width="0.730527" stroke-linecap="round" stroke-linejoin="round"/>
<path d="M153.119 38.9609H146.5V41.8056H153.119V38.9609Z" fill="white" stroke="#263238" stroke-width="0.730527" stroke-linecap="round" stroke-linejoin="round"/>
<path d="M153.119 57.038H146.5V59.8827H153.119V57.038Z" fill="white" stroke="#263238" stroke-width="0.730527" stroke-linecap="round" stroke-linejoin="round"/>
<path d="M160.84 34.5778H151.577V63.7142H160.84V34.5778Z" fill="#878787" stroke="#263238" stroke-width="0.730527" stroke-linecap="round" stroke-linejoin="round"/>
<path d="M160.183 34.5778H153.564V63.7142H160.183V34.5778Z" fill="#C9C9C9" stroke="#263238" stroke-width="0.730527" stroke-linecap="round" stroke-linejoin="round"/>
<path d="M160.183 38.9609H153.564V41.8056H160.183V38.9609Z" fill="white" stroke="#263238" stroke-width="0.730527" stroke-linecap="round" stroke-linejoin="round"/>
<path d="M160.183 57.038H153.564V59.8827H160.183V57.038Z" fill="white" stroke="#263238" stroke-width="0.730527" stroke-linecap="round" stroke-linejoin="round"/>
<path d="M167.897 34.5778H158.634V63.7142H167.897V34.5778Z" fill="#878787" stroke="#263238" stroke-width="0.730527" stroke-linecap="round" stroke-linejoin="round"/>
<path d="M167.24 34.5778H160.621V63.7142H167.24V34.5778Z" fill="#C9C9C9" stroke="#263238" stroke-width="0.730527" stroke-linecap="round" stroke-linejoin="round"/>
<path d="M167.24 38.9609H160.621V41.8056H167.24V38.9609Z" fill="white" stroke="#263238" stroke-width="0.730527" stroke-linecap="round" stroke-linejoin="round"/>
<path d="M167.24 57.038H160.621V59.8827H167.24V57.038Z" fill="white" stroke="#263238" stroke-width="0.730527" stroke-linecap="round" stroke-linejoin="round"/>
<path d="M174.954 34.5778H165.69V63.7142H174.954V34.5778Z" fill="#C9C9C9" stroke="#263238" stroke-width="0.730527" stroke-linecap="round" stroke-linejoin="round"/>
<path d="M180.988 64.0119H196.534L200.669 60.2964H180.988V64.0119Z" fill="white" stroke="#263238" stroke-width="0.730527" stroke-linecap="round" stroke-linejoin="round"/>
<path d="M198.908 64.2006L198.412 63.3516L180.667 63.3153L181.178 64.2006H198.908Z" fill="white" stroke="#263238" stroke-width="0.730527" stroke-linecap="round" stroke-linejoin="round"/>
<path d="M171.988 35.1845L166.259 38.4758L180.942 63.6985L186.671 60.4072L171.988 35.1845Z" fill="#C9C9C9" stroke="#263238" stroke-width="0.730527" stroke-linecap="round" stroke-linejoin="round"/>
<path d="M174.199 38.9688L168.469 42.2601L169.903 44.7227L175.632 41.4314L174.199 38.9688Z" fill="white" stroke="#263238" stroke-width="0.730527" stroke-linecap="round" stroke-linejoin="round"/>
<path d="M183.314 54.6156L177.584 57.907L179.018 60.3696L184.748 57.0782L183.314 54.6156Z" fill="white" stroke="#263238" stroke-width="0.730527" stroke-linecap="round" stroke-linejoin="round"/>
<path d="M200.567 60.5502L186.519 60.5139L171.835 35.2889L185.883 35.3252L200.567 60.5502Z" fill="#C9C9C9" stroke="#263238" stroke-width="0.730527" stroke-linecap="round" stroke-linejoin="round"/>
<path d="M208.222 49.2586C208.222 49.2586 205.665 48.3515 204.934 44.3602C204.204 40.3689 202.925 34.7448 204.386 33.4748C205.848 32.2049 208.587 31.4792 208.952 34.0191C209.318 36.559 208.77 41.4574 209.318 42.5459C209.865 43.6345 211.692 42.9088 211.692 40.7317C211.692 37.1468 210.231 33.4748 210.749 29.8464C211.48 24.8319 216.594 24.2803 217.141 29.8464C217.448 32.9233 217.536 36.0655 217.536 39.157C217.536 40.4269 219.728 41.1526 219.545 38.0684C219.413 35.8914 221.006 33.3515 223.198 34.0771C225.389 34.8028 223.563 44.4182 222.832 46.051C222.102 47.6838 217.536 47.9886 217.536 47.9886V52.1613L212.057 52.3428L211.874 48.17C210.759 48.8106 209.508 49.1834 208.222 49.2586Z" fill="#0D6EFD" stroke="#263238" stroke-width="0.730527" stroke-linecap="round" stroke-linejoin="round"/>
<path d="M213.153 41.3049C213.219 42.212 213.263 42.7563 213.263 42.7563" stroke="#263238" stroke-width="0.730527" stroke-linecap="round" stroke-linejoin="round"/>
<path d="M213.518 27.2339C213.518 27.2339 212.32 28.0612 212.408 30.543C212.466 32.0525 212.759 36.2324 212.985 39.2876" stroke="#263238" stroke-width="0.730527" stroke-linecap="round" stroke-linejoin="round"/>
<path d="M215.579 35.7898L215.769 41.8638" stroke="#263238" stroke-width="0.730527" stroke-linecap="round" stroke-linejoin="round"/>
<path d="M218.252 45.8115C217.829 45.8774 217.402 45.914 216.974 45.9211" stroke="#263238" stroke-width="0.730527" stroke-linecap="round" stroke-linejoin="round"/>
<path d="M222.066 35.6084C221.644 36.4027 221.421 37.2864 221.416 38.1846C221.416 39.636 221.511 43.7071 220.583 44.8101C220.356 45.0578 220.08 45.2556 219.772 45.3907" stroke="#263238" stroke-width="0.730527" stroke-linecap="round" stroke-linejoin="round"/>
<path d="M206.213 43.7723C206.432 44.8634 206.959 45.8701 207.732 46.6751C208.19 47.0386 208.754 47.2438 209.339 47.2595C209.925 47.2753 210.5 47.1006 210.976 46.7622" stroke="#263238" stroke-width="0.730527" stroke-linecap="round" stroke-linejoin="round"/>
<path d="M206.038 33.9537C206.038 33.9537 204.19 33.9537 204.833 37.1685C205.11 38.5256 205.366 40.1947 205.695 41.7694" stroke="#263238" stroke-width="0.730527" stroke-linecap="round" stroke-linejoin="round"/>
<path d="M212.985 46.189L213.358 50.144" stroke="#263238" stroke-width="0.730527" stroke-linecap="round" stroke-linejoin="round"/>
<path d="M222.468 50.5284L221.803 55.9421L221.35 59.6286L220.824 63.9174H207.682L207.156 59.6286L206.703 55.9421L206.038 50.5284H222.468Z" fill="white" stroke="#263238" stroke-width="0.730527" stroke-linecap="round" stroke-linejoin="round"/>
<path d="M221.803 55.9423L221.35 59.6288H207.156L206.703 55.9423H221.803Z" fill="#0D6EFD" stroke="#263238" stroke-width="0.730527" stroke-linecap="round" stroke-linejoin="round"/>
<path d="M229.685 63.9175H145.331V69.469H229.685V63.9175Z" fill="white" stroke="#263238" stroke-width="0.730527" stroke-linecap="round" stroke-linejoin="round"/>
<path d="M229.685 63.9175H210.238V69.469H229.685V63.9175Z" fill="white" stroke="#263238" stroke-width="0.730527" stroke-linecap="round" stroke-linejoin="round"/>
<path d="M208.347 69.4908C217.383 72.8 215.754 79.0554 215.754 79.0554H224.309V69.4908H208.347Z" fill="#919191" stroke="#263238" stroke-width="0.730527" stroke-linecap="round" stroke-linejoin="round"/>
<path d="M211.232 69.4908C220.262 72.8 218.633 79.0554 218.633 79.0554H227.194V69.4908H211.232Z" fill="white" stroke="#263238" stroke-width="0.730527" stroke-linecap="round" stroke-linejoin="round"/>
<path d="M150.452 69.4908C159.489 72.8 157.86 79.0554 157.86 79.0554H166.414V69.4908H150.452Z" fill="#919191" stroke="#263238" stroke-width="0.730527" stroke-linecap="round" stroke-linejoin="round"/>
<path d="M153.337 69.4908C162.367 72.8 160.738 79.0554 160.738 79.0554H169.299V69.4908H153.337Z" fill="white" stroke="#263238" stroke-width="0.730527" stroke-linecap="round" stroke-linejoin="round"/>
<path d="M347.234 35.6157H271.581V139.941H347.234V35.6157Z" fill="#919191" stroke="#263238" stroke-width="0.730527" stroke-linecap="round" stroke-linejoin="round"/>
<path d="M343.955 40.1439H274.869V135.412H343.955V40.1439Z" fill="#0D6EFD"/>
<path opacity="0.5" d="M343.955 40.1439H274.869V135.412H343.955V40.1439Z" fill="white"/>
<path d="M290.056 128.177C288.204 130.984 285.864 133.441 283.145 135.434H343.954V40.1439H332.748L331.287 40.6011C320.329 44.0336 309.006 53.9683 302.584 72.0235" stroke="#263238" stroke-width="0.730527" stroke-linecap="round" stroke-linejoin="round"/>
<path d="M301.519 75.1876C298.967 83.7982 297.558 92.7025 297.325 101.675C296.924 112.445 294.615 120.188 291.532 125.754" stroke="#263238" stroke-width="0.730527" stroke-linecap="round" stroke-linejoin="round"/>
<path d="M337.197 64.3239C327.152 70.1294 315.457 79.8826 311.088 94.8391C308.743 102.822 310.942 110.021 315.289 116.182" stroke="#263238" stroke-width="0.730527" stroke-linecap="round" stroke-linejoin="round"/>
<path d="M317.641 119.186C323.668 126.196 332.252 131.711 339.199 135.42H343.955V60.8043C342.596 61.4357 341.149 62.1468 339.645 62.9814" stroke="#263238" stroke-width="0.730527" stroke-linecap="round" stroke-linejoin="round"/>
<path d="M286.353 64.9843C291.642 54.2731 292.197 45.7753 291.59 40.1439H274.883V83.7288C277.352 80.2383 280.377 75.5721 284.029 69.3166C284.256 68.932 284.468 68.591 284.68 68.1846" stroke="#263238" stroke-width="0.730527" stroke-linecap="round" stroke-linejoin="round"/>
<path d="M292.898 106.24C292.087 111.516 289.647 115.347 286.769 115.347C283.226 115.347 280.348 109.542 280.348 102.358C280.348 95.1732 283.226 89.3677 286.769 89.3677C290.312 89.3677 293.19 95.1732 293.19 102.358" stroke="#263238" stroke-width="0.730527" stroke-linecap="round" stroke-linejoin="round"/>
<path d="M295.944 75.6955C295.944 78.4604 294.717 80.7101 293.19 80.7101C291.663 80.7101 290.443 78.4604 290.443 75.6955C290.443 72.9307 291.671 70.681 293.19 70.681C294.71 70.681 295.944 72.9234 295.944 75.6955Z" stroke="#263238" stroke-width="0.730527" stroke-linecap="round" stroke-linejoin="round"/>
<path d="M330.995 96.8784C333.647 98.1339 335.378 100.325 335.378 102.815C335.378 106.712 331.068 109.876 325.743 109.876C320.417 109.876 316.114 106.712 316.114 102.815C316.114 98.9176 320.424 95.7463 325.743 95.7463C326.591 95.7458 327.438 95.8284 328.27 95.9931" stroke="#263238" stroke-width="0.730527" stroke-linecap="round" stroke-linejoin="round"/>
<path d="M329.804 102.815C329.804 104.447 328 105.775 325.764 105.775C323.529 105.775 321.725 104.447 321.725 102.815C321.725 101.182 323.536 99.8466 325.764 99.8466C327.993 99.8466 329.804 101.175 329.804 102.815Z" stroke="#263238" stroke-width="0.730527" stroke-linecap="round" stroke-linejoin="round"/>
<path d="M336.32 84.8102C336.32 87.0744 334.063 88.9104 331.272 88.9104C328.481 88.9104 326.224 87.0744 326.224 84.8102C326.224 82.5461 328.481 80.7101 331.272 80.7101C334.063 80.7101 336.32 82.5461 336.32 84.8102Z" stroke="#263238" stroke-width="0.730527" stroke-linecap="round" stroke-linejoin="round"/>
<path d="M299.845 62.0237C301.745 62.0237 303.286 58.2484 303.286 53.5912C303.286 48.9341 301.745 45.1587 299.845 45.1587C297.945 45.1587 296.404 48.9341 296.404 53.5912C296.404 58.2484 297.945 62.0237 299.845 62.0237Z" stroke="#263238" stroke-width="0.730527" stroke-linecap="round" stroke-linejoin="round"/>
<path d="M309.254 126.058C309.254 127.006 308.972 127.932 308.442 128.719C307.912 129.507 307.159 130.121 306.278 130.483C305.397 130.846 304.427 130.941 303.492 130.756C302.557 130.571 301.698 130.115 301.024 129.445C300.349 128.775 299.89 127.922 299.704 126.993C299.518 126.064 299.613 125.101 299.978 124.226C300.343 123.35 300.961 122.602 301.754 122.076C302.547 121.55 303.479 121.269 304.433 121.269C305.712 121.269 306.938 121.774 307.842 122.672C308.746 123.57 309.254 124.788 309.254 126.058Z" stroke="#263238" stroke-width="0.730527" stroke-linecap="round" stroke-linejoin="round"/>
<path d="M331.733 54.9553C331.734 55.543 331.56 56.1178 331.233 56.607C330.905 57.0962 330.438 57.4778 329.892 57.7033C329.346 57.9289 328.744 57.9883 328.164 57.874C327.584 57.7597 327.051 57.4769 326.632 57.0613C326.214 56.6458 325.929 56.1163 325.814 55.5398C325.699 54.9634 325.759 54.366 325.986 53.8234C326.213 53.2808 326.597 52.8173 327.09 52.4917C327.582 52.1661 328.161 51.9931 328.752 51.9945C329.542 51.9964 330.299 52.309 330.858 52.8638C331.416 53.4187 331.731 54.1707 331.733 54.9553Z" stroke="#263238" stroke-width="0.730527" stroke-linecap="round" stroke-linejoin="round"/>
<path d="M312.921 75.9206C312.923 76.2366 312.83 76.546 312.654 76.8095C312.478 77.073 312.228 77.2788 311.934 77.4007C311.641 77.5227 311.317 77.5553 311.005 77.4945C310.693 77.4338 310.406 77.2823 310.18 77.0593C309.955 76.8363 309.801 76.5519 309.738 76.242C309.676 75.9321 309.707 75.6107 309.829 75.3186C309.95 75.0264 310.156 74.7766 310.421 74.6009C310.685 74.4251 310.996 74.3313 311.314 74.3313C311.525 74.3304 311.734 74.3708 311.929 74.4502C312.124 74.5296 312.301 74.6466 312.45 74.7942C312.599 74.9419 312.718 75.1174 312.799 75.3107C312.88 75.504 312.921 75.7113 312.921 75.9206Z" stroke="#263238" stroke-width="0.730527" stroke-linecap="round" stroke-linejoin="round"/>
<path d="M343.955 40.1439H274.869V135.412H343.955V40.1439Z" stroke="#263238" stroke-width="0.730527" stroke-linecap="round" stroke-linejoin="round"/>
<path d="M231.044 175.993H212.277V183.011H231.044V175.993Z" fill="#263238" stroke="#263238" stroke-width="0.730527" stroke-linecap="round" stroke-linejoin="round"/>
<path d="M256.226 177.053H181.529L185.065 119.534H259.769L256.226 177.053Z" fill="#919191" stroke="#263238" stroke-width="0.730527" stroke-linecap="round" stroke-linejoin="round"/>
<path d="M254.086 177.053H179.389L182.925 119.534H257.621L254.086 177.053Z" fill="#263238" stroke="#263238" stroke-width="0.730527" stroke-linecap="round" stroke-linejoin="round"/>
<path d="M250.133 173.852H183.735L186.877 122.727H253.274L250.133 173.852Z" fill="white" stroke="#263238" stroke-width="0.730527" stroke-linecap="round" stroke-linejoin="round"/>
<path d="M230.818 166.233H185.715L188.133 126.835H233.243L230.818 166.233Z" fill="#919191" stroke="#263238" stroke-width="0.730527" stroke-linecap="round" stroke-linejoin="round"/>
<path d="M203.511 149.309C203.511 149.309 194.117 153.003 194.058 153.997C194 154.992 192.159 166.233 192.159 166.233H220.094L217.742 153.286L207.405 149.019L203.511 149.309Z" fill="white" stroke="#263238" stroke-width="0.730527" stroke-linecap="round" stroke-linejoin="round"/>
<path d="M203.789 147.031C203.082 147.216 202.426 147.556 201.868 148.025C201.137 148.751 200.246 151.153 200.246 151.153L200.209 153.997L203.913 152.009L207.675 151.762L211.197 155.035L211.65 150.057C211.65 150.057 211.109 147.212 209.969 147.067C208.83 146.922 203.789 147.031 203.789 147.031Z" fill="white" stroke="#263238" stroke-width="0.730527" stroke-linecap="round" stroke-linejoin="round"/>
<path d="M203.671 144.331L203.511 149.309L205.724 152.865L209.384 149.164L209.954 144.614L203.671 144.331Z" fill="white" stroke="#263238" stroke-width="0.730527" stroke-linecap="round" stroke-linejoin="round"/>
<path d="M212.701 138.511C212.438 142.684 209.647 147.742 206.586 147.742C203.525 147.742 201.356 142.662 201.611 138.511C201.867 134.36 204.533 130.957 207.616 130.957C210.699 130.957 212.956 134.346 212.701 138.511Z" fill="white" stroke="#263238" stroke-width="0.730527" stroke-linecap="round" stroke-linejoin="round"/>
<path d="M201.56 139.063C201.56 139.063 200.574 136.508 200.165 138.497C199.756 140.485 201.772 142.619 201.772 142.619L201.56 139.063Z" fill="white" stroke="#263238" stroke-width="0.730527" stroke-linecap="round" stroke-linejoin="round"/>
<path d="M212.701 138.511C212.701 138.511 215.119 137.503 214.41 139.636C214.23 140.24 213.916 140.796 213.492 141.263C213.067 141.73 212.542 142.097 211.956 142.336L212.701 138.511Z" fill="white" stroke="#263238" stroke-width="0.730527" stroke-linecap="round" stroke-linejoin="round"/>
<path d="M206.287 139.063C206.306 138.806 206.271 138.549 206.185 138.307C206.099 138.065 205.963 137.843 205.785 137.656C205.608 137.469 205.393 137.321 205.155 137.221C204.917 137.12 204.661 137.071 204.402 137.074C203.864 137.088 203.349 137.299 202.957 137.666C202.565 138.032 202.323 138.53 202.276 139.063C202.257 139.319 202.292 139.577 202.378 139.819C202.464 140.062 202.6 140.284 202.777 140.472C202.954 140.659 203.169 140.808 203.407 140.909C203.645 141.01 203.902 141.061 204.161 141.058C204.7 141.044 205.216 140.833 205.608 140.464C206 140.096 206.242 139.597 206.287 139.063Z" fill="white" stroke="#263238" stroke-width="0.730527" stroke-linecap="round" stroke-linejoin="round"/>
<path d="M211.152 139.063L213.336 138.497" stroke="#263238" stroke-width="0.730527" stroke-linecap="round" stroke-linejoin="round"/>
<path d="M211.152 139.063C211.171 138.807 211.137 138.55 211.051 138.309C210.965 138.067 210.83 137.846 210.653 137.659C210.477 137.472 210.263 137.323 210.026 137.223C209.788 137.122 209.533 137.072 209.275 137.074C208.735 137.087 208.219 137.296 207.825 137.663C207.432 138.03 207.188 138.528 207.141 139.063C207.122 139.319 207.157 139.577 207.243 139.82C207.329 140.062 207.465 140.284 207.643 140.472C207.82 140.659 208.034 140.808 208.272 140.909C208.511 141.01 208.767 141.061 209.026 141.058C209.566 141.044 210.081 140.833 210.473 140.464C210.866 140.096 211.107 139.597 211.152 139.063Z" fill="white" stroke="#263238" stroke-width="0.730527" stroke-linecap="round" stroke-linejoin="round"/>
<path d="M207.12 130.101C207.12 130.101 204.928 128.968 203.285 129.68C201.641 130.391 200.428 134.23 200.509 135.224C200.766 136.527 201.118 137.81 201.561 139.063L203.299 134.085L207.858 132.096L207.12 130.101Z" fill="#263238" stroke="#263238" stroke-width="0.730527" stroke-linecap="round" stroke-linejoin="round"/>
<path d="M204.913 131.102C204.913 131.102 208.522 128.257 211.444 129.651C212.339 130.037 213.078 130.708 213.545 131.558C214.012 132.409 214.18 133.39 214.023 134.346C213.979 135.071 213.921 138.323 213.921 138.323L212.182 138.613L211.327 135.935C210.34 135.547 209.378 135.096 208.449 134.585C208.449 134.585 204.585 134.085 204.913 131.102Z" fill="#263238" stroke="#263238" stroke-width="0.730527" stroke-linecap="round" stroke-linejoin="round"/>
<path d="M206.286 139.063L206.031 143.192H207.032" fill="white"/>
<path d="M206.286 139.063L206.031 143.192H207.032" stroke="#263238" stroke-width="0.730527" stroke-linecap="round" stroke-linejoin="round"/>
<path d="M205.505 144.752H207.653" stroke="#263238" stroke-width="0.730527" stroke-linecap="round" stroke-linejoin="round"/>
<path d="M205.724 152.865L204.928 165.805" stroke="#263238" stroke-width="0.730527" stroke-linecap="round" stroke-linejoin="round"/>
<path d="M217.727 153.286C217.727 153.286 214.739 159.977 214.652 161.399C214.564 162.822 214.228 165.95 214.228 165.95" stroke="#263238" stroke-width="0.730527" stroke-linecap="round" stroke-linejoin="round"/>
<path d="M194.058 153.997C194.058 153.997 197.031 159.121 197.419 159.803C197.806 160.485 197.331 165.921 197.331 165.921" stroke="#263238" stroke-width="0.730527" stroke-linecap="round" stroke-linejoin="round"/>
<path d="M219.721 158.127L220.707 153.714L222.388 152.009L223.973 149.447H224.689L223.812 152.154L226.033 150.87L227.465 148.598L228.298 149.019L226.252 154.288L223.009 155.848L222.446 157.981L219.721 158.127Z" fill="white" stroke="#263238" stroke-width="0.730527" stroke-linecap="round" stroke-linejoin="round"/>
<path d="M222.497 166.233L222.767 157.415L219.509 156.842L216.938 166.233H222.497Z" fill="white" stroke="#263238" stroke-width="0.730527" stroke-linecap="round" stroke-linejoin="round"/>
<path d="M230.621 169.505H185.511L185.715 166.232H230.818L230.621 169.505Z" fill="white" stroke="#263238" stroke-width="0.730527" stroke-linecap="round" stroke-linejoin="round"/>
<path d="M187.352 167.517H228.736" stroke="#263238" stroke-width="0.730527" stroke-linecap="round" stroke-linejoin="round"/>
<path d="M250.206 137.35H235.026L235.669 126.965H250.849L250.206 137.35Z" fill="#0D6EFD" stroke="#263238" stroke-width="0.730527" stroke-linecap="round" stroke-linejoin="round"/>
<path d="M250.206 137.35H235.026L235.135 135.645H250.316L250.206 137.35Z" fill="white" stroke="#263238" stroke-width="0.730527" stroke-linecap="round" stroke-linejoin="round"/>
<path d="M245.304 131.552L241.36 129.208L241.075 133.896L245.304 131.552Z" fill="white" stroke="#263238" stroke-width="0.730527" stroke-linecap="round" stroke-linejoin="round"/>
<path d="M249.22 153.424H234.04L234.675 143.047H249.855L249.22 153.424Z" fill="#0D6EFD" stroke="#263238" stroke-width="0.730527" stroke-linecap="round" stroke-linejoin="round"/>
<path d="M249.22 153.424H234.04L234.149 151.719H249.322L249.22 153.424Z" fill="white" stroke="#263238" stroke-width="0.730527" stroke-linecap="round" stroke-linejoin="round"/>
<path d="M244.318 147.633L240.373 145.289L240.088 149.977L244.318 147.633Z" fill="white" stroke="#263238" stroke-width="0.730527" stroke-linecap="round" stroke-linejoin="round"/>
<path d="M248.227 169.505H233.054L233.689 159.121H248.87L248.227 169.505Z" fill="#0D6EFD" stroke="#263238" stroke-width="0.730527" stroke-linecap="round" stroke-linejoin="round"/>
<path d="M248.227 169.505H233.054L233.156 167.8H248.336L248.227 169.505Z" fill="white" stroke="#263238" stroke-width="0.730527" stroke-linecap="round" stroke-linejoin="round"/>
<path d="M243.324 163.707L239.387 161.363L239.095 166.051L243.324 163.707Z" fill="white" stroke="#263238" stroke-width="0.730527" stroke-linecap="round" stroke-linejoin="round"/>
<path d="M235.07 139.063H249.812" stroke="#263238" stroke-width="0.730527" stroke-linecap="round" stroke-linejoin="round"/>
<path d="M234.96 140.775H249.709" stroke="#263238" stroke-width="0.730527" stroke-linecap="round" stroke-linejoin="round"/>
<path d="M234.068 155.282H248.818" stroke="#263238" stroke-width="0.730527" stroke-linecap="round" stroke-linejoin="round"/>
<path d="M233.967 156.987H248.716" stroke="#263238" stroke-width="0.730527" stroke-linecap="round" stroke-linejoin="round"/>
<path d="M227.53 183.011H216.441C216.441 181.912 216.88 180.858 217.663 180.08C218.445 179.303 219.506 178.867 220.612 178.867H223.344C224.451 178.867 225.512 179.303 226.294 180.08C227.076 180.858 227.516 181.912 227.516 183.011H227.53Z" fill="white" stroke="#263238" stroke-width="0.730527" stroke-linecap="round" stroke-linejoin="round"/>
<path d="M211.16 180.754H156.94V183.011H211.16V180.754Z" fill="#919191" stroke="#263238" stroke-width="0.730527" stroke-linecap="round" stroke-linejoin="round"/>
<path d="M211.145 180.754H197.521V183.011H211.145V180.754Z" fill="white" stroke="#263238" stroke-width="0.730527" stroke-linecap="round" stroke-linejoin="round"/>
<path d="M134.717 72.3935V29.5125" stroke="#263238" stroke-width="0.730527" stroke-linecap="round" stroke-linejoin="round"/>
<path d="M134.717 287.002V76.6605" stroke="#263238" stroke-width="0.730527" stroke-linecap="round" stroke-linejoin="round"/>
<path d="M233.294 198.061L239.869 286.109C239.903 286.431 240.059 286.727 240.305 286.938C240.552 287.149 240.87 287.259 241.195 287.245C241.52 287.231 241.827 287.094 242.055 286.863C242.282 286.632 242.412 286.323 242.418 286L241.432 198.061H233.294Z" fill="#919191" stroke="#263238" stroke-width="0.730527" stroke-linecap="round" stroke-linejoin="round"/>
<path d="M238.254 198.061L241.724 287.125C241.929 287.017 242.1 286.854 242.219 286.656C242.337 286.458 242.399 286.231 242.396 286L241.432 198.061H238.254Z" fill="white" stroke="#263238" stroke-width="0.730527" stroke-linecap="round" stroke-linejoin="round"/>
<path d="M274.62 198.061L281.195 286.109C281.229 286.431 281.385 286.727 281.632 286.938C281.878 287.149 282.196 287.259 282.521 287.245C282.846 287.231 283.154 287.094 283.381 286.863C283.608 286.632 283.738 286.323 283.744 286L282.758 198.061H274.62Z" fill="#919191" stroke="#263238" stroke-width="0.730527" stroke-linecap="round" stroke-linejoin="round"/>
<path d="M279.193 198.061L283.24 286.995C283.392 286.877 283.515 286.726 283.598 286.553C283.682 286.381 283.724 286.192 283.723 286L282.758 198.061H279.193Z" fill="white" stroke="#263238" stroke-width="0.730527" stroke-linecap="round" stroke-linejoin="round"/>
<path d="M165.684 199.019L159.109 286.102C159.087 286.421 158.943 286.721 158.707 286.939C158.471 287.157 158.16 287.278 157.838 287.277C157.669 287.28 157.501 287.25 157.344 287.188C157.187 287.126 157.043 287.033 156.922 286.916C156.801 286.798 156.705 286.658 156.639 286.504C156.573 286.349 156.539 286.183 156.538 286.015L157.509 198.787L165.684 199.019Z" fill="#263238" stroke="#263238" stroke-width="0.730527" stroke-linecap="round" stroke-linejoin="round"/>
<path d="M124.394 199.019L117.82 286.102C117.797 286.421 117.654 286.721 117.418 286.939C117.182 287.157 116.871 287.278 116.549 287.277C116.38 287.277 116.213 287.243 116.058 287.177C115.903 287.112 115.762 287.017 115.644 286.898C115.526 286.778 115.433 286.637 115.37 286.482C115.307 286.327 115.275 286.16 115.277 285.993L116.249 198.765L124.394 199.019Z" fill="#263238" stroke="#263238" stroke-width="0.730527" stroke-linecap="round" stroke-linejoin="round"/>
<path d="M285.176 185.057H113.772V198.773H285.176V185.057Z" fill="#919191" stroke="#263238" stroke-width="0.730527" stroke-linecap="round" stroke-linejoin="round"/>
<path d="M285.176 185.057H236.056V198.773H285.176V185.057Z" fill="white" stroke="#263238" stroke-width="0.730527" stroke-linecap="round" stroke-linejoin="round"/>
<path d="M285.176 187.234H113.772V191.015H285.176V187.234Z" fill="#263238" stroke="#263238" stroke-width="0.730527" stroke-linecap="round" stroke-linejoin="round"/>
<path d="M287.645 183.09H111.303V187.677H287.645V183.09Z" fill="#919191" stroke="#263238" stroke-width="0.730527" stroke-linecap="round" stroke-linejoin="round"/>
<path d="M287.638 183.09H239.211V187.677H287.638V183.09Z" fill="white" stroke="#263238" stroke-width="0.730527" stroke-linecap="round" stroke-linejoin="round"/>
<path d="M235.647 98.0613H211.846C210.606 98.0613 209.417 98.5506 208.54 99.4216C207.663 100.293 207.171 101.474 207.171 102.706V111.414C207.17 112.024 207.29 112.629 207.525 113.192C207.759 113.756 208.104 114.269 208.538 114.7C208.972 115.132 209.488 115.474 210.056 115.707C210.624 115.94 211.232 116.059 211.846 116.058H224.309L219.641 129.012L228.583 116.058H235.647C236.261 116.059 236.87 115.94 237.437 115.707C238.005 115.474 238.521 115.132 238.955 114.7C239.389 114.269 239.734 113.756 239.968 113.192C240.203 112.629 240.323 112.024 240.322 111.414V102.706C240.322 101.474 239.83 100.293 238.953 99.4216C238.076 98.5506 236.887 98.0613 235.647 98.0613Z" fill="white" stroke="#263238" stroke-width="0.730527" stroke-linecap="round" stroke-linejoin="round"/>
<path d="M217.369 109.041C218.309 109.041 219.071 108.284 219.071 107.35C219.071 106.416 218.309 105.659 217.369 105.659C216.429 105.659 215.667 106.416 215.667 107.35C215.667 108.284 216.429 109.041 217.369 109.041Z" fill="#263238"/>
<path d="M223.746 109.041C224.686 109.041 225.448 108.284 225.448 107.35C225.448 106.416 224.686 105.659 223.746 105.659C222.806 105.659 222.044 106.416 222.044 107.35C222.044 108.284 222.806 109.041 223.746 109.041Z" fill="#263238"/>
<path d="M231.819 107.35C231.819 107.015 231.719 106.688 231.532 106.41C231.345 106.132 231.078 105.915 230.767 105.787C230.455 105.659 230.113 105.626 229.782 105.692C229.452 105.758 229.149 105.92 228.911 106.157C228.673 106.394 228.512 106.696 228.447 107.025C228.382 107.353 228.417 107.693 228.547 108.002C228.677 108.311 228.896 108.575 229.177 108.759C229.458 108.944 229.788 109.042 230.124 109.041C230.348 109.041 230.569 108.997 230.775 108.912C230.981 108.827 231.168 108.702 231.325 108.545C231.483 108.388 231.608 108.202 231.692 107.997C231.777 107.791 231.82 107.572 231.819 107.35Z" fill="#263238"/>
<path d="M348.667 287.466H368.391" stroke="#263238" stroke-width="0.730527" stroke-linecap="round" stroke-linejoin="round"/>
<path d="M37.4614 287.466H338.439" stroke="#263238" stroke-width="0.730527" stroke-linecap="round" stroke-linejoin="round"/>
<path d="M153.353 159.222C151.212 155.594 144.915 141.624 144.915 141.624C145.105 140.132 145.413 138.657 145.836 137.212C146.354 135.761 147.662 131.363 147.399 130.449C147.136 129.534 143.345 127.851 142.957 127.72C142.57 127.59 143.476 125.384 142.037 124.861C140.598 124.339 140.079 125.122 140.079 125.122L139.531 128.751L137.851 131.363C137.151 130.835 136.419 130.35 135.659 129.912C134.483 129.259 131.736 128.997 131.605 130.042C131.473 131.087 133.797 131.987 134.607 132.64C135.418 133.294 136.441 136.407 137.362 137.321C138.198 138.228 138.983 139.18 139.714 140.173L140.24 141.864C140.24 141.864 142.03 158.983 142.241 163.243C142.453 167.503 143.096 178.772 144.382 180.471C145.668 182.169 145.887 183.243 149.496 181.966C153.104 180.688 153.776 178.983 154.609 175.151C155.442 171.32 155.493 162.836 153.353 159.222Z" fill="white" stroke="#263238" stroke-width="0.730527" stroke-linecap="round" stroke-linejoin="round"/>
<path d="M154.638 175.173C155.493 171.349 155.493 162.836 153.353 159.208C153.119 158.809 152.834 158.294 152.513 157.684C147.669 156.283 143.067 158.569 143.067 158.569L141.898 159.077C142.051 160.855 142.168 162.343 142.212 163.25C142.431 167.503 143.067 178.78 144.353 180.478C145.638 182.176 145.857 183.25 149.466 181.973C153.075 180.696 153.776 179.005 154.638 175.173Z" fill="#0D6EFD" stroke="#263238" stroke-width="0.730527" stroke-linecap="round" stroke-linejoin="round"/>
<path d="M137.735 101.69C138.262 103.615 138.556 105.595 138.611 107.59C138.611 110.427 137.735 112.176 139.057 113.047C140.379 113.918 141.475 113.925 141.249 115.674C141.162 116.639 140.777 117.554 140.145 118.294C140.145 118.294 139.707 127.249 139.269 128.127C138.83 129.005 133.11 127.909 131.788 127.684C130.466 127.459 126.733 129.215 124.308 124.411C121.882 119.607 123.869 112.394 128.267 108.678C131.292 106.179 134.453 103.846 137.735 101.69Z" fill="white" stroke="#263238" stroke-width="0.730527" stroke-linecap="round" stroke-linejoin="round"/>
<path d="M138.611 107.553C138.611 107.553 137.421 106.668 136.792 108.221" stroke="#263238" stroke-width="0.730527" stroke-linecap="round" stroke-linejoin="round"/>
<path d="M137.544 111.167C137.373 112.047 137.428 112.956 137.705 113.809" stroke="#263238" stroke-width="0.730527" stroke-linecap="round" stroke-linejoin="round"/>
<path d="M139.736 121.429C139.541 121.491 139.334 121.511 139.131 121.489C138.927 121.467 138.73 121.403 138.553 121.3C138.376 121.197 138.222 121.059 138.103 120.893C137.983 120.728 137.9 120.539 137.858 120.34" stroke="#263238" stroke-width="0.730527" stroke-linecap="round" stroke-linejoin="round"/>
<path d="M142.227 162.503C142.227 162.503 141.496 165.826 140.846 167.582C140.196 169.339 128.537 172.561 123.46 173.228C120.115 173.643 116.749 173.864 113.378 173.889L113.7 183.076C113.7 183.076 123.533 183.272 124.227 183.076C124.921 182.88 141.475 175.529 141.475 175.529L148.619 174.6C148.619 174.6 151.622 173.874 151.738 171.559C151.855 169.244 149.203 162.662 147.998 161.639C146.793 160.616 144.251 157.902 142.724 159.571C141.197 161.24 142.227 162.503 142.227 162.503Z" fill="white" stroke="#263238" stroke-width="0.730527" stroke-linecap="round" stroke-linejoin="round"/>
<path d="M120.304 178.997C120.304 175.028 121.326 174.926 122.495 173.352C119.475 173.687 116.439 173.866 113.4 173.889L113.159 182.321C113.159 182.321 118.543 182.815 121.823 183.047C121.553 183.46 120.304 181.552 120.304 178.997Z" fill="#0D6EFD" stroke="#263238" stroke-width="0.730527" stroke-linecap="round" stroke-linejoin="round"/>
<path d="M152.053 196.849C148.163 192.507 143.218 189.227 137.69 187.321L124.862 192.757C123.866 190.327 122.544 188.042 120.932 185.964L118.536 183.061L120.077 174.738C120.077 174.738 129.311 168.453 130.502 165.732L130.546 165.645C132.401 168.497 140.452 180.841 141.964 182.038C143.673 183.402 148.802 183.569 151.022 181.53C153.243 179.491 154.273 178.134 153.762 175.079C153.762 175.079 150.343 167.771 148.458 164.542C146.574 161.312 142.475 149.767 140.423 146.196C138.961 143.642 138.355 141.842 137.318 140.638C136.598 139.405 135.748 138.252 134.783 137.198C132.73 135.021 127.083 134.476 125.885 133.968C124.687 133.461 124.519 133.286 117.681 131.254C110.843 129.222 103.144 128.025 97.672 132.27C97.672 132.27 90.3229 140.935 87.4447 155.202C84.5664 169.469 84.3618 183.91 84.0258 186.458C83.6898 189.005 80.775 201.407 79.9202 208.54C79.0655 215.674 86.5607 222.836 91.1777 225.057C95.7946 227.278 115.628 227.604 127.258 225.057C138.888 222.51 157.356 210.957 157.356 210.957C157.356 210.957 158.036 203.816 152.053 196.849Z" fill="#0D6EFD" stroke="#263238" stroke-width="0.730527" stroke-linecap="round" stroke-linejoin="round"/>
<path d="M121.816 165.464L119.471 165.384" stroke="#263238" stroke-width="0.730527" stroke-linecap="round" stroke-linejoin="round"/>
<path d="M120.932 161.755C124.217 162.855 127.416 164.193 130.502 165.761L124.482 165.558" stroke="#263238" stroke-width="0.730527" stroke-linecap="round" stroke-linejoin="round"/>
<path d="M152.703 166.044C153.378 167.097 153.793 168.292 153.915 169.535C153.915 171.138 154.186 173.286 153.514 172.619C152.842 171.951 152.564 169.665 152.564 169.665L152.703 166.044Z" fill="white" stroke="#263238" stroke-width="0.730527" stroke-linecap="round" stroke-linejoin="round"/>
<path d="M148.656 164.172C148.656 164.172 151.183 162.807 152.308 164.447C153.433 166.087 153.134 169.36 152.308 170.979C151.483 172.597 150.541 171.051 150.657 169.614C150.774 168.177 148.656 164.172 148.656 164.172Z" fill="white" stroke="#263238" stroke-width="0.730527" stroke-linecap="round" stroke-linejoin="round"/>
<path d="M147.706 162.43C147.706 162.43 150.241 161.066 151.359 162.706C152.476 164.346 152.177 167.611 151.359 169.237C150.541 170.863 149.591 169.31 149.708 167.873C149.825 166.436 147.706 162.43 147.706 162.43Z" fill="white" stroke="#263238" stroke-width="0.730527" stroke-linecap="round" stroke-linejoin="round"/>
<path d="M146.544 160.551C146.544 160.551 149.079 159.186 150.197 160.826C151.315 162.466 151.023 165.739 150.197 167.358C149.372 168.976 148.429 167.43 148.546 165.993C148.663 164.556 146.544 160.551 146.544 160.551Z" fill="white" stroke="#263238" stroke-width="0.730527" stroke-linecap="round" stroke-linejoin="round"/>
<path d="M140.13 94.8755C140.172 97.4835 139.495 100.053 138.172 102.307C134.432 107.989 130.918 107.328 129.406 111.922C127.894 116.516 125.636 121.283 128.047 123.939C130.458 126.595 132.43 125.028 132.43 125.028C132.43 125.028 133.972 128.961 130.012 132.894C126.053 136.828 119.237 135.296 117.476 134.643C116.368 134.219 115.331 133.629 114.401 132.894C114.401 132.894 113.298 135.957 107.826 135.957C102.354 135.957 96.1377 132.241 96.1377 125.463C96.1377 118.685 99.8707 114.106 100.755 111.479C101.639 108.852 99.2132 100.775 102.946 95.7536C106.679 90.7318 112.443 87.0453 116.826 87.0453C121.209 87.0453 129.764 89.4328 129.8 89.4473C130.378 89.7594 134.074 88.2644 135.075 88.3298C138.749 88.5329 140.086 91.53 140.13 94.8755Z" fill="#263238" stroke="#263238" stroke-width="0.730527" stroke-linecap="round" stroke-linejoin="round"/>
<path d="M125.855 125.957C126.653 126.063 127.461 126.063 128.259 125.957" stroke="#919191" stroke-width="0.730527" stroke-linecap="round" stroke-linejoin="round"/>
<path d="M136.96 98.6854C136.613 100.631 135.892 102.491 134.834 104.164C131.416 109.498 127.529 111.421 122.876 116.501C119.888 119.788 120.45 123.069 122.876 124.788" stroke="#919191" stroke-width="0.730527" stroke-linecap="round" stroke-linejoin="round"/>
<path d="M137.025 93.0178C137.168 93.818 137.239 94.6291 137.237 95.4416" stroke="#919191" stroke-width="0.730527" stroke-linecap="round" stroke-linejoin="round"/>
<path d="M132.431 98.1049C132.431 98.1049 131.7 105.616 128.53 109.977C125.359 114.339 119.033 116.508 119.259 121.124" stroke="#919191" stroke-width="0.730527" stroke-linecap="round" stroke-linejoin="round"/>
<path d="M161.871 223.831C161.871 223.831 166.429 247.096 170.33 258.402C174.231 269.709 178.132 280.05 179.097 281.022C180.061 281.995 182.676 285.543 182.676 285.543C181.467 286.502 179.99 287.067 178.446 287.161C176.167 287.161 173.245 284.259 170.637 282.633C168.029 281.008 167.715 280.05 162.506 278.112C157.298 276.175 161.535 271.008 162.835 268.417C163.587 267.019 164.03 265.478 164.135 263.896C162.068 256.619 158.403 249.888 153.404 244.186C145.288 235.144 143.659 214.172 143.659 214.172L159.27 208.366L161.871 223.831Z" fill="white" stroke="#263238" stroke-width="0.730527" stroke-linecap="round" stroke-linejoin="round"/>
<path d="M178.454 279.861L177.512 280.05C177.512 280.05 171.982 272.619 167.759 270.035C166.32 269.048 164.627 268.489 162.879 268.424C161.572 271.008 157.349 276.175 162.551 278.112C167.752 280.05 168.081 281.015 170.681 282.633C173.282 284.251 176.212 287.161 178.491 287.161C180.035 287.067 181.512 286.502 182.721 285.543C182.721 285.543 180.113 281.987 179.141 281.022C178.864 280.665 178.633 280.275 178.454 279.861Z" fill="#0D6EFD" stroke="#263238" stroke-width="0.730527" stroke-linecap="round" stroke-linejoin="round"/>
<path d="M175.831 286.24C173.26 284.477 170.937 280.558 166.751 278.112C162.945 275.892 160.987 275.805 160.176 275.971C160.375 276.49 160.694 276.954 161.108 277.326C161.522 277.698 162.019 277.968 162.558 278.112C167.766 280.05 168.088 281.015 170.689 282.633C172.332 283.678 174.144 285.289 175.831 286.24Z" fill="#0D6EFD" stroke="#263238" stroke-width="0.730527" stroke-linecap="round" stroke-linejoin="round"/>
<path d="M178.454 287.162C178.287 287.156 178.121 287.139 177.957 287.111C178.121 287.142 178.287 287.159 178.454 287.162Z" fill="#0D6EFD" stroke="#263238" stroke-width="0.730527" stroke-linecap="round" stroke-linejoin="round"/>
<path d="M132.884 188.773C132.884 188.773 148.517 183.272 149.978 186.9C151.439 190.529 158.131 204.063 155.691 209.622C153.251 215.18 136.098 193.656 133.658 193.192C131.218 192.728 132.599 190.398 132.884 188.773Z" fill="white" stroke="#263238" stroke-width="0.730527" stroke-linecap="round" stroke-linejoin="round"/>
<path d="M148.203 195.863C148.203 195.863 165.977 194.411 169.388 197.561C172.8 200.71 161.111 238.439 154.778 250.289C144.85 268.823 147.852 273.678 147.852 273.678C147.852 273.678 148.583 276.581 153.455 281.182C158.328 285.783 159.789 286.501 158.08 287.227C156.37 287.953 149.072 287.227 148.342 286.741C147.611 286.254 142.256 281.908 137.384 280.456C132.511 279.005 133.242 278.032 135.433 273.678C137.625 269.324 137.384 272.953 139.816 265.456C142.732 256.218 145.036 246.8 146.713 237.263C148.006 229.491 149.978 220.957 149.423 213.054L148.203 195.863Z" fill="white" stroke="#263238" stroke-width="0.730527" stroke-linecap="round" stroke-linejoin="round"/>
<path d="M161.221 207.677C159.359 203.216 156.158 199.435 152.053 196.849C144.28 191.922 137.69 187.321 137.69 187.321L124.862 192.757C124.862 192.757 127.989 198.025 111.917 200.688C99.5423 202.735 88.1826 199.767 82.0535 196.189C81.1988 200.405 80.3075 205.093 79.8619 208.526C79.0072 215.659 86.5316 222.793 91.1485 225.006C95.7655 227.22 132.964 231.799 142.979 225.405C161.221 213.816 161.221 207.677 161.221 207.677Z" fill="#263238" stroke="#263238" stroke-width="0.730527" stroke-linecap="round" stroke-linejoin="round"/>
<path d="M123.409 196.755C121.692 198.156 118.346 199.658 111.917 200.696C99.5423 202.742 88.1826 199.774 82.0535 196.196C81.8343 197.278 81.6152 198.373 81.396 199.498C85.5965 202.009 94.4213 206.262 104.371 205.05C116.242 203.606 121.517 200.384 123.409 196.755Z" fill="#0D6EFD" stroke="#263238" stroke-width="0.730527" stroke-linecap="round" stroke-linejoin="round"/>
<path d="M113.927 212.299C113.357 213.025 112.765 213.751 112.166 214.477" stroke="white" stroke-width="0.730527" stroke-linecap="round" stroke-linejoin="round"/>
<path d="M122.875 198.526C120.627 202.632 118.119 206.593 115.365 210.384" stroke="white" stroke-width="0.730527" stroke-linecap="round" stroke-linejoin="round"/>
<path d="M117.521 203.119C117.521 203.119 113.137 208.925 108.513 212.314" stroke="white" stroke-width="0.730527" stroke-linecap="round" stroke-linejoin="round"/>
<path d="M153.455 281.167C148.583 276.581 147.852 273.678 147.852 273.678C147.689 273.528 147.56 273.345 147.472 273.141C147.144 273.482 146.15 274.128 143.717 273.199C141.606 272.394 139.604 271.022 137.493 270.101C136.989 270.993 136.5 271.552 135.433 273.678C133.242 278.032 132.511 279.005 137.384 280.456C142.256 281.908 147.611 286.262 148.342 286.741C149.072 287.22 156.377 287.953 158.08 287.227C159.782 286.501 158.328 285.761 153.455 281.167Z" fill="#0D6EFD" stroke="#263238" stroke-width="0.730527" stroke-linecap="round" stroke-linejoin="round"/>
<path d="M157.941 210.137L166.225 205.057" stroke="#263238" stroke-width="0.730527" stroke-linecap="round" stroke-linejoin="round"/>
<path d="M58.9766 164.143C58.9766 164.143 85.3632 160.863 102.224 165.594L104.788 229.317H65.2226C65.2226 229.317 67.7721 195.086 58.9766 164.143Z" fill="#919191" stroke="#263238" stroke-width="0.730527" stroke-linecap="round" stroke-linejoin="round"/>
<path d="M102.224 165.594C85.3632 160.863 58.9766 164.143 58.9766 164.143C61.8003 174.456 63.6757 185.002 64.5797 195.652C79.3136 202.96 92.8083 212.509 104.576 223.954L102.224 165.594Z" fill="#757575" stroke="#263238" stroke-width="0.730527" stroke-linecap="round" stroke-linejoin="round"/>
<path d="M151.98 288.918C151.681 288.919 151.389 288.829 151.144 288.66C150.898 288.492 150.711 288.252 150.606 287.974C144.762 272.329 143.301 231.712 143.213 229.992C143.2 229.607 143.341 229.232 143.605 228.951C143.869 228.669 144.236 228.503 144.623 228.49C145.011 228.476 145.388 228.616 145.671 228.879C145.955 229.141 146.122 229.505 146.135 229.89C146.135 230.311 147.655 271.755 153.346 286.958C153.48 287.319 153.465 287.719 153.303 288.068C153.142 288.418 152.847 288.69 152.484 288.823C152.323 288.887 152.152 288.919 151.98 288.918Z" fill="white" stroke="#263238" stroke-width="0.730527" stroke-linecap="round" stroke-linejoin="round"/>
<path d="M120.165 288.918C119.867 288.917 119.577 288.827 119.333 288.658C119.089 288.49 118.903 288.251 118.799 287.974C112.954 272.329 111.493 231.712 111.398 229.992C111.385 229.607 111.526 229.232 111.79 228.951C112.055 228.669 112.421 228.503 112.808 228.49C113.196 228.476 113.573 228.616 113.856 228.879C114.14 229.141 114.307 229.505 114.32 229.89C114.32 230.311 115.84 271.755 121.538 286.958C121.673 287.319 121.657 287.719 121.496 288.068C121.334 288.418 121.039 288.69 120.676 288.823C120.513 288.887 120.34 288.919 120.165 288.918Z" fill="white" stroke="#263238" stroke-width="0.730527" stroke-linecap="round" stroke-linejoin="round"/>
<path d="M151.585 229.288H64.5283V226.385H148.678C149.453 226.385 150.196 226.691 150.744 227.235C151.292 227.779 151.6 228.518 151.6 229.288H151.585Z" fill="#919191" stroke="#263238" stroke-width="0.730527" stroke-linecap="round" stroke-linejoin="round"/>
<path d="M151.578 228.584H64.5283V231.465H151.578V228.584Z" fill="white" stroke="#263238" stroke-width="0.730527" stroke-linecap="round" stroke-linejoin="round"/>
<path d="M101.573 288.918C101.353 288.922 101.135 288.878 100.935 288.787C100.735 288.696 100.558 288.562 100.418 288.394C100.277 288.225 100.177 288.028 100.124 287.816C100.071 287.604 100.067 287.383 100.112 287.169C108.374 248.286 100.843 166.523 100.74 165.703C100.723 165.512 100.743 165.32 100.8 165.137C100.857 164.954 100.95 164.785 101.073 164.637C101.196 164.49 101.347 164.368 101.517 164.279C101.688 164.19 101.874 164.135 102.066 164.117C102.454 164.082 102.84 164.2 103.139 164.447C103.438 164.694 103.627 165.049 103.663 165.434C103.743 166.262 111.333 248.453 102.983 287.764C102.915 288.087 102.738 288.377 102.482 288.587C102.226 288.796 101.905 288.913 101.573 288.918Z" fill="white" stroke="#263238" stroke-width="0.730527" stroke-linecap="round" stroke-linejoin="round"/>
<path d="M56.2803 287.858C56.1441 287.86 56.0086 287.84 55.8785 287.8C55.5071 287.695 55.1926 287.449 55.0037 287.114C54.8148 286.78 54.7669 286.384 54.8704 286.015C73.8641 219.034 57.7414 165.101 57.5806 164.564C57.4886 164.202 57.5399 163.82 57.7239 163.495C57.9079 163.171 58.2105 162.929 58.5691 162.819C58.9277 162.71 59.3148 162.742 59.6503 162.909C59.9858 163.076 60.2439 163.364 60.3713 163.714C60.5393 164.259 76.9396 218.961 57.6829 286.799C57.5971 287.103 57.4136 287.371 57.1605 287.562C56.9073 287.753 56.5983 287.857 56.2803 287.858Z" fill="white" stroke="#263238" stroke-width="0.730527" stroke-linecap="round" stroke-linejoin="round"/>
<path d="M323.376 168.199C323.376 168.199 314.398 163.243 313.733 174.476C313.068 185.71 311.41 258.722 311.41 258.722" stroke="#263238" stroke-width="1.46105" stroke-linecap="round" stroke-linejoin="round"/>
<path d="M309.072 175.463C309.072 175.463 316.377 191.654 313.068 257.735" stroke="#263238" stroke-width="1.46105" stroke-linecap="round" stroke-linejoin="round"/>
<path d="M316.268 170.463C316.268 170.463 312.827 172.64 310.877 170.144C308.926 167.648 312.199 163.061 309.313 161.102C306.428 159.143 301.438 162.132 301.438 162.132C301.438 162.132 305.274 163.25 305.149 165.333C305.025 167.415 303.177 168.199 302.958 167.292C302.739 166.385 300.876 161.799 297.764 163.707C296.864 164.234 296.082 164.936 295.464 165.772C294.846 166.608 294.406 167.559 294.17 168.569C294.17 168.569 301.424 167.8 301.862 170.507C302.3 173.214 298.889 170.035 295.894 169.861C292.898 169.687 290.166 170.122 290.364 171.922C290.43 173.514 290.335 175.109 290.079 176.683C291.719 175.33 293.791 174.604 295.923 174.636C299.218 174.832 299.093 176.915 296.098 176.741C293.103 176.566 290.532 179.397 290.532 179.397C290.532 179.397 293.264 184.034 296.734 186.327C300.204 188.62 301.453 187.778 301.847 186.029C302.242 184.28 301.321 179.73 303.418 179.854C305.515 179.977 299.948 187.706 302.622 188.163C305.296 188.62 307.451 187.851 308.152 186.102L308.882 184.353C308.882 184.353 307.947 179.818 308.356 178.054C308.766 176.291 309.255 178.105 309.73 180.231C310.205 182.357 310.504 187.437 311.417 187.191C312.33 186.944 315.26 183.243 315.947 181.784C316.633 180.325 312.089 175.892 312.141 174.999C312.192 174.106 315.698 175.804 316.246 176.733C316.644 177.439 317.003 178.166 317.32 178.91C317.32 178.91 319.512 177.546 319.453 173.366C319.395 169.186 316.268 170.463 316.268 170.463Z" fill="#0D6EFD"/>
<path opacity="0.3" d="M316.268 170.463C316.268 170.463 312.827 172.64 310.877 170.144C308.926 167.648 312.199 163.061 309.313 161.102C306.428 159.143 301.438 162.132 301.438 162.132C301.438 162.132 305.274 163.25 305.149 165.333C305.025 167.415 303.177 168.199 302.958 167.292C302.739 166.385 300.876 161.799 297.764 163.707C296.864 164.234 296.082 164.936 295.464 165.772C294.846 166.608 294.406 167.559 294.17 168.569C294.17 168.569 301.424 167.8 301.862 170.507C302.3 173.214 298.889 170.035 295.894 169.861C292.898 169.687 290.166 170.122 290.364 171.922C290.43 173.514 290.335 175.109 290.079 176.683C291.719 175.33 293.791 174.604 295.923 174.636C299.218 174.832 299.093 176.915 296.098 176.741C293.103 176.566 290.532 179.397 290.532 179.397C290.532 179.397 293.264 184.034 296.734 186.327C300.204 188.62 301.453 187.778 301.847 186.029C302.242 184.28 301.321 179.73 303.418 179.854C305.515 179.977 299.948 187.706 302.622 188.163C305.296 188.62 307.451 187.851 308.152 186.102L308.882 184.353C308.882 184.353 307.947 179.818 308.356 178.054C308.766 176.291 309.255 178.105 309.73 180.231C310.205 182.357 310.504 187.437 311.417 187.191C312.33 186.944 315.26 183.243 315.947 181.784C316.633 180.325 312.089 175.892 312.141 174.999C312.192 174.106 315.698 175.804 316.246 176.733C316.644 177.439 317.003 178.166 317.32 178.91C317.32 178.91 319.512 177.546 319.453 173.366C319.395 169.186 316.268 170.463 316.268 170.463Z" fill="#263238"/>
<path d="M298.852 180.267C301.095 177.517 304.389 173.794 307.158 172.016" stroke="#263238" stroke-width="0.730527" stroke-linecap="round" stroke-linejoin="round"/>
<path d="M296.258 183.613C296.258 183.613 296.828 182.822 297.763 181.632" stroke="#263238" stroke-width="0.730527" stroke-linecap="round" stroke-linejoin="round"/>
<path d="M308.619 172.698C308.619 172.698 311.95 177.372 312.564 182.183" stroke="#263238" stroke-width="0.730527" stroke-linecap="round" stroke-linejoin="round"/>
<path d="M304.835 175.463C304.835 175.463 305.77 174.919 305.419 180.87" stroke="#263238" stroke-width="0.730527" stroke-linecap="round" stroke-linejoin="round"/>
<path d="M307.282 169.905C307.282 169.905 309.189 168.228 308.181 164.883" stroke="#263238" stroke-width="0.730527" stroke-linecap="round" stroke-linejoin="round"/>
<path d="M304.711 172.771L303.352 170.304" stroke="#263238" stroke-width="0.730527" stroke-linecap="round" stroke-linejoin="round"/>
<path d="M301.854 175.289C301.854 175.289 297.544 172.053 294.849 171.893" stroke="#263238" stroke-width="0.730527" stroke-linecap="round" stroke-linejoin="round"/>
<path d="M328.511 161.646C328.511 161.646 328.372 166.552 324.515 166.791C320.658 167.031 318.277 160.645 314.332 162.183C310.387 163.722 310.007 170.717 310.007 170.717C310.007 170.717 313.747 167.662 315.763 169.201C317.78 170.739 317.312 173.119 316.224 172.742C315.135 172.365 309.276 171.066 309.072 175.463C308.99 176.717 309.165 177.974 309.585 179.159C310.006 180.344 310.664 181.432 311.519 182.357C311.519 182.357 315.69 174.614 318.729 176.022C321.768 177.43 316.224 178.664 314.003 181.523C311.782 184.382 310.35 187.394 312.315 188.431C313.966 189.446 315.508 190.626 316.918 191.951C316.918 191.951 316.392 187.902 318.832 184.759C321.272 181.617 323.281 183.156 321.067 186.015C318.854 188.874 319.949 193.366 319.949 193.366C319.949 193.366 326.48 193.809 331.156 191.915C335.831 190.021 335.86 188.221 334.355 186.617C332.851 185.013 327.649 182.851 329.198 180.812C330.747 178.772 334.75 189.614 337.036 187.263C339.323 184.912 340.01 182.248 338.724 180.354L337.438 178.468C337.438 178.468 332.237 176.291 330.732 174.694C329.227 173.098 331.397 173.838 333.859 174.81C336.321 175.783 341.646 178.954 342.026 177.873C342.406 176.791 340.66 171.341 339.666 169.687C338.673 168.032 331.09 169.505 330.228 168.845C329.366 168.185 333.464 165.855 334.772 165.942C335.752 166.023 336.728 166.156 337.694 166.341C337.694 166.341 337.811 163.235 333.559 160.441C329.307 157.648 328.511 161.646 328.511 161.646Z" fill="#0D6EFD"/>
<path opacity="0.2" d="M328.511 161.646C328.511 161.646 328.372 166.552 324.515 166.791C320.658 167.031 318.277 160.645 314.332 162.183C310.387 163.722 310.007 170.717 310.007 170.717C310.007 170.717 313.747 167.662 315.763 169.201C317.78 170.739 317.312 173.119 316.224 172.742C315.135 172.365 309.276 171.066 309.072 175.463C308.99 176.717 309.165 177.974 309.585 179.159C310.006 180.344 310.664 181.432 311.519 182.357C311.519 182.357 315.69 174.614 318.729 176.022C321.768 177.43 316.224 178.664 314.003 181.523C311.782 184.382 310.35 187.394 312.315 188.431C313.966 189.446 315.508 190.626 316.918 191.951C316.918 191.951 316.392 187.902 318.832 184.759C321.272 181.617 323.281 183.156 321.067 186.015C318.854 188.874 319.949 193.366 319.949 193.366C319.949 193.366 326.48 193.809 331.156 191.915C335.831 190.021 335.86 188.221 334.355 186.617C332.851 185.013 327.649 182.851 329.198 180.812C330.747 178.772 334.75 189.614 337.036 187.263C339.323 184.912 340.01 182.248 338.724 180.354L337.438 178.468C337.438 178.468 332.237 176.291 330.732 174.694C329.227 173.098 331.397 173.838 333.859 174.81C336.321 175.783 341.646 178.954 342.026 177.873C342.406 176.791 340.66 171.341 339.666 169.687C338.673 168.032 331.09 169.505 330.228 168.845C329.366 168.185 333.464 165.855 334.772 165.942C335.752 166.023 336.728 166.156 337.694 166.341C337.694 166.341 337.811 163.235 333.559 160.441C329.307 157.648 328.511 161.646 328.511 161.646Z" fill="#263238"/>
<path d="M326.524 185.645C325.29 181.515 323.77 175.71 323.873 171.762" stroke="#263238" stroke-width="0.730527" stroke-linecap="round" stroke-linejoin="round"/>
<path d="M328.124 190.514C328.124 190.514 327.715 189.397 327.152 187.662" stroke="#263238" stroke-width="0.730527" stroke-linecap="round" stroke-linejoin="round"/>
<path d="M325.553 170.775C325.553 170.775 332.529 170.645 337.796 173.315" stroke="#263238" stroke-width="0.730527" stroke-linecap="round" stroke-linejoin="round"/>
<path d="M325.772 176.436C325.772 176.436 325.86 175.137 331.616 179.542" stroke="#263238" stroke-width="0.730527" stroke-linecap="round" stroke-linejoin="round"/>
<path d="M321.856 170.217C321.856 170.217 321.462 167.183 317.407 165.906" stroke="#263238" stroke-width="0.730527" stroke-linecap="round" stroke-linejoin="round"/>
<path d="M322.959 174.709L319.548 174.375" stroke="#263238" stroke-width="0.730527" stroke-linecap="round" stroke-linejoin="round"/>
<path d="M323.551 179.266C323.551 179.266 317.349 181.349 315.354 183.925" stroke="#263238" stroke-width="0.730527" stroke-linecap="round" stroke-linejoin="round"/>
<path d="M287.126 194.302C287.126 194.302 306.748 207.183 306.42 257.074" stroke="#263238" stroke-width="1.46105" stroke-linecap="round" stroke-linejoin="round"/>
<path d="M311.322 190.899C311.322 190.899 310.694 196.545 306.208 196.457C301.723 196.37 299.634 188.78 294.9 190.188C290.166 191.595 289.092 199.622 289.092 199.622C289.092 199.622 293.709 196.443 295.886 198.417C298.063 200.391 297.296 203.083 296.076 202.546C294.856 202.009 288.215 199.955 287.565 205.013C287.354 206.453 287.439 207.92 287.816 209.326C288.193 210.732 288.853 212.047 289.757 213.192C289.757 213.192 295.309 204.651 298.677 206.566C302.044 208.482 295.535 209.375 292.701 212.466C289.867 215.558 287.945 218.896 290.093 220.275C291.904 221.602 293.573 223.109 295.075 224.774C295.075 224.774 294.849 220.057 297.961 216.653C301.073 213.25 303.257 215.202 300.423 218.315C297.588 221.428 298.436 226.69 298.436 226.69C298.436 226.69 305.938 227.815 311.512 226.073C317.086 224.331 317.283 222.256 315.698 220.267C314.113 218.279 308.32 215.289 310.299 213.127C312.279 210.964 315.866 223.809 318.73 221.305C321.593 218.801 322.631 215.804 321.33 213.497L320.03 211.189C320.03 211.189 314.237 208.206 312.652 206.211C311.066 204.215 313.499 205.289 316.246 206.639C318.993 207.989 324.844 212.147 325.377 210.942C325.911 209.738 324.42 203.293 323.434 201.269C322.448 199.244 313.558 200.253 312.622 199.411C311.687 198.569 316.648 196.269 318.145 196.508C319.26 196.693 320.365 196.935 321.455 197.234C321.455 197.234 321.878 193.664 317.239 190.035C312.601 186.407 311.322 190.899 311.322 190.899Z" fill="#0D6EFD"/>
<path opacity="0.3" d="M311.322 190.899C311.322 190.899 310.694 196.545 306.208 196.457C301.723 196.37 299.634 188.78 294.9 190.188C290.166 191.595 289.092 199.622 289.092 199.622C289.092 199.622 293.709 196.443 295.886 198.417C298.063 200.391 297.296 203.083 296.076 202.546C294.856 202.009 288.215 199.955 287.565 205.013C287.354 206.453 287.439 207.92 287.816 209.326C288.193 210.732 288.853 212.047 289.757 213.192C289.757 213.192 295.309 204.651 298.677 206.566C302.044 208.482 295.535 209.375 292.701 212.466C289.867 215.558 287.945 218.896 290.093 220.275C291.904 221.602 293.573 223.109 295.075 224.774C295.075 224.774 294.849 220.057 297.961 216.653C301.073 213.25 303.257 215.202 300.423 218.315C297.588 221.428 298.436 226.69 298.436 226.69C298.436 226.69 305.938 227.815 311.512 226.073C317.086 224.331 317.283 222.256 315.698 220.267C314.113 218.279 308.32 215.289 310.299 213.127C312.279 210.964 315.866 223.809 318.73 221.305C321.593 218.801 322.631 215.804 321.33 213.497L320.03 211.189C320.03 211.189 314.237 208.206 312.652 206.211C311.066 204.215 313.499 205.289 316.246 206.639C318.993 207.989 324.844 212.147 325.377 210.942C325.911 209.738 324.42 203.293 323.434 201.269C322.448 199.244 313.558 200.253 312.622 199.411C311.687 198.569 316.648 196.269 318.145 196.508C319.26 196.693 320.365 196.935 321.455 197.234C321.455 197.234 321.878 193.664 317.239 190.035C312.601 186.407 311.322 190.899 311.322 190.899Z" fill="#263238"/>
<path d="M306.749 218.402C305.697 213.555 304.521 206.697 305.003 202.132" stroke="#263238" stroke-width="0.730527" stroke-linecap="round" stroke-linejoin="round"/>
<path d="M308.137 224.172C308.137 224.172 307.772 222.843 307.282 220.79" stroke="#263238" stroke-width="0.730527" stroke-linecap="round" stroke-linejoin="round"/>
<path d="M307.027 201.153C307.027 201.153 315.063 201.661 320.907 205.231" stroke="#263238" stroke-width="0.730527" stroke-linecap="round" stroke-linejoin="round"/>
<path d="M306.756 207.64C306.756 207.64 306.983 206.153 313.207 211.777" stroke="#263238" stroke-width="0.730527" stroke-linecap="round" stroke-linejoin="round"/>
<path d="M302.826 200.166C302.826 200.166 302.658 196.624 298.107 194.767" stroke="#263238" stroke-width="0.730527" stroke-linecap="round" stroke-linejoin="round"/>
<path d="M303.673 205.449L299.772 204.745" stroke="#263238" stroke-width="0.730527" stroke-linecap="round" stroke-linejoin="round"/>
<path d="M303.929 210.761C303.929 210.761 296.572 212.59 294.023 215.369" stroke="#263238" stroke-width="0.730527" stroke-linecap="round" stroke-linejoin="round"/>
<path d="M294.776 233.613C294.776 233.613 307.414 243.192 308.744 257.401L306.084 209.818" stroke="#263238" stroke-width="1.46105" stroke-linecap="round" stroke-linejoin="round"/>
<path d="M325.37 226.675C308.743 223.7 308.743 257.401 308.743 257.401" stroke="#263238" stroke-width="1.46105" stroke-linecap="round" stroke-linejoin="round"/>
<path d="M310.737 257.074C310.737 257.074 301.094 187.365 329.001 187.365" stroke="#263238" stroke-width="1.46105" stroke-linecap="round" stroke-linejoin="round"/>
<path d="M319.036 224.672C316.765 222.132 311.936 222.132 309.101 228.62C306.267 235.108 308.816 233.983 308.816 233.983C308.816 233.983 314.208 232.285 317.619 231.16C321.031 230.035 325.567 227.212 325.852 228.903C326.137 230.594 323.58 232.285 320.454 232.851C317.327 233.417 309.101 235.674 309.949 237.394C310.796 239.114 312.79 244.164 312.79 244.164C315.216 242.117 317.776 240.234 320.454 238.526C324.15 236.269 326.422 237.111 324.435 239.651C322.448 242.191 316.765 245.006 317.904 248.395C319.044 251.784 325.852 256.008 325.852 256.008C325.852 256.008 326.707 248.961 328.694 246.704C330.681 244.447 330.681 246.987 330.111 250.935C329.826 252.616 329.636 254.312 329.541 256.015L337.49 258.838C338.789 256.872 340.212 254.989 341.749 253.199L343.21 251.748C343.21 251.748 336.964 246.392 336.679 243.04C336.394 239.687 340.938 243.04 342.355 243.606C343.772 244.172 346.044 248.119 346.044 248.119C346.044 248.119 347.469 241.632 347.754 239.375L348.038 237.118C348.038 237.118 342.07 234.861 339.798 234.861C337.526 234.861 336.394 236.552 336.394 234.302C336.394 232.053 338.666 230.63 341.223 230.913C343.536 231.298 345.815 231.863 348.038 232.604C348.038 232.604 349.741 231.196 349.171 226.966C348.601 222.735 347.184 222.735 343.779 223.86C340.375 224.984 338.096 227.532 335.539 227.532C332.982 227.532 334.407 224.426 336.109 223.584C337.811 222.742 342.07 221.044 342.925 220.761C343.779 220.478 338.381 216.53 335.539 215.964C332.697 215.398 329.023 217.415 329.293 220.195C329.826 226.08 321.308 227.234 319.036 224.672Z" fill="#0D6EFD"/>
<path d="M337.314 253.714C337.402 254.561 337.461 255.41 337.49 256.262" stroke="#263238" stroke-width="0.730527" stroke-linecap="round" stroke-linejoin="round"/>
<path d="M331.609 233.468C334.112 239.052 335.915 244.921 336.978 250.942" stroke="#263238" stroke-width="0.730527" stroke-linecap="round" stroke-linejoin="round"/>
<path d="M330.586 231.204C329.184 228.199 328.125 226.363 328.125 226.363C329.674 225.638 330.962 224.458 331.814 222.982C332.478 221.645 333.452 220.483 334.655 219.593" stroke="#263238" stroke-width="0.730527" stroke-linecap="round" stroke-linejoin="round"/>
<path d="M318.189 235.942C318.189 235.942 328.416 231.712 328.416 232.553" stroke="#263238" stroke-width="0.730527" stroke-linecap="round" stroke-linejoin="round"/>
<path d="M334.056 230.594C334.056 230.594 338.6 228.337 342.574 228.337" stroke="#263238" stroke-width="0.730527" stroke-linecap="round" stroke-linejoin="round"/>
<path d="M332.383 237.394C330.413 239.003 328.605 240.799 326.985 242.757C325.328 244.698 323.987 246.884 323.011 249.237" stroke="#263238" stroke-width="0.730527" stroke-linecap="round" stroke-linejoin="round"/>
<path d="M335.517 238.497C335.517 238.497 341.486 236.799 344.605 239.622" stroke="#263238" stroke-width="0.730527" stroke-linecap="round" stroke-linejoin="round"/>
<path d="M346.307 200.383C343.217 198.569 339.798 198.526 338.118 196.61C336.438 194.694 339.732 193.707 341.493 194.433C343.254 195.158 347.337 197.241 348.104 197.691C348.871 198.141 348.345 191.516 346.914 188.983C345.482 186.45 341.559 185.028 339.608 187.074C335.481 191.378 329.038 185.732 329.476 182.365C329.914 178.997 326.751 175.376 319.979 177.495C313.207 179.614 315.72 180.797 315.72 180.797C315.72 180.797 320.541 183.736 323.639 185.55C326.736 187.365 331.85 188.925 330.747 190.246C329.644 191.566 326.685 190.761 324.209 188.794C321.732 186.828 314.624 182.125 313.894 183.874C313.163 185.623 310.606 190.442 310.606 190.442C313.753 190.921 316.865 191.607 319.921 192.495C324.055 193.787 324.903 196.044 321.674 196.218C318.445 196.392 312.571 193.983 310.716 197.053C308.86 200.122 310.139 208.003 310.139 208.003C310.139 208.003 316.056 204.026 319.073 204.034C322.09 204.041 320.162 205.71 316.787 207.873C315.323 208.76 313.911 209.729 312.557 210.775L315.625 218.591C317.972 218.275 320.336 218.106 322.704 218.083L324.705 218.228C324.705 218.228 324.705 210.028 327.072 207.597C329.439 205.166 329.863 210.79 330.367 212.227C330.871 213.664 329.359 217.952 329.359 217.952C329.359 217.952 335.203 214.767 337.117 213.497L339.024 212.234C339.024 212.234 336.832 206.276 335.335 204.578C333.837 202.88 331.821 203.127 333.53 201.675C335.24 200.224 337.811 200.949 339.272 203.083C340.497 205.068 341.56 207.148 342.45 209.302C342.45 209.302 344.642 209.658 347.483 206.457C350.325 203.257 349.397 202.198 346.307 200.383ZM319.446 209.411C317.174 208.279 322.565 206.022 322.565 206.022C324.559 205.746 321.71 210.543 319.446 209.411ZM323.266 198.881C322.302 198.402 325.202 197.43 325.202 197.43C329.395 198.206 324.231 199.36 323.259 198.881H323.266Z" fill="#0D6EFD"/>
<path d="M319.373 215.159C318.788 215.775 318.175 216.378 317.554 216.958" stroke="#263238" stroke-width="0.730527" stroke-linecap="round" stroke-linejoin="round"/>
<path d="M331.024 197.604C328.415 203.138 325.13 208.332 321.243 213.069" stroke="#263238" stroke-width="0.730527" stroke-linecap="round" stroke-linejoin="round"/>
<path d="M332.076 195.355C333.442 192.328 334.136 190.333 334.136 190.333C335.706 191.017 337.449 191.21 339.133 190.884C340.582 190.504 342.102 190.471 343.567 190.79" stroke="#263238" stroke-width="0.730527" stroke-linecap="round" stroke-linejoin="round"/>
<path d="M329.607 194.614C330.25 194.056 320.337 189.164 320.337 189.164" stroke="#263238" stroke-width="0.730527" stroke-linecap="round" stroke-linejoin="round"/>
<path d="M334.83 197.575C334.83 197.575 339.527 199.505 342.135 202.488" stroke="#263238" stroke-width="0.730527" stroke-linecap="round" stroke-linejoin="round"/>
<path d="M328.57 200.739C326.056 200.316 323.506 200.136 320.958 200.202C318.393 200.234 315.85 200.662 313.418 201.472" stroke="#263238" stroke-width="0.730527" stroke-linecap="round" stroke-linejoin="round"/>
<path d="M329.76 203.823C329.76 203.823 334.954 207.183 334.874 211.378" stroke="#263238" stroke-width="0.730527" stroke-linecap="round" stroke-linejoin="round"/>
<path d="M302.183 239.462C299.699 238.01 296.945 237.974 295.609 236.428C294.272 234.883 296.902 234.106 298.319 234.687C299.736 235.267 303.023 236.951 303.644 237.314C304.265 237.677 303.834 232.336 302.68 230.325C301.526 228.315 298.37 227.147 296.799 228.787C293.475 232.256 288.289 227.706 288.647 224.999C289.005 222.292 286.455 219.375 280.983 221.08C275.512 222.785 277.557 223.736 277.557 223.736C277.557 223.736 281.436 226.102 283.927 227.56C286.418 229.019 290.539 230.282 289.647 231.341C288.756 232.401 286.382 231.762 284.388 230.173C282.393 228.584 276.673 224.803 276.089 226.211C275.504 227.619 273.444 231.494 273.444 231.494C275.976 231.882 278.48 232.434 280.94 233.148C284.263 234.186 284.943 236 282.342 236.138C279.741 236.276 275.037 234.338 273.576 236.813C272.115 239.288 273.108 245.63 273.108 245.63C273.108 245.63 277.871 242.423 280.297 242.43C282.722 242.437 281.173 243.78 278.463 245.521C277.285 246.236 276.148 247.016 275.059 247.858L277.521 254.142C279.41 253.891 281.313 253.757 283.219 253.743L284.833 253.852C284.833 253.852 284.833 247.256 286.74 245.296C288.647 243.337 288.983 247.865 289.384 249.026C289.786 250.187 288.574 253.635 288.574 253.635C288.574 253.635 293.293 251.066 294.82 250.05L296.354 249.026C296.354 249.026 294.586 244.237 293.388 242.865C292.19 241.494 290.553 241.704 291.927 240.514C293.3 239.324 295.367 239.948 296.544 241.639C297.53 243.238 298.387 244.912 299.108 246.646C299.108 246.646 300.868 246.929 303.155 244.36C305.441 241.791 304.674 240.928 302.183 239.462ZM280.56 246.719C278.733 245.812 283.073 243.997 283.073 243.997C284.673 243.78 282.386 247.64 280.56 246.726V246.719ZM283.65 238.257C282.868 237.865 285.206 237.096 285.206 237.096C288.574 237.742 284.417 238.642 283.65 238.257Z" fill="#0D6EFD"/>
<path d="M280.516 251.356C280.041 251.849 279.551 252.336 279.055 252.807" stroke="#263238" stroke-width="0.730527" stroke-linecap="round" stroke-linejoin="round"/>
<path d="M289.888 237.227C287.79 241.681 285.148 245.861 282.021 249.672" stroke="#263238" stroke-width="0.730527" stroke-linecap="round" stroke-linejoin="round"/>
<path d="M290.735 235.413C291.831 232.981 292.394 231.378 292.394 231.378C293.657 231.927 295.058 232.081 296.412 231.82C297.577 231.514 298.799 231.489 299.977 231.748" stroke="#263238" stroke-width="0.730527" stroke-linecap="round" stroke-linejoin="round"/>
<path d="M281.283 230.434C281.283 230.434 289.267 234.375 288.749 234.789" stroke="#263238" stroke-width="0.730527" stroke-linecap="round" stroke-linejoin="round"/>
<path d="M292.949 237.205C292.949 237.205 296.726 238.758 298.793 241.16" stroke="#263238" stroke-width="0.730527" stroke-linecap="round" stroke-linejoin="round"/>
<path d="M287.908 239.752C285.887 239.412 283.836 239.269 281.787 239.324C279.724 239.344 277.677 239.689 275.723 240.347" stroke="#263238" stroke-width="0.730527" stroke-linecap="round" stroke-linejoin="round"/>
<path d="M288.873 242.234C288.873 242.234 293.052 244.941 292.971 248.308" stroke="#263238" stroke-width="0.730527" stroke-linecap="round" stroke-linejoin="round"/>
<path d="M292.043 192.887C292.043 192.887 288.917 195.144 286.93 192.887C284.943 190.63 287.784 186.116 284.943 184.426C282.101 182.735 277.564 185.833 277.564 185.833C277.564 185.833 281.253 186.682 281.253 188.656C281.253 190.63 279.551 191.479 279.266 190.63C278.982 189.781 276.995 185.55 274.153 187.532C273.334 188.079 272.636 188.786 272.099 189.609C271.563 190.432 271.201 191.355 271.033 192.321C271.033 192.321 277.842 191.196 278.412 193.736C278.982 196.276 275.577 193.453 272.736 193.453C269.894 193.453 267.337 194.019 267.622 195.71C267.776 197.211 267.776 198.723 267.622 200.224C269.093 198.856 271.008 198.055 273.02 197.967C276.14 197.967 276.14 199.941 273.305 199.941C270.471 199.941 268.192 202.764 268.192 202.764C268.192 202.764 271.033 206.995 274.438 208.968C277.842 210.942 278.982 210.093 279.266 208.402C279.551 206.711 278.412 202.481 280.399 202.481C282.386 202.481 277.564 210.093 280.114 210.376C282.663 210.659 284.658 209.81 285.228 208.119L285.797 206.428C285.797 206.428 284.658 202.198 284.943 200.507C285.228 198.816 285.797 200.507 286.36 202.481C286.922 204.455 287.5 209.244 288.354 208.968C289.209 208.693 291.758 205.013 292.328 203.606C292.898 202.198 288.354 198.25 288.354 197.401C288.354 196.552 291.758 197.967 292.328 198.809C292.898 199.651 293.461 200.783 293.461 200.783C293.461 200.783 295.448 199.375 295.163 195.427C294.878 191.479 292.043 192.887 292.043 192.887Z" fill="#0D6EFD"/>
<path d="M276.133 203.119C278.098 200.398 281.013 196.697 283.526 194.861" stroke="#263238" stroke-width="0.730527" stroke-linecap="round" stroke-linejoin="round"/>
<path d="M273.868 206.428C273.868 206.428 274.372 205.645 275.183 204.469" stroke="#263238" stroke-width="0.730527" stroke-linecap="round" stroke-linejoin="round"/>
<path d="M284.943 195.427C284.943 195.427 288.354 199.658 289.202 204.172" stroke="#263238" stroke-width="0.730527" stroke-linecap="round" stroke-linejoin="round"/>
<path d="M281.539 198.25C281.539 198.25 282.386 197.684 282.386 203.33" stroke="#263238" stroke-width="0.730527" stroke-linecap="round" stroke-linejoin="round"/>
<path d="M283.526 192.887C283.526 192.887 285.228 191.196 284.096 188.09" stroke="#263238" stroke-width="0.730527" stroke-linecap="round" stroke-linejoin="round"/>
<path d="M281.254 195.71L279.836 193.453" stroke="#263238" stroke-width="0.730527" stroke-linecap="round" stroke-linejoin="round"/>
<path d="M278.697 198.25C278.697 198.25 274.438 195.427 271.881 195.427" stroke="#263238" stroke-width="0.730527" stroke-linecap="round" stroke-linejoin="round"/>
<path d="M320.717 256.08H298.765V287.466H320.717V256.08Z" fill="#263238" stroke="#263238" stroke-width="1.46105" stroke-linecap="round" stroke-linejoin="round"/>
</svg>
