<svg width="36" height="36" viewBox="0 0 43 43" fill="none" xmlns="http://www.w3.org/2000/svg">
<path d="M35.7308 13.5345C34.9501 14.6976 33.9623 15.7333 32.8151 16.5618C32.831 16.8008 32.831 17.0557 32.831 17.3106C32.831 25.0383 26.9516 33.945 16.2126 33.945C12.9144 33.945 9.83931 32.973 7.24219 31.316C7.70425 31.3638 8.16632 31.3956 8.64431 31.3956C11.3848 31.3956 13.9023 30.4556 15.8939 28.8941C14.6756 28.8689 13.4955 28.4638 12.5186 27.7354C11.5417 27.007 10.8166 25.9916 10.4448 24.8311C10.7953 24.8949 11.1618 24.9427 11.5442 24.9427C12.07 24.9427 12.5958 24.863 13.0738 24.7355C11.7523 24.4643 10.5647 23.7456 9.71139 22.7007C8.85807 21.6558 8.39115 20.3486 8.38938 18.9996V18.9358C9.18604 19.366 10.0783 19.6369 11.0343 19.6688C10.2341 19.132 9.57857 18.4064 9.12559 17.556C8.67261 16.7056 8.43617 15.7567 8.43718 14.7932C8.43718 13.7257 8.72398 12.7219 9.23384 11.8615C12.1178 15.3987 16.4197 17.7249 21.2794 17.9639C21.1838 17.5337 21.1201 17.0876 21.1201 16.6255C21.1243 15.0774 21.7422 13.5942 22.8384 12.501C23.9345 11.4078 25.4195 10.7939 26.9676 10.7939C28.6565 10.7939 30.1701 11.495 31.2377 12.6422C32.5601 12.3713 33.8189 11.8933 34.9501 11.2241C34.504 12.5785 33.5799 13.7257 32.3689 14.4427C33.5298 14.3158 34.664 14.0094 35.7308 13.5345Z" fill="#038EA0"/>
<circle cx="21.0898" cy="21.7441" r="20.3366" stroke="#038EA0" stroke-width="1.50642"/>
</svg>
